<svg width="195" height="66" viewBox="0 0 195 66" fill="none" xmlns="http://www.w3.org/2000/svg">
<path d="M7.92061 0H187.041C191.411 0 194.962 3.55106 194.962 7.92062V58.0794C194.962 62.4489 191.411 66 187.041 66H7.92061C3.55106 66 0 62.4489 0 58.0794V7.92062C0 3.55106 3.55106 0 7.92061 0Z" fill="black"/>
<path d="M32.1777 20.7132C31.9135 18.5862 32.968 16.3309 34.1431 14.9453C35.4774 13.3751 37.7994 12.1717 39.6468 12.0947C39.8854 14.3116 39.013 16.4899 37.7327 18.0884C36.401 19.6587 34.2612 20.8723 32.1777 20.7158V20.7132Z" fill="white"/>
<path d="M47.4363 39.5209C47.4106 39.6517 46.6717 42.2278 44.8371 44.8269C43.2925 47.1259 41.694 49.3684 39.1334 49.4069C36.6522 49.4582 35.8209 47.9418 32.9677 47.9418C30.1146 47.9418 29.2063 49.3684 26.8304 49.4582C24.3877 49.5506 22.5429 47.0053 20.9444 44.7346C17.7629 40.0879 15.2945 31.6413 18.607 25.8965C20.2055 23.0741 23.1485 21.2627 26.2762 21.2113C28.7034 21.1729 30.9741 22.8612 32.4674 22.8612C33.9607 22.8612 36.7292 20.8265 39.608 21.1318C40.8114 21.1729 44.2419 21.6193 46.4587 24.8419C46.2868 24.9471 42.3791 27.2461 42.4202 31.9697C42.4715 37.6196 47.3696 39.4952 47.4363 39.5209Z" fill="white"/>
<path d="M68.83 29.6348H64.9505L58.6797 49.1323H61.9152L63.6419 43.4028H69.9769L71.7986 49.1323H75.1239L68.8274 29.6348H68.83ZM64.1962 40.9987L65.8203 35.9184C66.2411 34.3071 66.5438 33.0806 66.744 32.2493H66.8081C67.2854 34.1762 67.6138 35.3899 67.7857 35.9184L69.4355 40.9987H64.1962Z" fill="white"/>
<path d="M89.5542 36.7496C88.4457 35.4436 87.073 34.7842 85.4104 34.7842C83.2987 34.7842 81.7131 35.6283 80.6714 37.3038H80.6175L80.4456 35.0715H77.7002C77.7797 36.6546 77.8182 38.1864 77.8182 39.6925V54.8333H80.9459V47.4541C81.7644 48.7883 83.096 49.4477 84.9588 49.4477C86.6753 49.4477 88.1276 48.8396 89.2899 47.6003C90.5984 46.2148 91.2424 44.3264 91.2424 41.9376C91.2424 39.7875 90.6882 38.0684 89.5542 36.7496ZM87.073 45.6324C86.4136 46.5304 85.5028 46.9922 84.3276 46.9922C83.3244 46.9922 82.5059 46.6356 81.885 45.9377C81.2641 45.2372 80.9485 44.3649 80.9485 43.3514V41.0011C80.9485 40.7497 80.9998 40.4341 81.0947 40.0518C81.2795 39.2179 81.7028 38.5585 82.3212 38.0453C82.9549 37.545 83.6554 37.2807 84.42 37.2807C85.5567 37.2807 86.4649 37.7425 87.1397 38.6662C87.7607 39.5514 88.0635 40.6727 88.0635 42.0454C88.0635 43.5361 87.7324 44.7241 87.073 45.6349V45.6324Z" fill="white"/>
<path d="M105.708 36.7496C104.6 35.4436 103.227 34.7842 101.565 34.7842C99.4529 34.7842 97.8698 35.6283 96.8255 37.3038H96.7742L96.6023 35.0715H93.8569C93.9365 36.6546 93.975 38.1864 93.975 39.6925V54.8333H97.1027V47.4541C97.9212 48.7883 99.2554 49.4477 101.116 49.4477C102.832 49.4477 104.284 48.8396 105.444 47.6003C106.753 46.2148 107.399 44.3264 107.399 41.9376C107.399 39.7875 106.845 38.0684 105.708 36.7496ZM103.23 45.6324C102.583 46.5304 101.657 46.9922 100.484 46.9922C99.4811 46.9922 98.6627 46.6356 98.0417 45.9377C97.4208 45.2372 97.1027 44.3649 97.1027 43.3514V41.0011C97.1027 40.7497 97.1565 40.4341 97.2489 40.0518C97.4465 39.2179 97.857 38.5585 98.4779 38.0453C99.1117 37.545 99.8096 37.2807 100.577 37.2807C101.711 37.2807 102.622 37.7425 103.294 38.6662C103.915 39.5514 104.218 40.6727 104.218 42.0454C104.218 43.5361 103.902 44.7241 103.23 45.6349V45.6324Z" fill="white"/>
<path d="M124.282 40.2749C125.088 41.1857 125.483 42.3198 125.483 43.6669C125.483 45.3295 124.903 46.6765 123.754 47.7183C122.486 48.8523 120.718 49.422 118.448 49.422C116.346 49.422 114.673 49.0114 113.406 48.2083L114.132 45.6066C115.505 46.4123 117.011 46.8202 118.645 46.8202C119.82 46.8202 120.744 46.556 121.391 46.03C122.05 45.5014 122.381 44.7881 122.381 43.9055C122.381 43.1127 122.104 42.4533 121.575 41.9119C121.034 41.3705 120.136 40.8676 118.881 40.4057C115.435 39.1254 113.734 37.2626 113.734 34.8226C113.734 33.2266 114.342 31.9181 115.543 30.8892C116.746 29.8731 118.342 29.3574 120.336 29.3574C122.104 29.3574 123.582 29.6628 124.757 30.2811L123.967 32.8161C122.858 32.2234 121.616 31.9181 120.218 31.9181C119.122 31.9181 118.25 32.1952 117.632 32.7237C117.116 33.2112 116.852 33.7937 116.852 34.4941C116.852 35.2588 117.157 35.9079 117.75 36.3954C118.265 36.8572 119.215 37.3576 120.587 37.899C122.265 38.5738 123.492 39.364 124.285 40.2749H124.282Z" fill="white"/>
<path d="M132.387 35.072H135.833V37.4223H132.387V44.2473C132.387 45.9766 132.995 46.8465 134.209 46.8465C134.763 46.8465 135.225 46.7951 135.595 46.7002L135.687 49.0761C135.066 49.2994 134.263 49.4199 133.26 49.4199C132.018 49.4199 131.069 49.0376 130.368 48.2833C129.67 47.5315 129.324 46.264 129.324 44.4962V37.4069H127.279V35.0694H129.324V32.496L132.387 31.5723V35.0694V35.072Z" fill="white"/>
<path d="M149.532 36.8553C148.28 35.4826 146.615 34.7949 144.557 34.7949C142.499 34.7949 140.716 35.4954 139.448 36.8809C138.194 38.2664 137.56 40.0497 137.56 42.2255C137.56 44.4013 138.168 46.0408 139.395 47.4007C140.624 48.7606 142.273 49.4456 144.331 49.4456C146.389 49.4456 148.185 48.7323 149.478 47.3057C150.705 45.9202 151.326 44.1524 151.326 41.9869C151.326 39.8213 150.73 38.1715 149.53 36.8527L149.532 36.8553ZM147.236 45.4096C146.551 46.5463 145.612 47.1133 144.424 47.1133C143.236 47.1133 142.258 46.5591 141.586 45.4353C141.032 44.5244 140.754 43.416 140.754 42.1228C140.754 40.8297 141.019 39.6699 141.586 38.7437C142.232 37.6224 143.197 37.0657 144.452 37.0657C145.706 37.0657 146.602 37.6199 147.264 38.7437C147.818 39.6674 148.095 40.763 148.095 42.0561C148.095 43.3493 147.805 44.4577 147.238 45.4071L147.236 45.4096Z" fill="white"/>
<path d="M161.479 34.8361L161.491 37.8176C161.189 37.7662 160.858 37.738 160.503 37.738C159.408 37.738 158.551 38.1486 157.956 38.9799C157.44 39.7034 157.176 40.6425 157.176 41.7509V49.1302H154.048V39.4956C154.048 37.8714 154.022 36.3935 153.956 35.0722H156.675L156.793 37.7662H156.886C157.214 36.8426 157.73 36.0882 158.443 35.534C159.144 35.0337 159.895 34.7822 160.701 34.7822C160.991 34.7822 161.255 34.8079 161.481 34.8335L161.479 34.8361Z" fill="white"/>
<path d="M175.457 41.4357C175.457 39.6807 175.036 38.2157 174.205 36.9995C173.173 35.4959 171.631 34.7441 169.609 34.7441C167.587 34.7441 165.914 35.4959 164.698 36.9995C163.536 38.4132 162.956 40.1811 162.956 42.2953C162.956 44.4095 163.577 46.1748 164.816 47.4551C166.058 48.7354 167.772 49.382 169.95 49.382C171.759 49.382 173.33 49.0921 174.664 48.5096L174.176 46.3467C173.04 46.7829 171.772 47.0061 170.387 47.0061C169.135 47.0061 168.116 46.6751 167.326 46.0285C166.453 45.3024 166.007 44.2325 165.966 42.8469H175.336C175.416 42.4646 175.454 41.9899 175.454 41.4332L175.457 41.4357ZM165.979 40.6172C166.071 39.6782 166.389 38.8622 166.902 38.1874C167.536 37.3433 168.367 36.9199 169.383 36.9199C170.492 36.9199 171.326 37.3561 171.865 38.2285C172.285 38.9007 172.498 39.7064 172.473 40.6301L165.976 40.6172H165.979Z" fill="white"/>
<path d="M65.487 13.1758C68.725 13.1758 70.6417 15.1668 70.6417 18.6024C70.6417 22.038 68.7327 24.065 65.487 24.065H61.646V13.1758H65.487ZM63.3369 22.6H65.3279C67.6371 22.6 68.9124 21.1888 68.9124 18.6153C68.9124 16.0418 67.6294 14.6306 65.3279 14.6306H63.3369V22.6Z" fill="white"/>
<path d="M71.6987 20.0954C71.6987 17.545 73.1997 15.9824 75.4653 15.9824C77.7309 15.9824 79.2319 17.545 79.2319 20.0954C79.2319 22.6458 77.7386 24.2161 75.4653 24.2161C73.192 24.2161 71.6987 22.6535 71.6987 20.0954ZM77.5693 20.0954C77.5693 18.3378 76.7379 17.3269 75.4627 17.3269C74.1875 17.3269 73.3562 18.3378 73.3562 20.0954C73.3562 21.853 74.1875 22.8716 75.4627 22.8716C76.7379 22.8716 77.5693 21.8607 77.5693 20.0954Z" fill="white"/>
<path d="M88.7587 24.0646H87.0601L85.3924 18.117H85.3539L83.7015 24.0646H82.0183L79.8374 16.126H81.4667L82.9164 22.3737H82.9471L84.5995 16.126H86.1698L87.8299 22.3737H87.8684L89.318 16.126H90.9319L88.7587 24.0646Z" fill="white"/>
<path d="M91.9302 16.1262H93.4851V17.4553H93.5235C93.9546 16.5496 94.7987 15.9902 96.02 15.9902C97.7699 15.9902 98.7732 17.1064 98.7732 18.9255V24.0648H97.1362V19.2437C97.1362 18.0506 96.5768 17.3937 95.4453 17.3937C94.3138 17.3937 93.5595 18.2096 93.5595 19.4387V24.0648H91.9302V16.1262Z" fill="white"/>
<path d="M100.402 13.1758H102.032V24.065H100.402V13.1758Z" fill="white"/>
<path d="M103.353 20.0954C103.353 17.545 104.854 15.9824 107.12 15.9824C109.385 15.9824 110.886 17.545 110.886 20.0954C110.886 22.6458 109.393 24.2161 107.12 24.2161C104.846 24.2161 103.353 22.6535 103.353 20.0954ZM109.224 20.0954C109.224 18.3378 108.392 17.3269 107.117 17.3269C105.842 17.3269 105.011 18.3378 105.011 20.0954C105.011 21.853 105.842 22.8716 107.117 22.8716C108.392 22.8716 109.224 21.8607 109.224 20.0954Z" fill="white"/>
<path d="M111.828 21.8064C111.828 20.4183 112.893 19.5665 114.778 19.4587L116.952 19.3304V18.7198C116.952 17.8371 116.356 17.3086 115.358 17.3086C114.414 17.3086 113.827 17.7602 113.683 18.4709H112.143C112.233 17.0366 113.457 15.9795 115.417 15.9795C117.378 15.9795 118.571 16.9981 118.571 18.5915V24.0618H117.008V22.7558H116.97C116.51 23.6384 115.505 24.1977 114.465 24.1977C112.911 24.1977 111.825 23.233 111.825 21.8064H111.828ZM116.952 21.0906V20.4645L114.997 20.5851C114.024 20.6518 113.472 21.0829 113.472 21.7628C113.472 22.4427 114.047 22.9097 114.922 22.9097C116.061 22.9097 116.952 22.1246 116.952 21.0906Z" fill="white"/>
<path d="M119.797 20.0957C119.797 17.5915 121.126 15.9982 123.117 15.9982C124.256 15.9982 125.162 16.5729 125.608 17.4478H125.639V13.1758H127.276V24.065H125.691V22.7154H125.66C125.193 23.6211 124.287 24.201 123.132 24.201C121.126 24.201 119.797 22.6025 119.797 20.0957ZM121.465 20.0957C121.465 21.7712 122.273 22.8206 123.563 22.8206C124.854 22.8206 125.655 21.7558 125.655 20.0957C125.655 18.4357 124.818 17.3709 123.563 17.3709C122.309 17.3709 121.465 18.428 121.465 20.0957Z" fill="white"/>
<path d="M131.718 20.0954C131.718 17.545 133.219 15.9824 135.484 15.9824C137.75 15.9824 139.251 17.545 139.251 20.0954C139.251 22.6458 137.758 24.2161 135.484 24.2161C133.211 24.2161 131.718 22.6535 131.718 20.0954ZM137.588 20.0954C137.588 18.3378 136.757 17.3269 135.482 17.3269C134.207 17.3269 133.375 18.3378 133.375 20.0954C133.375 21.853 134.207 22.8716 135.482 22.8716C136.757 22.8716 137.588 21.8607 137.588 20.0954Z" fill="white"/>
<path d="M140.511 16.1262H142.066V17.4553H142.104C142.535 16.5496 143.379 15.9902 144.601 15.9902C146.351 15.9902 147.354 17.1064 147.354 18.9255V24.0648H145.717V19.2437C145.717 18.0506 145.157 17.3937 144.026 17.3937C142.894 17.3937 142.14 18.2096 142.14 19.4387V24.0648H140.511V16.1262Z" fill="white"/>
<path d="M154.169 14.2451V16.1233H155.677V17.4139H154.169V21.7911C154.169 22.4788 154.471 22.7867 155.133 22.7867C155.3 22.7867 155.564 22.7713 155.67 22.7482V24.0388C155.487 24.0849 155.126 24.1132 154.764 24.1132C153.158 24.1132 152.529 23.5025 152.529 21.9707V17.4139H151.375V16.1233H152.529V14.2451H154.166H154.169Z" fill="white"/>
<path d="M157.073 13.1758H158.687V17.4555H158.726C159.164 16.5267 160.032 15.9905 161.238 15.9905C162.98 15.9905 164.021 17.1528 164.021 18.9488V24.065H162.384V19.267C162.384 18.097 161.797 17.3965 160.65 17.3965C159.441 17.3965 158.703 18.2278 158.703 19.4799V24.0676H157.073V13.1783V13.1758Z" fill="white"/>
<path d="M172.398 21.7324C172.173 23.182 170.8 24.2161 168.981 24.2161C166.649 24.2161 165.237 22.6381 165.237 20.1339C165.237 17.6297 166.672 15.9824 168.912 15.9824C171.151 15.9824 172.488 17.5373 172.488 19.944V20.5034H166.882V20.6009C166.882 21.9813 167.713 22.8947 169.017 22.8947C169.946 22.8947 170.631 22.4277 170.851 21.7324H172.398ZM166.89 19.3616H170.859C170.82 18.1454 170.051 17.2935 168.912 17.2935C167.772 17.2935 166.972 18.1608 166.89 19.3616Z" fill="white"/>
</svg>
