<svg width="25" height="26" viewBox="0 0 25 26" fill="none" xmlns="http://www.w3.org/2000/svg">
<path d="M12.5 0.404297C5.6075 0.404297 0 6.0118 0 12.9043C0 19.7968 5.6075 25.4043 12.5 25.4043C19.3925 25.4043 25 19.7968 25 12.9043C25 6.0118 19.3925 0.404297 12.5 0.404297ZM12.5 23.1316C6.86061 23.1316 2.27273 18.5436 2.27273 12.9043C2.27273 7.26498 6.86061 2.67702 12.5 2.67702C18.1394 2.67702 22.7273 7.26498 22.7273 12.9043C22.7273 18.5436 18.1393 23.1316 12.5 23.1316Z" fill="#1F1F1F"/>
<path d="M17.2154 8.22527L10.7487 14.4251L7.78495 11.5835C7.33859 11.1555 6.61475 11.1555 6.16832 11.5834C5.72189 12.0114 5.72189 12.7053 6.16832 13.1333L9.94037 16.7499C10.1547 16.9554 10.4455 17.071 10.7486 17.071H10.7487C11.0519 17.071 11.3426 16.9554 11.557 16.75L18.832 9.77527C19.2784 9.34726 19.2784 8.65336 18.832 8.22534C18.3856 7.79733 17.6618 7.79726 17.2154 8.22527Z" fill="#1F1F1F"/>
</svg>
