<svg width="100" height="100" viewBox="0 0 100 100" fill="none" xmlns="http://www.w3.org/2000/svg">
<path fill-rule="evenodd" clip-rule="evenodd" d="M23.8879 8.51249C28.9588 3.47083 37.3088 4.36666 41.5546 10.0417L46.8129 17.0583C50.2713 21.675 49.9629 28.125 45.8588 32.2042L44.8671 33.1958C44.7551 33.6122 44.7437 34.0492 44.8338 34.4708C45.0963 36.1708 46.5171 39.7708 52.4671 45.6875C58.4171 51.6042 62.0421 53.0208 63.7671 53.2875C64.2013 53.3798 64.6514 53.367 65.0796 53.25L66.7796 51.5583C70.4296 47.9333 76.0296 47.2542 80.5463 49.7083L88.5046 54.0417C95.3254 57.7417 97.0463 67.0083 91.4629 72.5625L85.5421 78.4458C83.6754 80.3 81.1671 81.8458 78.1088 82.1333C70.5671 82.8375 52.9963 81.9375 34.5254 63.575C17.2879 46.4333 13.9796 31.4833 13.5588 24.1167C13.3504 20.3917 15.1088 17.2417 17.3504 15.0167L23.8879 8.51249ZM36.5546 13.7875C34.4421 10.9667 30.5088 10.7417 28.2921 12.9458L21.7504 19.4458C20.3754 20.8125 19.7171 22.3208 19.8004 23.7625C20.1338 29.6167 22.8004 43.1042 38.9338 59.1458C55.8588 75.9708 71.4879 76.475 77.5296 75.9083C78.7629 75.7958 79.9879 75.1542 81.1338 74.0167L87.0504 68.1292C89.4588 65.7375 88.9296 61.3792 85.5213 59.5292L77.5629 55.2C75.3629 54.0083 72.7879 54.4 71.1879 55.9917L69.2921 57.8792L67.0838 55.6625C69.2921 57.8792 69.2879 57.8833 69.2838 57.8833L69.2796 57.8917L69.2671 57.9042L69.2379 57.9292L69.1754 57.9875C68.9983 58.1492 68.8088 58.2969 68.6088 58.4292C68.2754 58.65 67.8338 58.8958 67.2796 59.1C66.1546 59.5208 64.6629 59.7458 62.8213 59.4625C59.2088 58.9083 54.4213 56.4458 48.0588 50.1208C41.7004 43.7958 39.2171 39.0375 38.6588 35.4292C38.3713 33.5875 38.6004 32.0958 39.0254 30.9708C39.2611 30.3386 39.5959 29.7479 40.0171 29.2208L40.1504 29.075L40.2088 29.0125L40.2338 28.9875L40.2463 28.975L40.2546 28.9667L41.4546 27.775C43.2379 25.9958 43.4879 23.05 41.8088 20.8042L36.5546 13.7875Z" fill="#1D264D"/>
</svg>
