<svg width="96" height="96" viewBox="0 0 96 96" fill="none" xmlns="http://www.w3.org/2000/svg">
<path d="M48 23C45.3478 23 42.8043 21.9464 40.9289 20.0711C39.0536 18.1957 38 15.6522 38 13C38 10.3478 39.0536 7.8043 40.9289 5.92893C42.8043 4.05357 45.3478 3 48 3C50.6522 3 53.1957 4.05357 55.0711 5.92893C56.9464 7.8043 58 10.3478 58 13C58 15.6522 56.9464 18.1957 55.0711 20.0711C53.1957 21.9464 50.6522 23 48 23ZM48 23V43M48 43C51.9782 43 55.7936 44.5804 58.6066 47.3934C61.4196 50.2064 63 54.0218 63 58C63 61.9782 61.4196 65.7936 58.6066 68.6066C55.7936 71.4196 51.9782 73 48 73C44.0218 73 40.2064 71.4196 37.3934 68.6066C34.5804 65.7936 33 61.9782 33 58C33 54.0218 34.5804 50.2064 37.3934 47.3934C40.2064 44.5804 44.0218 43 48 43ZM21.5 77L35.5 67M74.5 77L60.5 67M3 83C3 85.6522 4.05357 88.1957 5.92893 90.0711C7.8043 91.9464 10.3478 93 13 93C15.6522 93 18.1957 91.9464 20.0711 90.0711C21.9464 88.1957 23 85.6522 23 83C23 80.3478 21.9464 77.8043 20.0711 75.9289C18.1957 74.0536 15.6522 73 13 73C10.3478 73 7.8043 74.0536 5.92893 75.9289C4.05357 77.8043 3 80.3478 3 83ZM73 83C73 85.6522 74.0536 88.1957 75.9289 90.0711C77.8043 91.9464 80.3478 93 83 93C85.6522 93 88.1957 91.9464 90.0711 90.0711C91.9464 88.1957 93 85.6522 93 83C93 80.3478 91.9464 77.8043 90.0711 75.9289C88.1957 74.0536 85.6522 73 83 73C80.3478 73 77.8043 74.0536 75.9289 75.9289C74.0536 77.8043 73 80.3478 73 83Z" stroke="#1D264D" stroke-width="6" stroke-linecap="round" stroke-linejoin="round"/>
</svg>
