<svg width="236" height="236" viewBox="0 0 236 236" fill="none" xmlns="http://www.w3.org/2000/svg">
<g filter="url(#filter0_b_2009_5149)">
<rect width="236" height="236" rx="37" fill="#1D264D"/>
</g>
<g clip-path="url(#clip0_2009_5149)">
<path d="M203.25 80.4564H193.752C194.893 77.5508 195.725 74.2949 195.454 71.1661C199.641 69.3218 202.363 66.7082 203.532 63.363C205.141 58.7608 203.357 54.1552 201.724 51.2668C202.707 48.3097 203.247 45.1947 203.247 41.9903C203.247 35.9285 198.314 31 192.247 31C186.179 31 180.401 34.0326 176.881 38.6932C172.673 39.1843 169.494 40.8878 167.545 43.9102C163.88 49.5874 165.771 57.7545 166.981 61.5805C165.998 62.4357 165.138 63.418 164.389 64.4861C161.594 60.8078 157.215 58.4758 152.372 58.4758C152.275 58.4758 152.186 58.4929 152.09 58.4929C149.539 53.482 144.379 50.233 138.622 50.233C134.686 50.233 131.114 51.7476 128.423 54.2102C126.312 51.9091 124.28 49.8793 122.692 48.2926C118.832 44.4356 114.16 45.4351 109.929 46.5959C108.568 45.1741 107.282 43.8896 106.192 42.7974C102.081 38.6898 97.045 40.0876 92.5969 41.324C89.2591 42.2513 86.1034 43.1237 83.1197 42.1346C78.675 40.6509 74.4606 41.1214 71.2466 43.4328C67.7506 45.9468 65.7466 50.4288 65.7466 55.7282C65.7466 61.5702 69.0741 64.2835 71.5044 66.2686C73.3125 67.7454 73.9966 68.4014 73.9966 69.4661C73.9966 75.5348 86.3681 81.9195 93.2466 84.9967V121.907L91.1703 123.981C88.7641 126.382 85.0584 127.066 81.9509 125.668L33.8775 104.051C33.0319 103.673 32.0419 103.742 31.2581 104.25C30.4744 104.759 30 105.628 30 106.558V173.874C30 175.038 30.7356 176.079 31.8356 176.464L78.6337 192.963L116.054 205.426C117.202 205.811 118.382 205.997 119.55 205.997C121.685 205.997 123.796 205.368 125.635 204.145L129.409 201.628L132.396 202.624C133.252 202.909 134.125 203.043 134.992 203.043C137.693 203.043 140.309 201.714 141.87 199.375L143.403 197.081C144.08 197.256 144.761 197.366 145.442 197.366C148.497 197.366 151.426 195.655 152.846 192.812L154.754 189.003L161.388 191.211C165.671 192.63 170.418 190.665 172.436 186.636C173.144 185.228 173.416 183.662 173.34 182.11H203.25C204.769 182.11 206 180.88 206 179.362V83.2039C206 81.6859 204.769 80.4564 203.25 80.4564ZM200.5 170.295L195 162.053V94.1943C195 92.6762 193.769 91.4467 192.25 91.4467C190.731 91.4467 189.5 92.6762 189.5 94.1943V162.235L186.75 167.73V85.9515H200.5V170.295ZM192.59 168.344L198.111 176.622H188.452L192.59 168.344ZM164.912 80.4564C165.042 79.0379 165.29 77.3928 165.675 75.6515L171.429 77.568C171.718 77.6641 172.013 77.7122 172.299 77.7122C173.45 77.7122 174.523 76.9841 174.904 75.8336C175.386 74.3945 174.609 72.8353 173.165 72.3579L167.356 70.4243C168.191 68.5491 169.25 66.8456 170.656 65.6572C172.618 63.9984 175.028 63.4351 178.039 63.9331C184.23 64.9635 188.053 66.825 189.393 69.4558C190.617 71.8565 190.081 75.3871 187.75 80.4564H164.905H164.912ZM198.341 61.5462C197.729 63.2978 196.138 64.7574 193.666 65.9286C193.378 65.4889 193.051 65.0699 192.697 64.6647L194.67 62.6933C196.121 61.2439 197.393 59.6607 198.493 57.9846C198.719 59.1592 198.747 60.3922 198.341 61.5496V61.5462ZM192.25 36.4952C195.282 36.4952 197.75 38.9611 197.75 41.9903C197.75 48.3441 195.275 54.3166 190.779 58.8089L188.249 61.3367C187.29 60.849 186.234 60.4094 185.076 60.0178C186.836 53.8564 189.153 48.9691 191.446 46.6818C192.522 45.6068 192.522 43.8724 191.446 42.7974C190.37 41.7224 188.634 41.7224 187.558 42.7974C183.708 46.6406 181.178 53.6194 179.748 58.6715C179.48 58.6234 179.232 58.5616 178.954 58.5135C178.799 58.4895 178.655 58.4792 178.503 58.4586V50.233C178.503 42.6566 184.67 36.4952 192.253 36.4952H192.25ZM172.175 46.8879C172.55 46.304 173.058 45.8438 173.629 45.4385C173.234 46.9772 173 48.5776 173 50.2365V58.5822C172.636 58.6578 172.275 58.754 171.921 58.857C170.948 55.3195 170.15 50.0235 172.175 46.8879ZM161.436 70.4346C161.347 70.6887 161.251 70.9429 161.168 71.197C161.161 71.2142 161.148 71.228 161.141 71.2451C161.134 71.2692 161.141 71.2932 161.134 71.3207C160.041 74.7792 159.577 78.1828 159.387 80.4564H153.561C152.856 74.8616 150.055 69.9194 145.954 66.4437C147.697 64.8742 149.962 63.9709 152.378 63.9709C156.497 63.9709 160.102 66.6017 161.436 70.4346ZM131.75 66.7185C139.911 66.7185 146.686 72.6739 148.003 80.4564H115.497C116.814 72.6739 123.589 66.7185 131.75 66.7185ZM138.625 55.7282C141.774 55.7282 144.641 57.26 146.418 59.7122C144.458 60.5502 142.695 61.8038 141.234 63.4008C138.357 62.0201 135.15 61.2233 131.75 61.2233C131.118 61.2233 130.495 61.2646 129.88 61.3161C131.403 58.0052 134.751 55.7282 138.625 55.7282ZM118.804 52.1769C120.53 53.901 122.785 56.1712 125.057 58.699C124.445 59.9526 124.036 61.3126 123.789 62.7345C123.242 62.9474 122.709 63.1844 122.183 63.442C120.499 59.276 117.405 55.0241 114.164 51.2428C116.329 50.8512 117.656 51.0333 118.804 52.1769ZM79.5 69.4661C79.5 65.695 76.9975 63.6515 74.9866 62.0133C72.9 60.3098 71.25 58.9635 71.25 55.7282C71.25 52.2182 72.4222 49.3607 74.4606 47.8907C76.2344 46.62 78.62 46.4276 81.3803 47.3446C85.9659 48.8764 90.2697 47.6709 94.0716 46.6165C98.6159 45.3492 100.634 45.0126 102.304 46.6784C106.615 50.9852 115.236 59.6126 117.464 66.5193C115.226 68.4357 113.383 70.7952 112.057 73.4604C109.743 71.2692 105.972 67.8244 101.679 64.3556L98.6641 52.3178C98.2962 50.8444 96.8009 49.9445 95.3297 50.3189C93.855 50.6864 92.9578 52.1804 93.3291 53.6503L94.6972 59.1146C90.5584 56.2708 86.3991 53.9388 82.91 53.0665C81.4353 52.6921 79.9469 53.5885 79.5756 55.0653C79.2044 56.5353 80.1016 58.0258 81.5762 58.3968C86.2856 59.5714 93.1778 64.4758 99.245 69.4695H93.2431C91.7237 69.4695 90.4931 70.699 90.4931 72.2171C90.4931 73.7351 91.7237 74.9647 93.2431 74.9647H105.587C107.409 76.6201 108.963 78.09 110.118 79.2337C110.042 79.639 109.984 80.0477 109.932 80.4598H96.5672C87.8909 76.675 79.8197 71.4855 79.4931 69.4695L79.5 69.4661ZM79.6994 130.679C84.1475 132.674 89.3312 132.111 93.25 129.363V135.408C93.25 136.926 94.4806 138.155 96 138.155C97.5194 138.155 98.75 136.926 98.75 135.408V85.9515H181.25V176.622H171.147C170.247 175.584 169.147 174.733 167.864 174.183L118.749 153.147C118.292 152.955 118 152.512 118 152.017C118 151.488 118.34 151.014 118.846 150.842L127.378 148.002C131.674 146.57 134.177 142.016 133.077 137.63C131.925 133.011 127.388 130.201 122.73 131.238L103.652 135.473C103.14 135.59 102.676 135.844 102.304 136.215L91.1738 147.336C88.7675 149.737 85.0619 150.417 81.9544 149.022L35.5 128.134V110.807L79.6994 130.679ZM167.514 184.188C166.713 185.792 164.826 186.568 163.121 186.008L135.366 176.766C133.916 176.278 132.369 177.061 131.887 178.504C131.406 179.946 132.183 181.502 133.627 181.979L149.474 187.262L147.917 190.373C147.308 191.586 145.885 192.173 144.589 191.75L132.616 187.763C131.166 187.282 129.619 188.058 129.137 189.501C128.656 190.943 129.433 192.499 130.877 192.976L137.965 195.336L137.291 196.346C136.6 197.373 135.301 197.812 134.136 197.431L121.62 193.262C120.169 192.774 118.619 193.557 118.141 194.999C117.66 196.438 118.437 197.998 119.88 198.475L122.799 199.447L122.586 199.591C121.159 200.543 119.409 200.773 117.794 200.234L80.4144 187.784L35.5 171.937V134.168L79.6994 154.04C84.8694 156.362 91.05 155.242 95.065 151.227L105.632 140.67L123.926 136.607C125.621 136.242 127.316 137.259 127.745 138.966C128.151 140.584 127.23 142.267 125.638 142.795L117.106 145.636C114.353 146.556 112.503 149.118 112.503 152.02C112.503 154.716 114.105 157.145 116.584 158.202L165.699 179.235C166.627 179.634 167.332 180.372 167.679 181.32C168.026 182.268 167.971 183.288 167.517 184.191L167.514 184.188Z" fill="white"/>
</g>
<defs>
<filter id="filter0_b_2009_5149" x="-10" y="-10" width="256" height="256" filterUnits="userSpaceOnUse" color-interpolation-filters="sRGB">
<feFlood flood-opacity="0" result="BackgroundImageFix"/>
<feGaussianBlur in="BackgroundImageFix" stdDeviation="5"/>
<feComposite in2="SourceAlpha" operator="in" result="effect1_backgroundBlur_2009_5149"/>
<feBlend mode="normal" in="SourceGraphic" in2="effect1_backgroundBlur_2009_5149" result="shape"/>
</filter>
<clipPath id="clip0_2009_5149">
<rect width="176" height="175" fill="white" transform="translate(30 31)"/>
</clipPath>
</defs>
</svg>
