<svg width="25" height="14" viewBox="0 0 25 14" fill="none" xmlns="http://www.w3.org/2000/svg">
<path d="M24.4978 2.72767L12.4958 14L0.493654 2.72767C0.177472 2.42894 0 2.02484 0 1.60362C0 1.18241 0.177472 0.778309 0.493654 0.479581C0.811722 0.182624 1.24198 0.0159443 1.69047 0.0159443C2.13895 0.0159443 2.56921 0.182624 2.88728 0.479581L12.4958 9.48788L22.1042 0.463636C22.4223 0.16668 22.8525 0 23.301 0C23.7495 0 24.1798 0.16668 24.4978 0.463636C24.657 0.611855 24.7833 0.788198 24.8694 0.982489C24.9556 1.17678 25 1.38517 25 1.59565C25 1.80613 24.9556 2.01453 24.8694 2.20882C24.7833 2.40311 24.657 2.57945 24.4978 2.72767Z" fill="white"/>
</svg>
