<svg width="40" height="32" viewBox="0 0 40 32" fill="none" xmlns="http://www.w3.org/2000/svg">
<path d="M13 9V5.5C13 4.57174 13.3658 3.6815 14.017 3.02513C14.6682 2.36875 15.5513 2 16.4722 2H34.5278C35.4487 2 36.3318 2.36875 36.983 3.02513C37.6342 3.6815 38 4.57174 38 5.5V26.5C38 27.4283 37.6342 28.3185 36.983 28.9749C36.3318 29.6313 35.4487 30 34.5278 30H16.4722C15.5513 30 14.6682 29.6313 14.017 28.9749C13.3658 28.3185 13 27.4283 13 26.5V23" stroke="#1F1F1F" stroke-width="2.5" stroke-linecap="round" stroke-linejoin="round"/>
<path d="M21.1579 23L28 16L21.1579 9M2 16H26.6316" stroke="#1F1F1F" stroke-width="2.5" stroke-linecap="round" stroke-linejoin="round"/>
</svg>
