<svg width="32" height="32" viewBox="0 0 32 32" fill="none" xmlns="http://www.w3.org/2000/svg">
<path fill-rule="evenodd" clip-rule="evenodd" d="M28.7783 16.5502C26.1961 21.1872 21.2991 24.0678 16.0009 24.0678C10.6993 24.0678 5.80238 21.1872 3.22012 16.5502C3.02125 16.1901 3.02125 15.8095 3.22012 15.4497C5.80238 10.8127 10.6993 7.93247 16.0009 7.93247C21.2991 7.93247 26.1961 10.8127 28.7783 15.4497C28.9807 15.8095 28.9807 16.1901 28.7783 16.5502ZM30.4278 14.5303C27.5129 9.29491 21.985 6.04297 16.0009 6.04297C10.0134 6.04297 4.4855 9.29491 1.57063 14.5303C1.04937 15.4645 1.04937 16.5354 1.57063 17.4688C4.4855 22.7043 10.0134 25.9569 16.0009 25.9569C21.985 25.9569 27.5129 22.7043 30.4278 17.4688C30.9491 16.5355 30.9491 15.4645 30.4278 14.5303ZM16.0009 19.8758C18.1374 19.8758 19.876 18.1372 19.876 15.9998C19.876 13.8623 18.1374 12.1237 16.0009 12.1237C13.8611 12.1237 12.1224 13.8623 12.1224 15.9998C12.1224 18.1372 13.8611 19.8758 16.0009 19.8758ZM16.0009 10.2342C12.8186 10.2342 10.2329 12.8209 10.2329 15.9998C10.2329 19.1795 12.8186 21.7651 16.0009 21.7651C19.1799 21.7651 21.7655 19.1794 21.7655 15.9998C21.7655 12.8209 19.1799 10.2342 16.0009 10.2342Z" fill="#1E2852"/>
</svg>
