<svg width="32" height="24" viewBox="0 0 32 24" fill="none" xmlns="http://www.w3.org/2000/svg">
<path d="M19.9727 12.2695L21.7903 10.452C21.9225 10.9468 22 11.464 22 12C22 15.3085 19.3085 18 16 18C15.464 18 14.9467 17.9225 14.452 17.7903L16.2695 15.9728C18.2568 15.8373 19.8372 14.2568 19.9727 12.2695ZM31.874 11.5143C31.751 11.293 30.0065 8.23625 26.5965 5.64575L25.1413 7.101C27.6278 8.92925 29.2032 11.0615 29.8235 12.0015C28.6383 13.8062 23.9888 20 16 20C14.802 20 13.688 19.8468 12.6397 19.6023L10.9965 21.2455C12.5072 21.7088 14.1678 22 16 22C26.4683 22 31.6583 12.874 31.874 12.4858C32.042 12.1835 32.042 11.8165 31.874 11.5143ZM27.707 1.707L5.707 23.707C5.51175 23.9023 5.25575 24 5 24C4.74425 24 4.48825 23.9023 4.293 23.707C3.90225 23.3163 3.90225 22.6835 4.293 22.293L7.092 19.494C2.567 16.7623 0.26775 12.741 0.126 12.4858C-0.042 12.1835 -0.042 11.8163 0.126 11.514C0.34175 11.126 5.53175 2 16 2C18.7067 2 21.0513 2.6175 23.0555 3.5305L26.293 0.293001C26.6838 -0.0977485 27.3165 -0.0977485 27.707 0.293001C28.0975 0.683751 28.0978 1.3165 27.707 1.707ZM8.58325 18.0028L11.115 15.471C10.4157 14.49 10 13.2938 10 12C10 8.6915 12.6915 6 16 6C17.2938 6 18.49 6.41575 19.471 7.11475L21.5182 5.0675C19.9007 4.41975 18.0627 4 16 4C8.01125 4 3.36175 10.1938 2.17675 11.9985C2.92925 13.139 5.09225 16.026 8.58325 18.0028ZM12.5667 14.019L18.019 8.56675C17.4242 8.2155 16.7395 8 16 8C13.7945 8 12 9.7945 12 12C12 12.7395 12.2155 13.4242 12.5667 14.019Z" fill="#1E2852"/>
</svg>
