<svg width="195" height="66" viewBox="0 0 195 66" fill="none" xmlns="http://www.w3.org/2000/svg">
<path d="M7.92062 0H187.041C191.411 0 194.962 3.55106 194.962 7.92062V58.0794C194.962 62.4489 191.411 66 187.041 66H7.92062C3.55106 66 0 62.4489 0 58.0794V7.92062C0 3.55106 3.55106 0 7.92062 0Z" fill="black"/>
<path d="M176.814 37.3252L173.907 44.7275H173.82L170.787 37.3252H168.045L172.589 47.6756L169.992 53.4307H172.658L179.665 37.3252H176.817H176.814ZM156.27 31.1826H153.73V48.258H156.27V31.1826ZM146.715 31.1826H140.611V48.258H143.169V41.7948H146.725C149.714 41.8974 152.221 39.5574 152.324 36.5657C152.324 36.5426 152.324 36.5169 152.324 36.4938C152.262 33.497 149.781 31.1185 146.784 31.1826C146.761 31.1826 146.736 31.1826 146.713 31.1826H146.715ZM146.784 39.4086H143.169V33.5945H146.795C148.401 33.5945 149.702 34.8953 149.702 36.5015C149.702 38.1077 148.401 39.4086 146.795 39.4086H146.784ZM162.531 36.9582C160.629 36.8505 158.846 37.8768 157.987 39.5754L160.255 40.5452C160.714 39.7062 161.627 39.2187 162.579 39.306C163.921 39.1725 165.117 40.1501 165.253 41.492C165.253 41.4971 165.253 41.4997 165.253 41.5048V41.6793C164.44 41.2406 163.531 41.0096 162.608 41.0096C160.175 41.0096 157.694 42.3464 157.694 44.8866C157.694 47.1727 159.68 48.6455 161.928 48.6455C163.231 48.7276 164.476 48.0887 165.163 46.9777H165.261V48.2965H167.742V41.7255C167.742 38.6927 165.474 37.007 162.549 37.007L162.528 36.9582H162.531ZM162.23 46.3183C161.397 46.3183 160.234 45.8924 160.234 44.8635C160.234 43.5447 161.679 43.0418 162.939 43.0418C163.752 43.0212 164.555 43.2188 165.263 43.6139C165.071 45.1457 163.775 46.3003 162.23 46.3183ZM70.3467 48.6249C65.328 48.6403 61.2304 44.6197 61.1509 39.6036C61.2304 34.5875 65.328 30.5643 70.3467 30.5822C72.6687 30.5438 74.9061 31.4418 76.5585 33.0736L74.8035 34.8081C73.613 33.6432 72.0119 32.9941 70.3467 33.0069C66.7238 33.0069 63.786 35.9448 63.786 39.5677C63.786 43.1906 66.7238 46.1284 70.3467 46.1284C72.0581 46.1977 73.7207 45.5408 74.9215 44.317C75.7092 43.4677 76.1864 42.3721 76.2686 41.2149H70.3467V38.821H78.6804C78.7702 39.329 78.8138 39.8448 78.8061 40.3631C78.8908 42.5081 78.1185 44.5992 76.6637 46.1772C75.0011 47.8552 72.7047 48.7481 70.3467 48.6301V48.6249ZM91.6941 42.8108C91.825 45.9873 89.3541 48.6685 86.1802 48.7994C83.0038 48.9303 80.3225 46.4594 80.1917 43.2855C80.184 43.129 80.184 42.9699 80.1917 42.8134C80.0608 39.6369 82.5317 36.9557 85.7056 36.8248C88.882 36.694 91.5633 39.1648 91.6941 42.3387C91.7018 42.4952 91.7018 42.6543 91.6941 42.8108ZM89.1745 42.8108C89.3439 41.025 88.0353 39.4419 86.2495 39.2726C84.4637 39.1033 82.8806 40.4118 82.7113 42.1976C82.6907 42.4029 82.6907 42.6081 82.7113 42.8108C82.5419 44.5966 83.8505 46.1797 85.6363 46.3491C87.4221 46.5184 89.0052 45.2099 89.1745 43.4241C89.195 43.2188 89.195 43.0135 89.1745 42.8108ZM104.582 42.8108C104.582 45.9847 102.009 48.5582 98.8347 48.5582C95.6609 48.5582 93.0874 45.9847 93.0874 42.8108C93.0874 39.6369 95.6609 37.0634 98.8347 37.0634C102.009 37.0634 104.582 39.6369 104.582 42.8108ZM102.073 42.8108C102.242 41.025 100.934 39.4419 99.1478 39.2726C97.362 39.1033 95.7789 40.4118 95.6095 42.1976C95.589 42.4029 95.589 42.6081 95.6095 42.8108C95.4402 44.5966 96.7487 46.1797 98.5345 46.3491C100.32 46.5184 101.903 45.2099 102.073 43.4241C102.093 43.2188 102.093 43.0135 102.073 42.8108ZM117.16 37.3559V47.7936C117.16 52.0759 114.612 53.8412 111.607 53.8412C109.355 53.8592 107.315 52.5224 106.432 50.4492L108.631 49.4793C109.098 50.6878 110.242 51.5012 111.538 51.5422C113.475 51.5422 114.658 50.3491 114.658 48.1323V47.2984H114.561C113.791 48.1554 112.69 48.6403 111.538 48.6249C108.326 48.6249 105.724 46.0206 105.724 42.8108C105.724 39.601 108.328 36.9967 111.538 36.9967C112.698 36.9711 113.811 37.4432 114.599 38.295H114.696V37.3252H117.157V37.3534L117.16 37.3559ZM114.902 42.8391C115.048 41.0302 113.701 39.4445 111.892 39.2983C111.859 39.2957 111.823 39.2931 111.789 39.2906C109.929 39.3521 108.469 40.9121 108.531 42.7723C108.531 42.7929 108.531 42.816 108.533 42.8365C108.446 44.6813 109.873 46.2464 111.718 46.3311C111.741 46.3311 111.766 46.3311 111.789 46.3337C113.58 46.2644 114.976 44.7557 114.907 42.9648C114.907 42.9212 114.902 42.8801 114.899 42.8365L114.902 42.8391ZM121.647 31.2006V48.2657H119.089V31.2006H121.647ZM131.726 44.73L133.722 46.0489C132.639 47.6653 130.82 48.6326 128.878 48.6275C125.768 48.6711 123.212 46.1874 123.169 43.0777C123.169 42.9904 123.169 42.9006 123.169 42.8134C122.915 39.8704 125.093 37.2764 128.036 37.0224C130.517 36.8069 132.819 38.3335 133.586 40.7017L133.848 41.3714L126.096 44.5787C126.592 45.6897 127.71 46.3876 128.926 46.3414C130.076 46.3234 131.133 45.7153 131.726 44.7326V44.73ZM125.611 42.6364L130.825 40.4862C130.412 39.678 129.56 39.1956 128.654 39.2546C126.894 39.3316 125.532 40.8198 125.609 42.5799C125.609 42.5979 125.609 42.6184 125.611 42.6364Z" fill="white"/>
<path d="M31.9495 32.1191L15.4463 49.41C16.1185 51.7885 18.592 53.1741 20.9705 52.5018C21.3322 52.3992 21.6786 52.2529 22.0019 52.0656L40.5731 41.4894L31.9521 32.1191H31.9495Z" fill="#EA4335"/>
<path d="M48.6371 29.1786L40.6062 24.5781L31.5669 32.5116L40.6421 41.4636L48.6115 36.9145C50.7488 35.7958 51.5724 33.1582 50.4537 31.0208C50.0406 30.2331 49.3992 29.5917 48.6115 29.1786H48.6371Z" fill="#FBBC04"/>
<path d="M15.4437 16.5983C15.3437 16.9677 15.2949 17.3475 15.2949 17.7298V48.2782C15.2949 48.6605 15.3462 49.0402 15.4437 49.4097L32.514 32.5601L15.4437 16.5957V16.5983Z" fill="#4285F4"/>
<path d="M32.0727 33.0037L40.6065 24.5801L22.0609 13.9552C21.363 13.5472 20.5702 13.3291 19.762 13.3291C17.7555 13.324 15.9902 14.6582 15.4463 16.5877L32.0727 33.0062V33.0037Z" fill="#34A853"/>
<path d="M65.4611 24.7373C62.8311 24.7373 61.1479 22.8181 61.1479 19.8238C61.1479 16.8295 62.826 15.0078 65.4611 15.0078C67.4957 15.0078 69.0429 16.2137 69.3944 18.0868H68.1603C67.7677 16.8141 66.7824 16.0906 65.4585 16.0906C63.5213 16.0906 62.3539 17.4864 62.3539 19.8161C62.3539 22.1459 63.5418 23.652 65.4585 23.652C67.1288 23.652 68.2783 22.5692 68.2783 20.9887V20.8193H65.6227V19.7879H69.4534V20.6808C69.4534 23.2261 67.973 24.7322 65.4611 24.7322V24.7373Z" fill="white"/>
<path d="M76.7891 24.5805H70.957V15.1641H76.7891V16.2212H72.1296V19.2411H76.5479V20.2854H72.1296V23.5209H76.7891V24.578V24.5805Z" fill="white"/>
<path d="M80.7201 24.5805V16.2212H77.7515V15.1641H84.8639V16.2212H81.8952V24.5805H80.7201Z" fill="white"/>
<path d="M88.8433 24.5805V15.1641H90.0184V24.5805H88.8433Z" fill="white"/>
<path d="M91.8452 24.5805V15.1641H92.987L98.1417 22.5561H98.2007V15.1641H99.363V24.5805H98.2212L93.0665 17.2141H93.0075V24.5805H91.8452Z" fill="white"/>
<path d="M112.243 19.8751C112.243 22.8643 110.573 24.7373 107.905 24.7373C105.236 24.7373 103.566 22.8643 103.566 19.8751C103.566 16.886 105.236 15.0078 107.905 15.0078C110.573 15.0078 112.243 16.886 112.243 19.8751ZM104.772 19.8751C104.772 22.192 105.978 23.652 107.905 23.652C109.832 23.652 111.038 22.1895 111.038 19.8751C111.038 17.5608 109.832 16.0906 107.905 16.0906C105.978 16.0906 104.772 17.5531 104.772 19.8751Z" fill="white"/>
<path d="M113.703 24.5805V15.1641H114.845L120 22.5561H120.059V15.1641H121.221V24.5805H120.079L114.924 17.2141H114.865V24.5805H113.703Z" fill="white"/>
</svg>
