<svg width="109" height="106" viewBox="0 0 109 106" fill="none" xmlns="http://www.w3.org/2000/svg">
<path d="M31.0417 44.2746L53.9583 57.7249C54.2771 57.9045 54.6355 57.9992 55 58C55.3659 57.9993 55.7252 57.9008 56.0417 57.7143L78.9583 44.264C79.2747 44.0785 79.5375 43.8116 79.7203 43.4903C79.9032 43.169 79.9996 42.8044 80 42.4333V15.5646C80.0014 15.1916 79.9059 14.8249 79.723 14.5015C79.54 14.1782 79.2762 13.9097 78.9583 13.7232L56.0417 0.283555C55.725 0.0977946 55.3657 0 55 0C54.6343 0 54.275 0.0977946 53.9583 0.283555L31.0417 13.7444C30.7253 13.93 30.4625 14.1968 30.2796 14.5181C30.0968 14.8395 30.0004 15.204 30 15.5751V42.4439C30.0004 42.815 30.0968 43.1795 30.2796 43.5009C30.4625 43.8222 30.7253 44.089 31.0417 44.2746ZM34.1667 19.2366L52.9167 30.2212V52.222L34.1667 41.2269V19.2366ZM57.0833 52.222V30.2529L75.8333 19.6705V41.2163L57.0833 52.222ZM55 4.60118L74.1458 15.7974L55 26.5703L36.25 15.5751L55 4.60118Z" fill="#1D264D"/>
<path d="M107.952 40.3469L86.9904 28.2815C86.5067 28.0018 85.9324 27.9269 85.3939 28.0732C84.8553 28.2196 84.3966 28.5752 84.1186 29.0619C83.8407 29.5486 83.7662 30.1265 83.9117 30.6685C84.0571 31.2104 84.4106 31.672 84.8942 31.9517L103.173 42.4984L54.5 70.194L6.28848 42.2137L24.1058 31.9517C24.5894 31.672 24.9429 31.2104 25.0883 30.6685C25.2338 30.1265 25.1593 29.5486 24.8814 29.0619C24.7437 28.8209 24.5603 28.6096 24.3415 28.44C24.1227 28.2703 23.8728 28.1457 23.6061 28.0732C23.0676 27.9269 22.4933 28.0018 22.0096 28.2815L1.04809 40.368C0.728211 40.5538 0.462808 40.8214 0.278759 41.1437C0.0947095 41.4659 -0.00144988 41.8314 1.65238e-05 42.2031V73.4424C-0.00144988 73.8141 0.0947095 74.1796 0.278759 74.5018C0.462808 74.8241 0.728211 75.0917 1.04809 75.2775L53.4519 105.726C53.7726 105.905 54.1332 105.999 54.5 106C54.8681 105.999 55.2296 105.901 55.5481 105.715L107.952 75.2459C108.27 75.0609 108.535 74.795 108.719 74.4747C108.903 74.1545 109 73.7912 109 73.4213V42.182C109.001 41.8103 108.905 41.4449 108.721 41.1226C108.537 40.8003 108.272 40.5327 107.952 40.3469ZM4.19232 45.8523L52.4038 73.8432V100.21L4.19232 72.2295V45.8523ZM56.5962 100.242V73.8748L104.808 46.4534V72.2084L56.5962 100.242Z" fill="#1D264D"/>
</svg>
