<svg width="104" height="105" viewBox="0 0 104 105" fill="none" xmlns="http://www.w3.org/2000/svg">
<path d="M42.4531 0C40.2131 0 38.3906 1.83369 38.3906 4.08758C38.3906 6.34147 40.2131 8.17515 42.4531 8.17515C44.6932 8.17515 46.5156 6.34147 46.5156 4.08758C46.5156 1.83369 44.6932 0 42.4531 0Z" fill="white"/>
<path d="M88.7697 15.3245C78.948 5.4424 65.8897 0 52 0V6.13137C77.3128 6.13137 97.9062 26.8519 97.9062 52.321C97.9062 77.7901 77.3128 98.5106 52 98.5106C26.6872 98.5106 6.09375 77.7901 6.09375 52.321C6.09375 40.4004 10.5523 29.1698 18.6743 20.555L23.0514 24.9592L23.0482 11.7929L9.96409 11.7912L14.3638 16.2181C5.09173 25.9917 0 38.7625 0 52.321C0 66.2964 5.40902 79.4353 15.2303 89.3174C25.052 99.1996 38.1103 104.642 52 104.642C65.8897 104.642 78.948 99.1996 88.7697 89.3174C98.591 79.4353 104 66.2964 104 52.321C104 38.3456 98.591 25.2067 88.7697 15.3245Z" fill="white"/>
<path d="M30.4688 3.88281C28.2287 3.88281 26.4062 5.7165 26.4062 7.97039C26.4062 10.2243 28.2287 12.058 30.4688 12.058C32.7088 12.058 34.5312 10.2243 34.5312 7.97039C34.5312 5.7165 32.7088 3.88281 30.4688 3.88281Z" fill="white"/>
<path d="M75.6992 42.9267C70.5512 37.7471 62.1751 37.7471 57.0271 42.9267L52 47.9848L46.9729 42.9267C41.8249 37.7471 33.4488 37.7471 28.3008 42.9267C23.153 48.1064 23.153 56.5342 28.3008 61.714C30.8748 64.3039 34.2556 65.5988 37.6368 65.5988C41.018 65.5988 44.3989 64.3039 46.9729 61.714L52 56.6558L57.0271 61.714C59.6011 64.3039 62.9819 65.5988 66.3632 65.5988C69.7444 65.5988 73.1252 64.3039 75.6992 61.714C80.847 56.5342 80.847 48.1064 75.6992 42.9267ZM42.664 57.3785C39.8921 60.1675 35.3815 60.1677 32.6097 57.3785C29.8378 54.5895 29.8378 50.0513 32.6097 47.2624C35.3815 44.4734 39.8921 44.4732 42.664 47.2624L47.6911 52.3203L42.664 57.3785ZM71.3903 57.3785C68.6185 60.1677 64.1079 60.1675 61.336 57.3785L56.3089 52.3203L61.336 47.2622C64.1079 44.473 68.6185 44.473 71.3903 47.2622C74.1619 50.0513 74.1619 54.5893 71.3903 57.3785Z" fill="white"/>
</svg>
