<svg width="162" height="118" viewBox="0 0 162 118" fill="none" xmlns="http://www.w3.org/2000/svg">
<path d="M131.406 64.7766L118.399 77.7834C118.23 77.5776 118.049 77.3776 117.857 77.1851L101.059 60.3874C100.13 59.4588 98.625 59.4588 97.6964 60.3874C96.7677 61.316 96.7677 62.8217 97.6964 63.75L114.494 80.5477C115.938 81.9915 115.938 84.3412 114.494 85.785C113.05 87.2288 110.7 87.2291 109.257 85.785L99.9226 76.4508C98.9937 75.5222 97.4884 75.5222 96.5597 76.4508C95.6311 77.3795 95.6311 78.8851 96.5597 79.8134L105.894 89.1476C105.894 89.1479 105.895 89.1482 105.895 89.1488C106.594 89.8483 106.979 90.7775 106.979 91.7664C106.979 92.7556 106.594 93.6855 105.894 94.3852C105.194 95.0846 104.265 95.4698 103.275 95.4698C102.286 95.4698 101.356 95.0846 100.657 94.3852L91.3228 85.051C90.3938 84.1224 88.8885 84.1224 87.9599 85.051C87.0312 85.9797 87.0312 87.4853 87.9599 88.4136L97.294 97.7478C98.7382 99.1916 98.7382 101.541 97.2943 102.985C96.5946 103.685 95.6644 104.07 94.6752 104.07C93.686 104.07 92.7561 103.685 92.0567 102.985L82.7226 93.6512C81.7936 92.7226 80.2883 92.7226 79.3597 93.6512C78.4311 94.5798 78.4311 96.0855 79.3597 97.0138L88.6938 106.348C90.138 107.792 90.138 110.141 88.6938 111.585C87.9944 112.285 87.0645 112.67 86.0753 112.67C85.0862 112.67 84.1563 112.285 83.4569 111.585L77.4099 105.538C79.3365 102.327 78.9187 98.0921 76.1537 95.3274L76.0104 95.1841C74.1684 93.3421 71.6729 92.5422 69.2627 92.7828C69.1273 90.7658 68.2792 88.8876 66.8361 87.4444C65.7197 86.3281 64.3634 85.5944 62.9316 85.2432C63.2966 84.2961 63.4896 83.2806 63.4896 82.2353C63.4896 80.0027 62.6203 77.9039 61.0417 76.3253C59.4632 74.7467 57.3643 73.8774 55.1317 73.8774C53.8594 73.8774 52.6311 74.1605 51.5173 74.6957C51.1426 73.3647 50.4346 72.1089 49.3893 71.0636C46.1311 67.805 40.8285 67.8053 37.5695 71.0636L36.5889 72.0442L35.874 71.3293C34.7241 70.1794 34.0909 68.6509 34.0909 67.0247V60.8233C34.0909 60.1927 33.8405 59.5878 33.3947 59.142L23.2435 48.9909L26.0979 46.1362C27.0265 45.2076 27.0265 43.7019 26.0976 42.7736C25.1692 41.8446 23.6636 41.845 22.735 42.7736L18.9114 46.5975C18.1904 47.3184 17.0167 47.3188 16.2958 46.5975L4.05938 34.3608C3.13075 33.4321 1.62542 33.4321 0.696471 34.3608C-0.232157 35.2894 -0.232157 36.7947 0.696471 37.7234L12.9332 49.9601C14.221 51.2476 15.9121 51.8912 17.6033 51.8912C18.1448 51.8912 18.6847 51.8176 19.2129 51.6858L29.3352 61.8078V67.0244C29.3352 69.9207 30.4633 72.6434 32.5111 74.6916L33.2263 75.4068L32.4305 76.2026C30.852 77.7812 29.9823 79.88 29.9823 82.1127C29.9823 84.3453 30.8517 86.4441 32.4302 88.0224C34.0598 89.6517 36.2002 90.4665 38.3406 90.4665C38.3745 90.4665 38.4084 90.4646 38.4424 90.464C38.4421 90.4991 38.4398 90.534 38.4398 90.5695C38.4398 92.8022 39.3092 94.901 40.8877 96.4793C42.4663 98.0578 44.5655 98.9272 46.7978 98.9272C46.833 98.9272 46.8682 98.925 46.9034 98.9246C46.8771 101.099 47.6897 103.281 49.3446 104.936C50.9742 106.565 53.1146 107.38 55.255 107.38C55.2902 107.38 55.3254 107.378 55.3603 107.378C55.333 109.553 56.1456 111.737 57.8018 113.393L57.9451 113.537C59.5237 115.115 61.6226 115.985 63.8549 115.985C66.0875 115.985 68.1863 115.115 69.7649 113.537L74.2242 109.078L80.0946 114.948C81.6922 116.546 83.8164 117.426 86.076 117.426C88.3356 117.426 90.4598 116.546 92.0574 114.948C93.7431 113.262 94.5649 111.036 94.5275 108.822C94.5769 108.823 94.6261 108.826 94.6758 108.826C96.9354 108.826 99.0596 107.946 100.658 106.348C102.344 104.661 103.166 102.433 103.128 100.218C103.177 100.219 103.227 100.222 103.276 100.222C105.442 100.221 107.608 99.3967 109.257 97.7481C110.855 96.1505 111.735 94.0263 111.735 91.7667C111.735 91.7169 111.732 91.6678 111.731 91.6183C111.78 91.6193 111.828 91.6218 111.876 91.6218C114.042 91.6218 116.208 90.7972 117.858 89.1482C119.651 87.355 120.467 84.9505 120.31 82.5996L134.77 68.1398C135.698 67.2112 135.698 65.7055 134.77 64.7772C133.84 63.8479 132.335 63.8479 131.406 64.7766ZM35.7928 84.6595C35.1124 83.9791 34.738 83.0746 34.738 82.1127C34.738 81.1504 35.1128 80.2459 35.7931 79.5655L40.9321 74.4265C41.6347 73.7242 42.557 73.373 43.4796 73.373C44.4019 73.373 45.3242 73.7239 46.0264 74.4262C47.4309 75.831 47.4309 78.1163 46.0264 79.5205L40.8871 84.6598C39.4826 86.0643 37.1976 86.064 35.7928 84.6595ZM46.7972 94.1718C45.8353 94.1718 44.9304 93.7971 44.25 93.1167C43.5696 92.4363 43.1952 91.5318 43.1952 90.5698C43.1952 89.6079 43.57 88.7031 44.2503 88.0227L49.3897 82.8834L52.5848 79.6882C53.2652 79.0078 54.1694 78.6331 55.1317 78.6331C56.0939 78.6331 56.9984 79.0078 57.6785 79.6882C58.3589 80.3686 58.7336 81.2734 58.7336 82.2353C58.7336 83.1973 58.3589 84.1021 57.6785 84.7825L49.344 93.117C48.6636 93.7971 47.7594 94.1718 46.7972 94.1718ZM52.7069 101.574C51.3024 100.169 51.3024 97.8838 52.7069 96.4793L58.3792 90.8067C59.0814 90.1047 60.0037 89.7538 60.9263 89.7538C61.8486 89.7538 62.7712 90.1051 63.4731 90.807C64.1535 91.4874 64.5283 92.3922 64.5283 93.3541C64.5283 94.3158 64.1542 95.2196 63.4744 95.8997L57.8009 101.573C56.3967 102.978 54.1114 102.978 52.7069 101.574ZM66.4011 110.174C65.7207 110.854 64.8165 111.229 63.8542 111.229C62.8923 111.229 61.9875 110.854 61.3074 110.174L61.1644 110.031C59.7596 108.626 59.7596 106.341 61.1644 104.936L66.8364 99.2645C66.8383 99.2626 66.8399 99.2607 66.8414 99.2591L67.5532 98.547C68.2558 97.8448 69.1781 97.4938 70.1007 97.4938C71.023 97.4938 71.9456 97.8451 72.6475 98.547L72.7905 98.69C74.1953 100.095 74.1953 102.38 72.7905 103.784L66.4011 110.174Z" fill="#1D264D"/>
<path d="M161.304 44.3797C160.375 43.4511 158.87 43.4507 157.941 44.3797L149.03 53.2906C148.907 53.4133 148.705 53.4152 148.58 53.2957L117.078 23.2039C117.013 23.1417 116.979 23.0647 116.978 22.9746C116.977 22.8846 117.009 22.8066 117.073 22.7432L135.757 4.05906C136.686 3.13043 136.686 1.62478 135.757 0.696471C134.829 -0.232157 133.323 -0.232157 132.394 0.696471L113.71 19.3806C112.735 20.3555 112.207 21.6513 112.223 23.0295C112.236 24.1404 112.607 25.1864 113.27 26.0503L104.719 34.4359L96.6624 29.9427C95.6095 29.3552 94.4158 29.0448 93.2101 29.0448H70.3193L68.5772 27.303C66.9583 25.6841 65.0529 24.4502 62.9138 23.6351L56.577 21.2208L53.6488 18.2925C55.163 15.7565 54.837 12.4192 52.6554 10.238L43.1139 0.696471C42.1853 -0.232157 40.68 -0.232157 39.751 0.696471C38.8224 1.6251 38.8224 3.13075 39.751 4.05906L49.2925 13.6006C50.0135 14.3215 50.0135 15.4949 49.2925 16.2162L29.9011 35.6077C28.9724 36.5363 28.9724 38.0419 29.9011 38.9703C30.3655 39.4344 30.9743 39.6668 31.5827 39.6668C32.1911 39.6668 32.7998 39.4347 33.2643 38.9703L50.4326 21.8019L53.5736 24.9429C53.8108 25.18 54.0955 25.3642 54.4087 25.4838L61.2208 28.0791C62.6906 28.6393 64.0025 29.482 65.1249 30.5809C64.9806 30.7023 64.8389 30.8279 64.7038 30.9629L55.6604 40.007C53.8656 41.8015 52.8774 44.1879 52.8774 46.7258C52.8774 49.2638 53.8656 51.6499 55.6601 53.4447C57.5145 55.2991 59.9402 56.2397 62.3767 56.2397C64.506 56.2397 66.6432 55.521 68.4133 54.0658L75.257 48.4395H82.3858L90.5313 56.585C90.9958 57.0492 91.6045 57.2816 92.2129 57.2816C92.8214 57.2816 93.4301 57.0495 93.8946 56.585C94.8232 55.6564 94.8232 54.1507 93.8946 53.2224L88.0099 47.3377C88.2454 46.9687 88.3837 46.5318 88.3837 46.0616C88.3837 44.7484 87.3193 43.6838 86.0058 43.6838H74.4048C73.8541 43.6838 73.3202 43.875 72.8947 44.225L65.3931 50.3922C63.4962 51.9511 60.7585 51.8176 59.023 50.0821C58.1264 49.1855 57.6327 47.9937 57.6327 46.7261C57.6327 45.4586 58.1264 44.2665 59.023 43.3702L68.0667 34.3262C68.405 33.9876 68.8552 33.8011 69.334 33.8011H93.2097C93.6064 33.8011 93.9989 33.9032 94.3454 34.0966L103.256 39.066C104.578 39.8044 106.26 39.5809 107.348 38.5181L116.662 29.3837L142.305 53.8784L138.572 57.6113C137.643 58.5399 137.643 60.0456 138.572 60.9739C139.036 61.4383 139.645 61.6704 140.253 61.6704C140.862 61.6704 141.47 61.4383 141.935 60.9739L145.775 57.1335C146.668 57.7952 147.734 58.129 148.801 58.129C150.106 58.129 151.41 57.636 152.393 56.6535L161.304 47.7429C162.232 46.8137 162.232 45.3083 161.304 44.3797Z" fill="#1D264D"/>
</svg>
