<svg width="103" height="93" viewBox="0 0 103 93" fill="none" xmlns="http://www.w3.org/2000/svg">
<path d="M101.358 74.2449L61.9886 6.05564C59.7994 2.26397 55.8784 0 51.4997 0C47.1213 0 43.2 2.26397 41.0109 6.05564L1.64201 74.2447C-0.547335 78.0367 -0.547335 82.5643 1.64201 86.3561C3.83135 90.148 7.75216 92.4118 12.1308 92.4118H90.8687C95.2471 92.4118 99.1682 90.1478 101.358 86.3563C103.547 82.5643 103.547 78.0367 101.358 74.2449ZM96.1317 83.3392C95.0331 85.2419 93.0656 86.3777 90.8687 86.3777H12.1308C9.93366 86.3777 7.96621 85.2419 6.86782 83.3392C5.76942 81.4365 5.76942 79.1649 6.86782 77.2622L46.2371 9.073C47.3355 7.17033 49.303 6.03452 51.5 6.03452C53.6967 6.03452 55.6644 7.17033 56.7628 9.073L96.1319 77.2622C97.2301 79.1649 97.2301 81.4365 96.1317 83.3392Z" fill="#1D264D"/>
<path d="M54.0343 30.1143H48V60.2862H54.0343V30.1143Z" fill="#1D264D"/>
<path d="M51.023 66.3213C48.8047 66.3213 47 68.126 47 70.3443C47 72.5626 48.8047 74.3673 51.023 74.3673C53.2411 74.3673 55.046 72.5626 55.046 70.3443C55.046 68.126 53.2413 66.3213 51.023 66.3213Z" fill="#1D264D"/>
</svg>
