<svg width="109" height="110" viewBox="0 0 109 110" fill="none" xmlns="http://www.w3.org/2000/svg">
<path d="M54.5 1.93726C24.9705 1.95815 1.0418 25.8869 1 55.4373C3.94668 126.408 105.074 126.387 108 55.4373C107.958 25.8869 84.0295 1.95815 54.5 1.93726ZM54.5 105.677C26.7469 105.656 4.28105 83.1695 4.23926 55.4373C6.99785 -11.2288 102.002 -11.2079 104.761 55.4373C104.719 83.1695 82.2531 105.656 54.5 105.677Z" fill="#1D264D" stroke="#1D264D" stroke-width="2"/>
<path d="M14.4584 48.8543C15.3361 49.0215 16.193 48.4572 16.3811 47.5795C19.4949 32.3237 31.407 20.4115 46.6629 17.2977C47.5406 17.1096 48.1049 16.2737 47.9377 15.3959C47.7705 14.5182 46.9137 13.9539 46.0359 14.1211C29.5053 17.4858 16.59 30.4219 13.2254 46.9526C13.0373 47.8303 13.6016 48.6662 14.4584 48.8543Z" fill="#1D264D" stroke="#1D264D" stroke-width="2"/>
<path d="M46.6628 93.556C31.4069 90.4422 19.4948 78.5301 16.3809 63.2742C15.9003 61.2471 12.8491 61.8531 13.2253 63.922C16.5899 80.4527 29.5051 93.368 46.0358 96.7117C48.0839 97.0252 48.6899 94.0576 46.6628 93.556Z" fill="#1D264D" stroke="#1D264D" stroke-width="2"/>
<path d="M94.5415 61.9993C93.6638 61.8321 92.8069 62.3964 92.6188 63.2741C89.505 78.53 77.5929 90.4421 62.337 93.5559C61.4593 93.744 60.9159 94.6217 61.104 95.4995C61.2712 96.2309 61.8981 96.7534 62.6505 96.7743C79.3274 93.5559 92.4099 80.578 95.7745 63.9219C95.9835 63.0442 95.4192 62.1874 94.5415 61.9993Z" fill="#1D264D" stroke="#1D264D" stroke-width="2"/>
<path d="M62.3366 17.3184C77.5924 20.4323 89.5045 32.3444 92.6184 47.6003C93.12 49.6065 96.1293 49.0214 95.795 46.9524C92.4303 30.4218 79.5151 17.5065 62.9844 14.1419C62.1067 13.9538 61.2498 14.5181 61.0618 15.3958C60.8946 16.2735 61.4588 17.1304 62.3366 17.3184Z" fill="#1D264D" stroke="#1D264D" stroke-width="2"/>
<path d="M74.5621 33.2848L44.7609 44.7581C44.3429 44.9253 44.0086 45.2596 43.8414 45.6776L32.3472 75.5206C31.8248 76.7745 33.1832 78.1538 34.4371 77.6104L64.2382 66.1372C64.6562 65.97 65.0115 65.6356 65.1578 65.1968L76.6519 35.3747C77.1535 34.1208 75.816 32.7833 74.5621 33.2848ZM36.6941 73.2427L45.9521 49.1676L60.7691 63.9846L36.6941 73.2427ZM63.047 61.6858L48.23 46.8688L72.305 37.6108L63.047 61.6858Z" fill="#1D264D" stroke="#1D264D" stroke-width="2"/>
<path d="M20.4567 55.4373C20.4567 54.5386 19.7252 53.8072 18.8266 53.8072H9.10882C8.21018 53.7654 7.45784 54.4759 7.43694 55.3746C7.39515 56.315 8.18929 57.0882 9.10882 57.0464H18.8266C19.7252 57.0464 20.4567 56.315 20.4567 55.4373Z" fill="#1D264D" stroke="#1D264D" stroke-width="2"/>
<path d="M99.8911 53.8072H90.1733C88.0417 53.7863 87.9163 56.9211 90.0479 57.0465H99.8911C100.79 57.0047 101.479 56.2524 101.458 55.3746C101.417 54.5178 100.748 53.8281 99.8911 53.8072Z" fill="#1D264D" stroke="#1D264D" stroke-width="2"/>
<path d="M54.5 89.481C53.6014 89.481 52.8699 90.2124 52.8699 91.111V100.829C52.9117 101.727 53.6641 102.417 54.5418 102.396C55.3986 102.354 56.0674 101.686 56.1092 100.829V91.111C56.1301 90.1915 55.3986 89.481 54.5 89.481Z" fill="#1D264D" stroke="#1D264D" stroke-width="2"/>
<path d="M54.5 21.3727C55.3986 21.3727 56.1301 20.6413 56.1301 19.7427V10.0249C56.0883 9.12624 55.3359 8.4366 54.4582 8.45749C53.6014 8.49929 52.9326 9.16804 52.8908 10.0249V19.7635C52.8908 20.6622 53.6014 21.3727 54.5 21.3727Z" fill="#1D264D" stroke="#1D264D" stroke-width="2"/>
</svg>
