<svg width="135" height="133" viewBox="0 0 135 133" fill="none" xmlns="http://www.w3.org/2000/svg">
<path fill-rule="evenodd" clip-rule="evenodd" d="M46.2923 81.3018H74.8237C75.9976 81.3018 76.9505 80.349 76.9505 79.175C76.9505 78.0011 75.9976 77.0483 74.8237 77.0483H46.2923C45.1184 77.0483 44.1655 78.0011 44.1655 79.175C44.1655 80.349 45.1181 81.3018 46.2923 81.3018Z" fill="#1D264D"/>
<path fill-rule="evenodd" clip-rule="evenodd" d="M64.2471 79.175V130.38C64.2471 131.554 65.1999 132.507 66.3738 132.507C67.5464 132.507 68.5006 131.554 68.5006 130.38V79.175C68.5006 78.0009 67.5464 77.0483 66.3738 77.0483C65.1999 77.0483 64.2471 78.0011 64.2471 79.175Z" fill="#1D264D"/>
<path fill-rule="evenodd" clip-rule="evenodd" d="M18.6996 0C10.4218 0 3.69946 6.72238 3.69946 15.0015C3.69946 23.2806 10.4218 30.0016 18.6996 30.0016C26.9789 30.0016 33.7013 23.2808 33.7013 15.0015C33.7013 6.72216 26.9789 0 18.6996 0ZM18.6996 4.25376C24.6322 4.25376 29.4475 9.06912 29.4475 15.0015C29.4475 20.9327 24.6322 25.7479 18.6996 25.7479C12.7684 25.7479 7.95322 20.9327 7.95322 15.0015C7.95322 9.0689 12.7686 4.25376 18.6996 4.25376Z" fill="#1D264D"/>
<path fill-rule="evenodd" clip-rule="evenodd" d="M116.301 0C108.021 0 101.299 6.72238 101.299 15.0015C101.299 23.2806 108.021 30.0016 116.301 30.0016C124.578 30.0016 131.301 23.2808 131.301 15.0015C131.301 6.72216 124.578 0 116.301 0ZM116.301 4.25376C122.232 4.25376 127.047 9.06912 127.047 15.0015C127.047 20.9327 122.232 25.7479 116.301 25.7479C110.368 25.7479 105.553 20.9327 105.553 15.0015C105.553 9.0689 110.368 4.25376 116.301 4.25376Z" fill="#1D264D"/>
<path fill-rule="evenodd" clip-rule="evenodd" d="M30.4228 60.5212C30.7744 61.2302 31.5033 61.7022 32.3271 61.7022L33.1169 61.549L52.7011 53.7207C55.7155 52.517 59.1399 53.9845 60.3452 56.9989C61.5489 60.012 60.0801 63.4364 57.067 64.6415L31.2028 74.9795C28.7313 75.9677 25.9323 75.1681 24.3485 73.0923C23.7956 72.3676 22.8412 72.0756 21.9764 72.3676C21.113 72.6597 20.5316 73.4708 20.5316 74.3825V85.0637C20.5316 86.1442 21.3412 87.0517 22.4132 87.1765L39.6282 89.1645C43.6963 89.6338 46.7674 93.0793 46.7674 97.1758V130.381C46.7674 131.555 47.7203 132.507 48.8942 132.507C50.0683 132.507 51.021 131.555 51.021 130.381V97.1758C51.021 90.9185 46.3306 85.6565 40.1158 84.9392L24.7851 83.1683V78.7272C27.2382 79.8545 30.1194 79.9935 32.7808 78.9301L58.6466 68.5921C63.8389 66.5149 66.3701 60.6135 64.2942 55.4195C62.2184 50.2256 56.317 47.6947 51.1233 49.7706L33.2063 56.9324L22.9137 40.0862C21.4604 37.707 19.091 36.0324 16.3643 35.4552C16.2807 35.4383 16.1971 35.4199 16.1119 35.4027C13.2547 34.7987 10.2756 35.4566 7.9389 37.2077C5.60217 38.9603 4.13465 41.6345 3.91334 44.5468C2.66268 61.0031 0.154465 93.9841 0.154465 93.9841C0.150016 94.0379 0.148682 94.0917 0.148682 94.1458C0.148682 100.396 4.82926 105.653 11.0354 106.379L26.3843 108.362V130.38C26.3843 131.555 27.3371 132.507 28.5111 132.507C29.685 132.507 30.6378 131.554 30.6378 130.38V106.492C30.6378 105.421 29.8438 104.519 28.7831 104.382L11.5412 102.157C7.50162 101.691 4.44581 98.2903 4.40199 94.2323C4.40199 94.2209 8.15375 44.8689 8.15375 44.8689C8.28276 43.1801 9.13351 41.6276 10.4892 40.6122C11.8461 39.5956 13.5732 39.2141 15.232 39.5644L15.4829 39.6169C17.0654 39.9517 18.4393 40.9243 19.2829 42.304C22.5002 47.5702 29.0211 58.2443 30.2931 60.3272C30.3362 60.395 30.3787 60.4602 30.4228 60.5212Z" fill="#1D264D"/>
<path fill-rule="evenodd" clip-rule="evenodd" d="M13.5368 63.6151L20.3713 74.8039C22.9476 79.0207 28.1911 80.7647 32.7809 78.93C33.8712 78.4947 34.403 77.2554 33.9664 76.1664C33.5311 75.0761 32.2918 74.5443 31.2029 74.9796C28.5401 76.0445 25.4972 75.0334 24.0012 72.5862L17.1669 61.3974C16.5544 60.3963 15.2441 60.0802 14.2432 60.6912C13.2419 61.304 12.9243 62.614 13.5368 63.6151Z" fill="#1D264D"/>
<path fill-rule="evenodd" clip-rule="evenodd" d="M99.8256 60.1556L79.2316 63.0679C73.6932 63.8506 69.8338 68.9834 70.6165 74.5218C71.3991 80.0587 76.5319 83.9197 82.0703 83.137L107.399 79.5538C108.384 79.4148 109.331 79.1341 110.215 78.7271V83.1679L94.8841 84.9388C88.6693 85.6564 83.9789 90.9181 83.9789 97.1754V130.38C83.9789 131.554 84.9318 132.507 86.1057 132.507C87.2796 132.507 88.2325 131.554 88.2325 130.38V97.1754C88.2325 93.0791 91.3036 89.6334 95.3716 89.1641L112.581 87.1761H112.577C113.642 87.0598 114.468 86.1581 114.468 85.0634V74.3808C114.468 73.4691 113.887 72.6595 113.023 72.3675C112.16 72.0739 111.205 72.3662 110.651 73.0906C109.72 74.3101 108.34 75.1253 106.803 75.3424L81.4745 78.924C78.2601 79.379 75.2823 77.1388 74.8286 73.9244C74.3735 70.7114 76.6137 67.7338 79.8268 67.2786L101.409 64.2272L101.117 64.247L102.932 63.229L114.44 44.3919C115.911 41.9842 118.607 40.6019 121.422 40.8145C121.461 40.8174 121.5 40.8201 121.539 40.823C125.331 41.1094 128.313 44.1806 128.486 47.9777L130.597 94.1906C130.574 98.2657 127.511 101.687 123.458 102.156L106.574 104.106C105.512 104.228 104.707 105.12 104.693 106.189L104.361 130.351C104.345 131.525 105.285 132.49 106.458 132.507C107.632 132.523 108.598 131.583 108.615 130.409L108.92 108.116L123.945 106.382C130.16 105.664 134.851 100.401 134.851 94.1452C134.851 94.1125 134.849 94.08 134.848 94.0473C134.848 94.0473 133.438 63.1878 132.735 47.7836C132.463 41.8368 127.795 37.0287 121.859 36.5819C121.82 36.579 121.78 36.5748 121.742 36.5719C117.335 36.24 113.114 38.4037 110.81 42.1742L99.8256 60.1556Z" fill="#1D264D"/>
<path fill-rule="evenodd" clip-rule="evenodd" d="M87.5902 6.38053C87.5902 4.68903 86.918 3.06537 85.7214 1.86876C84.5246 0.671927 82.9027 0 81.2096 0H51.5368C48.0119 0 45.156 2.85719 45.156 6.38053V33.4117C45.156 34.8012 45.9669 36.0632 47.2318 36.6388C48.4965 37.2144 49.9812 36.9976 51.029 36.0843C53.075 34.3021 55.9578 31.7894 57.5641 30.3886C57.9526 30.0512 58.4489 29.8655 58.9622 29.8655H81.2094C82.9025 29.8655 84.5246 29.1933 85.7212 27.9967C86.9178 26.7999 87.5899 25.1765 87.5899 23.485V6.38053H87.5902ZM49.4098 31.8535V6.38053C49.4098 5.2066 50.3613 4.25376 51.5365 4.25376H81.2094C81.7737 4.25376 82.3153 4.47773 82.7139 4.87764C83.1122 5.27599 83.3364 5.81625 83.3364 6.38053V23.485C83.3364 24.0492 83.1124 24.5895 82.7139 24.9879C82.3155 25.3878 81.7737 25.6117 81.2094 25.6117H58.9624C57.4211 25.6117 55.9324 26.1689 54.7696 27.1813L49.4098 31.8535Z" fill="#1D264D"/>
<path fill-rule="evenodd" clip-rule="evenodd" d="M56.8983 13.1754H76.1706C77.3448 13.1754 78.2974 12.2225 78.2974 11.0486C78.2974 9.87469 77.3445 8.92184 76.1706 8.92184H56.8983C55.7243 8.92184 54.7715 9.87469 54.7715 11.0486C54.7715 12.2225 55.7241 13.1754 56.8983 13.1754Z" fill="#1D264D"/>
<path fill-rule="evenodd" clip-rule="evenodd" d="M56.8983 20.9314H66.3742C67.5468 20.9314 68.5009 19.9785 68.5009 18.8046C68.5009 17.6304 67.5468 16.6778 66.3742 16.6778H56.8983C55.7243 16.6778 54.7715 17.6307 54.7715 18.8046C54.7713 19.9785 55.7241 20.9314 56.8983 20.9314Z" fill="#1D264D"/>
<path fill-rule="evenodd" clip-rule="evenodd" d="M101.008 80.4583L107.399 79.5537C110.398 79.1298 113.049 77.3872 114.629 74.8038L121.463 63.615C122.075 62.6139 121.758 61.3038 120.757 60.6913C119.756 60.0801 118.446 60.3964 117.833 61.3975L110.999 72.5862C110.083 74.0849 108.543 75.096 106.803 75.3427L100.413 76.2459C99.2498 76.4105 98.4388 77.4881 98.6032 78.6507C98.7678 79.8117 99.8454 80.6227 101.008 80.4583Z" fill="#1D264D"/>
</svg>
