<svg width="113" height="113" viewBox="0 0 113 113" fill="none" xmlns="http://www.w3.org/2000/svg">
<path fill-rule="evenodd" clip-rule="evenodd" d="M56.5 26.3648C73.1449 26.3648 86.6352 39.8551 86.6352 56.5C86.6352 73.1449 73.1449 86.6352 56.5 86.6352C39.8551 86.6352 26.3648 73.1449 26.3648 56.5C26.3648 39.8551 39.8551 26.3648 56.5 26.3648ZM77.2369 72.9864C80.8383 68.4623 82.9901 62.7328 82.9901 56.5C82.9901 41.8683 71.1317 30.0099 56.5 30.0099C41.8683 30.0099 30.0099 41.8683 30.0099 56.5C30.0099 62.7328 32.1617 68.4623 35.7631 72.9864C37.7044 66.2861 42.8035 60.9264 49.3414 58.627C46.5116 56.4624 44.6785 53.0528 44.6785 49.2345C44.6785 42.7306 49.9961 37.413 56.5 37.413C63.0039 37.413 68.3215 42.7306 68.3215 49.2345C68.3215 53.0528 66.4884 56.4624 63.6586 58.627C70.1965 60.9264 75.2956 66.2861 77.2369 72.9864ZM38.7772 76.1896C43.4711 80.4173 49.6847 82.9901 56.5 82.9901C63.3153 82.9901 69.5289 80.4173 74.2228 76.1896C72.8727 67.6148 65.4498 61.0558 56.5 61.0558C47.5502 61.0558 40.1273 67.6148 38.7772 76.1896ZM58.5012 57.1616C62.0397 56.2633 64.6763 53.043 64.6763 49.2345C64.6763 44.7362 60.9984 41.0582 56.5 41.0582C52.0016 41.0582 48.3237 44.7362 48.3237 49.2345C48.3237 53.7329 52.0016 57.4106 56.5 57.4106C57.1785 57.4106 57.8382 57.327 58.4695 57.1696C58.48 57.1668 58.4907 57.1641 58.5012 57.1616ZM58.3226 23.0823C58.3226 24.0881 57.5058 24.9049 56.5 24.9049C55.4942 24.9049 54.6774 24.0881 54.6774 23.0823V15.0614C54.6774 14.0555 55.4942 13.2388 56.5 13.2388C57.5058 13.2388 58.3226 14.0555 58.3226 15.0614V23.0823ZM56.5 0C59.7194 0 62.3332 2.61381 62.3332 5.83317C62.3332 9.05253 59.7194 11.6661 56.5 11.6661C53.2806 11.6661 50.6668 9.05253 50.6668 5.83317C50.6668 2.61381 53.2806 0 56.5 0ZM56.5 3.64516C55.2925 3.64516 54.312 4.62548 54.312 5.83317C54.312 7.04063 55.2925 8.02095 56.5 8.02095C57.7075 8.02095 58.688 7.04063 58.688 5.83317C58.688 4.62548 57.7075 3.64516 56.5 3.64516ZM10.5204 4.68722C13.7398 4.68722 16.3533 7.30103 16.3533 10.5204C16.3533 13.7398 13.7398 16.3533 10.5204 16.3533C7.30103 16.3533 4.68722 13.7398 4.68722 10.5204C4.68722 7.30103 7.30103 4.68722 10.5204 4.68722ZM10.5204 8.33238C9.31293 8.33238 8.33238 9.31293 8.33238 10.5204C8.33238 11.7279 9.31293 12.7082 10.5204 12.7082C11.7279 12.7082 12.7082 11.7279 12.7082 10.5204C12.7082 9.31293 11.7279 8.33238 10.5204 8.33238ZM15.9565 18.5338C15.2452 17.8226 15.2452 16.6677 15.9565 15.9565C16.6677 15.2452 17.8226 15.2452 18.5338 15.9565L33.3029 30.7255C34.0144 31.4368 34.0144 32.5916 33.3029 33.3029C32.5916 34.0144 31.4368 34.0144 30.7255 33.3029L15.9565 18.5338ZM108.313 10.5204C108.313 13.7398 105.699 16.3533 102.48 16.3533C99.2602 16.3533 96.6467 13.7398 96.6467 10.5204C96.6467 7.30103 99.2602 4.68722 102.48 4.68722C105.699 4.68722 108.313 7.30103 108.313 10.5204ZM104.668 10.5204C104.668 9.31293 103.687 8.33238 102.48 8.33238C101.272 8.33238 100.292 9.31293 100.292 10.5204C100.292 11.7279 101.272 12.7082 102.48 12.7082C103.687 12.7082 104.668 11.7279 104.668 10.5204ZM94.4662 15.9565C95.1774 15.2452 96.3323 15.2452 97.0435 15.9565C97.7548 16.6677 97.7548 17.8226 97.0435 18.5338L82.2745 33.3029C81.5632 34.0144 80.4084 34.0144 79.6971 33.3029C78.9856 32.5916 78.9856 31.4368 79.6971 30.7255L94.4662 15.9565ZM102.48 108.313C99.2602 108.313 96.6467 105.699 96.6467 102.48C96.6467 99.2602 99.2602 96.6467 102.48 96.6467C105.699 96.6467 108.313 99.2602 108.313 102.48C108.313 105.699 105.699 108.313 102.48 108.313ZM102.48 104.668C103.687 104.668 104.668 103.687 104.668 102.48C104.668 101.272 103.687 100.292 102.48 100.292C101.272 100.292 100.292 101.272 100.292 102.48C100.292 103.687 101.272 104.668 102.48 104.668ZM97.0435 94.4662C97.7548 95.1774 97.7548 96.3323 97.0435 97.0435C96.3323 97.7548 95.1774 97.7548 94.4662 97.0435L79.6971 82.2745C78.9856 81.5632 78.9856 80.4084 79.6971 79.6971C80.4084 78.9856 81.5632 78.9856 82.2745 79.6971L97.0435 94.4662ZM4.68722 102.48C4.68722 99.2602 7.30103 96.6467 10.5204 96.6467C13.7398 96.6467 16.3533 99.2602 16.3533 102.48C16.3533 105.699 13.7398 108.313 10.5204 108.313C7.30103 108.313 4.68722 105.699 4.68722 102.48ZM8.33238 102.48C8.33238 103.687 9.31293 104.668 10.5204 104.668C11.7279 104.668 12.7082 103.687 12.7082 102.48C12.7082 101.272 11.7279 100.292 10.5204 100.292C9.31293 100.292 8.33238 101.272 8.33238 102.48ZM18.5338 97.0435C17.8226 97.7548 16.6677 97.7548 15.9565 97.0435C15.2452 96.3323 15.2452 95.1774 15.9565 94.4662L30.7255 79.6971C31.4368 78.9856 32.5916 78.9856 33.3029 79.6971C34.0144 80.4084 34.0144 81.5632 33.3029 82.2745L18.5338 97.0435ZM54.6774 89.9177C54.6774 88.9119 55.4942 88.0951 56.5 88.0951C57.5058 88.0951 58.3226 88.9119 58.3226 89.9177V97.9387C58.3226 98.9445 57.5058 99.7612 56.5 99.7612C55.4942 99.7612 54.6774 98.9445 54.6774 97.9387V89.9177ZM56.5 113C53.2806 113 50.6668 110.386 50.6668 107.167C50.6668 103.947 53.2806 101.334 56.5 101.334C59.7194 101.334 62.3332 103.947 62.3332 107.167C62.3332 110.386 59.7194 113 56.5 113ZM56.5 109.355C57.7075 109.355 58.688 108.375 58.688 107.167C58.688 105.959 57.7075 104.979 56.5 104.979C55.2925 104.979 54.312 105.959 54.312 107.167C54.312 108.375 55.2925 109.355 56.5 109.355ZM23.0823 54.6774C24.0881 54.6774 24.9049 55.4942 24.9049 56.5C24.9049 57.5058 24.0881 58.3226 23.0823 58.3226H15.0614C14.0555 58.3226 13.2388 57.5058 13.2388 56.5C13.2388 55.4942 14.0555 54.6774 15.0614 54.6774H23.0823ZM0 56.5C0 53.2806 2.61381 50.6668 5.83317 50.6668C9.05253 50.6668 11.6661 53.2806 11.6661 56.5C11.6661 59.7194 9.05253 62.3332 5.83317 62.3332C2.61381 62.3332 0 59.7194 0 56.5ZM3.64516 56.5C3.64516 57.7075 4.62548 58.688 5.83317 58.688C7.04063 58.688 8.02095 57.7075 8.02095 56.5C8.02095 55.2925 7.04063 54.312 5.83317 54.312C4.62548 54.312 3.64516 55.2925 3.64516 56.5ZM89.9177 58.3226C88.9119 58.3226 88.0951 57.5058 88.0951 56.5C88.0951 55.4942 88.9119 54.6774 89.9177 54.6774H97.9387C98.9445 54.6774 99.7612 55.4942 99.7612 56.5C99.7612 57.5058 98.9445 58.3226 97.9387 58.3226H89.9177ZM113 56.5C113 59.7194 110.386 62.3332 107.167 62.3332C103.947 62.3332 101.334 59.7194 101.334 56.5C101.334 53.2806 103.947 50.6668 107.167 50.6668C110.386 50.6668 113 53.2806 113 56.5ZM109.355 56.5C109.355 55.2925 108.375 54.312 107.167 54.312C105.959 54.312 104.979 55.2925 104.979 56.5C104.979 57.7075 105.959 58.688 107.167 58.688C108.375 58.688 109.355 57.7075 109.355 56.5Z" fill="#1D264D"/>
</svg>
