<svg width="115" height="116" viewBox="0 0 115 116" fill="none" xmlns="http://www.w3.org/2000/svg">
<path d="M114.404 17.3105L93.9373 0.379705C93.6006 0.100977 93.1664 -0.0333382 92.7294 0.00705036C92.2928 0.0472041 91.8903 0.258305 91.6104 0.594094L85.7359 7.63814C85.6118 7.59635 85.4855 7.55807 85.3581 7.52308C85.3472 7.52003 85.3364 7.51721 85.3255 7.5144L79.5428 6.05289C79.5088 6.04444 79.4748 6.03692 79.4404 6.03058C74.6021 5.12701 70.671 7.72362 69.658 12.4888C69.5183 13.1465 69.3673 13.8688 69.2061 14.6395C67.9862 20.4723 66.153 29.239 64.3094 33.3246C59.9221 38.585 57.246 41.666 56.3128 42.5294C55.4924 42.6224 54.7915 42.6914 54.1627 42.7537C52.1426 42.9526 50.9236 43.0726 49.5154 43.6316C46.3641 44.8828 41.5964 48.5309 37.3902 51.7498C36.0284 52.7916 34.7426 53.7755 33.699 54.529C30.6451 56.734 29.8662 60.9135 31.9252 64.0441C33.1902 65.9677 34.8238 66.7046 36.5256 66.8274L11.7515 96.3918C11.4707 96.7269 11.3352 97.1594 11.3751 97.5941C11.415 98.0287 11.6269 98.4296 11.9641 98.7085L32.4075 115.62C32.7053 115.867 33.0793 116 33.4635 116C33.514 116 33.5649 115.998 33.6159 115.993C34.0524 115.953 34.4548 115.741 34.7346 115.406L40.9987 107.894C42.1257 108.907 43.5656 109.462 45.0878 109.462H45.092C46.6406 109.461 48.1041 108.886 49.2388 107.838C49.3705 108.004 49.5104 108.163 49.6589 108.316C50.8373 109.527 52.3838 110.194 54.0143 110.194H54.0188C57.2586 110.192 59.9162 107.671 60.1182 104.498C60.9797 104.946 61.9413 105.184 62.9382 105.184H62.942C64.5701 105.183 66.1041 104.548 67.2611 103.395C68.4182 102.243 69.0549 100.715 69.0537 99.0948L69.0516 96.1572C69.91 96.6017 70.8666 96.8373 71.8584 96.8373H71.8631C73.4915 96.8363 75.0252 96.2014 76.1824 95.0487C77.3396 93.8959 77.9764 92.3685 77.975 90.7571L78.1057 63.4101L81.2113 59.6863L81.7814 60.1729C82.9213 61.1457 84.3232 61.6219 85.7189 61.6219C87.4256 61.6219 89.1231 60.9093 90.3188 59.522C90.3369 59.5008 90.3546 59.4792 90.3719 59.4574C91.4467 58.0741 91.8983 56.4797 91.7534 54.9625C93.357 54.8834 94.9267 54.1759 96.0518 52.8703C96.0699 52.8492 96.0876 52.8276 96.1048 52.8055C97.1811 51.4201 97.6325 49.8235 97.4862 48.3047C97.5412 48.3019 97.5959 48.3026 97.6511 48.2984C99.267 48.1751 100.735 47.4366 101.785 46.2186C101.803 46.1975 101.821 46.1759 101.838 46.1541C102.903 44.783 103.352 43.1801 103.211 41.6594C104.818 41.5824 106.391 40.8751 107.518 39.5672C109.691 37.0455 109.398 33.2342 106.864 31.071L105.819 30.1792L114.621 19.6251C115.201 18.926 115.105 17.8905 114.404 17.3105ZM72.4402 15.3092C72.6007 14.5422 72.7508 13.8235 72.89 13.169C73.1057 12.1542 74.0436 9.1337 77.5248 9.1337C77.9118 9.1337 78.3304 9.17103 78.7827 9.25275L84.4938 10.6959C85.4275 10.9559 86.208 11.5657 86.6918 12.4139C87.1783 13.2662 87.3034 14.2508 87.0443 15.1863C86.5061 17.129 84.4801 18.2735 82.5294 17.7386L79.1619 16.8127C78.5338 16.6401 77.862 16.851 77.4472 17.3516C77.1119 17.7564 76.3893 18.6419 75.4018 19.851C73.4233 22.2745 71.5943 24.507 69.9147 26.5494C70.8888 22.7273 71.7581 18.5705 72.4402 15.3092ZM33.2478 112.041L15.348 97.2327L38.9756 69.0365L38.9725 103.38C38.9728 103.911 39.0417 104.431 39.1747 104.933L33.2478 112.041ZM87.7829 57.4121C87.3095 57.9452 86.6538 58.2683 85.9315 58.3235C85.196 58.3786 84.4846 58.1502 83.9307 57.6772L79.2985 53.7236C77.9446 52.5681 78.1853 50.9443 79.0284 49.8325C80.0178 48.7176 81.7344 48.5943 82.8753 49.5631L87.5127 53.521L87.5143 53.5226C88.8666 54.6784 88.6257 56.3012 87.7829 57.4121ZM93.5158 50.7602C92.5241 51.8775 90.8049 51.9994 89.6633 51.0253L83.1719 45.4848C81.8177 44.3291 82.0584 42.7051 82.9017 41.5932C83.8932 40.4771 85.6103 40.3552 86.7512 41.326C86.7522 41.3267 86.7529 41.3276 86.7538 41.3283L93.2454 46.8688C93.2454 46.8688 93.2457 46.8691 93.2459 46.8691C93.2459 46.8693 93.2461 46.8693 93.2464 46.8695C94.5996 48.0256 94.3589 49.6488 93.5158 50.7602ZM99.2488 44.1088C98.7752 44.6418 98.1195 44.9649 97.397 45.0201C96.6624 45.0767 95.9505 44.8468 95.3962 44.3737L88.9049 38.8332C87.5507 37.6774 87.7914 36.0536 88.6345 34.9418C89.625 33.8261 91.3428 33.7038 92.4835 34.6736C92.484 34.6741 92.4844 34.6743 92.4852 34.6748C92.4859 34.6755 92.4866 34.676 92.4873 34.6767L98.9786 40.2172C98.9815 40.2195 98.9845 40.2216 98.9876 40.2242C98.9907 40.2268 98.9933 40.2299 98.9966 40.2324C100.287 41.3025 100.101 42.9836 99.2488 44.1088ZM105.009 37.4261C104.533 37.9777 103.866 38.3121 103.13 38.3682C102.393 38.4246 101.684 38.1949 101.129 37.7218L94.6378 32.181C93.2837 31.0252 93.5241 29.4017 94.3674 28.2899C94.8408 27.7566 95.4968 27.4335 96.219 27.3783C96.9541 27.3226 97.6657 27.5518 98.22 28.0247L104.712 33.5653C105.844 34.5318 105.98 36.2997 105.009 37.4261ZM103.31 28.0379L100.371 25.5298C99.1469 24.4851 97.5824 23.9781 95.967 24.101C94.3509 24.224 92.883 24.9627 91.8332 26.1805C91.815 26.2016 91.7976 26.2232 91.7801 26.2451C90.7046 27.6293 90.2529 29.2244 90.3983 30.7421C88.7942 30.8212 87.2246 31.5273 86.1 32.8322C86.0818 32.8533 86.0641 32.8749 86.0469 32.897C84.9718 34.281 84.52 35.8759 84.6651 37.393C83.0615 37.4722 81.4921 38.1782 80.3672 39.4836C80.3491 39.5047 80.3314 39.5263 80.3141 39.5484C78.7962 41.5026 78.5189 43.8766 79.4132 45.8596C78.3139 46.1731 77.2917 46.797 76.4939 47.7226C76.4757 47.7438 76.458 47.7654 76.4408 47.7874C74.3221 50.5149 74.6194 54.0608 77.1477 56.2186L78.702 57.545L75.1845 61.7631C74.9403 62.0561 74.8058 62.4243 74.8039 62.805L74.6706 90.7501C74.6713 91.4924 74.378 92.1935 73.8447 92.7249C73.3112 93.2561 72.6066 93.5489 71.8581 93.5494C71.1132 93.5494 70.4091 93.2575 69.8758 92.7275C69.3536 92.2088 69.0608 91.5269 69.0476 90.8029L69.0426 83.5659C69.0419 82.6585 68.3026 81.9233 67.3897 81.9233C66.4777 81.924 65.7386 82.6604 65.7391 83.5682L65.7495 99.0967C65.7502 99.8389 65.4566 100.54 64.9234 101.071C64.3899 101.603 63.6853 101.896 62.9375 101.896C62.1923 101.896 61.4877 101.604 60.9545 101.074C60.4365 100.559 60.1439 99.8843 60.1265 99.1666L60.117 84.9811C60.1163 84.0738 59.377 83.3386 58.4641 83.3386C57.5519 83.3393 56.8131 84.0756 56.8135 84.9835L56.8265 104.107C56.8277 105.649 55.5669 106.905 54.0141 106.906C52.7722 106.907 51.6731 105.973 51.2979 104.825C51.1372 104.333 51.2037 103.875 51.2032 103.371L51.1912 85.5942C51.1905 84.6869 50.4512 83.9517 49.5383 83.9517C48.6263 83.9524 47.887 84.6888 47.8877 85.5966L47.8998 103.374C47.9012 104.113 47.5975 104.827 47.0736 105.348C46.5404 105.88 45.8355 106.173 45.0875 106.173C44.3424 106.173 43.6382 105.881 43.1047 105.351C42.5707 104.82 42.2765 104.119 42.276 103.378L42.2796 64.5363C42.2829 64.3965 42.268 64.2549 42.234 64.1138C42.2144 64.0326 42.1887 63.9532 42.1573 63.8767C42.032 63.5702 41.822 63.3197 41.562 63.1421C41.4761 63.0834 41.3838 63.0327 41.2862 62.9905C40.9265 62.8345 40.5089 62.805 40.107 62.9381C36.3446 64.1826 35.3979 63.3197 34.6898 62.2433C33.5973 60.5824 34.0145 58.3624 35.6393 57.1893C36.72 56.4088 38.0237 55.4113 39.4039 54.3551C43.2402 51.4196 48.0142 47.7661 50.7396 46.6843C51.7139 46.2975 52.6412 46.206 54.4883 46.0242C55.2378 45.9505 56.087 45.8666 57.125 45.7443C57.9629 45.6454 58.3452 45.6004 66.3705 36.0052C70.527 31.0353 78.9611 20.705 79.3205 20.2659L81.6511 20.9067C85.3607 21.9242 89.2071 19.7491 90.2293 16.0592C90.723 14.2771 90.487 12.4059 89.5649 10.7899C89.2775 10.2859 88.9344 9.82641 88.5441 9.41782L93.097 3.95856L111.023 18.788L103.31 28.0379ZM13.3648 65.4513C14.277 65.4513 15.0165 64.7154 15.0165 63.8076C15.0165 58.2868 19.5298 53.7955 25.0775 53.7955C25.9898 53.7955 26.7293 53.0596 26.7293 52.1518C26.7293 51.244 25.9898 50.508 25.0775 50.508C19.5298 50.508 15.0165 46.0167 15.0165 40.4957C15.0165 39.5879 14.277 38.8519 13.3648 38.8519C12.4525 38.8519 11.713 39.5879 11.713 40.4957C11.713 46.0165 7.1995 50.508 1.65175 50.508C0.739511 50.508 0 51.244 0 52.1518C0 53.0596 0.739511 53.7955 1.65175 53.7955C7.1995 53.7955 11.713 58.2868 11.713 63.8076C11.713 64.7154 12.4525 65.4513 13.3648 65.4513ZM8.08366 52.1518C10.3038 50.9335 12.1408 49.1055 13.365 46.8961C14.5892 49.1055 16.4262 50.9338 18.6463 52.1518C16.4262 53.3698 14.5892 55.198 13.365 57.4074C12.1408 55.198 10.3038 53.3698 8.08366 52.1518ZM1.65198 14.9433C7.19973 14.9433 11.7133 19.4347 11.7133 24.9555C11.7133 25.8633 12.4528 26.5992 13.365 26.5992C14.2772 26.5992 15.0167 25.8633 15.0167 24.9555C15.0167 19.4347 19.53 14.9433 25.0778 14.9433C25.99 14.9433 26.7295 14.2074 26.7295 13.2996C26.7295 12.3918 25.99 11.6559 25.0778 11.6559C19.53 11.6559 15.0167 7.16452 15.0167 1.64373C15.0167 0.735923 14.2772 5.90476e-06 13.365 5.90476e-06C12.4528 5.90476e-06 11.7133 0.735923 11.7133 1.64373C11.7133 7.16452 7.19973 11.6559 1.65198 11.6559C0.739747 11.6559 0.000235834 12.3918 0.000235834 13.2996C0.000235834 14.2074 0.739747 14.9433 1.65198 14.9433ZM13.3648 8.04391C14.5889 10.2533 16.4259 12.0814 18.6461 13.2996C16.4259 14.5178 14.5889 16.3459 13.3648 18.5553C12.1406 16.3459 10.3036 14.5178 8.08342 13.2996C10.3038 12.0816 12.1408 10.2535 13.3648 8.04391ZM22.3946 33.0635C22.3946 33.9713 23.1341 34.7072 24.0464 34.7072C29.5941 34.7072 34.1077 39.1985 34.1077 44.7193C34.1077 45.6271 34.8472 46.363 35.7594 46.363C36.6716 46.363 37.4112 45.6271 37.4112 44.7193C37.4112 39.1985 41.9244 34.7072 47.4722 34.7072C48.3844 34.7072 49.1239 33.9713 49.1239 33.0635C49.1239 32.1557 48.3844 31.4197 47.4722 31.4197C41.9244 31.4197 37.4112 26.9284 37.4112 21.4076C37.4112 20.4998 36.6716 19.7639 35.7594 19.7639C34.8472 19.7639 34.1077 20.4998 34.1077 21.4076C34.1077 26.9284 29.5941 31.4197 24.0464 31.4197C23.1341 31.4197 22.3946 32.1557 22.3946 33.0635ZM35.7594 27.8078C36.9836 30.0172 38.8206 31.8452 41.0407 33.0635C38.8206 34.2817 36.9836 36.1097 35.7594 38.3191C34.5352 36.1097 32.6982 34.2817 30.4781 33.0635C32.6982 31.8452 34.5352 30.0172 35.7594 27.8078Z" fill="#1D264D"/>
</svg>
