<svg width="129" height="150" viewBox="0 0 129 150" fill="none" xmlns="http://www.w3.org/2000/svg">
<path d="M126.365 103.329C122.67 99.3484 116.441 99.131 112.48 102.843L111.31 103.94L100.172 96.6284L100.946 79.7097C101.517 67.2005 100.909 63.2077 96.6034 51.2273C93.2713 41.9553 88.7259 30.3698 85.0739 21.0606C82.4599 14.3978 80.2025 8.64365 79.4782 6.4826C79.475 6.47323 79.4721 6.46414 79.4686 6.45448C77.564 0.955468 72.5609 -0.795109 68.6036 0.318522C67.0985 0.741883 65.6444 1.62054 64.5005 2.9126C63.3566 1.62054 61.9028 0.741883 60.3974 0.318522C56.4396 -0.794523 51.437 0.955175 49.5321 6.45418C49.5289 6.46356 49.5257 6.47264 49.5225 6.48231C48.9425 8.21267 47.3584 12.2972 45.7329 16.4525C45.1439 17.9588 45.8813 19.6592 47.38 20.2511C48.8798 20.8441 50.5713 20.1017 51.1603 18.5963C53.0651 13.726 54.4551 10.1215 55.0441 8.36736C55.8063 6.18493 57.4904 5.58607 58.8252 5.96138C60.2164 6.35281 61.4672 7.8772 60.8129 10.9825L54.0029 40.4092C52.5444 41.4766 51.125 43.2435 49.9523 46.0694C46.5755 54.2067 43.7361 62.8854 42.1622 69.879C41.8071 71.4576 42.7926 73.0259 44.363 73.383C45.9335 73.7399 47.4949 72.7499 47.85 71.1716C49.3531 64.4919 52.0811 56.1647 55.3345 48.3248C56.8591 44.651 58.1744 44.7709 58.6695 44.8151C60.2522 44.9581 61.4244 46.3785 61.2824 47.9811C61.1488 49.4897 60.5651 54.9872 60.0003 60.304C59.4069 65.8894 58.8465 71.1652 58.7086 72.7247C58.3689 76.5593 59.0396 81.2122 59.7495 86.1381C61.8075 100.418 64.3521 118.085 45.3801 129.89L22.0822 108.057L33.4117 100.619C34.2756 100.051 34.7769 99.0674 34.7296 98.0314L33.8797 79.4411C33.342 67.6819 33.8284 64.496 37.8816 53.2179C38.9336 50.2901 40.1573 46.9905 41.6225 43.1304C42.1963 41.6187 41.4417 39.9255 39.9372 39.3489C38.4326 38.7723 36.7479 39.5309 36.1738 41.0424C34.6964 44.9352 33.461 48.2667 32.3967 51.2276C28.0913 63.208 27.4828 67.2008 28.0546 79.71L28.8278 96.6286L17.6899 103.941L16.5198 102.844C12.5584 99.131 6.33003 99.349 2.63487 103.33C-1.05941 107.31 -0.842474 113.569 3.11889 117.281L35.2058 147.352C37.0961 149.124 39.5019 150 41.903 150C44.5339 150 47.1587 148.947 49.0904 146.866C50.8801 144.938 51.8154 142.425 51.7242 139.79C51.6513 137.691 50.9325 135.716 49.6741 134.091C56.9142 129.317 61.809 123.419 64.4996 116.216C67.1903 123.419 72.0847 129.317 79.3249 134.091C78.0667 135.716 77.3477 137.691 77.2751 139.79C77.1838 142.425 78.1192 144.938 79.9089 146.867C81.8409 148.948 84.4651 150 87.0963 150C89.4971 150 91.9035 149.123 93.7935 147.352L125.88 117.281C129.843 113.568 130.06 107.31 126.365 103.329ZM44.8266 142.869C43.325 144.487 40.7935 144.575 39.184 143.066L7.09717 112.995C5.48737 111.487 5.39931 108.943 6.90064 107.326C7.68557 106.48 8.75216 106.052 9.82166 106.052C10.7973 106.052 11.7752 106.408 12.5432 107.128L44.6301 137.199C45.4101 137.93 45.86 138.922 45.897 139.993C45.934 141.064 45.5541 142.085 44.8266 142.869ZM60.2823 39.147L64.5005 20.9202L68.7188 39.147C67.0859 39.5071 65.6394 40.3254 64.5005 41.4493C63.3619 40.3254 61.9151 39.5071 60.2823 39.147ZM64.5005 73.4868C64.5725 74.4647 64.5658 75.5318 64.5005 76.6803C64.4355 75.5318 64.4285 74.4647 64.5005 73.4868ZM69.2512 86.1378C69.9612 81.2119 70.6318 76.559 70.2921 72.7244C70.1539 71.1649 69.5935 65.8891 69.0004 60.3034C68.4356 54.9869 67.8519 49.4894 67.7183 47.9805C67.5763 46.3779 68.7485 44.9578 70.3312 44.8145C70.8271 44.7706 72.1419 44.6504 73.6662 48.3242C76.9196 56.1644 79.6476 64.4916 81.1507 71.171C81.5059 72.7493 83.067 73.739 84.6377 73.3825C86.2084 73.0253 87.1936 71.457 86.8385 69.8784C85.2646 62.8849 82.4252 54.2064 79.0481 46.0688C77.8754 43.2424 76.4563 41.4757 74.9976 40.4083L68.1878 10.9825C67.5338 7.8772 68.7844 6.35281 70.1755 5.96138C71.5103 5.58607 73.195 6.18552 73.9569 8.36824C74.7328 10.6796 76.903 16.2108 79.6488 23.2093C83.2871 32.4831 87.815 44.0246 91.1186 53.2173C95.1718 64.4954 95.6578 67.6813 95.1202 79.4405L94.2702 98.0309C94.223 99.0669 94.7242 100.051 95.5882 100.618L106.918 108.056L83.6201 129.89C64.6486 118.085 67.1932 100.417 69.2512 86.1378ZM121.904 112.995L89.817 143.067C88.2072 144.575 85.676 144.486 84.1744 142.869C83.4469 142.085 83.067 141.064 83.104 139.993C83.141 138.922 83.5909 137.93 84.3709 137.2L116.458 107.128C117.226 106.408 118.204 106.052 119.179 106.052C120.249 106.052 121.315 106.48 122.1 107.326C123.602 108.943 123.514 111.487 121.904 112.995Z" fill="#1D264D"/>
<path d="M42.8185 32.7565C43.2035 32.9217 43.6042 33 43.9982 33C45.1618 33 46.2687 32.3187 46.756 31.1819L46.7569 31.1798C47.4091 29.6577 46.7038 27.8957 45.1813 27.2435C43.6591 26.5901 41.8954 27.2972 41.2432 28.8193C40.5909 30.3414 41.2959 32.104 42.8185 32.7565Z" fill="#1D264D"/>
</svg>
