<svg width="141" height="132" viewBox="0 0 141 132" fill="none" xmlns="http://www.w3.org/2000/svg">
<path d="M33.7485 109.668C31.3024 107.549 28.4076 106.06 25.315 105.283C28.3779 103.533 30.4498 100.224 30.4498 96.4361C30.4498 90.8275 25.9113 86.2646 20.3327 86.2646C14.754 86.2646 10.2155 90.8275 10.2155 96.4361C10.2155 100.224 12.2874 103.533 15.3503 105.283C12.2577 106.06 9.36292 107.549 6.91682 109.668C3.23056 112.861 0.783036 117.267 0.0246614 122.075C-0.0758083 122.713 0.134265 123.36 0.589803 123.815C5.87388 129.093 12.8854 132 20.3327 132C27.7806 132 34.792 129.093 40.0755 123.815C40.5311 123.36 40.7411 122.713 40.6407 122.075C39.8826 117.268 37.4348 112.861 33.7485 109.668ZM20.333 90.282C23.7081 90.282 26.4542 93.0428 26.4542 96.4361C26.4542 99.8295 23.7081 102.59 20.333 102.59C16.9575 102.59 14.2117 99.8295 14.2117 96.4361C14.2117 93.0428 16.9575 90.282 20.333 90.282ZM20.333 127.983C14.2971 127.983 8.59541 125.756 4.16304 121.69C5.83535 114.091 12.4798 108.68 20.333 108.68C28.1861 108.68 34.8306 114.091 36.5029 121.69C32.0705 125.756 26.3691 127.983 20.333 127.983ZM33.7485 23.4033C31.3024 21.2844 28.4076 19.7954 25.3153 19.0186C28.3779 17.2681 30.4498 13.9595 30.4498 10.1713C30.4498 4.56267 25.9113 0 20.3327 0C14.754 0 10.2155 4.56267 10.2155 10.1713C10.2155 13.9595 12.2874 17.2681 15.3503 19.0186C12.258 19.7951 9.36292 21.2844 6.91711 23.403C3.23084 26.5963 0.783321 31.0026 0.0249467 35.8106C-0.075523 36.4483 0.13455 37.0956 0.590089 37.5505C5.87417 42.8285 12.8856 45.7351 20.333 45.7351C27.7808 45.7351 34.7923 42.8282 40.0758 37.5505C40.5313 37.0953 40.7414 36.4483 40.641 35.8106C39.8826 31.0032 37.4348 26.5966 33.7485 23.4033ZM20.333 4.01744C23.7081 4.01744 26.4542 6.778 26.4542 10.1713C26.4542 13.5646 23.7081 16.3255 20.333 16.3255C16.9575 16.3255 14.2117 13.5646 14.2117 10.1713C14.2117 6.778 16.9575 4.01744 20.333 4.01744ZM20.333 41.718C14.2971 41.718 8.59541 39.4912 4.16304 35.425C5.83535 27.8265 12.4798 22.4148 20.333 22.4148C28.1861 22.4148 34.8306 27.8262 36.5029 35.425C32.0705 39.4912 26.3691 41.718 20.333 41.718ZM134.083 109.668C131.637 107.549 128.742 106.06 125.65 105.283C128.713 103.533 130.785 100.224 130.785 96.4361C130.785 90.8275 126.246 86.2646 120.667 86.2646C115.089 86.2646 110.55 90.8275 110.55 96.4361C110.55 100.224 112.622 103.533 115.685 105.283C112.592 106.06 109.698 107.549 107.251 109.668C103.565 112.861 101.117 117.268 100.359 122.075C100.259 122.713 100.469 123.36 100.924 123.815C106.208 129.093 113.22 132 120.667 132C128.115 132 135.126 129.093 140.41 123.815C140.865 123.36 141.076 122.713 140.975 122.075C140.217 117.268 137.769 112.861 134.083 109.668ZM120.667 90.282C124.043 90.282 126.789 93.0428 126.789 96.4361C126.789 99.8295 124.042 102.59 120.667 102.59C117.292 102.59 114.546 99.8295 114.546 96.4361C114.546 93.0428 117.292 90.282 120.667 90.282ZM120.667 127.983C114.631 127.983 108.93 125.756 104.497 121.69C106.17 114.091 112.814 108.68 120.667 108.68C128.521 108.68 135.165 114.091 136.837 121.69C132.405 125.756 126.704 127.983 120.667 127.983ZM120.667 45.7354C128.115 45.7354 135.127 42.8285 140.41 37.5508C140.866 37.0956 141.076 36.4485 140.975 35.8109C140.217 31.0029 137.769 26.5966 134.083 23.4033C131.637 21.2844 128.742 19.7954 125.65 19.0186C128.713 17.2681 130.785 13.9595 130.785 10.1713C130.785 4.56267 126.246 0 120.667 0C115.089 0 110.55 4.56267 110.55 10.1713C110.55 13.9595 112.622 17.2681 115.685 19.0186C112.592 19.7951 109.698 21.2844 107.251 23.4033C103.565 26.5966 101.117 31.0029 100.359 35.8109C100.259 36.4485 100.469 37.0959 100.924 37.5508C106.208 42.8285 113.22 45.7354 120.667 45.7354ZM120.667 4.01744C124.043 4.01744 126.789 6.778 126.789 10.1713C126.789 13.5646 124.042 16.3255 120.667 16.3255C117.292 16.3255 114.546 13.5646 114.546 10.1713C114.546 6.778 117.292 4.01744 120.667 4.01744ZM120.667 22.4148C128.521 22.4148 135.165 27.8262 136.837 35.425C132.405 39.4912 126.704 41.718 120.667 41.718C114.631 41.718 108.93 39.4912 104.497 35.425C106.17 27.8265 112.814 22.4148 120.667 22.4148ZM47.1375 23.684C46.6891 22.6707 47.1427 21.4833 48.1508 21.0325C62.3541 14.68 78.6462 14.68 92.8495 21.0325C93.8576 21.4833 94.3115 22.6707 93.8628 23.684C93.5317 24.4324 92.8016 24.8769 92.0363 24.8769C91.7649 24.8769 91.4892 24.8209 91.2254 24.703C78.0542 18.812 62.9464 18.812 49.7751 24.703C48.7676 25.1541 47.5859 24.6978 47.1375 23.684ZM93.8628 108.316C94.3112 109.329 93.8576 110.517 92.8495 110.968C85.7478 114.144 78.1241 115.732 70.5001 115.732C62.8761 115.732 55.2524 114.144 48.1508 110.968C47.1427 110.517 46.6888 109.329 47.1375 108.316C47.5859 107.302 48.7667 106.846 49.7751 107.297C62.9464 113.188 78.0542 113.188 91.2254 107.297C92.2333 106.847 93.4144 107.302 93.8628 108.316ZM23.5956 55.004C19.9984 63.133 19.9984 72.458 23.5956 80.5871C24.0441 81.6006 23.5905 82.788 22.5824 83.2388C22.3187 83.3568 22.0426 83.4127 21.7715 83.4127C21.0063 83.4127 20.2762 82.9682 19.9451 82.2201C15.8886 73.0529 15.8886 62.5378 19.9451 53.3706C20.3935 52.357 21.5743 51.9013 22.5827 52.3519C23.5905 52.803 24.0443 53.9901 23.5956 55.004ZM117.405 80.5871C121.002 72.458 121.002 63.133 117.405 55.004C116.956 53.9904 117.41 52.803 118.418 52.3522C119.426 51.9019 120.607 52.3573 121.056 53.3709C125.112 62.5381 125.112 73.0532 121.056 82.2204C120.724 82.9685 119.994 83.413 119.229 83.413C118.958 83.413 118.682 83.3571 118.418 83.2391C117.41 82.788 116.956 81.6006 117.405 80.5871ZM70.5001 38.1648C55.2339 38.1648 42.8139 50.6516 42.8139 66C42.8139 81.3484 55.2339 93.8351 70.5001 93.8351C85.7664 93.8351 98.1864 81.3484 98.1864 66C98.1864 50.6516 85.7664 38.1648 70.5001 38.1648ZM81.0229 54.4849C80.7977 54.6808 80.5514 54.8269 80.3185 54.8269C80.3165 54.8269 80.3142 54.8269 80.3122 54.8269C79.7454 54.8206 78.647 54.1032 77.2145 52.1421C76.7978 49.2223 77.4177 46.2502 78.9399 43.75C81.2632 44.6438 83.4113 45.8944 85.3186 47.4362C83.946 48.3803 82.9141 49.3201 82.198 50.2786C81.1873 51.6307 80.7889 53.0845 81.0229 54.4849ZM54.2195 48.7224C57.4188 51.2921 59.684 54.8238 60.6838 58.8438C59.8212 62.9757 61.5795 66.1446 65.5788 67.7398C65.8166 71.6904 65.0856 72.9562 64.7346 73.3295C64.5779 73.4963 64.3435 73.669 63.7764 73.6438C60.2816 73.3631 57.9703 71.6135 56.5035 68.1401C56.4758 68.075 56.4449 68.0116 56.411 67.9499C54.1567 63.8687 50.8809 62.1983 46.9979 63.0558C47.6895 57.4411 50.3303 52.4288 54.2195 48.7224ZM46.845 67.2781C49.5065 66.2522 51.3059 67.0342 52.8691 69.814C54.9108 74.5626 58.5862 77.2718 63.5052 77.652C63.5269 77.6537 63.5486 77.6549 63.5706 77.656C63.6665 77.6603 63.7618 77.6623 63.856 77.6623C65.3633 77.6621 66.666 77.122 67.637 76.0901C69.371 74.2475 69.9478 71.0602 69.4518 66.0591C69.3701 65.2352 68.7939 64.5463 68.0007 64.3236C64.4363 63.3238 64.0918 61.6072 64.6709 59.3379C64.7497 59.03 64.7542 58.7075 64.6849 58.3973C63.6091 53.5973 61.0568 49.3425 57.4043 46.1647C61.1585 43.6512 65.6613 42.1823 70.5001 42.1823C72.0357 42.1823 73.5356 42.3352 74.9907 42.617C73.2973 45.8671 72.6979 49.6215 73.3504 53.2831C73.4015 53.57 73.5142 53.8424 73.6806 54.0814C75.8958 57.2603 78.0496 58.8185 80.2654 58.8444C80.2845 58.8446 80.3034 58.8446 80.3225 58.8446C82.0365 58.8446 83.5658 57.9422 84.8684 56.1616C85.3089 55.5595 85.3805 54.7615 85.0543 54.0897C84.6358 53.2285 85.8572 51.819 88.2838 50.2898C91.5725 54.0481 93.7015 58.8515 94.1108 64.1353C93.4951 63.8303 92.8118 63.6475 92.064 63.6719C89.6496 63.7456 88.1049 65.8815 87.3234 67.2339C85.0023 67.8173 83.3497 67.186 82.0287 65.2418C81.6426 64.674 80.9958 64.3546 80.3102 64.3672C79.6263 64.391 79.0018 64.7652 78.6556 65.3586C74.7809 72.0015 74.0172 79.9724 76.3753 89.0756C74.4961 89.5594 72.5275 89.8177 70.5001 89.8177C57.8638 89.8177 47.508 79.8191 46.845 67.2781ZM80.1646 87.7372C78.4646 80.9512 78.6993 74.9471 80.8756 69.8338C83.153 71.5885 86.0207 71.9375 89.3154 70.8301C89.8063 70.6651 90.2142 70.315 90.4534 69.8536C91.3779 68.0707 92.0549 67.6913 92.1856 67.6873C92.1939 67.6873 92.8158 67.7616 93.9381 69.4553C92.7513 77.6288 87.4201 84.4636 80.1646 87.7372Z" fill="#1D264D"/>
</svg>
