<svg width="120" height="120" viewBox="0 0 120 120" fill="none" xmlns="http://www.w3.org/2000/svg">
<g clip-path="url(#clip0_2001_1092)">
<path d="M60 28.125C67.7541 28.125 74.0625 21.8166 74.0625 14.0625C74.0625 6.30844 67.7541 0 60 0C52.2459 0 45.9375 6.30844 45.9375 14.0625C45.9375 21.8166 52.2459 28.125 60 28.125ZM60 3.51562C65.8155 3.51562 70.5469 8.24695 70.5469 14.0625C70.5469 19.878 65.8155 24.6094 60 24.6094C54.1845 24.6094 49.4531 19.878 49.4531 14.0625C49.4531 8.24695 54.1845 3.51562 60 3.51562Z" fill="#1D264D"/>
<path d="M74.0625 31.6406H45.9375C40.122 31.6406 35.3906 36.372 35.3906 42.1875V73.3127C35.3906 76.7013 37.9952 79.4482 41.3203 79.5663C42.3272 79.6036 43.3003 79.3985 44.1797 78.9799V112.969C44.1797 116.846 47.3339 120 51.2109 120C55.088 120 58.2422 116.846 58.2422 112.969V74.2969H61.7578V112.969C61.7578 116.846 64.912 120 68.7891 120C72.6661 120 75.8203 116.846 75.8203 112.969V78.9797C76.6338 79.3664 77.5275 79.5705 78.4533 79.5705C78.5285 79.5705 78.6042 79.5691 78.6797 79.5663C82.0048 79.4482 84.6094 76.7011 84.6094 73.3127V42.1875C84.6094 36.372 79.878 31.6406 74.0625 31.6406ZM81.0938 73.3127C81.0938 74.7738 79.9547 76.0031 78.5548 76.0531C77.8291 76.0772 77.1455 75.8168 76.6263 75.3157C76.1065 74.8141 75.8203 74.1401 75.8203 73.418V42.1875C75.8203 41.2167 75.0333 40.4297 74.0625 40.4297C73.0917 40.4297 72.3047 41.2167 72.3047 42.1875V112.969C72.3047 114.907 70.7276 116.484 68.7891 116.484C66.8505 116.484 65.2734 114.907 65.2734 112.969V72.5391C65.2734 71.5683 64.4864 70.7812 63.5156 70.7812H56.4844C55.5136 70.7812 54.7266 71.5683 54.7266 72.5391V112.969C54.7266 114.907 53.1495 116.484 51.2109 116.484C49.2724 116.484 47.6953 114.907 47.6953 112.969V52.7344C47.6953 51.7636 46.9083 50.9766 45.9375 50.9766C44.9667 50.9766 44.1797 51.7636 44.1797 52.7344V73.418C44.1797 74.1401 43.8935 74.8141 43.3737 75.3157C42.8543 75.817 42.1695 76.0791 41.4452 76.0531C40.0453 76.0031 38.9062 74.7738 38.9062 73.3127V42.1875C38.9062 38.3105 42.0605 35.1562 45.9375 35.1562H74.0625C77.9395 35.1562 81.0938 38.3105 81.0938 42.1875V73.3127Z" fill="#1D264D"/>
<path d="M45.9375 40.4297C44.9667 40.4297 44.1797 41.2167 44.1797 42.1875V45.7031C44.1797 46.6739 44.9667 47.4609 45.9375 47.4609C46.9083 47.4609 47.6953 46.6739 47.6953 45.7031V42.1875C47.6953 41.2167 46.9083 40.4297 45.9375 40.4297Z" fill="#1D264D"/>
<path d="M99.3259 81.9246C97.27 79.8687 93.9243 79.8687 91.8681 81.9246C89.8122 83.9808 89.8122 87.3263 91.8681 89.3825L98.4616 95.9759C97.9347 96.2269 97.4411 96.5703 97.0056 97.006C96.0522 97.9594 95.5408 99.1901 95.4716 100.441C94.1725 100.511 92.961 101.051 92.0338 101.978C91.0377 102.974 90.4893 104.298 90.4893 105.707C90.4893 107.115 91.038 108.44 92.0338 109.436L98.9943 116.397C101.393 118.795 104.544 119.995 107.695 119.995C110.846 119.995 113.997 118.795 116.396 116.397C118.72 114.072 120 110.982 120 107.696C120 104.409 118.72 101.319 116.396 98.9951L99.3259 81.9246ZM113.91 113.91C110.483 117.337 104.907 117.337 101.481 113.91L94.5201 106.95C94.188 106.618 94.0052 106.176 94.0052 105.707C94.0052 105.237 94.188 104.796 94.5201 104.464C94.852 104.132 95.2933 103.949 95.763 103.949C96.2324 103.949 96.674 104.132 97.0059 104.464C97.6923 105.15 98.8054 105.15 99.4916 104.464C99.8348 104.121 100.007 103.671 100.007 103.221C100.007 102.771 99.835 102.321 99.4916 101.978C98.8063 101.293 98.8063 100.177 99.4916 99.492C99.8237 99.1599 100.265 98.9771 100.735 98.9771C101.204 98.9771 101.646 99.1599 101.978 99.492C102.664 100.178 103.777 100.178 104.463 99.492C105.15 98.8055 105.15 97.6925 104.463 97.0062C104.458 97.0003 94.3541 86.8969 94.3541 86.8969C93.6688 86.2116 93.6688 85.0962 94.3541 84.4109C95.0399 83.7256 96.1548 83.7258 96.8402 84.4109L113.91 101.481C115.57 103.14 116.484 105.348 116.484 107.695C116.484 110.043 115.57 112.25 113.91 113.91Z" fill="#1D264D"/>
<path d="M28.1318 81.9246C26.0759 79.8687 22.7302 79.8684 20.674 81.9246L3.60398 98.9946C1.27992 101.319 0 104.409 0 107.695C0 110.982 1.27992 114.072 3.60398 116.396C6.00281 118.795 9.15375 119.994 12.3047 119.994C15.4556 119.994 18.6066 118.795 21.0054 116.396L27.9659 109.436C30.022 107.379 30.022 104.034 27.9659 101.978C27.0387 101.051 25.8272 100.511 24.528 100.441C24.4589 99.1901 23.9475 97.9594 22.9941 97.0057C22.5586 96.5702 22.065 96.2266 21.5381 95.9756L28.1318 89.3822C30.1877 87.3263 30.1877 83.9808 28.1318 81.9246ZM25.6458 86.8964L15.5421 96.9998C14.8498 97.6922 14.8498 98.8052 15.5363 99.4915C16.2225 100.178 17.3355 100.178 18.022 99.4915C18.3541 99.1594 18.7955 98.9766 19.2652 98.9766C19.7346 98.9766 20.1762 99.1594 20.508 99.4915C21.1934 100.177 21.1934 101.292 20.508 101.977C20.1649 102.321 19.9931 102.771 19.9931 103.22C19.9931 103.67 20.1647 104.12 20.508 104.463C21.1945 105.15 22.3076 105.15 22.9938 104.463C23.3259 104.131 23.7673 103.948 24.2367 103.948C24.7062 103.948 25.1477 104.131 25.4796 104.463C26.1652 105.149 26.1652 106.264 25.4796 106.949L18.5191 113.91C15.0923 117.337 9.51633 117.337 6.08953 113.91C4.42969 112.25 3.51562 110.043 3.51562 107.695C3.51562 105.348 4.42969 103.14 6.08977 101.48L23.1598 84.4104C23.5024 84.0677 23.9527 83.8964 24.4029 83.8964C24.8529 83.8964 25.3031 84.0677 25.6458 84.4104C26.3311 85.0959 26.3311 86.2111 25.6458 86.8964Z" fill="#1D264D"/>
<path d="M91.8681 38.0754C92.8961 39.1034 94.2466 39.6176 95.597 39.6176C96.9475 39.6176 98.2977 39.1036 99.3259 38.0754L116.396 21.0054C118.72 18.6813 120 15.5913 120 12.3047C120 9.01804 118.72 5.92804 116.396 3.60398C111.598 -1.19368 103.792 -1.19368 98.9945 3.60398L92.0341 10.5644C91.038 11.5605 90.4895 12.8848 90.4895 14.2934C90.4895 15.7019 91.038 17.0262 92.0341 18.0223C92.9612 18.9494 94.1727 19.4887 95.4719 19.5591C95.541 20.8099 96.0524 22.0406 97.0059 22.9943C97.4413 23.4298 97.9349 23.7734 98.4618 24.0244L91.8681 30.6178C89.8122 32.6737 89.8122 36.0192 91.8681 38.0754ZM94.3541 33.1036L104.458 23.0002C105.15 22.3078 105.15 21.1948 104.464 20.5085C103.777 19.822 102.664 19.822 101.978 20.5085C101.646 20.8406 101.204 21.0234 100.735 21.0234C100.265 21.0234 99.8237 20.8406 99.4919 20.5085C98.8066 19.8232 98.8066 18.7078 99.4919 18.0225C99.835 17.6794 100.007 17.2294 100.007 16.7796C100.007 16.3298 99.8352 15.8798 99.4919 15.5367C98.8054 14.8502 97.6923 14.8502 97.0061 15.5367C96.674 15.8688 96.2327 16.0516 95.7632 16.0516C95.2937 16.0516 94.8522 15.8688 94.5203 15.5367C94.1884 15.2046 94.0054 14.7633 94.0054 14.2938C94.0054 13.8244 94.1882 13.3828 94.5203 13.0509L101.481 6.09023C104.908 2.66343 110.484 2.66343 113.91 6.09023C115.57 7.74984 116.484 9.95695 116.484 12.3047C116.484 14.6524 115.57 16.8595 113.91 18.5196L96.8402 35.5896C96.1548 36.2749 95.0395 36.2749 94.3544 35.5896C93.6688 34.9041 93.6688 33.7889 94.3541 33.1036Z" fill="#1D264D"/>
<path d="M28.1318 30.6176L21.5384 24.0241C22.0652 23.7731 22.5588 23.4298 22.9943 22.9941C23.9477 22.0406 24.4591 20.8099 24.5283 19.5588C25.8274 19.4887 27.0389 18.9492 27.9661 18.022C28.9622 17.0259 29.5106 15.7017 29.5106 14.2931C29.5106 12.8845 28.962 11.5601 27.9661 10.5642L21.0054 3.60398C16.2077 -1.19368 8.40164 -1.19368 3.60398 3.60398C1.27992 5.92804 0 9.01804 0 12.3047C0 15.5913 1.27992 18.6813 3.60398 21.0054L20.674 38.0754C21.702 39.1034 23.0524 39.6176 24.4029 39.6176C25.7534 39.6176 27.1038 39.1036 28.132 38.0754C30.1877 36.0192 30.1877 32.6737 28.1318 30.6176ZM25.6458 35.5896C24.9602 36.2752 23.8453 36.2749 23.1598 35.5896L6.08977 18.5196C4.42969 16.8595 3.51562 14.6524 3.51562 12.3047C3.51562 9.95695 4.42969 7.74984 6.08977 6.08976C7.80352 4.37601 10.0538 3.5196 12.3047 3.5196C14.5552 3.5196 16.8063 4.37648 18.5196 6.08976L25.4801 13.0505C25.8122 13.3823 25.995 13.8237 25.995 14.2934C25.995 14.7628 25.8122 15.2044 25.4801 15.5362C25.1482 15.8684 24.7069 16.0512 24.2372 16.0512C23.7677 16.0512 23.3262 15.8684 22.9943 15.5362C22.3078 14.8498 21.1948 14.8498 20.5085 15.5362C20.1654 15.8794 19.9936 16.3294 19.9936 16.7791C19.9936 17.2289 20.1652 17.6789 20.5085 18.022C21.1938 18.7073 21.1938 19.8227 20.5085 20.508C20.1764 20.8402 19.7351 21.023 19.2656 21.023C18.7962 21.023 18.3546 20.8402 18.0225 20.508C17.336 19.8216 16.223 19.8216 15.5367 20.508C14.8502 21.1945 14.8502 22.3076 15.5367 22.9938C15.5426 22.9997 25.646 33.1031 25.646 33.1031C26.3311 33.7889 26.3311 34.9041 25.6458 35.5896Z" fill="#1D264D"/>
</g>
<defs>
<clipPath id="clip0_2001_1092">
<rect width="120" height="120" fill="white"/>
</clipPath>
</defs>
</svg>
