<svg width="117" height="117" viewBox="0 0 117 117" fill="none" xmlns="http://www.w3.org/2000/svg">
<path d="M13.4924 91.2568C9.58276 91.2568 5.76319 90.2592 2.30157 88.3153C0.520509 87.3982 -0.169325 85.1034 0.894676 83.377C4.42986 77.7281 5.70642 70.8228 4.08783 64.3287C2.41017 57.5963 -0.0172834 51.9262 9.27673e-05 44.7991C0.0603301 19.7945 20.8726 -0.476556 45.8517 0.00852831C69.9785 0.494482 89.8624 20.7759 89.8627 44.9091C89.8629 76.4274 56.8314 98.556 27.6705 86.3848C23.6511 89.5398 18.599 91.2568 13.4924 91.2568ZM8.74175 83.5615C14.2349 85.2676 20.413 83.9047 24.649 79.8094C25.6928 78.8002 27.254 78.5462 28.5636 79.1726C53.5294 91.1091 82.9122 72.3996 82.9119 44.9091C82.9119 24.3954 66.2238 7.37052 45.7119 6.95755C24.5732 6.53762 7.00153 23.6578 6.95056 44.8159C6.93405 51.5853 9.57523 56.9954 11.0186 63.4081C12.5393 70.1659 11.7383 77.3122 8.74175 83.5615Z" fill="#1D264D"/>
<path d="M103.507 117.002C98.4011 117.002 93.3487 115.285 89.3298 112.131C73.8216 118.603 55.3745 115.655 42.6589 104.674C41.2063 103.42 41.0458 101.225 42.3001 99.7725C43.5546 98.3201 45.749 98.1591 47.2016 99.4139C58.4793 109.153 74.9957 111.344 88.4364 104.918C89.7457 104.292 91.3067 104.546 92.351 105.555C96.5867 109.65 102.765 111.014 108.258 109.307C104.723 101.934 104.234 93.4872 106.973 85.6674C106.998 85.597 107.025 85.5278 107.054 85.4588C109.054 80.7427 110.062 75.7302 110.05 70.5614C110.028 61.4482 106.996 53.0181 101.282 46.1821C100.051 44.7091 100.248 42.5177 101.72 41.2869C103.193 40.0558 105.385 40.2522 106.615 41.7248C113.287 49.7065 116.975 59.9414 117 70.5446C117.015 76.6179 115.837 82.5118 113.498 88.0653C111.042 95.1759 112.171 102.789 116.105 109.122C117.17 110.849 116.479 113.144 114.698 114.061C111.237 116.004 107.416 117.002 103.507 117.002Z" fill="#1D264D"/>
<path d="M44.931 50.5786C47.968 50.5786 50.43 48.1179 50.43 45.0825C50.43 42.0471 47.968 39.5864 44.931 39.5864C41.894 39.5864 39.432 42.0471 39.432 45.0825C39.432 48.1179 41.894 50.5786 44.931 50.5786Z" fill="#1D264D"/>
<path d="M24.6719 50.5786C27.7089 50.5786 30.1708 48.1179 30.1708 45.0825C30.1708 42.0471 27.7089 39.5864 24.6719 39.5864C21.6349 39.5864 19.1729 42.0471 19.1729 45.0825C19.1729 48.1179 21.6349 50.5786 24.6719 50.5786Z" fill="#1D264D"/>
<path d="M65.1915 50.5786C68.2285 50.5786 70.6905 48.1179 70.6905 45.0825C70.6905 42.0471 68.2285 39.5864 65.1915 39.5864C62.1545 39.5864 59.6925 42.0471 59.6925 45.0825C59.6925 48.1179 62.1545 50.5786 65.1915 50.5786Z" fill="#1D264D"/>
</svg>
