<svg width="127" height="136" viewBox="0 0 127 136" fill="none" xmlns="http://www.w3.org/2000/svg">
<path d="M2.68819 62.9547L11.1469 63.665C11.2025 63.67 11.2579 63.6719 11.3128 63.6719C12.3048 63.6719 13.1546 62.9211 13.2667 61.9116C14.6385 49.583 20.4743 38.1888 29.6999 29.8281C38.505 21.8482 49.7333 17.2648 61.5062 16.804V17.7454C61.5062 19.5582 62.972 21.033 64.7737 21.033C65.6201 21.033 66.4243 20.7072 67.0442 20.1093L74.2591 13.0928C74.9515 12.422 75.348 11.4827 75.348 10.5163C75.348 9.55003 74.9512 8.61074 74.2612 7.94238L67.0376 0.916581C66.4237 0.325332 65.6199 0 64.774 0C62.9723 0 61.5065 1.47482 61.5065 3.28765V4.29798C46.8797 4.75534 32.8905 10.3 21.9217 20.0277C21.1063 20.7507 21.0278 22.0024 21.7467 22.8229C22.4655 23.6434 23.7095 23.7226 24.5247 22.999C35.2651 13.4741 49.098 8.22837 63.4749 8.22837C64.5622 8.22837 65.4432 7.34189 65.4432 6.24786V4.87496L71.2444 10.5165L65.4432 16.1581V14.7852C65.4432 13.6911 64.5622 12.8047 63.4749 12.8047C50.0147 12.8047 37.0841 17.8053 27.0654 26.8851C17.6013 35.4617 11.4469 47.0042 9.60134 59.5606L5.05678 59.1788C6.59866 48.1785 11.1558 37.9165 18.3057 29.3895C19.0067 28.5534 18.9015 27.3041 18.0705 26.5988C17.2402 25.8935 15.9982 25.9994 15.297 26.8354C7.20413 36.4868 2.22392 48.2215 0.894878 60.7711C0.838714 61.3013 0.997495 61.8319 1.335 62.2427C1.67225 62.6539 2.16014 62.9103 2.68819 62.9547Z" fill="white"/>
<path d="M124.261 72.2483L115.803 71.538C114.742 71.4437 113.801 72.2261 113.683 73.2916C112.974 79.675 111.087 85.7892 108.074 91.4646C107.562 92.4292 107.924 93.6291 108.882 94.1446C109.842 94.6606 111.034 94.2954 111.546 93.331C114.494 87.779 116.442 81.8374 117.349 75.6426L121.894 76.0242C120.113 88.7938 114.367 100.362 105.201 109.585C94.0531 120.799 79.2345 126.975 63.4747 126.975C62.3874 126.975 61.5064 127.861 61.5064 128.955V130.328L55.7052 124.686L61.5064 119.045V120.418C61.5064 121.512 62.3874 122.398 63.4747 122.398C80.3005 122.398 95.9257 114.729 106.344 101.357C107.015 100.496 106.865 99.2509 106.009 98.5762C105.154 97.9018 103.917 98.052 103.246 98.9129C93.9867 110.798 80.2971 117.828 65.4433 118.399V117.458C65.4433 115.645 63.9776 114.17 62.1759 114.17C61.3295 114.17 60.5253 114.496 59.9054 115.094L52.6905 122.11C51.9981 122.781 51.6016 123.72 51.6016 124.687C51.6016 125.653 51.9984 126.592 52.6884 127.261L59.9125 134.286C60.5264 134.877 61.3303 135.203 62.1761 135.203C63.9778 135.203 65.4436 133.728 65.4436 131.915V130.906C81.5173 130.412 96.5587 123.88 107.985 112.386C118.274 102.033 124.523 88.9086 126.056 74.4316C126.112 73.9016 125.953 73.3711 125.615 72.9602C125.277 72.5491 124.789 72.2927 124.261 72.2483Z" fill="white"/>
<path d="M53.0477 109.594H73.9021C74.9894 109.594 75.8704 108.707 75.8704 107.613V80.0735H103.241C104.328 80.0735 105.209 79.187 105.209 78.0929V57.1101C105.209 56.016 104.328 55.1296 103.241 55.1296H96.0603C94.973 55.1296 94.092 56.016 94.092 57.1101C94.092 58.2041 94.973 59.0906 96.0603 59.0906H101.272V76.1127H73.9018C72.8145 76.1127 71.9335 76.9992 71.9335 78.0932V105.633H55.016V78.0929C55.016 76.9989 54.135 76.1124 53.0477 76.1124H25.677V59.0906H53.0477C54.135 59.0906 55.016 58.2041 55.016 57.1101V29.5704H71.9337V57.1101C71.9337 58.2041 72.8148 59.0906 73.9021 59.0906H86.8749C87.9622 59.0906 88.8433 58.2041 88.8433 57.1101C88.8433 56.016 87.9622 55.1296 86.8749 55.1296H75.8704V27.5899C75.8704 26.4959 74.9894 25.6094 73.9021 25.6094H53.0477C51.9604 25.6094 51.0793 26.4959 51.0793 27.5899V55.1296H23.7086C22.6213 55.1296 21.7402 56.016 21.7402 57.1101V78.0932C21.7402 79.1872 22.6213 80.0737 23.7086 80.0737H51.0793V107.613C51.0793 108.707 51.9604 109.594 53.0477 109.594Z" fill="white"/>
<path d="M124.981 25.0741H118.466V18.5186C118.466 17.4246 117.585 16.5381 116.498 16.5381H108.014C106.927 16.5381 106.046 17.4246 106.046 18.5186V25.0741H99.5304C98.4431 25.0741 97.562 25.9606 97.562 27.0546V35.5906C97.562 36.6846 98.4431 37.5711 99.5304 37.5711H106.046V44.1266C106.046 45.2207 106.927 46.1071 108.014 46.1071H116.498C117.585 46.1071 118.466 45.2207 118.466 44.1266V37.5711H124.981C126.069 37.5711 126.95 36.6846 126.95 35.5906V27.0546C126.95 25.9606 126.069 25.0741 124.981 25.0741ZM123.013 33.6101H116.498C115.41 33.6101 114.529 34.4966 114.529 35.5906V42.1461H109.982V35.5906C109.982 34.4966 109.101 33.6101 108.014 33.6101H101.499V29.0351H108.014C109.101 29.0351 109.982 28.1486 109.982 27.0546V20.4991H114.529V27.0546C114.529 28.1486 115.41 29.0351 116.498 29.0351H123.013V33.6101Z" fill="white"/>
<path d="M29.3876 108.148V99.6122C29.3876 98.5182 28.5066 97.6317 27.4193 97.6317H20.904V91.0762C20.904 89.9822 20.023 89.0957 18.9356 89.0957H10.452C9.36468 89.0957 8.48364 89.9822 8.48364 91.0762V97.6317H1.96836C0.881039 97.6317 0 98.5182 0 99.6122V108.148C0 109.242 0.881039 110.129 1.96836 110.129H8.48364V116.684C8.48364 117.778 9.36468 118.665 10.452 118.665H18.9356C20.023 118.665 20.904 117.778 20.904 116.684V110.129H27.4193C28.5066 110.129 29.3876 109.242 29.3876 108.148ZM25.4509 106.168H18.9356C17.8483 106.168 16.9673 107.054 16.9673 108.148V114.704H12.4204V108.148C12.4204 107.054 11.5393 106.168 10.452 106.168H3.93672V101.593H10.452C11.5393 101.593 12.4204 100.706 12.4204 99.6122V93.0567H16.9673V99.6122C16.9673 100.706 17.8483 101.593 18.9356 101.593H25.4509V106.168Z" fill="white"/>
<path d="M40.7852 123.239H37.4514V119.885C37.4514 118.791 36.5703 117.904 35.483 117.904C34.3957 117.904 33.5146 118.791 33.5146 119.885V123.239H30.1808C29.0934 123.239 28.2124 124.126 28.2124 125.22C28.2124 126.314 29.0934 127.2 30.1808 127.2H33.5146V130.555C33.5146 131.649 34.3957 132.535 35.483 132.535C36.5703 132.535 37.4514 131.649 37.4514 130.555V127.2H40.7852C41.8726 127.2 42.7536 126.314 42.7536 125.22C42.7536 124.126 41.8723 123.239 40.7852 123.239Z" fill="white"/>
<path d="M86.1647 11.964H89.4985V15.3184C89.4985 16.4125 90.3796 17.2989 91.4669 17.2989C92.5542 17.2989 93.4353 16.4125 93.4353 15.3184V11.964H96.7691C97.8565 11.964 98.7375 11.0775 98.7375 9.98345C98.7375 8.88942 97.8565 8.00294 96.7691 8.00294H93.4353V4.64848C93.4353 3.55445 92.5542 2.66797 91.4669 2.66797C90.3796 2.66797 89.4985 3.55445 89.4985 4.64848V8.00294H86.1647C85.0773 8.00294 84.1963 8.88942 84.1963 9.98345C84.1963 11.0775 85.0776 11.964 86.1647 11.964Z" fill="white"/>
</svg>
