<svg width="98" height="121" viewBox="0 0 98 121" fill="none" xmlns="http://www.w3.org/2000/svg">
<path d="M18.0554 39.2305V50.1202C15.6923 50.9483 13.7464 52.6898 12.6525 55.0441L8.01086 65.0578C5.01734 71.5209 6.46301 79.1583 11.609 84.0624L25.1018 96.9165V118.637C25.1018 119.942 26.1536 121 27.4506 121H38.0201C39.3171 121 40.3689 119.942 40.3689 118.637C40.3689 117.331 39.3171 116.273 38.0201 116.273H29.7993V95.8996C29.7993 95.2504 29.5339 94.6298 29.0653 94.1836L14.8392 80.6304C11.1634 77.1273 10.1304 71.6715 12.2687 67.055L16.909 57.0439C18.0352 54.6202 20.8498 53.6734 23.1532 54.7556L46.3559 65.6408C43.104 70.0595 37.0951 71.7277 31.9548 69.3169L25.5685 66.3203C24.3927 65.7682 22.9952 66.2806 22.4472 67.4632C21.8987 68.646 22.4075 70.0521 23.5831 70.604L29.9696 73.6008C32.5876 74.8288 35.529 75.3754 38.5669 75.0618C43.523 80.4494 46.2408 87.4116 46.2408 94.7959C46.2408 96.1012 47.2926 97.1592 48.5896 97.1592C49.8866 97.1592 50.9384 96.1012 50.9384 94.7959C50.9384 87.0368 48.3568 79.6787 43.606 73.71C47.104 72.1444 50.0785 69.3536 51.8197 65.5969C51.8206 65.595 51.8211 65.5931 51.822 65.5912C52.9886 66.1147 54.2784 66.4082 55.6359 66.4082C57.7329 66.4082 59.6716 65.7129 61.2366 64.5398C62.745 67.7368 65.984 69.9531 69.7286 69.9531C71.1753 69.9531 72.5462 69.6218 73.7714 69.0317C73.1236 73.2742 72.0741 77.1427 70.9862 81.1461C69.2133 87.6699 67.3799 94.4159 67.3799 103.039V116.273H59.1591C57.8621 116.273 56.8103 117.331 56.8103 118.637C56.8103 119.942 57.8621 121 59.1591 121H69.7286C71.0256 121 72.0774 119.942 72.0774 118.637V103.039C72.0774 95.0507 73.7483 88.9022 75.5174 82.393C77.2903 75.8691 79.1238 69.1231 79.1238 60.5V46.3203C79.1238 41.1079 74.9091 36.8672 69.7286 36.8672C67.6316 36.8672 65.693 37.5625 64.128 38.7356C62.6196 35.5386 59.3806 33.3223 55.6359 33.3223C53.539 33.3223 51.6003 34.0175 50.0353 35.1907C48.5269 31.9936 45.2879 29.7773 41.5433 29.7773C38.7393 29.7773 36.2197 31.0214 34.4969 32.9879C32.7741 31.0214 30.2545 29.7773 27.4506 29.7773C22.2701 29.7773 18.0554 34.018 18.0554 39.2305ZM65.0311 46.3203C65.0311 43.7141 67.1384 41.5938 69.7286 41.5938C72.3189 41.5938 74.4262 43.7141 74.4262 46.3203V60.5C74.4262 63.1062 72.3189 65.2266 69.7286 65.2266C67.1384 65.2266 65.0311 63.1062 65.0311 60.5V46.3203ZM50.9384 42.7754C50.9384 40.1692 53.0457 38.0488 55.6359 38.0488C58.2262 38.0488 60.3335 40.1692 60.3335 42.7754V56.9551C60.3335 59.5613 58.2262 61.6816 55.6359 61.6816C53.0457 61.6816 50.9384 59.5613 50.9384 56.9551V42.7754ZM36.8457 39.2305C36.8457 36.6242 38.953 34.5039 41.5433 34.5039C44.1335 34.5039 46.2408 36.6242 46.2408 39.2305V56.9551C46.2408 58.3012 46.5238 59.5816 47.0302 60.742L36.8457 55.9642V39.2305ZM22.753 39.2305C22.753 36.6242 24.8603 34.5039 27.4506 34.5039C30.0408 34.5039 32.1481 36.6242 32.1481 39.2305V53.7604L25.1396 50.4726C24.3767 50.1141 23.5737 49.8636 22.753 49.7218V39.2305Z" fill="white"/>
<path d="M50.9383 10.8711V2.36328C50.9383 1.05804 49.8865 0 48.5895 0C47.2925 0 46.2407 1.05804 46.2407 2.36328V10.8711C46.2407 12.1763 47.2925 13.2344 48.5895 13.2344C49.8865 13.2344 50.9383 12.1763 50.9383 10.8711Z" fill="white"/>
<path d="M28.6247 18.6174C29.7481 17.9649 30.1333 16.5197 29.4848 15.3892L25.9616 9.24698C25.3131 8.11639 23.8766 7.72881 22.7532 8.38131C21.6298 9.03382 21.2446 10.479 21.893 11.6096L25.4162 17.7517C26.0626 18.8788 27.4982 19.2718 28.6247 18.6174Z" fill="white"/>
<path d="M9.62785 30.0943L3.52336 26.5494C2.39876 25.8966 0.962954 26.2845 0.314925 27.4151C-0.333574 28.5454 0.0516261 29.9908 1.17505 30.6433L7.27954 34.1882C8.39826 34.8377 9.83689 34.4581 10.488 33.3226C11.1365 32.192 10.7513 30.7468 9.62785 30.0943Z" fill="white"/>
<path d="M71.7629 17.7537L75.2861 11.6116C75.9346 10.4812 75.5494 9.03582 74.4259 8.38332C73.3016 7.73058 71.866 8.11863 71.2175 9.24899L67.6943 15.3912C67.0458 16.5215 67.431 17.9669 68.5544 18.6194C69.6734 19.2686 71.1116 18.8891 71.7629 17.7537Z" fill="white"/>
<path d="M89.8998 34.1882L96.0043 30.6432C97.1277 29.9907 97.5129 28.5456 96.8644 27.415C96.2157 26.2846 94.7797 25.8966 93.656 26.5493L87.5515 30.0943C86.4281 30.7468 86.0429 32.1919 86.6914 33.3225C87.3378 34.4495 88.7734 34.8426 89.8998 34.1882Z" fill="white"/>
<path d="M48.5895 121C49.8867 121 50.9383 119.942 50.9383 118.637C50.9383 117.332 49.8867 116.273 48.5895 116.273C47.2923 116.273 46.2407 117.332 46.2407 118.637C46.2407 119.942 47.2923 121 48.5895 121Z" fill="white"/>
</svg>
