<svg width="135" height="136" viewBox="0 0 135 136" fill="none" xmlns="http://www.w3.org/2000/svg">
<path d="M67.5011 27.9317C60.3952 27.925 53.4198 29.8407 47.3141 33.4756C46.786 33.7931 46.4054 34.3069 46.2557 34.9045C46.1059 35.5021 46.1992 36.1347 46.5151 36.6636C46.831 37.1925 47.3438 37.5746 47.9409 37.7261C48.5381 37.8776 49.171 37.7861 49.7008 37.4717C54.4126 34.6957 59.7149 33.0752 65.1735 32.7429V44.2249C65.1733 44.5306 65.2334 44.8334 65.3503 45.1159C65.4672 45.3983 65.6386 45.655 65.8548 45.8712C66.071 46.0873 66.3276 46.2588 66.6101 46.3757C66.8926 46.4926 67.1954 46.5527 67.5011 46.5525H72.1563C72.7736 46.5525 73.3656 46.7977 73.8021 47.2342C74.2387 47.6708 74.4839 48.2628 74.4839 48.8801C74.4839 49.4974 74.2387 50.0895 73.8021 50.526C73.3656 50.9625 72.7736 51.2077 72.1563 51.2077H67.5011C67.1954 51.2075 66.8926 51.2676 66.6101 51.3845C66.3276 51.5015 66.071 51.6729 65.8548 51.8891C65.6386 52.1052 65.4672 52.3619 65.3503 52.6444C65.2334 52.9269 65.1733 53.2296 65.1735 53.5353V65.1734H55.863V62.8458C55.863 60.9938 55.1273 59.2177 53.8178 57.9082C52.5083 56.5986 50.7322 55.8629 48.8802 55.8629C47.0283 55.8629 45.2521 56.5986 43.9426 57.9082C42.6331 59.2177 41.8974 60.9938 41.8974 62.8458V65.1756L32.7427 65.181C33.0739 59.7198 34.6945 54.4147 37.4718 49.7007C37.7862 49.1709 37.8777 48.538 37.7262 47.9408C37.5747 47.3437 37.1926 46.8309 36.6637 46.515C36.1348 46.1991 35.5022 46.1058 34.9046 46.2556C34.307 46.4053 33.7932 46.7859 33.4757 47.314C28.196 56.1988 26.6082 66.7989 29.0528 76.8408C31.4974 86.8827 37.7798 95.5669 46.5526 101.031V104.743C46.5524 105.048 46.6125 105.351 46.7294 105.634C46.8463 105.916 47.0178 106.173 47.234 106.389C47.4501 106.605 47.7068 106.777 47.9893 106.893C48.2717 107.01 48.5745 107.07 48.8802 107.07H51.2078V111.735H48.8802C48.2629 111.735 47.6709 111.98 47.2343 112.417C46.7978 112.853 46.5526 113.445 46.5526 114.062C46.5526 114.68 46.7978 115.272 47.2343 115.708C47.6709 116.145 48.2629 116.39 48.8802 116.39H51.2078V123.373C51.2076 123.679 51.2677 123.981 51.3846 124.264C51.5015 124.546 51.673 124.803 51.8892 125.019C52.1053 125.235 52.362 125.407 52.6445 125.524C52.927 125.641 53.2297 125.701 53.5354 125.7H56.0986C56.635 128.329 58.0629 130.691 60.1407 132.388C62.2185 134.084 64.8186 135.011 67.5011 135.011C70.1835 135.011 72.7836 134.084 74.8614 132.388C76.9392 130.691 78.3671 128.329 78.9035 125.7H81.4667C81.7724 125.701 82.0752 125.641 82.3577 125.524C82.6401 125.407 82.8968 125.235 83.113 125.019C83.3291 124.803 83.5006 124.546 83.6175 124.264C83.7344 123.981 83.7945 123.679 83.7943 123.373V116.39H86.1219C86.7392 116.39 87.3313 116.145 87.7678 115.708C88.2043 115.272 88.4495 114.68 88.4495 114.062C88.4495 113.445 88.2043 112.853 87.7678 112.417C87.3313 111.98 86.7392 111.735 86.1219 111.735H83.7943V107.07H86.1219C86.4276 107.07 86.7304 107.01 87.0129 106.893C87.2953 106.777 87.552 106.605 87.7682 106.389C87.9843 106.173 88.1558 105.916 88.2727 105.634C88.3896 105.351 88.4497 105.048 88.4495 104.743V101.031C95.7405 96.4845 101.352 89.6873 104.436 81.6674C107.52 73.6476 107.907 64.8416 105.54 56.5818C103.173 48.322 98.1802 41.0579 91.3169 35.8887C84.4536 30.7194 76.0933 27.9262 67.5011 27.9317ZM67.5011 130.356C66.0573 130.354 64.6494 129.906 63.4705 129.072C62.2915 128.239 61.3993 127.061 60.916 125.7H74.0861C73.6029 127.061 72.7106 128.239 71.5317 129.072C70.3527 129.906 68.9448 130.354 67.5011 130.356ZM79.1391 121.045H55.863V116.39H79.1391V121.045ZM55.863 111.735V107.08H79.1391V111.735H55.863ZM69.8287 55.8629H72.1563C74.0082 55.8629 75.7843 55.1272 77.0939 53.8177C78.4034 52.5082 79.1391 50.7321 79.1391 48.8801C79.1391 47.0282 78.4034 45.252 77.0939 43.9425C75.7843 42.633 74.0082 41.8973 72.1563 41.8973H69.8287V32.7048C78.2531 33.2758 86.1851 36.8809 92.155 42.8522C98.125 48.8235 101.728 56.7562 102.298 65.1808L90.7794 65.1734C90.1621 65.1735 89.5679 65.4188 89.1314 65.8553C88.6949 66.2917 88.4497 66.8837 88.4495 67.501V72.1562C88.4495 72.7735 88.2043 73.3655 87.7678 73.802C87.3313 74.2386 86.7392 74.4838 86.1219 74.4838C85.5046 74.4838 84.9126 74.2386 84.476 73.802C84.0395 73.3655 83.7943 72.7735 83.7943 72.1562V67.501C83.7945 67.1953 83.7344 66.8925 83.6175 66.61C83.5006 66.3275 83.3291 66.0709 83.113 65.8547C82.8968 65.6385 82.6401 65.4671 82.3577 65.3502C82.0752 65.2333 81.7724 65.1732 81.4667 65.1734H69.8287V55.8629ZM32.7435 69.836L44.2273 69.8286C44.8442 69.8281 45.4357 69.5826 45.8718 69.1461C46.3078 68.7097 46.5527 68.1179 46.5526 67.501V62.8458C46.5526 62.2284 46.7978 61.6364 47.2343 61.1999C47.6709 60.7634 48.2629 60.5182 48.8802 60.5182C49.4975 60.5182 50.0896 60.7634 50.5261 61.1999C50.9626 61.6364 51.2078 62.2284 51.2078 62.8458V67.501C51.2076 67.8067 51.2677 68.1094 51.3846 68.3919C51.5015 68.6744 51.673 68.9311 51.8892 69.1472C52.1053 69.3634 52.362 69.5348 52.6445 69.6518C52.927 69.7687 53.2297 69.8288 53.5354 69.8286H65.1735V79.139H62.8459C60.9939 79.139 59.2178 79.8747 57.9083 81.1842C56.5987 82.4938 55.863 84.2699 55.863 86.1218C55.863 87.9738 56.5987 89.7499 57.9083 91.0594C59.2178 92.3689 60.9939 93.1046 62.8459 93.1046H65.1735V102.415H51.2078V99.7147C51.2079 99.306 51.1004 98.9045 50.8961 98.5506C50.6918 98.1967 50.3979 97.9028 50.044 97.6985C45.1003 94.8248 40.9375 90.7815 37.9211 85.9235C34.9047 81.0655 33.1268 75.5414 32.7435 69.836ZM84.9581 97.6985C84.6042 97.9028 84.3103 98.1967 84.106 98.5506C83.9017 98.9045 83.7942 99.306 83.7943 99.7147V102.415H69.8287V90.777C69.8288 90.4713 69.7688 90.1686 69.6519 89.8861C69.5349 89.6036 69.3635 89.3469 69.1473 89.1308C68.9312 88.9146 68.6745 88.7432 68.392 88.6262C68.1095 88.5093 67.8068 88.4492 67.5011 88.4494H62.8459C62.2285 88.4494 61.6365 88.2042 61.2 87.7677C60.7635 87.3312 60.5182 86.7391 60.5182 86.1218C60.5182 85.5045 60.7635 84.9125 61.2 84.476C61.6365 84.0394 62.2285 83.7942 62.8459 83.7942H67.5011C67.8068 83.7944 68.1095 83.7343 68.392 83.6174C68.6745 83.5005 68.9312 83.329 69.1473 83.1129C69.3635 82.8967 69.5349 82.64 69.6519 82.3576C69.7688 82.0751 69.8288 81.7723 69.8287 81.4666V69.8286H79.1391V72.1562C79.1391 74.0081 79.8748 75.7842 81.1843 77.0938C82.4939 78.4033 84.27 79.139 86.1219 79.139C87.9739 79.139 89.75 78.4033 91.0595 77.0938C92.369 75.7842 93.1047 74.0081 93.1047 72.1562V69.8309L102.259 69.8363C101.875 75.5416 100.097 81.0657 97.0809 85.9236C94.0645 90.7815 89.9018 94.8248 84.9581 97.6985Z" fill="#1D264D"/>
<path d="M18.6209 67.5002C18.621 67.1945 18.5609 66.8917 18.444 66.6093C18.3271 66.3268 18.1557 66.0701 17.9395 65.854C17.7233 65.6378 17.4667 65.4663 17.1842 65.3494C16.9017 65.2325 16.599 65.1724 16.2932 65.1726H2.32761C1.71029 65.1726 1.11825 65.4178 0.68174 65.8543C0.245229 66.2909 0 66.8829 0 67.5002C0 68.1175 0.245229 68.7096 0.68174 69.1461C1.11825 69.5826 1.71029 69.8278 2.32761 69.8278H16.2932C16.599 69.828 16.9017 69.7679 17.1842 69.651C17.4667 69.5341 17.7233 69.3626 17.9395 69.1465C18.1557 68.9303 18.3271 68.6736 18.444 68.3912C18.5609 68.1087 18.621 67.8059 18.6209 67.5002Z" fill="#1D264D"/>
<path d="M24.3172 39.8805L12.2223 32.8977C11.9575 32.7449 11.6652 32.6457 11.3621 32.6058C11.059 32.5659 10.751 32.5862 10.4557 32.6653C10.1604 32.7445 9.88362 32.881 9.64109 33.0671C9.39857 33.2533 9.19508 33.4854 9.04225 33.7501C8.88942 34.0149 8.79023 34.3072 8.75036 34.6103C8.71048 34.9134 8.7307 35.2214 8.80985 35.5167C8.88901 35.812 9.02555 36.0888 9.21168 36.3313C9.39781 36.5738 9.62989 36.7773 9.89466 36.9302L21.9896 43.913C22.5243 44.2216 23.1597 44.3052 23.7561 44.1454C24.3525 43.9855 24.8609 43.5953 25.1696 43.0606C25.4782 42.5258 25.5618 41.8904 25.402 41.294C25.2421 40.6976 24.8519 40.1892 24.3172 39.8805Z" fill="#1D264D"/>
<path d="M39.8805 24.3172C40.0334 24.5819 40.2369 24.814 40.4794 25.0001C40.7219 25.1863 40.9987 25.3228 41.294 25.402C41.5893 25.4811 41.8973 25.5013 42.2004 25.4615C42.5035 25.4216 42.7958 25.3224 43.0606 25.1696C43.3253 25.0167 43.5574 24.8133 43.7435 24.5707C43.9297 24.3282 44.0662 24.0514 44.1454 23.7561C44.2245 23.4608 44.2447 23.1528 44.2049 22.8497C44.165 22.5466 44.0658 22.2543 43.913 21.9896L36.9302 9.89466C36.7773 9.62989 36.5738 9.39781 36.3313 9.21168C36.0888 9.02555 35.812 8.88901 35.5167 8.80985C35.2214 8.7307 34.9134 8.71048 34.6103 8.75036C34.3072 8.79023 34.0149 8.88942 33.7501 9.04225C33.4854 9.19508 33.2533 9.39857 33.0671 9.64109C32.881 9.88362 32.7445 10.1604 32.6653 10.4557C32.5862 10.751 32.5659 11.059 32.6058 11.3621C32.6457 11.6652 32.7449 11.9575 32.8977 12.2223L39.8805 24.3172Z" fill="#1D264D"/>
<path d="M67.5002 18.6209C67.8059 18.621 68.1087 18.5609 68.3912 18.444C68.6737 18.3271 68.9303 18.1557 69.1465 17.9395C69.3627 17.7233 69.5341 17.4667 69.651 17.1842C69.7679 16.9017 69.828 16.599 69.8278 16.2932V2.32761C69.8278 1.71029 69.5826 1.11825 69.1461 0.68174C68.7096 0.245229 68.1175 0 67.5002 0C66.8829 0 66.2909 0.245229 65.8544 0.68174C65.4179 1.11825 65.1726 1.71029 65.1726 2.32761V16.2932C65.1724 16.599 65.2325 16.9017 65.3494 17.1842C65.4664 17.4667 65.6378 17.7233 65.854 17.9395C66.0701 18.1557 66.3268 18.3271 66.6093 18.444C66.8918 18.5609 67.1945 18.621 67.5002 18.6209Z" fill="#1D264D"/>
<path d="M91.9407 25.1696C92.4755 25.478 93.1109 25.5614 93.7071 25.4016C94.3034 25.2417 94.8119 24.8517 95.1207 24.3172L102.104 12.2223C102.412 11.6875 102.496 11.0521 102.336 10.4557C102.176 9.85935 101.786 9.35091 101.251 9.04225C100.716 8.73359 100.081 8.65 99.4846 8.80986C98.8882 8.96972 98.3798 9.35994 98.0711 9.89467L91.0883 21.9896C90.9354 22.2543 90.8362 22.5466 90.7963 22.8497C90.7564 23.1528 90.7766 23.4609 90.8557 23.7562C90.9349 24.0515 91.0715 24.3283 91.2576 24.5708C91.4438 24.8133 91.6759 25.0168 91.9407 25.1696Z" fill="#1D264D"/>
<path d="M111.85 44.2244C112.258 44.2247 112.659 44.1173 113.012 43.913L125.107 36.9302C125.641 36.6215 126.032 36.1131 126.191 35.5167C126.351 34.9203 126.268 34.2849 125.959 33.7501C125.65 33.2154 125.142 32.8252 124.546 32.6653C123.949 32.5055 123.314 32.5891 122.779 32.8977L110.684 39.8805C110.24 40.1367 109.893 40.5324 109.697 41.0061C109.5 41.4798 109.466 42.005 109.599 42.5002C109.732 42.9954 110.025 43.4329 110.432 43.7446C110.839 44.0564 111.337 44.225 111.85 44.2244Z" fill="#1D264D"/>
<path d="M132.673 65.1726H118.708C118.09 65.1726 117.498 65.4178 117.062 65.8543C116.625 66.2909 116.38 66.8829 116.38 67.5002C116.38 68.1175 116.625 68.7096 117.062 69.1461C117.498 69.5826 118.09 69.8278 118.708 69.8278H132.673C133.291 69.8278 133.883 69.5826 134.319 69.1461C134.756 68.7096 135.001 68.1175 135.001 67.5002C135.001 66.8829 134.756 66.2909 134.319 65.8543C133.883 65.4178 133.291 65.1726 132.673 65.1726Z" fill="#1D264D"/>
<path d="M125.107 98.071L113.012 91.0881C112.748 90.9353 112.455 90.8361 112.152 90.7963C111.849 90.7564 111.541 90.7766 111.246 90.8557C110.649 91.0156 110.141 91.4058 109.832 91.9406C109.524 92.4753 109.44 93.1107 109.6 93.7071C109.76 94.3035 110.15 94.8119 110.685 95.1206L122.78 102.103C123.314 102.412 123.95 102.496 124.546 102.336C125.143 102.176 125.651 101.786 125.96 101.251C126.268 100.716 126.352 100.081 126.192 99.4844C126.032 98.8881 125.642 98.3796 125.107 98.071Z" fill="#1D264D"/>
<path d="M21.9896 91.0881L9.89467 98.071C9.35994 98.3796 8.96972 98.8881 8.80986 99.4844C8.65 100.081 8.73359 100.716 9.04225 101.251C9.35091 101.786 9.85935 102.176 10.4557 102.336C11.0521 102.496 11.6875 102.412 12.2223 102.103L24.3172 95.1206C24.5819 94.9677 24.814 94.7643 25.0002 94.5217C25.1863 94.2792 25.3228 94.0024 25.402 93.7071C25.4811 93.4118 25.5014 93.1038 25.4615 92.8007C25.4216 92.4976 25.3224 92.2053 25.1696 91.9406C25.0168 91.6758 24.8133 91.4437 24.5707 91.2576C24.3282 91.0714 24.0514 90.9349 23.7561 90.8557C23.4608 90.7766 23.1528 90.7564 22.8497 90.7963C22.5466 90.8361 22.2543 90.9353 21.9896 91.0881Z" fill="#1D264D"/>
<path d="M39.5207 39.5209C39.1952 39.8464 38.9735 40.2612 38.8837 40.7127C38.794 41.1642 38.8401 41.6322 39.0162 42.0575C39.1924 42.4828 39.4908 42.8463 39.8735 43.102C40.2563 43.3578 40.7063 43.4943 41.1666 43.4943C41.627 43.4943 42.077 43.3578 42.4598 43.102C42.8425 42.8463 43.1409 42.4828 43.317 42.0575C43.4932 41.6322 43.5393 41.1642 43.4495 40.7127C43.3598 40.2612 43.1381 39.8464 42.8126 39.5209C42.5965 39.3047 42.3399 39.1333 42.0575 39.0163C41.775 38.8993 41.4723 38.8391 41.1666 38.8391C40.8609 38.8391 40.5582 38.8993 40.2758 39.0163C39.9934 39.1333 39.7368 39.3047 39.5207 39.5209Z" fill="#1D264D"/>
</svg>
