<svg width="169" height="128" viewBox="0 0 169 128" fill="none" xmlns="http://www.w3.org/2000/svg">
<g clip-path="url(#clip0_1_1245)">
<path d="M141.139 125.37L94.7421 19.1396H99.7055C100.197 19.1395 100.679 19.0354 101.097 18.8391C101.515 18.6428 101.852 18.362 102.071 18.0284C102.289 17.6948 102.381 17.3216 102.335 16.9508C102.288 16.58 102.106 16.2264 101.809 15.9297L86.6036 0.747073C86.3468 0.513277 86.0253 0.32515 85.6617 0.19604C85.2981 0.0669295 84.9015 0 84.5 0C84.0984 0 83.7018 0.0669295 83.3383 0.19604C82.9747 0.32515 82.6531 0.513277 82.3963 0.747073L67.1902 15.9297C66.893 16.2264 66.711 16.58 66.6648 16.9508C66.6186 17.3216 66.7099 17.6948 66.9286 18.0284C67.1472 18.362 67.4844 18.6428 67.9023 18.8391C68.3202 19.0354 68.8021 19.1395 69.2938 19.1396H74.2579L27.8607 125.37C27.7518 125.619 27.7089 125.883 27.7343 126.145C27.7597 126.406 27.853 126.662 28.0088 126.897C28.1646 127.131 28.3799 127.34 28.6424 127.512C28.9049 127.684 29.2095 127.814 29.5388 127.897C29.868 127.979 30.2155 128.012 30.5613 127.993C30.9072 127.973 31.2446 127.903 31.5544 127.785C31.8642 127.667 32.1403 127.504 32.3669 127.305C32.5934 127.106 32.7661 126.875 32.875 126.626L80.4205 17.7666C80.5514 17.466 80.5864 17.1462 80.5225 16.8334C80.4586 16.5207 80.2978 16.2238 80.0531 15.9673C79.8084 15.7107 79.4869 15.5017 79.1149 15.3575C78.7429 15.2133 78.3311 15.138 77.9132 15.1377H74.6124L84.5 5.26657L94.3869 15.1377H91.0868C90.6689 15.138 90.2571 15.2133 89.8851 15.3575C89.5131 15.5017 89.1916 15.7107 88.9469 15.9673C88.7022 16.2238 88.5413 16.5207 88.4775 16.8334C88.4136 17.1462 88.4486 17.466 88.5795 17.7666C88.5795 17.7666 136.079 126.52 136.125 126.626C136.351 127.126 136.827 127.54 137.451 127.777C138.075 128.015 138.797 128.058 139.462 127.897C140.127 127.731 140.677 127.371 140.991 126.897C141.306 126.423 141.359 125.874 141.139 125.37Z" fill="#1D264D"/>
<path d="M84.5 32.5C85.2003 32.5 85.872 32.2893 86.3672 31.9142C86.8624 31.5391 87.1406 31.0304 87.1406 30.5V28C87.1406 27.4696 86.8624 26.9609 86.3672 26.5858C85.872 26.2107 85.2003 26 84.5 26C83.7997 26 83.128 26.2107 82.6328 26.5858C82.1376 26.9609 81.8594 27.4696 81.8594 28V30.5C81.8594 31.0304 82.1376 31.5391 82.6328 31.9142C83.128 32.2893 83.7997 32.5 84.5 32.5Z" fill="#1D264D"/>
<path d="M81.8594 46.0986C81.8594 46.6291 82.1376 47.1378 82.6328 47.5129C83.128 47.8879 83.7997 48.0986 84.5 48.0986C85.2003 48.0986 85.872 47.8879 86.3672 47.5129C86.8624 47.1378 87.1406 46.6291 87.1406 46.0986V41.5107C87.1406 40.9803 86.8624 40.4716 86.3672 40.0965C85.872 39.7215 85.2003 39.5107 84.5 39.5107C83.7997 39.5107 83.128 39.7215 82.6328 40.0965C82.1376 40.4716 81.8594 40.9803 81.8594 41.5107V46.0986Z" fill="#1D264D"/>
<path d="M81.8594 77.2939C81.8594 77.8244 82.1376 78.3331 82.6328 78.7081C83.128 79.0832 83.7997 79.2939 84.5 79.2939C85.2003 79.2939 85.872 79.0832 86.3672 78.7081C86.8624 78.3331 87.1406 77.8244 87.1406 77.2939V72.707C87.1406 72.1766 86.8624 71.6679 86.3672 71.2928C85.872 70.9177 85.2003 70.707 84.5 70.707C83.7997 70.707 83.128 70.9177 82.6328 71.2928C82.1376 71.6679 81.8594 72.1766 81.8594 72.707V77.2939Z" fill="#1D264D"/>
<path d="M81.8594 61.6963C81.8594 62.2267 82.1376 62.7354 82.6328 63.1105C83.128 63.4856 83.7997 63.6963 84.5 63.6963C85.2003 63.6963 85.872 63.4856 86.3672 63.1105C86.8624 62.7354 87.1406 62.2267 87.1406 61.6963V57.1084C87.1406 56.578 86.8624 56.0693 86.3672 55.6942C85.872 55.3191 85.2003 55.1084 84.5 55.1084C83.7997 55.1084 83.128 55.3191 82.6328 55.6942C82.1376 56.0693 81.8594 56.578 81.8594 57.1084V61.6963Z" fill="#1D264D"/>
<path d="M84.5 84C78.7551 84 73.1392 85.2903 68.3624 87.7077C63.5857 90.1251 59.8627 93.561 57.6642 97.581C55.4657 101.601 54.8905 106.024 56.0113 110.292C57.132 114.56 59.8985 118.48 63.9608 121.556C68.023 124.633 73.1987 126.728 78.8332 127.577C84.4678 128.426 90.3081 127.99 95.6158 126.325C100.923 124.66 105.46 121.84 108.652 118.223C111.843 114.605 113.547 110.351 113.547 106C113.538 100.167 110.475 94.5753 105.03 90.4509C99.5842 86.3265 92.2011 84.0066 84.5 84ZM84.5 124C79.7996 124 75.2048 122.944 71.2965 120.966C67.3883 118.989 64.3422 116.177 62.5434 112.888C60.7447 109.599 60.274 105.98 61.191 102.488C62.108 98.9967 64.3715 95.7894 67.6952 93.2721C71.0189 90.7547 75.2535 89.0404 79.8636 88.3459C84.4736 87.6513 89.2521 88.0078 93.5947 89.3702C97.9373 90.7325 101.649 93.0396 104.26 95.9997C106.872 98.9598 108.266 102.44 108.266 106C108.258 110.772 105.752 115.347 101.297 118.722C96.8415 122.096 90.8008 123.995 84.5 124Z" fill="#1D264D"/>
<path d="M100.382 111.285L92.1466 107.543C92.6689 106.087 92.4427 104.535 91.5137 103.2C90.5847 101.865 89.022 100.846 87.1406 100.35V94C87.1406 93.4696 86.8624 92.9609 86.3672 92.5858C85.872 92.2107 85.2003 92 84.5 92C83.7997 92 83.128 92.2107 82.6328 92.5858C82.1376 92.9609 81.8594 93.4696 81.8594 94V100.35C80.7865 100.635 79.8075 101.092 78.989 101.69C78.1704 102.288 77.5315 103.012 77.1158 103.814C76.7001 104.615 76.5173 105.475 76.5799 106.335C76.6425 107.195 76.949 108.035 77.4785 108.797C78.008 109.559 78.7481 110.226 79.6485 110.752C80.5489 111.278 81.5883 111.651 82.696 111.845C83.8038 112.04 84.9538 112.051 86.0679 111.879C87.1819 111.706 88.2338 111.354 89.152 110.846L97.6651 114.715C98.2655 114.988 98.9845 115.069 99.6639 114.94C100.343 114.811 100.927 114.484 101.287 114.029C101.648 113.574 101.755 113.029 101.585 112.515C101.415 112 100.982 111.558 100.382 111.285ZM84.5 108C83.9777 108 83.4672 107.883 83.0329 107.663C82.5987 107.443 82.2602 107.131 82.0604 106.765C81.8605 106.4 81.8082 105.998 81.9101 105.61C82.012 105.222 82.2635 104.865 82.6328 104.586C83.0021 104.306 83.4726 104.116 83.9848 104.038C84.4971 103.961 85.028 104.001 85.5105 104.152C85.993 104.304 86.4054 104.56 86.6956 104.889C86.9857 105.218 87.1406 105.604 87.1406 106C87.1398 106.53 86.8613 107.039 86.3663 107.414C85.8713 107.788 85.2001 107.999 84.5 108Z" fill="#1D264D"/>
</g>
<defs>
<clipPath id="clip0_1_1245">
<rect width="169" height="128" fill="white"/>
</clipPath>
</defs>
</svg>
