<svg width="98" height="92" viewBox="0 0 98 92" fill="none" xmlns="http://www.w3.org/2000/svg">
<path d="M22.8667 91.4667C22.3865 91.4667 21.903 91.3589 21.4489 91.1433C20.3219 90.5977 19.6 89.4577 19.6 88.2V71.8667H9.8C4.39693 71.8667 0 67.4697 0 62.0667V9.8C0 4.39693 4.39693 0 9.8 0H88.2C93.6031 0 98 4.39693 98 9.8V62.0667C98 67.4697 93.6031 71.8667 88.2 71.8667H48.5133L24.9083 90.7513C24.3171 91.2249 23.5951 91.4667 22.8667 91.4667ZM9.8 6.53333C7.9968 6.53333 6.53333 8.00007 6.53333 9.8V62.0667C6.53333 63.8666 7.9968 65.3333 9.8 65.3333H22.8667C24.6731 65.3333 26.1333 66.7935 26.1333 68.6V81.4053L45.325 66.0487C45.9065 65.5849 46.6219 65.3333 47.3667 65.3333H88.2C90.0032 65.3333 91.4667 63.8666 91.4667 62.0667V9.8C91.4667 8.00007 90.0032 6.53333 88.2 6.53333H9.8Z" fill="#1D264D"/>
<path d="M75.1337 32.6668H22.8671C21.0606 32.6668 19.6004 31.2033 19.6004 29.4001C19.6004 27.5969 21.0606 26.1334 22.8671 26.1334H75.1337C76.9402 26.1334 78.4004 27.5969 78.4004 29.4001C78.4004 31.2033 76.9402 32.6668 75.1337 32.6668Z" fill="#1D264D"/>
<path d="M49.0004 45.7333H22.8671C21.0606 45.7333 19.6004 44.2698 19.6004 42.4666C19.6004 40.6634 21.0606 39.2 22.8671 39.2H49.0004C50.8069 39.2 52.2671 40.6634 52.2671 42.4666C52.2671 44.2698 50.8069 45.7333 49.0004 45.7333Z" fill="#1D264D"/>
</svg>
