<svg width="114" height="114" viewBox="0 0 114 114" fill="none" xmlns="http://www.w3.org/2000/svg">
<path d="M4.95402 61.2229H6.34525C7.33981 72.7185 12.2156 83.5338 20.1713 91.8911C28.127 100.248 38.6892 105.651 50.122 107.21L54.4228 111.752C54.9651 112.325 55.6671 112.723 56.438 112.893C57.2089 113.064 58.0131 112.999 58.7467 112.707C59.4803 112.416 60.1096 111.911 60.5531 111.257C60.9965 110.604 61.2338 109.833 61.2342 109.044V107.508C72.7574 106.548 83.6088 101.687 91.9966 93.7282C100.384 85.769 105.807 75.1872 107.369 63.7301L111.767 59.5731C112.341 59.0301 112.738 58.3273 112.908 57.5559C113.078 56.7844 113.012 55.9797 112.719 55.2461C112.426 54.5124 111.92 53.8836 111.266 53.4409C110.612 52.9983 109.84 52.7622 109.05 52.7634H107.685C106.775 41.1446 101.89 30.194 93.8523 21.7554C85.8142 13.3168 75.1138 7.90564 63.553 6.43301L59.5774 2.23479C59.035 1.66111 58.333 1.26335 57.5622 1.09297C56.7913 0.922586 55.987 0.987415 55.2534 1.27907C54.5198 1.57072 53.8906 2.07579 53.4471 2.72893C53.0036 3.38208 52.7663 4.15326 52.7659 4.94272V6.17002C41.1796 7.12139 30.2715 12.0229 21.8666 20.0543C13.4617 28.0858 8.0699 38.7601 6.59334 50.2913L2.23294 54.4115C1.65928 54.9545 1.26186 55.6572 1.09214 56.4287C0.922413 57.2002 0.988201 58.0048 1.28098 58.7385C1.57376 59.4721 2.08005 60.101 2.7343 60.5436C3.38854 60.9863 4.1606 61.2223 4.95052 61.2212L4.95402 61.2229ZM59.8421 104.967C59.5069 104.987 59.192 105.134 58.9618 105.379C58.7317 105.623 58.6037 105.946 58.6043 106.282V109.044C58.6043 109.307 58.5251 109.564 58.3772 109.782C58.2293 110 58.0194 110.168 57.7747 110.265C57.53 110.363 57.2618 110.384 57.0047 110.327C56.7477 110.27 56.5136 110.137 56.333 109.946L45.2391 98.2285C45.0084 97.9826 44.8796 97.6583 44.8788 97.3212C44.878 96.984 45.0052 96.6591 45.2347 96.4121L56.3347 84.6949C56.5156 84.504 56.7495 84.3717 57.0064 84.3151C57.2632 84.2585 57.5311 84.2802 57.7755 84.3774C58.0198 84.4746 58.2294 84.6429 58.3772 84.8605C58.5249 85.078 58.6041 85.3349 58.6043 85.5979V88.7012C58.6054 88.8836 58.6441 89.0639 58.7182 89.2306C58.7923 89.3973 58.9001 89.5468 59.0348 89.6699C59.1695 89.7929 59.3283 89.8867 59.501 89.9454C59.6737 90.0041 59.8567 90.0264 60.0385 90.0109C66.8074 89.3684 73.2199 86.6792 78.4222 82.3014C83.6246 77.9236 87.3699 72.0648 89.1596 65.5053L94.6149 70.6635C95.3466 71.3571 96.3164 71.7437 97.3246 71.7437C98.3328 71.7437 99.3026 71.3571 100.034 70.6635L104.184 66.7396C102.016 77.0962 96.4985 86.451 88.4845 93.3603C80.4705 100.27 70.4052 104.349 59.8421 104.969V104.967ZM31.1138 54.4115L26.9936 50.5174C28.3029 44.3474 31.478 38.7293 36.0884 34.425C40.6989 30.1207 46.5215 27.3384 52.7668 26.4554V28.3928C52.7672 29.1821 53.0044 29.953 53.4477 30.606C53.8909 31.2591 54.5198 31.7641 55.2532 32.0559C55.9865 32.3477 56.7905 32.4128 57.5612 32.2429C58.3319 32.0729 59.034 31.6757 59.5765 31.1025L63.5749 26.8832C69.7151 28.2468 75.2907 31.4578 79.5516 36.0846C83.8125 40.7113 86.5546 46.5318 87.4089 52.7634H85.6048C84.8145 52.7619 84.042 52.9978 83.3874 53.4405C82.7327 53.8832 82.2261 54.5124 81.9333 55.2464C81.6404 55.9804 81.5748 56.7855 81.7449 57.5573C81.915 58.329 82.3129 59.0319 82.8872 59.5749L86.9496 63.4154C85.5897 69.5264 82.4004 75.0781 77.8064 79.3312C73.2124 83.5842 67.4318 86.3368 61.2342 87.2223V85.5935C61.2338 84.8043 60.9966 84.0333 60.5534 83.3803C60.1101 82.7272 59.4812 82.2222 58.7479 81.9304C58.0145 81.6386 57.2106 81.5735 56.4398 81.7434C55.6691 81.9134 54.9671 82.3106 54.4245 82.8838L50.6725 86.8453C44.5306 85.5359 38.9359 82.3796 34.639 77.7998C30.342 73.22 27.5483 67.4358 26.6324 61.2229H28.3953C29.1856 61.2244 29.9582 60.9885 30.6128 60.5458C31.2674 60.1031 31.774 59.4739 32.0669 58.7399C32.3597 58.0059 32.4254 57.2008 32.2553 56.429C32.0852 55.6573 31.6881 54.9544 31.1138 54.4115ZM105.138 54.1485C105.157 54.4845 105.303 54.8005 105.548 55.0316C105.793 55.2627 106.117 55.3912 106.453 55.3907H109.048C109.312 55.389 109.57 55.4668 109.789 55.6139C110.008 55.761 110.178 55.9707 110.277 56.2156C110.375 56.4605 110.397 56.7294 110.341 56.9872C110.284 57.245 110.151 57.4798 109.96 57.6612L98.2258 68.755C97.9808 68.9824 97.6589 69.1088 97.3246 69.1088C96.9903 69.1088 96.6684 68.9824 96.4234 68.755L84.6957 57.6655C84.5035 57.4845 84.3702 57.2498 84.3132 56.9919C84.2562 56.734 84.2782 56.465 84.3763 56.2198C84.4744 55.9746 84.6441 55.7646 84.8632 55.6172C85.0823 55.4698 85.3407 55.3918 85.6048 55.3933H88.8747C89.0565 55.3922 89.2361 55.3536 89.4023 55.2799C89.5685 55.2063 89.7177 55.0991 89.8406 54.9652C89.9635 54.8312 90.0575 54.6734 90.1166 54.5015C90.1758 54.3296 90.1988 54.1473 90.1844 53.9661C89.5773 47.1639 86.9022 40.7107 82.5186 35.4741C78.135 30.2375 72.2531 26.4686 65.6639 24.6741L70.6756 19.3783C71.3639 18.6429 71.7469 17.6733 71.7469 16.666C71.7469 15.6587 71.3639 14.6891 70.6756 13.9537L66.5388 9.5854C77.0081 11.6725 86.4848 17.1856 93.4739 25.255C100.463 33.3245 104.567 43.491 105.138 54.1511V54.1485ZM54.158 8.71052C54.4932 8.69082 54.8082 8.54363 55.0383 8.29913C55.2685 8.05463 55.3964 7.73134 55.3958 7.39556V4.94097C55.3969 4.67812 55.4768 4.42165 55.6251 4.20464C55.7734 3.98763 55.9834 3.82004 56.2279 3.72351C56.4723 3.62699 56.7402 3.60594 56.9967 3.6631C57.2533 3.72025 57.4868 3.85299 57.6672 4.04417L68.7611 15.7578C68.9918 16.0037 69.1205 16.328 69.1214 16.6652C69.1222 17.0023 68.995 17.3272 68.7654 17.5742L57.6654 29.2966C57.4845 29.4876 57.2505 29.62 56.9936 29.6765C56.7367 29.7331 56.4687 29.7113 56.2243 29.614C55.9799 29.5167 55.7703 29.3483 55.6226 29.1306C55.4749 28.9129 55.3959 28.6559 55.3958 28.3928V24.9827C55.3958 24.8 55.3578 24.6194 55.2841 24.4522C55.2104 24.2851 55.1027 24.1351 54.9679 24.0119C54.833 23.8887 54.674 23.7949 54.5009 23.7365C54.3278 23.6782 54.1444 23.6566 53.9625 23.673C47.147 24.3079 40.6913 27.0222 35.4697 31.4483C30.2482 35.8744 26.5131 41.7984 24.7704 48.4179L19.3923 43.3272C18.6635 42.6269 17.6922 42.2353 16.6814 42.2343C15.6707 42.2333 14.6986 42.623 13.9685 43.322L9.74924 47.3116C11.8359 36.8699 17.3277 27.4157 25.3642 20.4302C33.4007 13.4447 43.5276 9.32288 54.158 8.71052ZM4.04232 56.3225L15.7788 45.2269C16.0209 44.9949 16.3436 44.8659 16.679 44.867C17.0144 44.8682 17.3362 44.9994 17.5767 45.233L29.3044 56.3208C29.4967 56.5018 29.63 56.7366 29.6869 56.9944C29.7439 57.2523 29.7219 57.5213 29.6238 57.7665C29.5257 58.0117 29.3561 58.2217 29.137 58.3691C28.9178 58.5165 28.6594 58.5945 28.3953 58.593H25.1518C24.9689 58.5941 24.7882 58.6331 24.6211 58.7077C24.454 58.7822 24.3043 58.8905 24.1813 59.0259C24.0582 59.1613 23.9647 59.3207 23.9064 59.4941C23.8482 59.6675 23.8266 59.8512 23.843 60.0333C24.5147 66.8158 27.2429 73.231 31.6621 78.4197C36.0813 83.6085 41.9804 87.3231 48.5694 89.0659L43.3245 94.608C42.6352 95.3436 42.2517 96.3139 42.2517 97.3221C42.2517 98.3302 42.6352 99.3005 43.3245 100.036L47.1063 104.029C36.7737 101.863 27.4375 96.3659 20.5316 88.3808C13.6257 80.3956 9.53189 70.3643 8.87874 59.8273C8.85818 59.4927 8.71061 59.1786 8.4662 58.9492C8.22179 58.7198 7.89899 58.5924 7.56378 58.593H4.95402C4.6901 58.5947 4.43177 58.5169 4.21265 58.3698C3.99352 58.2227 3.82375 58.013 3.7254 57.7681C3.62705 57.5232 3.60468 57.2543 3.6612 56.9965C3.71773 56.7387 3.85052 56.5038 4.04232 56.3225Z" fill="#1D264D" stroke="#1D264D"/>
</svg>
