<svg width="94" height="104" viewBox="0 0 94 104" fill="none" xmlns="http://www.w3.org/2000/svg">
<path fill-rule="evenodd" clip-rule="evenodd" d="M28.9254 3.61555V14.3802C28.9254 17.6535 30.1354 20.8111 32.3289 23.2456C35.795 27.0973 42.168 34.179 46.6223 39.1299C46.8971 39.4336 46.9983 39.8482 46.8923 40.2435C46.7911 40.634 46.4922 40.9521 46.1065 41.0775L41.9269 42.4755C38.4801 43.6228 36.1565 46.8479 36.1565 50.4779V53.4668C36.1565 53.9488 35.8673 54.3827 35.4238 54.5707C30.5982 56.6436 21.4774 60.5532 21.4774 60.5532C20.2577 61.0739 19.4189 62.2212 19.2984 63.5421C19.1779 64.8678 19.7901 66.1453 20.8941 66.8829L31.5334 73.9742C32.0685 74.3309 32.2276 75.0444 31.895 75.5987L28.4337 81.3692C28.2168 81.7307 27.8263 81.9525 27.4021 81.9525H16.8061C11.7829 81.9525 7.19355 84.7871 4.94709 89.28L0.381851 98.4153C-0.509985 100.199 0.213125 102.373 2.00162 103.265C3.78529 104.157 5.95944 103.434 6.85128 101.645L11.4165 92.5147C12.4385 90.4707 14.5259 89.1836 16.8061 89.1836H27.4021C30.3668 89.1836 33.1098 87.6265 34.6332 85.0859L38.0993 79.3155C40.4132 75.4541 39.29 70.455 35.5443 67.9579L30.4584 64.5689L38.2728 61.2185C41.3774 59.888 43.3876 56.8413 43.3876 53.4668V50.4779C43.3876 49.9573 43.7202 49.4993 44.212 49.3354L48.3964 47.9374C51.096 47.0407 53.1592 44.8376 53.8824 42.0898C54.6103 39.3372 53.9016 36.4062 51.9974 34.2899L37.704 18.4104C36.7061 17.3016 36.1565 15.865 36.1565 14.3802V3.61555C36.1565 1.61977 34.5368 0 32.541 0C30.5452 0 28.9254 1.61977 28.9254 3.61555Z" fill="#1D264D"/>
<path fill-rule="evenodd" clip-rule="evenodd" d="M76.7567 44.9631C82.8742 50.049 86.7742 57.714 86.7742 66.2852C86.7742 74.8565 82.8742 82.5215 76.7567 87.6073C75.2237 88.8848 75.0116 91.165 76.2891 92.698C77.5666 94.2358 79.8468 94.4431 81.3798 93.1704C89.093 86.7541 94.0053 77.0885 94.0053 66.2852C94.0053 55.482 89.093 45.8164 81.3798 39.4C79.8468 38.1273 77.5666 38.3346 76.2891 39.8724C75.0116 41.4054 75.2237 43.6856 76.7567 44.9631Z" fill="#1D264D"/>
<path fill-rule="evenodd" clip-rule="evenodd" d="M66.9707 54.6047C70.3211 57.3911 72.4567 61.59 72.4567 66.2854C72.4567 70.9807 70.3211 75.1796 66.9707 77.966C65.4377 79.2435 65.2255 81.5237 66.503 83.0567C67.7757 84.5945 70.0607 84.8018 71.5937 83.5291C76.5398 79.417 79.6878 73.2127 79.6878 66.2854C79.6878 59.358 76.5398 53.1537 71.5937 49.0416C70.0607 47.7689 67.7757 47.9762 66.503 49.514C65.2255 51.047 65.4377 53.3272 66.9707 54.6047Z" fill="#1D264D"/>
<path fill-rule="evenodd" clip-rule="evenodd" d="M55.044 61.8357C56.3215 62.8962 57.1362 64.4967 57.1362 66.2852C57.1362 68.0737 56.3215 69.6742 55.044 70.7348C53.511 72.0122 53.2989 74.2925 54.5764 75.8254C55.8539 77.3633 58.1341 77.5705 59.6671 76.2979C62.5403 73.9068 64.3673 70.3105 64.3673 66.2852C64.3673 62.2599 62.5403 58.6636 59.6671 56.2725C58.1341 54.9999 55.8539 55.2072 54.5764 56.745C53.2989 58.278 53.511 60.5582 55.044 61.8357Z" fill="#1D264D"/>
</svg>
