<svg width="120" height="138" viewBox="0 0 120 138" fill="none" xmlns="http://www.w3.org/2000/svg">
<path d="M106.197 123.155H100.839V72.3974C100.839 71.281 99.9338 70.376 98.8174 70.376C97.7008 70.376 96.796 71.281 96.796 72.3974V123.155H83.2046V43.6045H96.796V63.0264C96.796 64.1428 97.701 65.0479 98.8174 65.0479C99.9341 65.0479 100.839 64.1428 100.839 63.0264V42.4921C100.839 40.8763 99.5244 39.5615 97.9086 39.5615H82.0919C80.4761 39.5615 79.1616 40.8763 79.1616 42.4921V123.155H67.3316V60.6755C67.3316 59.0597 66.0171 57.7449 64.4013 57.7449H48.5846C46.9688 57.7449 45.6543 59.0597 45.6543 60.6755V123.155H33.8243V81.8254C33.8243 80.2095 32.5095 78.8948 30.8937 78.8948H15.077C13.4612 78.8948 12.1464 80.2095 12.1464 81.8254V123.155H6.78868C3.04543 123.155 0 126.2 0 129.944V133.146C0 135.822 2.17727 138 4.85372 138H34.1084C35.2248 138 36.1299 137.095 36.1299 135.979C36.1299 134.862 35.2248 133.957 34.1084 133.957H4.85372C4.40684 133.957 4.04324 133.593 4.04324 133.147V129.944C4.04324 128.43 5.275 127.198 6.78895 127.198H106.197C107.711 127.198 108.943 128.43 108.943 129.944V133.146C108.943 133.593 108.579 133.957 108.132 133.957H43.4528C42.3364 133.957 41.4313 134.862 41.4313 135.978C41.4313 137.095 42.3364 138 43.4528 138H108.132C110.808 138 112.986 135.822 112.986 133.146V129.944C112.985 126.2 109.94 123.155 106.197 123.155ZM16.1897 123.155V82.938H29.781V123.155H16.1897ZM49.697 123.155V61.7881H63.2884V123.155H49.697Z" fill="#1D264D"/>
<path d="M79.0633 22.0539L77.7048 29.974C77.4736 31.3238 78.018 32.6623 79.1261 33.4674C80.2341 34.2722 81.6756 34.3763 82.8876 33.7394L90 30.0002L97.1127 33.7394C97.6399 34.0165 98.2105 34.1534 98.7784 34.1534C99.5156 34.1534 100.248 33.9221 100.875 33.4674C101.982 32.6623 102.527 31.3238 102.295 29.974L100.937 22.0539L106.691 16.4446C107.672 15.4886 108.018 14.0854 107.595 12.7831C107.172 11.4807 106.067 10.5495 104.712 10.3524L96.7591 9.19695L93.2031 1.99103C92.5972 0.763043 91.3701 0 90.0006 0H90.0003C88.6308 0 87.4034 0.762773 86.7972 1.99103L83.241 9.19695L75.2882 10.3524C73.9333 10.5492 72.8285 11.4807 72.405 12.7831C71.9819 14.0857 72.3279 15.4886 73.3088 16.4446L79.0633 22.0539ZM84.0679 13.1623C85.2315 12.993 86.2366 12.2626 86.757 11.2085L90 4.63675L93.2433 11.2085C93.7638 12.2626 94.7688 12.993 95.933 13.1623L103.185 14.2162L97.9375 19.3316C97.0954 20.1526 96.7114 21.3345 96.9103 22.4932L98.149 29.7164L91.662 26.306C90.6213 25.7591 89.3785 25.7591 88.3381 26.306L81.8513 29.7164L83.0901 22.4935C83.289 21.3347 82.9049 20.1526 82.0629 19.3316L76.8148 14.2162L84.0679 13.1623Z" fill="#1D264D"/>
<path d="M62.9182 19.0979H66.3049C67.4215 19.0979 68.3264 18.1928 68.3264 17.0764C68.3264 15.96 67.4213 15.0549 66.3049 15.0549H62.9182C61.8015 15.0549 60.8967 15.96 60.8967 17.0764C60.8967 18.1928 61.8018 19.0979 62.9182 19.0979Z" fill="#1D264D"/>
<path d="M68.1302 24.3775L65.1972 26.0707C64.2304 26.6289 63.8988 27.8652 64.4573 28.832C64.8317 29.4805 65.5112 29.8433 66.2098 29.8433C66.5526 29.8433 66.9003 29.756 67.2187 29.5722L70.1517 27.879C71.1185 27.3208 71.45 26.0844 70.8916 25.1176C70.3336 24.1505 69.0976 23.8195 68.1302 24.3775Z" fill="#1D264D"/>
<path d="M65.1972 7.77566L68.1302 9.46886C68.4488 9.65268 68.7962 9.74001 69.1391 9.74001C69.8377 9.74001 70.5172 9.37722 70.8916 8.729C71.4498 7.76192 71.1185 6.52558 70.1517 5.96765L67.2187 4.27445C66.2513 3.71598 65.0152 4.04751 64.4573 5.01432C63.8988 5.98112 64.2304 7.21746 65.1972 7.77566Z" fill="#1D264D"/>
<path d="M117.082 15.0549H113.695C112.579 15.0549 111.674 15.96 111.674 17.0764C111.674 18.1928 112.579 19.0979 113.695 19.0979H117.082C118.199 19.0979 119.104 18.1928 119.104 17.0764C119.104 15.96 118.199 15.0549 117.082 15.0549Z" fill="#1D264D"/>
<path d="M114.803 26.0709L111.87 24.3777C110.903 23.8195 109.667 24.1508 109.109 25.1176C108.551 26.0847 108.882 27.321 109.849 27.8789L112.782 29.5721C113.1 29.756 113.448 29.8433 113.791 29.8433C114.489 29.8433 115.169 29.4805 115.543 28.832C116.101 27.8655 115.77 26.6291 114.803 26.0709Z" fill="#1D264D"/>
<path d="M110.861 9.74007C111.204 9.74007 111.552 9.65274 111.87 9.46892L114.803 7.77572C115.77 7.21752 116.101 5.98118 115.543 5.01437C114.985 4.0473 113.749 3.71604 112.782 4.27451L109.849 5.96771C108.882 6.52591 108.55 7.76225 109.109 8.72905C109.483 9.37755 110.163 9.74007 110.861 9.74007Z" fill="#1D264D"/>
</svg>
