<svg width="98" height="98" viewBox="0 0 98 98" fill="none" xmlns="http://www.w3.org/2000/svg">
<path d="M15.3125 0C6.86894 0 0 6.86969 0 15.3125C0 23.679 6.82474 30.625 15.3125 30.625C23.7399 30.625 30.625 23.7399 30.625 15.3125C30.625 6.86969 23.7561 0 15.3125 0ZM15.3125 27.5625C12.2616 27.5625 9.47424 26.4341 7.32746 24.5822C8.94506 21.7177 11.9678 19.9062 15.3125 19.9062C18.6572 19.9062 21.6799 21.7177 23.2975 24.5822C21.1508 26.4341 18.3634 27.5625 15.3125 27.5625ZM12.25 13.7812C12.25 12.093 13.6235 10.7188 15.3125 10.7188C17.0015 10.7188 18.375 12.093 18.375 13.7812C18.375 15.4695 17.0015 16.8438 15.3125 16.8438C13.6235 16.8438 12.25 15.4695 12.25 13.7812ZM25.421 22.2188C24.0546 20.2084 22.141 18.6745 19.9208 17.7722C20.8529 16.6973 21.4375 15.3127 21.4375 13.7812C21.4375 10.4032 18.6898 7.65625 15.3125 7.65625C11.9352 7.65625 9.1875 10.4032 9.1875 13.7812C9.1875 15.3127 9.77209 16.6973 10.7042 17.7722C8.48403 18.6745 6.57043 20.2084 5.20395 22.2188C3.85513 20.2508 3.0625 17.8732 3.0625 15.3125C3.0625 8.55795 8.55795 3.0625 15.3125 3.0625C22.067 3.0625 27.5625 8.55795 27.5625 15.3125C27.5625 17.8732 26.7699 20.2508 25.421 22.2188Z" fill="#1D264D"/>
<path d="M91.875 6.125H42.875C39.4977 6.125 36.75 8.87198 36.75 12.25V18.375C36.75 21.753 39.4977 24.5 42.875 24.5H91.875C95.2523 24.5 98 21.753 98 18.375V12.25C98 8.87198 95.2523 6.125 91.875 6.125ZM71.9688 21.4375H42.875C41.186 21.4375 39.8125 20.0633 39.8125 18.375V12.25C39.8125 10.5617 41.186 9.1875 42.875 9.1875H71.9688V21.4375ZM94.9375 18.375C94.9375 20.0633 93.564 21.4375 91.875 21.4375H75.0312V9.1875H91.875C93.564 9.1875 94.9375 10.5617 94.9375 12.25V18.375Z" fill="#1D264D"/>
<path d="M91.875 39.8125H42.875C39.4977 39.8125 36.75 42.5595 36.75 45.9375V52.0625C36.75 55.4405 39.4977 58.1875 42.875 58.1875H91.875C95.2523 58.1875 98 55.4405 98 52.0625V45.9375C98 42.5595 95.2523 39.8125 91.875 39.8125ZM59.7188 55.125H42.875C41.186 55.125 39.8125 53.7508 39.8125 52.0625V45.9375C39.8125 44.2492 41.186 42.875 42.875 42.875H59.7188V55.125ZM94.9375 52.0625C94.9375 53.7508 93.564 55.125 91.875 55.125H62.7812V42.875H91.875C93.564 42.875 94.9375 44.2492 94.9375 45.9375V52.0625Z" fill="#1D264D"/>
<path d="M91.875 73.5H42.875C39.4977 73.5 36.75 76.247 36.75 79.625V85.75C36.75 89.128 39.4977 91.875 42.875 91.875H91.875C95.2523 91.875 98 89.128 98 85.75V79.625C98 76.247 95.2523 73.5 91.875 73.5ZM82.6875 88.8125H42.875C41.186 88.8125 39.8125 87.4383 39.8125 85.75V79.625C39.8125 77.9367 41.186 76.5625 42.875 76.5625H82.6875V88.8125ZM94.9375 85.75C94.9375 87.4383 93.564 88.8125 91.875 88.8125H85.75V76.5625H91.875C93.564 76.5625 94.9375 77.9367 94.9375 79.625V85.75Z" fill="#1D264D"/>
<path d="M15.3125 33.6875C6.86894 33.6875 0 40.5572 0 49C0 57.3665 6.82474 64.3125 15.3125 64.3125C23.7399 64.3125 30.625 57.4274 30.625 49C30.625 40.5572 23.7561 33.6875 15.3125 33.6875ZM15.3125 61.25C12.2616 61.25 9.47424 60.1216 7.32746 58.2697C8.94506 55.4052 11.9678 53.5938 15.3125 53.5938C18.6572 53.5938 21.6799 55.4052 23.2975 58.2697C21.1508 60.1216 18.3634 61.25 15.3125 61.25ZM12.25 47.4688C12.25 45.7805 13.6235 44.4062 15.3125 44.4062C17.0015 44.4062 18.375 45.7805 18.375 47.4688C18.375 49.157 17.0015 50.5312 15.3125 50.5312C13.6235 50.5312 12.25 49.157 12.25 47.4688ZM25.421 55.9063C24.0546 53.8959 22.141 52.362 19.9208 51.4597C20.8529 50.3848 21.4375 49.0002 21.4375 47.4688C21.4375 44.0907 18.6898 41.3438 15.3125 41.3438C11.9352 41.3438 9.1875 44.0907 9.1875 47.4688C9.1875 49.0002 9.77209 50.3848 10.7042 51.4597C8.48403 52.362 6.57043 53.8959 5.20395 55.9063C3.85513 53.9383 3.0625 51.5607 3.0625 49C3.0625 42.2455 8.55795 36.75 15.3125 36.75C22.067 36.75 27.5625 42.2455 27.5625 49C27.5625 51.5607 26.7699 53.9383 25.421 55.9063Z" fill="#1D264D"/>
<path d="M15.3125 67.375C6.86894 67.375 0 74.2447 0 82.6875C0 91.054 6.82474 98 15.3125 98C23.7399 98 30.625 91.1149 30.625 82.6875C30.625 74.2447 23.7561 67.375 15.3125 67.375ZM15.3125 94.9375C12.2616 94.9375 9.47424 93.8091 7.32746 91.9572C8.94506 89.0927 11.9678 87.2812 15.3125 87.2812C18.6572 87.2812 21.6799 89.0927 23.2975 91.9572C21.1508 93.8091 18.3634 94.9375 15.3125 94.9375ZM12.25 81.1562C12.25 79.468 13.6235 78.0938 15.3125 78.0938C17.0015 78.0938 18.375 79.468 18.375 81.1562C18.375 82.8445 17.0015 84.2188 15.3125 84.2188C13.6235 84.2188 12.25 82.8445 12.25 81.1562ZM25.421 89.5938C24.0546 87.5834 22.141 86.0495 19.9208 85.1472C20.8529 84.0723 21.4375 82.6877 21.4375 81.1562C21.4375 77.7782 18.6898 75.0312 15.3125 75.0312C11.9352 75.0312 9.1875 77.7782 9.1875 81.1562C9.1875 82.6877 9.77209 84.0723 10.7042 85.1472C8.48403 86.0495 6.57043 87.5834 5.20395 89.5938C3.85513 87.6258 3.0625 85.2482 3.0625 82.6875C3.0625 75.933 8.55795 70.4375 15.3125 70.4375C22.067 70.4375 27.5625 75.933 27.5625 82.6875C27.5625 85.2482 26.7699 87.6258 25.421 89.5938Z" fill="#1D264D"/>
</svg>
