<svg width="92" height="153" viewBox="0 0 92 153" fill="none" xmlns="http://www.w3.org/2000/svg">
<path d="M91.1883 79.2333C91.2693 78.5151 91.0389 77.7943 90.558 77.2544C90.0771 76.7144 89.3936 76.4062 88.6722 76.4062H78.5472C77.4714 76.4062 76.5121 77.0914 76.1577 78.1127L75.2085 80.8837C72.695 90.9998 68.3539 97.1022 62.3422 105.553L61.0411 107.384C60.0919 108.718 58.5529 109.516 56.9202 109.516H56.8544C59.2692 106.808 60.7525 103.245 60.7525 99.3281C60.7525 90.9005 53.9409 84.0469 45.565 84.0469C37.1891 84.0469 30.3775 90.9005 30.3775 99.3281C30.3775 103.243 31.8608 106.808 34.2757 109.516C32.6481 109.513 31.1116 108.716 30.1674 107.392L28.8563 105.542C22.8471 97.0996 18.5085 90.9947 15.9317 80.6595L15.0458 78.1127C14.6914 77.0914 13.732 76.4062 12.6563 76.4062H2.53125C1.80985 76.4062 1.12388 76.7144 0.645472 77.2544C0.164534 77.7943 -0.0632774 78.5151 0.0151914 79.2333C1.28082 90.6815 5.39157 101.735 11.9045 111.199L25.3125 130.685V152.812H30.375V129.891C30.375 129.374 30.2181 128.867 29.9244 128.441L16.0658 108.301C10.568 100.311 6.91538 91.0992 5.42194 81.5025H10.8667L11.0843 82.1189C13.8282 93.1723 18.6427 99.9394 24.7379 108.507L26.044 110.348C27.945 113.015 31.0255 114.609 34.2883 114.609H56.9202C60.183 114.609 63.261 113.015 65.162 110.338L66.458 108.515C72.5558 99.9445 77.3727 93.1749 80.0533 82.3405L80.3444 81.5H85.779C84.2881 91.0966 80.6355 100.309 75.1351 108.298L61.2765 128.439C60.9854 128.867 60.8285 129.374 60.8285 129.891V152.812H65.891V130.685L79.299 111.199C85.8144 101.732 89.9252 90.6789 91.1883 79.2333ZM45.5676 89.1406C51.1515 89.1406 55.6926 93.7097 55.6926 99.3281C55.6926 104.947 51.1515 109.516 45.5676 109.516C39.9836 109.516 35.4426 104.947 35.4426 99.3281C35.4426 93.7097 39.9836 89.1406 45.5676 89.1406Z" fill="white"/>
<path d="M44.2287 65.786C44.6565 66.0738 45.1501 66.2189 45.6411 66.2189C46.1322 66.2189 46.6258 66.0738 47.0535 65.786C52.6603 61.9937 70.9536 48.5156 70.9536 34.2506C70.9536 27.3511 66.9947 22.1733 60.621 20.7368C55.7408 19.6289 49.5975 21.0909 45.6411 25.665C41.6848 21.0909 35.5465 19.6213 30.6612 20.7368C24.2875 22.1733 20.3286 27.3511 20.3286 34.2506C20.3286 48.5156 38.622 61.9937 44.2287 65.786ZM31.7673 25.7083C32.4584 25.5504 33.1874 25.4715 33.9316 25.4715C37.5082 25.4715 41.4443 27.3129 43.3529 31.3828C43.7705 32.2742 44.6615 32.8421 45.6411 32.8421C46.6207 32.8421 47.5117 32.2716 47.9294 31.3828C50.2353 26.4597 55.5054 24.7966 59.5149 25.7058C61.4336 26.1413 65.8911 27.8375 65.8911 34.2506C65.8911 45.141 51.1441 56.658 45.6411 60.5776C40.1382 56.658 25.3911 45.141 25.3911 34.2506C25.3911 27.8375 29.8486 26.1413 31.7673 25.7083Z" fill="white"/>
<path d="M78.5474 35.6562H88.6724V40.75H78.5474V35.6562Z" fill="white"/>
<path d="M2.60986 35.6562H12.7349V40.75H2.60986V35.6562Z" fill="white"/>
<path d="M43.1099 0H48.1724V10.1875H43.1099V0Z" fill="white"/>
<path d="M13.4146 11.9932L16.9943 8.39134L24.1537 15.595L20.574 19.1968L13.4146 11.9932Z" fill="white"/>
<path d="M67.103 15.5908L74.2625 8.38717L77.8422 11.989L70.6828 19.1926L67.103 15.5908Z" fill="white"/>
</svg>
