<svg width="101" height="107" viewBox="0 0 101 107" fill="none" xmlns="http://www.w3.org/2000/svg">
<path fill-rule="evenodd" clip-rule="evenodd" d="M93.8401 51.593C92.8366 51.7624 92.1592 52.7136 92.3286 53.7189C92.7285 56.0826 92.9303 58.4606 92.9303 60.7919C92.9303 73.795 87.1346 85.5321 77.7966 93.3472C76.1657 82.7581 68.6477 74.2653 58.6644 71.226C62.6335 68.5783 65.258 64.0672 65.258 58.9471C65.258 50.8075 58.6372 44.1885 50.4994 44.1885C42.3617 44.1885 35.7409 50.8075 35.7409 58.9471C35.7409 64.0672 38.3653 68.5783 42.3344 71.226C32.3512 74.2653 24.8332 82.7581 23.2023 93.3472C13.8642 85.5321 8.06855 73.795 8.06855 60.7919C8.06855 58.4606 8.27033 56.0826 8.67028 53.7189C8.83962 52.7136 8.16223 51.7624 7.15875 51.593C6.13185 51.4201 5.20223 52.1011 5.03108 53.1063C4.5987 55.6682 4.37891 58.2553 4.37891 60.7919C4.37891 83.4486 20.5607 102.571 42.8553 106.26C42.9562 106.278 43.0589 106.285 43.158 106.285C44.0444 106.285 44.8262 105.644 44.9758 104.743C45.1433 103.738 44.4623 102.787 43.457 102.621C37.2405 101.592 31.5533 99.2417 26.6282 95.9077C27.5182 83.388 37.8075 73.7056 50.4994 73.7056C63.1913 73.7056 73.4806 83.388 74.3706 95.9077C69.4455 99.2417 63.7584 101.592 57.5418 102.621C56.5365 102.787 55.8555 103.738 56.0231 104.743C56.1726 105.644 56.9545 106.285 57.8409 106.285C57.94 106.285 58.0427 106.278 58.1435 106.26C80.4381 102.571 96.6199 83.4486 96.6199 60.7919C96.6199 58.2553 96.4001 55.6682 95.9678 53.1063C95.7966 52.1011 94.8562 51.4165 93.8401 51.593ZM39.4305 58.9471C39.4305 52.8433 44.3957 47.8781 50.4994 47.8781C56.6032 47.8781 61.5683 52.8433 61.5683 58.9471C61.5683 65.0508 56.6032 70.016 50.4994 70.016C44.3957 70.016 39.4305 65.0508 39.4305 58.9471Z" fill="#1D264D"/>
<path fill-rule="evenodd" clip-rule="evenodd" d="M70.702 14.5928C70.484 13.9226 69.9075 13.4362 69.212 13.3353L57.4243 11.6238L52.1529 0.940426C51.5331 -0.313475 49.4649 -0.313475 48.8452 0.940426L43.5737 11.6238L31.786 13.3353C31.0906 13.4362 30.514 13.9226 30.2961 14.5928C30.0799 15.2594 30.26 15.9945 30.7627 16.4845L39.2932 24.797L37.279 36.5361C37.1601 37.2315 37.4447 37.9305 38.0122 38.3413C38.5833 38.7556 39.3346 38.8169 39.9561 38.4818L50.499 32.9365L61.0419 38.4818C61.3121 38.6259 61.6076 38.6944 61.9012 38.6944C62.2832 38.6944 62.6633 38.5755 62.9858 38.3413C63.5533 37.9305 63.8379 37.2315 63.719 36.5361L61.7048 24.797L70.2353 16.4845C70.738 15.9945 70.9181 15.2594 70.702 14.5928ZM58.435 22.8297C58.0008 23.2548 57.8026 23.8638 57.9053 24.4655L59.4511 33.477L51.3584 29.2217C51.0881 29.0811 50.7945 29.0091 50.499 29.0091C50.2035 29.0091 49.9099 29.0811 49.6397 29.2217L41.5469 33.477L43.0927 24.4655C43.1954 23.8638 42.9972 23.2548 42.563 22.8297L36.0161 16.4521L45.0636 15.1369C45.6654 15.0468 46.1842 14.6721 46.4527 14.128L50.499 5.92721L54.5454 14.128C54.8138 14.6721 55.3327 15.0468 55.9344 15.1369L64.9819 16.4521L58.435 22.8297Z" fill="#1D264D"/>
<path fill-rule="evenodd" clip-rule="evenodd" d="M6.35355 44.2759C6.23465 44.9713 6.5193 45.6703 7.08679 46.0811C7.6597 46.4955 8.41276 46.5531 9.0307 46.2216L17.2928 41.8762L25.5548 46.2216C25.8251 46.3658 26.1205 46.4342 26.4142 46.4342C26.7961 46.4342 27.1762 46.3153 27.4987 46.0811C28.0662 45.6703 28.3509 44.9713 28.232 44.2759L26.6538 35.077L33.3395 28.5625C33.8421 28.0725 34.0223 27.3374 33.8061 26.6709C33.5881 26.0007 33.0116 25.5142 32.3162 25.4133L23.0776 24.073L18.9466 15.6992C18.3269 14.4453 16.2587 14.4453 15.6389 15.6992L11.5079 24.073L2.26936 25.4133C1.57395 25.5142 0.997444 26.0007 0.779453 26.6709C0.563263 27.3374 0.743422 28.0725 1.24606 28.5625L7.93174 35.077L6.35355 44.2759ZM6.49948 28.5301L12.9978 27.5861C13.5995 27.496 14.1184 27.1213 14.3868 26.5772L17.2928 20.686L20.1987 26.5772C20.4671 27.1213 20.986 27.496 21.5877 27.5861L28.086 28.5301L23.3839 33.1097C22.9497 33.5349 22.7516 34.1438 22.8542 34.7455L23.964 41.2168L18.1521 38.1613C17.8819 38.0208 17.5882 37.9488 17.2928 37.9488C16.9973 37.9488 16.7036 38.0208 16.4334 38.1613L10.6215 41.2168L11.7313 34.7455C11.834 34.1438 11.6358 33.5349 11.2016 33.1097L6.49948 28.5301Z" fill="#1D264D"/>
<path fill-rule="evenodd" clip-rule="evenodd" d="M98.7302 25.4133L89.4917 24.073L85.3607 15.6992C84.7409 14.4453 82.6727 14.4453 82.053 15.6992L77.9219 24.073L68.6834 25.4133C67.988 25.5142 67.4115 26.0007 67.1935 26.6709C66.9773 27.3374 67.1575 28.0725 67.6601 28.5625L74.3458 35.077L72.7676 44.2759C72.6487 44.9713 72.9334 45.6703 73.5009 46.0811C74.072 46.4955 74.8232 46.5531 75.4448 46.2216L83.7068 41.8762L91.9689 46.2216C92.2391 46.3658 92.5346 46.4342 92.8282 46.4342C93.2102 46.4342 93.5903 46.3153 93.9128 46.0811C94.4803 45.6703 94.7649 44.9713 94.646 44.2759L93.0678 35.077L99.7535 28.5625C100.256 28.0725 100.436 27.3374 100.22 26.6709C100.002 26.0007 99.4256 25.5142 98.7302 25.4133ZM89.798 33.1097C89.3638 33.5349 89.1656 34.1438 89.2683 34.7455L90.3781 41.2168L84.5662 38.1613C84.2959 38.0208 84.0023 37.9488 83.7068 37.9488C83.4114 37.9488 83.1177 38.0208 82.8475 38.1613L77.0356 41.2168L78.1453 34.7455C78.248 34.1438 78.0499 33.5349 77.6157 33.1097L72.9135 28.5301L79.4118 27.5861C80.0136 27.496 80.5324 27.1213 80.8009 26.5772L83.7068 20.686L86.6128 26.5772C86.8812 27.1213 87.4001 27.496 88.0018 27.5861L94.5001 28.5301L89.798 33.1097Z" fill="#1D264D"/>
</svg>
