<svg width="83" height="90" viewBox="0 0 83 90" fill="none" xmlns="http://www.w3.org/2000/svg">
<path d="M41.1259 89.293C39.8696 89.2919 38.6345 88.9693 37.5381 88.3558L23.3228 80.4594C16.2562 76.5299 10.368 70.7835 6.26747 63.8147C2.16697 56.846 0.00317594 48.9081 1.63227e-06 40.8224V18.9064C-0.00121226 17.0818 0.674676 15.3216 1.89679 13.9667C3.11891 12.6118 4.80031 11.7585 6.61541 11.5722C12.2705 10.9731 17.8362 9.71514 23.1992 7.82388C28.1166 6.086 32.8339 3.8268 37.2704 1.08488C38.4312 0.375064 39.7656 -0.000364439 41.1262 2.65462e-07C42.4869 0.00036497 43.821 0.376509 44.9815 1.08695C49.4185 3.82739 54.1357 6.08586 59.0526 7.82388C64.4157 9.71519 69.9814 10.9732 75.6365 11.5723C77.4515 11.7587 79.1329 12.6119 80.355 13.9668C81.5771 15.3216 82.2531 17.0818 82.2519 18.9064V40.8225C82.2487 48.9082 80.0849 56.8461 75.9844 63.8149C71.8839 70.7836 65.9957 76.5301 58.929 80.4595L44.7096 88.358C43.6144 88.9703 42.3807 89.2922 41.1259 89.293ZM41.1259 6.32023C40.9401 6.31939 40.7576 6.37 40.5987 6.46647C35.7771 9.44391 30.6512 11.8998 25.3083 13.7882C19.4794 15.8451 13.4297 17.2124 7.28271 17.8621C7.02153 17.8847 6.77838 18.0046 6.60141 18.198C6.42443 18.3914 6.32652 18.6443 6.32707 18.9064V40.8225C6.32956 47.7798 8.19136 54.6101 11.7198 60.6062C15.2482 66.6024 20.315 71.5467 26.3957 74.9273L40.6152 82.8259C40.7704 82.9133 40.9455 82.9594 41.1236 82.9597C41.3018 82.9601 41.477 82.9147 41.6326 82.8279L55.8562 74.9275C61.9369 71.5469 67.0037 66.6026 70.5322 60.6064C74.0606 54.6101 75.9223 47.7799 75.9248 40.8225V18.9064C75.9253 18.6443 75.8274 18.3915 75.6504 18.1981C75.4735 18.0047 75.2303 17.8849 74.9692 17.8622C68.8222 17.2125 62.7725 15.8452 56.9436 13.7882C51.6007 11.8997 46.4748 9.4459 41.6532 6.46841C41.4949 6.37043 41.3121 6.31908 41.1259 6.32023Z" fill="#1D264D"/>
<path d="M39.0169 54.0409C38.2422 54.0421 37.4943 53.7576 36.9163 53.2418L27.4257 44.8057C26.8015 44.2477 26.4239 43.465 26.3758 42.6292C26.3277 41.7933 26.613 40.9725 27.1691 40.3466C27.7252 39.7208 28.5067 39.3409 29.3424 39.2903C30.1781 39.2397 30.9998 39.5226 31.6273 40.0768L38.8153 46.4657L52.5282 31.8405C52.811 31.5321 53.1522 31.2828 53.5321 31.1072C53.912 30.9316 54.3229 30.8331 54.7411 30.8174C55.1593 30.8017 55.5764 30.8691 55.9684 31.0158C56.3604 31.1624 56.7193 31.3854 57.0245 31.6718C57.3297 31.9582 57.575 32.3022 57.7462 32.6841C57.9175 33.0659 58.0113 33.478 58.0222 33.8963C58.0331 34.3147 57.9609 34.731 57.8097 35.1213C57.6586 35.5115 57.4315 35.8679 57.1416 36.1698L41.324 53.0419C41.0285 53.3578 40.6712 53.6095 40.2743 53.7814C39.8774 53.9532 39.4494 54.0416 39.0169 54.0409Z" fill="#1D264D"/>
</svg>
