<svg width="105" height="98" viewBox="0 0 105 98" fill="none" xmlns="http://www.w3.org/2000/svg">
<mask id="path-1-inside-1_2088_1354" fill="white">
<path d="M103.711 66.1816C101.725 62.8242 98.2038 61.6368 95.133 63.3155L92.4921 64.7485V42.1066C94.6826 41.4106 96.2794 39.3634 96.2794 36.9272V25.0126C96.2794 22.0237 93.8432 19.5876 90.8543 19.5876H75.8485C80.946 17.438 84.0577 13.6507 84.2419 9.29022C84.4057 5.64623 82.3995 2.37073 79.1854 0.896753C77.1587 -0.0244808 71.6722 -1.41657 64.6913 5.27773C61.4772 8.36899 58.8159 12.2382 57.0348 16.3121C55.2333 12.2382 52.5719 8.36899 49.3783 5.27773C42.3974 -1.43704 36.911 -0.0244808 34.8843 0.896753C31.6292 2.37073 29.6435 5.6667 29.7868 9.29022C29.971 13.6507 33.0827 17.4176 38.1802 19.5876H25.6105C22.6216 19.5876 20.1854 22.0237 20.1854 25.0126V36.9272C20.1854 39.3429 21.7823 41.4106 23.9727 42.1066V60.1833L19.387 62.0258C18.6705 60.8179 17.3603 60.0195 15.8454 60.0195H4.21739C1.94501 59.9991 0.102539 61.8415 0.102539 64.1139V91.7714C0.102539 94.0438 1.94501 95.8863 4.21739 95.8863H15.8659C17.4013 95.8863 18.7319 95.0469 19.4485 93.7981L27.3711 96.4799C28.7222 96.9508 29.971 97.1555 31.404 97.1555H65.285C67.3526 97.1555 69.1337 96.6232 70.8943 95.4973L102.257 75.4553C105.533 73.3467 105.451 69.109 103.711 66.1816ZM72.2659 75.7419C70.8329 76.5199 69.5022 76.8679 67.9668 76.8679H67.3936L67.6188 76.7246C70.1163 75.1073 71.2218 72.1184 70.3825 69.2728C69.5431 66.4272 66.9841 64.5029 64.0157 64.5029H58.6521V42.3523H89.2166V66.5296L72.2659 75.7419ZM93.0039 25.0126V36.9272C93.0039 38.1146 92.0417 39.0768 90.8543 39.0768H58.6521V23.0473C61.8048 23.7638 63.8519 26.548 66.1857 29.7007C67.7211 31.7683 69.2975 33.9179 71.3037 35.4942C71.6108 35.7399 71.9588 35.8422 72.3273 35.8422C72.8186 35.8422 73.2895 35.6375 73.617 35.2281C74.1698 34.5116 74.0674 33.488 73.3509 32.9352C71.6927 31.6046 70.3006 29.7416 68.8471 27.7559C67.6188 26.0976 66.3086 24.3166 64.7527 22.8631H90.8748C92.0417 22.8631 93.0039 23.8253 93.0039 25.0126ZM66.9432 7.65247C69.8707 4.8683 72.8186 3.39432 75.3776 3.39432C76.2374 3.39432 77.0563 3.5581 77.8342 3.90612C79.8405 4.80688 81.0688 6.87454 80.9664 9.16739C80.8231 12.4634 78.0594 15.3908 73.5556 16.9672C69.7888 18.2978 64.896 19.1577 59.2867 19.4852C60.8426 15.1656 63.6268 10.8666 66.9432 7.65247ZM33.0623 9.16739C32.9599 6.87454 34.1882 4.80688 36.1945 3.90612C36.9519 3.5581 37.7708 3.39432 38.6511 3.39432C41.2101 3.39432 44.158 4.8683 47.065 7.67294C50.4019 10.8666 53.1656 15.1656 54.742 19.4852C49.1327 19.1577 44.2194 18.2978 40.4731 16.9672C35.9693 15.3704 33.2056 12.4634 33.0623 9.16739ZM23.4609 25.0126C23.4609 23.8253 24.4231 22.8631 25.6105 22.8631H49.2964C47.7406 24.3166 46.4509 26.0772 45.2021 27.7559C43.7281 29.7416 42.3565 31.625 40.6983 32.9352C39.9817 33.488 39.8794 34.532 40.4321 35.2281C40.7597 35.6375 41.2305 35.8422 41.7219 35.8422C42.0699 35.8422 42.4384 35.7194 42.7454 35.4942C44.7517 33.8974 46.328 31.7683 47.8634 29.7007C50.1972 26.548 52.2444 23.7638 55.3971 23.0473V39.0768H25.6105C24.4231 39.0768 23.4609 38.1146 23.4609 36.9272V25.0126ZM27.2482 42.3523H55.3766V64.5233H48.7232C47.7201 64.5233 46.8808 64.3186 46.0005 63.8478L36.2763 58.6684C33.8607 57.3787 31.2607 57.2353 28.7222 58.2589L27.2482 58.8526V42.3523ZM15.8659 92.6107H4.21739C3.767 92.6107 3.37804 92.2218 3.37804 91.7714V64.1139C3.37804 63.6635 3.767 63.2746 4.21739 63.2746H15.8659C16.3163 63.2746 16.7052 63.6635 16.7052 64.1139V64.1548V91.7509C16.7052 92.2218 16.3163 92.6107 15.8659 92.6107ZM100.497 72.6916L69.1337 92.7541C67.9054 93.532 66.718 93.9005 65.285 93.9005H31.4245C30.3395 93.9005 29.4592 93.7572 28.4356 93.4091L19.9807 90.5431V65.3013L29.9505 61.2888C31.5883 60.6337 33.1851 60.7156 34.7409 61.5549L44.4651 66.7343C45.8162 67.4508 47.1674 67.7988 48.7232 67.7988H64.0157C65.5511 67.7988 66.7999 68.7405 67.2298 70.2145C67.6597 71.6885 67.107 73.1625 65.8173 73.9813L62.6032 76.049C61.7229 76.6222 60.8631 76.8679 59.7985 76.8679H59.4096H45.4068C44.506 76.8679 43.769 77.6049 43.769 78.5056C43.769 79.4064 44.506 80.1434 45.4068 80.1434H59.4096H59.7985H67.9463C70.0345 80.1434 71.8974 79.6521 73.8013 78.6285L96.6684 66.1816C98.9817 64.9123 100.578 67.3485 100.865 67.8398C101.684 69.1705 102.237 71.5861 100.497 72.6916Z"/>
</mask>
<path d="M103.711 66.1816C101.725 62.8242 98.2038 61.6368 95.133 63.3155L92.4921 64.7485V42.1066C94.6826 41.4106 96.2794 39.3634 96.2794 36.9272V25.0126C96.2794 22.0237 93.8432 19.5876 90.8543 19.5876H75.8485C80.946 17.438 84.0577 13.6507 84.2419 9.29022C84.4057 5.64623 82.3995 2.37073 79.1854 0.896753C77.1587 -0.0244808 71.6722 -1.41657 64.6913 5.27773C61.4772 8.36899 58.8159 12.2382 57.0348 16.3121C55.2333 12.2382 52.5719 8.36899 49.3783 5.27773C42.3974 -1.43704 36.911 -0.0244808 34.8843 0.896753C31.6292 2.37073 29.6435 5.6667 29.7868 9.29022C29.971 13.6507 33.0827 17.4176 38.1802 19.5876H25.6105C22.6216 19.5876 20.1854 22.0237 20.1854 25.0126V36.9272C20.1854 39.3429 21.7823 41.4106 23.9727 42.1066V60.1833L19.387 62.0258C18.6705 60.8179 17.3603 60.0195 15.8454 60.0195H4.21739C1.94501 59.9991 0.102539 61.8415 0.102539 64.1139V91.7714C0.102539 94.0438 1.94501 95.8863 4.21739 95.8863H15.8659C17.4013 95.8863 18.7319 95.0469 19.4485 93.7981L27.3711 96.4799C28.7222 96.9508 29.971 97.1555 31.404 97.1555H65.285C67.3526 97.1555 69.1337 96.6232 70.8943 95.4973L102.257 75.4553C105.533 73.3467 105.451 69.109 103.711 66.1816ZM72.2659 75.7419C70.8329 76.5199 69.5022 76.8679 67.9668 76.8679H67.3936L67.6188 76.7246C70.1163 75.1073 71.2218 72.1184 70.3825 69.2728C69.5431 66.4272 66.9841 64.5029 64.0157 64.5029H58.6521V42.3523H89.2166V66.5296L72.2659 75.7419ZM93.0039 25.0126V36.9272C93.0039 38.1146 92.0417 39.0768 90.8543 39.0768H58.6521V23.0473C61.8048 23.7638 63.8519 26.548 66.1857 29.7007C67.7211 31.7683 69.2975 33.9179 71.3037 35.4942C71.6108 35.7399 71.9588 35.8422 72.3273 35.8422C72.8186 35.8422 73.2895 35.6375 73.617 35.2281C74.1698 34.5116 74.0674 33.488 73.3509 32.9352C71.6927 31.6046 70.3006 29.7416 68.8471 27.7559C67.6188 26.0976 66.3086 24.3166 64.7527 22.8631H90.8748C92.0417 22.8631 93.0039 23.8253 93.0039 25.0126ZM66.9432 7.65247C69.8707 4.8683 72.8186 3.39432 75.3776 3.39432C76.2374 3.39432 77.0563 3.5581 77.8342 3.90612C79.8405 4.80688 81.0688 6.87454 80.9664 9.16739C80.8231 12.4634 78.0594 15.3908 73.5556 16.9672C69.7888 18.2978 64.896 19.1577 59.2867 19.4852C60.8426 15.1656 63.6268 10.8666 66.9432 7.65247ZM33.0623 9.16739C32.9599 6.87454 34.1882 4.80688 36.1945 3.90612C36.9519 3.5581 37.7708 3.39432 38.6511 3.39432C41.2101 3.39432 44.158 4.8683 47.065 7.67294C50.4019 10.8666 53.1656 15.1656 54.742 19.4852C49.1327 19.1577 44.2194 18.2978 40.4731 16.9672C35.9693 15.3704 33.2056 12.4634 33.0623 9.16739ZM23.4609 25.0126C23.4609 23.8253 24.4231 22.8631 25.6105 22.8631H49.2964C47.7406 24.3166 46.4509 26.0772 45.2021 27.7559C43.7281 29.7416 42.3565 31.625 40.6983 32.9352C39.9817 33.488 39.8794 34.532 40.4321 35.2281C40.7597 35.6375 41.2305 35.8422 41.7219 35.8422C42.0699 35.8422 42.4384 35.7194 42.7454 35.4942C44.7517 33.8974 46.328 31.7683 47.8634 29.7007C50.1972 26.548 52.2444 23.7638 55.3971 23.0473V39.0768H25.6105C24.4231 39.0768 23.4609 38.1146 23.4609 36.9272V25.0126ZM27.2482 42.3523H55.3766V64.5233H48.7232C47.7201 64.5233 46.8808 64.3186 46.0005 63.8478L36.2763 58.6684C33.8607 57.3787 31.2607 57.2353 28.7222 58.2589L27.2482 58.8526V42.3523ZM15.8659 92.6107H4.21739C3.767 92.6107 3.37804 92.2218 3.37804 91.7714V64.1139C3.37804 63.6635 3.767 63.2746 4.21739 63.2746H15.8659C16.3163 63.2746 16.7052 63.6635 16.7052 64.1139V64.1548V91.7509C16.7052 92.2218 16.3163 92.6107 15.8659 92.6107ZM100.497 72.6916L69.1337 92.7541C67.9054 93.532 66.718 93.9005 65.285 93.9005H31.4245C30.3395 93.9005 29.4592 93.7572 28.4356 93.4091L19.9807 90.5431V65.3013L29.9505 61.2888C31.5883 60.6337 33.1851 60.7156 34.7409 61.5549L44.4651 66.7343C45.8162 67.4508 47.1674 67.7988 48.7232 67.7988H64.0157C65.5511 67.7988 66.7999 68.7405 67.2298 70.2145C67.6597 71.6885 67.107 73.1625 65.8173 73.9813L62.6032 76.049C61.7229 76.6222 60.8631 76.8679 59.7985 76.8679H59.4096H45.4068C44.506 76.8679 43.769 77.6049 43.769 78.5056C43.769 79.4064 44.506 80.1434 45.4068 80.1434H59.4096H59.7985H67.9463C70.0345 80.1434 71.8974 79.6521 73.8013 78.6285L96.6684 66.1816C98.9817 64.9123 100.578 67.3485 100.865 67.8398C101.684 69.1705 102.237 71.5861 100.497 72.6916Z" fill="#1D264D" stroke="#1D264D" stroke-width="6" mask="url(#path-1-inside-1_2088_1354)"/>
<mask id="path-2-inside-2_2088_1354" fill="white">
<path d="M65.2848 97.2576H31.4039C29.9434 97.2576 28.6893 97.0475 27.3373 96.5763L19.4943 93.9217C18.7277 95.1987 17.345 95.9885 15.8657 95.9885H4.21721C1.89181 95.9885 0 94.0967 0 91.7711V64.1136C0 62.9817 0.441783 61.9205 1.24387 61.1255C2.04064 60.3359 3.09862 59.8995 4.21823 59.9169H15.8452C17.3247 59.9169 18.6579 60.6557 19.4292 61.8981L23.8702 60.1138V42.1807C21.6365 41.4363 20.0829 39.2868 20.0829 36.9268V25.0121C20.0829 21.9643 22.5625 19.4847 25.6103 19.4847H37.693C32.7753 17.2523 29.8646 13.5591 29.6844 9.29403C29.5391 5.62056 31.5635 2.28753 34.8419 0.802913C36.8905 -0.128148 42.4144 -1.56323 49.4492 5.20334C52.581 8.23502 55.2004 11.9846 57.034 16.0592C58.848 11.9851 61.4676 8.23564 64.6203 5.20334C71.6702 -1.55708 77.1843 -0.125691 79.2278 0.802913C82.5002 2.30371 84.5087 5.63673 84.3441 9.29424C84.1631 13.5784 81.2539 17.2711 76.3394 19.4847H90.8542C93.902 19.4847 96.3816 21.9643 96.3816 25.0121V36.9268C96.3816 39.3246 94.863 41.4265 92.5943 42.1807V64.5763L95.0841 63.2251C98.1964 61.5229 101.781 62.7174 103.799 66.1291C105.561 69.0934 105.639 73.3999 102.312 75.541L70.9492 95.5832C69.1632 96.7255 67.3633 97.2576 65.2848 97.2576ZM19.4014 93.674L27.4036 96.3826C28.7339 96.8463 29.9673 97.0527 31.4039 97.0527H65.2848C67.3224 97.0527 69.0872 96.5308 70.8388 95.4106L102.202 75.3686C105.42 73.2969 105.336 69.1157 103.622 66.2335L103.622 66.2333C101.664 62.9217 98.1927 61.7589 95.1817 63.4049L92.3896 64.9202V42.0316L92.461 42.0089C94.6834 41.3026 96.1769 39.2603 96.1769 36.927V25.0123C96.1769 22.0775 93.7892 19.6896 90.8542 19.6896H75.3422L75.8086 19.4929C80.92 17.3376 83.9566 13.6171 84.1394 9.28564C84.3001 5.71166 82.3387 2.4552 79.1426 0.989617C77.137 0.0780043 71.7212 -1.32207 64.7619 5.35135C61.5743 8.41722 58.9346 12.2217 57.1284 16.3529L57.0353 16.5663L56.9411 16.3533C55.1138 12.2211 52.4741 8.41661 49.3071 5.35115C42.3629 -1.32841 36.9372 0.0761618 34.9264 0.989821C31.7242 2.43984 29.7469 5.69631 29.8889 9.28605C30.0711 13.5964 33.1077 17.317 38.2202 19.4931L38.6818 19.6896H25.6103C22.6755 19.6896 20.2876 22.0775 20.2876 25.0123V36.927C20.2876 39.2239 21.8156 41.3137 24.0035 42.0089L24.0749 42.0316V60.2522L19.3437 62.1532L19.2988 62.0777C18.5723 60.8531 17.2813 60.1216 15.8452 60.1216H4.21721C3.14878 60.1044 2.14566 60.52 1.38779 61.2711C0.625006 62.0273 0.204719 63.0368 0.204719 64.1138V91.7713C0.204719 93.9839 2.00461 95.784 4.21721 95.784H15.8657C17.2998 95.784 18.6386 95.0034 19.3594 93.7473L19.4014 93.674ZM65.2848 94.0027H31.4243C30.3303 94.0027 29.4267 93.8541 28.4025 93.5059L19.8782 90.6163V65.232L29.9121 61.1937C31.5793 60.5269 33.2201 60.6182 34.7893 61.4645L44.513 66.6437C45.867 67.3619 47.2049 67.6964 48.7231 67.6964H64.0155C65.5866 67.6964 66.8867 68.6735 67.3281 70.1858C67.7701 71.7015 67.1985 73.2254 65.8719 74.0676L62.6585 76.1351C61.7716 76.7124 60.8893 76.9701 59.7983 76.9701H45.4066C44.5599 76.9701 43.8712 77.6588 43.8712 78.5055C43.8712 79.3523 44.5599 80.0409 45.4066 80.0409H67.9461C70.0005 80.0409 71.8456 79.5633 73.7526 78.5381L96.619 66.0914C99.082 64.7401 100.769 67.472 100.953 67.7881C101.762 69.1028 102.37 71.6223 100.551 72.7777L69.1888 92.84C67.9193 93.6443 66.7154 94.0027 65.2848 94.0027ZM20.0829 90.4695L28.4682 93.312C29.4832 93.6574 30.3397 93.798 31.4241 93.798H65.2846C66.674 93.798 67.8442 93.4494 69.0784 92.6674L100.441 72.6051C102.136 71.5285 101.547 69.1438 100.778 67.8933C100.492 67.4045 98.9623 65.0396 96.7171 66.2711L73.8498 78.7182C71.9113 79.7605 70.0355 80.2457 67.9459 80.2457H45.4066C44.4471 80.2457 43.6665 79.4651 43.6665 78.5055C43.6665 77.546 44.4471 76.7654 45.4066 76.7654H59.7983C60.8473 76.7654 61.6951 76.5179 62.5473 75.9631L65.7618 73.8951C67.01 73.1026 67.5476 71.6692 67.1314 70.2429C66.7164 68.8203 65.4934 67.9011 64.0155 67.9011H48.7231C47.1703 67.9011 45.8017 67.559 44.417 66.8245L34.6929 61.6451C33.179 60.8285 31.5965 60.7407 29.9884 61.3837L20.0829 65.3702V90.4695ZM15.8657 92.713H4.21721C3.70664 92.713 3.2755 92.2819 3.2755 91.7711V64.1136C3.2755 63.603 3.70664 63.1717 4.21721 63.1717H15.8657C16.3763 63.1717 16.8074 63.6028 16.8074 64.1136V91.7506C16.8074 92.2723 16.3763 92.713 15.8657 92.713ZM4.21721 63.3766C3.82456 63.3766 3.48022 63.7212 3.48022 64.1138V91.7713C3.48022 92.164 3.82456 92.5085 4.21721 92.5085H15.8657C16.2653 92.5085 16.6027 92.1617 16.6027 91.751V64.114C16.6027 63.7214 16.2584 63.3768 15.8657 63.3768H4.21721V63.3766ZM67.9666 76.9699H67.0421L67.5635 76.6379C70.0163 75.0497 71.1099 72.1013 70.284 69.3016C69.4555 66.4922 66.9363 64.6049 64.0155 64.6049H58.5496V42.2497H89.3188V66.5901L89.2651 66.6194L72.3144 75.8317C70.8642 76.6191 69.5233 76.9699 67.9666 76.9699ZM67.7427 76.7652H67.9666C69.4875 76.7652 70.7981 76.4217 72.217 75.6518L89.1141 66.4687V42.4544H58.7543V64.4002H64.0155C67.028 64.4002 69.6259 66.3467 70.4804 69.2437C71.3244 72.105 70.2247 75.1168 67.7427 76.7652ZM55.4788 64.6256H48.7231C47.6958 64.6256 46.8413 64.4135 45.952 63.938L36.228 58.7586C33.8433 57.4854 31.261 57.3456 28.7601 58.3536L27.1455 59.004V42.2499H55.4788V64.6256ZM32.088 57.483C33.5301 57.483 34.9588 57.8488 36.3245 58.5778L46.0486 63.7574C46.9066 64.2164 47.7314 64.4209 48.7233 64.4209H55.2743V42.4546H27.3504V58.701L28.6838 58.1639C29.8103 57.7094 30.9535 57.483 32.088 57.483ZM90.8542 39.1789H58.5496V22.9189L58.6744 22.9473C61.848 23.6686 63.8794 26.413 66.2314 29.5907L66.3719 29.78C67.869 31.7965 69.4166 33.8816 71.3666 35.4137C71.6374 35.6303 71.9603 35.7398 72.3269 35.7398C72.8101 35.7398 73.2398 35.5353 73.5366 35.1639C73.7882 34.8378 73.9026 34.4351 73.8578 34.0314C73.8126 33.6255 73.6103 33.2648 73.2879 33.0162C71.6771 31.7236 70.342 29.9719 68.764 27.8164L68.696 27.7244C67.4702 26.0695 66.2026 24.3581 64.6823 22.9379L64.4927 22.7608H90.8746C92.105 22.7608 93.1059 23.7711 93.1059 25.0127V36.9274C93.1061 38.1688 92.0958 39.1789 90.8542 39.1789ZM58.7543 38.9742H90.8542C91.983 38.9742 92.9014 38.0558 92.9014 36.927V25.0123C92.9014 23.8835 91.9924 22.9651 90.8748 22.9651H65.0092C66.4605 24.3613 67.68 26.0079 68.8608 27.6024L68.929 27.6946C70.4984 29.8384 71.825 31.5793 73.4146 32.8551C73.7798 33.1368 74.0101 33.5469 74.0613 34.0087C74.1121 34.4654 73.9829 34.9207 73.6977 35.2904C73.3601 35.7126 72.8737 35.9443 72.3271 35.9443C71.9128 35.9443 71.5467 35.8196 71.2395 35.5738C69.2686 34.0253 67.7124 31.929 66.2075 29.9016L66.0668 29.7121C63.7703 26.6096 61.7829 23.9245 58.7541 23.1764V38.9742H58.7543ZM55.4992 39.1789H25.6103C24.3687 39.1789 23.3584 38.1686 23.3584 36.927V25.0123C23.3584 23.7707 24.3687 22.7604 25.6103 22.7604H49.5556L49.3661 22.9375C47.8772 24.3284 46.6325 26.0026 45.4291 27.6215L45.1264 28.0291C43.7095 29.9393 42.3713 31.7435 40.7615 33.015C40.4436 33.2603 40.242 33.6173 40.1928 34.0214C40.1431 34.4294 40.2596 34.846 40.5122 35.1641C40.809 35.5353 41.2385 35.7396 41.7217 35.7396C42.0492 35.7396 42.4003 35.62 42.6847 35.4112C44.6659 33.8343 46.2363 31.7195 47.7549 29.6744L47.8178 29.5898C50.1698 26.4124 52.2012 23.6684 55.3744 22.9471L55.4992 22.9187V39.1789ZM25.6103 22.9654C24.4815 22.9654 23.5631 23.8837 23.5631 25.0125V36.9272C23.5631 38.056 24.4815 38.9744 25.6103 38.9744H55.2945V23.1768C52.2661 23.9249 50.2789 26.6098 47.9824 29.7119L47.9195 29.7968C46.3929 31.8526 44.8146 33.9782 42.8091 35.5744C42.4824 35.8141 42.0973 35.9447 41.7217 35.9447C41.1753 35.9447 40.6887 35.713 40.3521 35.2921C40.0655 34.931 39.9335 34.4591 39.9896 33.997C40.0454 33.5383 40.2749 33.1323 40.6356 32.8541C42.2228 31.6 43.5533 29.8064 44.962 27.9075L45.2647 27.4997C46.4232 25.9414 47.6196 24.3321 49.0396 22.9654H25.6103ZM54.8914 19.5963L54.7359 19.5873C49.1053 19.2585 44.1613 18.3858 40.4387 17.0635C35.9007 15.4546 33.1049 12.5044 32.9599 9.17181C32.8555 6.83393 34.1086 4.73024 36.1525 3.81269C36.9042 3.46712 37.7452 3.29188 38.6511 3.29188C41.2439 3.29188 44.2573 4.82154 47.1361 7.59916C50.4343 10.7557 53.2416 15.0753 54.8382 19.4501L54.8914 19.5963ZM38.6509 3.4966C37.7747 3.4966 36.9626 3.6657 36.2369 3.99898C34.2695 4.88234 33.0637 6.90906 33.1642 9.1626C33.3053 12.409 36.0504 15.2904 40.5071 16.8705C44.1775 18.1741 49.0449 19.0391 54.5917 19.3736C52.9968 15.0773 50.2339 10.8472 46.994 7.74677C44.1533 5.00579 41.1904 3.4966 38.6509 3.4966ZM59.1375 19.5963L59.1901 19.4503C60.747 15.1279 63.5469 10.801 66.8718 7.57869L66.8724 7.57808C69.8208 4.77405 72.7619 3.29168 75.3774 3.29168C76.263 3.29168 77.1036 3.46692 77.8758 3.81228C79.9195 4.72983 81.1728 6.83352 81.0686 9.17161C80.9227 12.5249 78.1266 15.4753 73.5892 17.0633C69.8427 18.3868 64.8989 19.2597 59.2925 19.5871L59.1375 19.5963ZM67.0139 7.72609C63.7486 10.8908 60.9927 15.1287 59.4358 19.3738C64.9591 19.0405 69.8269 18.1755 73.5212 16.8705C77.9772 15.3109 80.722 12.4295 80.8639 9.1626C80.9646 6.90906 79.759 4.88234 77.7921 3.99919C77.0465 3.6657 76.2342 3.4964 75.3774 3.4964C72.8156 3.4966 69.9233 4.95932 67.0139 7.72609Z"/>
</mask>
<path d="M65.2848 97.2576H31.4039C29.9434 97.2576 28.6893 97.0475 27.3373 96.5763L19.4943 93.9217C18.7277 95.1987 17.345 95.9885 15.8657 95.9885H4.21721C1.89181 95.9885 0 94.0967 0 91.7711V64.1136C0 62.9817 0.441783 61.9205 1.24387 61.1255C2.04064 60.3359 3.09862 59.8995 4.21823 59.9169H15.8452C17.3247 59.9169 18.6579 60.6557 19.4292 61.8981L23.8702 60.1138V42.1807C21.6365 41.4363 20.0829 39.2868 20.0829 36.9268V25.0121C20.0829 21.9643 22.5625 19.4847 25.6103 19.4847H37.693C32.7753 17.2523 29.8646 13.5591 29.6844 9.29403C29.5391 5.62056 31.5635 2.28753 34.8419 0.802913C36.8905 -0.128148 42.4144 -1.56323 49.4492 5.20334C52.581 8.23502 55.2004 11.9846 57.034 16.0592C58.848 11.9851 61.4676 8.23564 64.6203 5.20334C71.6702 -1.55708 77.1843 -0.125691 79.2278 0.802913C82.5002 2.30371 84.5087 5.63673 84.3441 9.29424C84.1631 13.5784 81.2539 17.2711 76.3394 19.4847H90.8542C93.902 19.4847 96.3816 21.9643 96.3816 25.0121V36.9268C96.3816 39.3246 94.863 41.4265 92.5943 42.1807V64.5763L95.0841 63.2251C98.1964 61.5229 101.781 62.7174 103.799 66.1291C105.561 69.0934 105.639 73.3999 102.312 75.541L70.9492 95.5832C69.1632 96.7255 67.3633 97.2576 65.2848 97.2576ZM19.4014 93.674L27.4036 96.3826C28.7339 96.8463 29.9673 97.0527 31.4039 97.0527H65.2848C67.3224 97.0527 69.0872 96.5308 70.8388 95.4106L102.202 75.3686C105.42 73.2969 105.336 69.1157 103.622 66.2335L103.622 66.2333C101.664 62.9217 98.1927 61.7589 95.1817 63.4049L92.3896 64.9202V42.0316L92.461 42.0089C94.6834 41.3026 96.1769 39.2603 96.1769 36.927V25.0123C96.1769 22.0775 93.7892 19.6896 90.8542 19.6896H75.3422L75.8086 19.4929C80.92 17.3376 83.9566 13.6171 84.1394 9.28564C84.3001 5.71166 82.3387 2.4552 79.1426 0.989617C77.137 0.0780043 71.7212 -1.32207 64.7619 5.35135C61.5743 8.41722 58.9346 12.2217 57.1284 16.3529L57.0353 16.5663L56.9411 16.3533C55.1138 12.2211 52.4741 8.41661 49.3071 5.35115C42.3629 -1.32841 36.9372 0.0761618 34.9264 0.989821C31.7242 2.43984 29.7469 5.69631 29.8889 9.28605C30.0711 13.5964 33.1077 17.317 38.2202 19.4931L38.6818 19.6896H25.6103C22.6755 19.6896 20.2876 22.0775 20.2876 25.0123V36.927C20.2876 39.2239 21.8156 41.3137 24.0035 42.0089L24.0749 42.0316V60.2522L19.3437 62.1532L19.2988 62.0777C18.5723 60.8531 17.2813 60.1216 15.8452 60.1216H4.21721C3.14878 60.1044 2.14566 60.52 1.38779 61.2711C0.625006 62.0273 0.204719 63.0368 0.204719 64.1138V91.7713C0.204719 93.9839 2.00461 95.784 4.21721 95.784H15.8657C17.2998 95.784 18.6386 95.0034 19.3594 93.7473L19.4014 93.674ZM65.2848 94.0027H31.4243C30.3303 94.0027 29.4267 93.8541 28.4025 93.5059L19.8782 90.6163V65.232L29.9121 61.1937C31.5793 60.5269 33.2201 60.6182 34.7893 61.4645L44.513 66.6437C45.867 67.3619 47.2049 67.6964 48.7231 67.6964H64.0155C65.5866 67.6964 66.8867 68.6735 67.3281 70.1858C67.7701 71.7015 67.1985 73.2254 65.8719 74.0676L62.6585 76.1351C61.7716 76.7124 60.8893 76.9701 59.7983 76.9701H45.4066C44.5599 76.9701 43.8712 77.6588 43.8712 78.5055C43.8712 79.3523 44.5599 80.0409 45.4066 80.0409H67.9461C70.0005 80.0409 71.8456 79.5633 73.7526 78.5381L96.619 66.0914C99.082 64.7401 100.769 67.472 100.953 67.7881C101.762 69.1028 102.37 71.6223 100.551 72.7777L69.1888 92.84C67.9193 93.6443 66.7154 94.0027 65.2848 94.0027ZM20.0829 90.4695L28.4682 93.312C29.4832 93.6574 30.3397 93.798 31.4241 93.798H65.2846C66.674 93.798 67.8442 93.4494 69.0784 92.6674L100.441 72.6051C102.136 71.5285 101.547 69.1438 100.778 67.8933C100.492 67.4045 98.9623 65.0396 96.7171 66.2711L73.8498 78.7182C71.9113 79.7605 70.0355 80.2457 67.9459 80.2457H45.4066C44.4471 80.2457 43.6665 79.4651 43.6665 78.5055C43.6665 77.546 44.4471 76.7654 45.4066 76.7654H59.7983C60.8473 76.7654 61.6951 76.5179 62.5473 75.9631L65.7618 73.8951C67.01 73.1026 67.5476 71.6692 67.1314 70.2429C66.7164 68.8203 65.4934 67.9011 64.0155 67.9011H48.7231C47.1703 67.9011 45.8017 67.559 44.417 66.8245L34.6929 61.6451C33.179 60.8285 31.5965 60.7407 29.9884 61.3837L20.0829 65.3702V90.4695ZM15.8657 92.713H4.21721C3.70664 92.713 3.2755 92.2819 3.2755 91.7711V64.1136C3.2755 63.603 3.70664 63.1717 4.21721 63.1717H15.8657C16.3763 63.1717 16.8074 63.6028 16.8074 64.1136V91.7506C16.8074 92.2723 16.3763 92.713 15.8657 92.713ZM4.21721 63.3766C3.82456 63.3766 3.48022 63.7212 3.48022 64.1138V91.7713C3.48022 92.164 3.82456 92.5085 4.21721 92.5085H15.8657C16.2653 92.5085 16.6027 92.1617 16.6027 91.751V64.114C16.6027 63.7214 16.2584 63.3768 15.8657 63.3768H4.21721V63.3766ZM67.9666 76.9699H67.0421L67.5635 76.6379C70.0163 75.0497 71.1099 72.1013 70.284 69.3016C69.4555 66.4922 66.9363 64.6049 64.0155 64.6049H58.5496V42.2497H89.3188V66.5901L89.2651 66.6194L72.3144 75.8317C70.8642 76.6191 69.5233 76.9699 67.9666 76.9699ZM67.7427 76.7652H67.9666C69.4875 76.7652 70.7981 76.4217 72.217 75.6518L89.1141 66.4687V42.4544H58.7543V64.4002H64.0155C67.028 64.4002 69.6259 66.3467 70.4804 69.2437C71.3244 72.105 70.2247 75.1168 67.7427 76.7652ZM55.4788 64.6256H48.7231C47.6958 64.6256 46.8413 64.4135 45.952 63.938L36.228 58.7586C33.8433 57.4854 31.261 57.3456 28.7601 58.3536L27.1455 59.004V42.2499H55.4788V64.6256ZM32.088 57.483C33.5301 57.483 34.9588 57.8488 36.3245 58.5778L46.0486 63.7574C46.9066 64.2164 47.7314 64.4209 48.7233 64.4209H55.2743V42.4546H27.3504V58.701L28.6838 58.1639C29.8103 57.7094 30.9535 57.483 32.088 57.483ZM90.8542 39.1789H58.5496V22.9189L58.6744 22.9473C61.848 23.6686 63.8794 26.413 66.2314 29.5907L66.3719 29.78C67.869 31.7965 69.4166 33.8816 71.3666 35.4137C71.6374 35.6303 71.9603 35.7398 72.3269 35.7398C72.8101 35.7398 73.2398 35.5353 73.5366 35.1639C73.7882 34.8378 73.9026 34.4351 73.8578 34.0314C73.8126 33.6255 73.6103 33.2648 73.2879 33.0162C71.6771 31.7236 70.342 29.9719 68.764 27.8164L68.696 27.7244C67.4702 26.0695 66.2026 24.3581 64.6823 22.9379L64.4927 22.7608H90.8746C92.105 22.7608 93.1059 23.7711 93.1059 25.0127V36.9274C93.1061 38.1688 92.0958 39.1789 90.8542 39.1789ZM58.7543 38.9742H90.8542C91.983 38.9742 92.9014 38.0558 92.9014 36.927V25.0123C92.9014 23.8835 91.9924 22.9651 90.8748 22.9651H65.0092C66.4605 24.3613 67.68 26.0079 68.8608 27.6024L68.929 27.6946C70.4984 29.8384 71.825 31.5793 73.4146 32.8551C73.7798 33.1368 74.0101 33.5469 74.0613 34.0087C74.1121 34.4654 73.9829 34.9207 73.6977 35.2904C73.3601 35.7126 72.8737 35.9443 72.3271 35.9443C71.9128 35.9443 71.5467 35.8196 71.2395 35.5738C69.2686 34.0253 67.7124 31.929 66.2075 29.9016L66.0668 29.7121C63.7703 26.6096 61.7829 23.9245 58.7541 23.1764V38.9742H58.7543ZM55.4992 39.1789H25.6103C24.3687 39.1789 23.3584 38.1686 23.3584 36.927V25.0123C23.3584 23.7707 24.3687 22.7604 25.6103 22.7604H49.5556L49.3661 22.9375C47.8772 24.3284 46.6325 26.0026 45.4291 27.6215L45.1264 28.0291C43.7095 29.9393 42.3713 31.7435 40.7615 33.015C40.4436 33.2603 40.242 33.6173 40.1928 34.0214C40.1431 34.4294 40.2596 34.846 40.5122 35.1641C40.809 35.5353 41.2385 35.7396 41.7217 35.7396C42.0492 35.7396 42.4003 35.62 42.6847 35.4112C44.6659 33.8343 46.2363 31.7195 47.7549 29.6744L47.8178 29.5898C50.1698 26.4124 52.2012 23.6684 55.3744 22.9471L55.4992 22.9187V39.1789ZM25.6103 22.9654C24.4815 22.9654 23.5631 23.8837 23.5631 25.0125V36.9272C23.5631 38.056 24.4815 38.9744 25.6103 38.9744H55.2945V23.1768C52.2661 23.9249 50.2789 26.6098 47.9824 29.7119L47.9195 29.7968C46.3929 31.8526 44.8146 33.9782 42.8091 35.5744C42.4824 35.8141 42.0973 35.9447 41.7217 35.9447C41.1753 35.9447 40.6887 35.713 40.3521 35.2921C40.0655 34.931 39.9335 34.4591 39.9896 33.997C40.0454 33.5383 40.2749 33.1323 40.6356 32.8541C42.2228 31.6 43.5533 29.8064 44.962 27.9075L45.2647 27.4997C46.4232 25.9414 47.6196 24.3321 49.0396 22.9654H25.6103ZM54.8914 19.5963L54.7359 19.5873C49.1053 19.2585 44.1613 18.3858 40.4387 17.0635C35.9007 15.4546 33.1049 12.5044 32.9599 9.17181C32.8555 6.83393 34.1086 4.73024 36.1525 3.81269C36.9042 3.46712 37.7452 3.29188 38.6511 3.29188C41.2439 3.29188 44.2573 4.82154 47.1361 7.59916C50.4343 10.7557 53.2416 15.0753 54.8382 19.4501L54.8914 19.5963ZM38.6509 3.4966C37.7747 3.4966 36.9626 3.6657 36.2369 3.99898C34.2695 4.88234 33.0637 6.90906 33.1642 9.1626C33.3053 12.409 36.0504 15.2904 40.5071 16.8705C44.1775 18.1741 49.0449 19.0391 54.5917 19.3736C52.9968 15.0773 50.2339 10.8472 46.994 7.74677C44.1533 5.00579 41.1904 3.4966 38.6509 3.4966ZM59.1375 19.5963L59.1901 19.4503C60.747 15.1279 63.5469 10.801 66.8718 7.57869L66.8724 7.57808C69.8208 4.77405 72.7619 3.29168 75.3774 3.29168C76.263 3.29168 77.1036 3.46692 77.8758 3.81228C79.9195 4.72983 81.1728 6.83352 81.0686 9.17161C80.9227 12.5249 78.1266 15.4753 73.5892 17.0633C69.8427 18.3868 64.8989 19.2597 59.2925 19.5871L59.1375 19.5963ZM67.0139 7.72609C63.7486 10.8908 60.9927 15.1287 59.4358 19.3738C64.9591 19.0405 69.8269 18.1755 73.5212 16.8705C77.9772 15.3109 80.722 12.4295 80.8639 9.1626C80.9646 6.90906 79.759 4.88234 77.7921 3.99919C77.0465 3.6657 76.2342 3.4964 75.3774 3.4964C72.8156 3.4966 69.9233 4.95932 67.0139 7.72609Z" fill="#1D264D" stroke="#1D264D" stroke-width="6" mask="url(#path-2-inside-2_2088_1354)"/>
</svg>
