<svg width="161" height="161" viewBox="0 0 161 161" fill="none" xmlns="http://www.w3.org/2000/svg">
<path d="M141.705 136.553L109.728 61.1553C108.464 58.183 105.542 56.251 102.297 56.251H54.3932C51.0494 56.251 48.0275 58.3564 46.8386 61.4773L18.4035 136.875C17.388 139.55 17.7595 142.547 19.3943 144.9C21.0291 147.253 23.6794 148.64 26.5526 148.64H133.704C136.627 148.64 139.352 147.179 140.962 144.751C142.572 142.324 142.869 139.253 141.705 136.553ZM136.949 142.101C136.206 143.216 135.042 143.835 133.704 143.835H26.5526C25.2646 143.835 24.1005 143.216 23.3574 142.151C22.6143 141.086 22.4657 139.773 22.9115 138.559L51.3466 63.1368C51.8172 61.8736 53.0557 61.0314 54.3932 61.0314H102.297C103.61 61.0314 104.799 61.7993 105.294 63.013L137.271 138.411C137.791 139.624 137.667 140.962 136.924 142.076L136.949 142.101Z" fill="#1D264D"/>
<path d="M50.9751 46.9377C49.6375 46.9377 48.5725 48.0028 48.5725 49.3404C48.5725 50.6779 49.6375 51.743 50.9751 51.743H107.053C108.39 51.743 109.455 50.6779 109.455 49.3404C109.455 48.0028 108.39 46.9377 107.053 46.9377H50.9751Z" fill="#1D264D"/>
<path d="M83.1008 41.4638C84.364 41.4886 85.6272 41.5133 86.8162 41.5133C103.932 41.5133 114.409 38.8135 118.793 33.3147C120.824 30.7883 121.444 27.7169 120.626 24.4473C120.056 22.1438 118.719 19.9889 116.762 18.156C112.006 13.6975 107.028 12.038 102 13.2269C89.194 16.2487 81.2431 37.3521 80.8963 38.2438C80.6238 38.9621 80.7229 39.7795 81.1688 40.4235C81.6146 41.0675 82.3329 41.4638 83.1008 41.4638ZM103.09 17.8835C103.758 17.7349 104.427 17.6358 105.096 17.6358C107.845 17.6358 110.595 18.9486 113.443 21.6484C114.731 22.8373 115.598 24.2244 115.945 25.6115C116.391 27.4197 116.093 28.9553 115.028 30.3177C113.096 32.745 106.83 36.6833 86.7171 36.6833C89.6894 30.1443 95.8569 19.5926 103.065 17.8835H103.09Z" fill="#1D264D"/>
<path d="M74.6545 41.5131H76.1902C76.958 41.5131 77.6763 41.1416 78.1222 40.5224C78.568 39.9032 78.6919 39.1105 78.4442 38.3675C78.1717 37.5253 71.6326 17.9328 58.7526 13.9698C53.2043 12.2607 47.4331 13.6478 41.6123 18.131C39.4326 19.8153 37.9465 21.9455 37.2777 24.3233C36.4355 27.3947 36.9805 30.3422 38.8877 32.7944C43.3957 38.6647 55.0868 41.5131 74.6297 41.5131H74.6545ZM41.9343 25.5865C42.4049 23.8775 43.6186 22.6638 44.5599 21.9455C47.9285 19.3447 51.0742 18.0815 54.1208 18.0815C55.2106 18.0815 56.2757 18.2548 57.3408 18.5768C65.1183 20.9795 70.4189 31.4073 72.6729 36.7327C51.0989 36.485 44.6342 32.3981 42.7022 29.8964C41.7362 28.6331 41.4885 27.2461 41.9343 25.6113V25.5865Z" fill="#1D264D"/>
<path d="M89.8875 107.92C88.9958 107.325 88.0051 106.83 86.94 106.458C85.1071 105.789 83.4228 105.121 81.8375 104.427L82.11 85.2558C86.8657 86.7419 89.7637 92.7609 89.9371 93.1076C90.482 94.3213 91.9186 94.8415 93.1323 94.2718C94.346 93.7269 94.8662 92.2903 94.3212 91.0766C92.5874 87.3364 88.2528 81.4909 82.2091 80.3019L82.3082 73.317C82.3082 71.9795 81.2678 70.8896 79.9303 70.8896H79.9055C78.5928 70.8896 77.5277 71.9547 77.5029 73.2675L77.4038 80.4258C77.0323 80.5001 76.6608 80.5744 76.2892 80.6983C71.1868 82.333 67.6695 86.7172 67.0751 92.1416C66.4806 97.8386 69.1309 103.114 74.0352 105.938C74.9517 106.458 75.9672 106.978 77.0075 107.499L76.7598 124.441C72.9454 123.202 69.8245 119.982 68.7346 115.796L68.3878 114.459C68.0411 113.171 66.7531 112.428 65.4651 112.75C64.1771 113.096 63.4092 114.384 63.756 115.672L64.1028 117.01C65.7623 123.326 70.7409 128.032 76.7103 129.395L76.636 134.646C76.636 135.983 77.6763 137.073 79.0138 137.073H79.0386C80.3514 137.073 81.4165 136.008 81.4412 134.695L81.5155 129.741C85.652 129.395 88.0298 127.537 88.7234 126.893C93.7268 123.227 94.7423 119.289 94.6928 116.638C94.6185 112.527 92.0672 109.381 89.9371 107.969L89.8875 107.92ZM76.4131 101.727C72.5491 99.5229 71.5335 95.5846 71.8308 92.6123C72.2023 89.2189 74.2334 86.5686 77.28 85.4044L77.0323 102.049C76.8094 101.925 76.5865 101.826 76.3883 101.703L76.4131 101.727ZM85.7263 123.054C85.7263 123.054 85.5034 123.227 85.4291 123.326C85.3795 123.376 84.1163 124.565 81.5651 124.887L81.788 109.604C82.9274 110.075 84.0915 110.52 85.33 110.966C86.0483 111.214 86.6923 111.536 87.262 111.932C88.5005 112.75 89.838 114.583 89.8875 116.688C89.9371 118.892 88.5005 121.097 85.7759 123.054H85.7263Z" fill="#1D264D"/>
</svg>
