<svg width="83" height="83" viewBox="0 0 83 83" fill="none" xmlns="http://www.w3.org/2000/svg">
<path d="M49.6004 82.0002C49.0253 82.0002 48.4961 81.633 48.3125 81.0552C48.2342 80.8797 47.7644 80.4828 47.4404 80.2911C43.4174 77.934 38.8706 67.512 38.3657 66.3321L34.097 49.8567C33.9458 49.2735 34.1996 48.6606 34.718 48.3555C37.3505 46.8084 39.3782 46.9461 40.6256 47.3349C42.3725 47.883 43.8089 49.2708 44.7701 51.3498L46.9004 55.7994V30.7002C46.9004 27.7221 49.3223 25.3002 52.3004 25.3002C55.2785 25.3002 57.7004 27.7221 57.7004 30.7002V44.9265C58.4942 44.4648 59.4176 44.2002 60.4004 44.2002C62.3633 44.2002 64.0805 45.2505 65.0282 46.8192C65.9678 46.0281 67.1801 45.5502 68.5004 45.5502C70.8521 45.5502 72.8582 47.0622 73.598 49.1628C74.4566 48.5877 75.4907 48.2502 76.6004 48.2502C79.5785 48.2502 82.0004 50.6721 82.0004 53.6502V75.2502C82.0004 78.9708 78.9737 82.0002 75.2504 82.0002H61.7504C61.0052 82.0002 60.4004 81.3954 60.4004 80.6502C60.4004 79.905 61.0052 79.3002 61.7504 79.3002H75.2504C77.4833 79.3002 79.3004 77.4831 79.3004 75.2502V53.6502C79.3004 52.1625 78.0908 50.9502 76.6004 50.9502C75.11 50.9502 73.9004 52.1625 73.9004 53.6502C73.9004 54.3954 73.2956 55.0002 72.5504 55.0002C71.8052 55.0002 71.2004 54.3954 71.2004 53.6502V50.9502C71.2004 49.4625 69.9908 48.2502 68.5004 48.2502C67.01 48.2502 65.8004 49.4625 65.8004 50.9502C65.8004 51.6954 65.1956 52.3002 64.4504 52.3002C63.7052 52.3002 63.1004 51.6954 63.1004 50.9502V49.6002C63.1004 48.1125 61.8908 46.9002 60.4004 46.9002C58.91 46.9002 57.7004 48.1125 57.7004 49.6002C57.7004 50.3454 57.0956 50.9502 56.3504 50.9502C55.6052 50.9502 55.0004 50.3454 55.0004 49.6002V30.7002C55.0004 29.2125 53.7908 28.0002 52.3004 28.0002C50.81 28.0002 49.6004 29.2125 49.6004 30.7002V61.7502C49.6004 62.3793 49.163 62.9274 48.5474 63.0678C47.9264 63.2136 47.3054 62.9004 47.03 62.3334L42.3266 52.4973C41.8784 51.528 41.0846 50.3049 39.8183 49.9107C38.9921 49.6542 38.0417 49.7568 36.9779 50.2239L40.9118 65.4654C42.1214 68.2545 46.0391 76.3464 48.8066 77.9664C49.2008 78.1986 50.5049 79.0437 50.8856 80.2479C51.1097 80.958 50.7155 81.7167 50.0054 81.9408C49.8731 81.9813 49.7354 82.0002 49.6004 82.0002Z" fill="#1D264D" stroke="#1D264D"/>
<path d="M50.9496 21.2499C50.604 21.2499 50.2584 21.1176 49.9938 20.8557L43.2438 14.1057C42.7173 13.5792 42.7173 12.7233 43.2438 12.1968C43.7703 11.6703 44.6262 11.6703 45.1527 12.1968L50.9496 17.991L66.1938 2.7468C66.7203 2.2203 67.5762 2.2203 68.1027 2.7468C68.6292 3.2733 68.6292 4.1292 68.1027 4.6557L51.9027 20.8557C51.6408 21.1176 51.2952 21.2499 50.9496 21.2499Z" fill="#1D264D" stroke="#1D264D"/>
<path d="M26.65 30.7H5.05C2.8171 30.7 1 28.8829 1 26.65V5.05C1 2.8171 2.8171 1 5.05 1H26.65C28.8829 1 30.7 2.8171 30.7 5.05V26.65C30.7 28.8829 28.8829 30.7 26.65 30.7ZM5.05 3.7C4.3075 3.7 3.7 4.3048 3.7 5.05V26.65C3.7 27.3952 4.3075 28 5.05 28H26.65C27.3925 28 28 27.3952 28 26.65V5.05C28 4.3048 27.3925 3.7 26.65 3.7H5.05Z" fill="#1D264D" stroke="#1D264D"/>
<path d="M26.65 65.8H5.05C2.8171 65.8 1 63.9829 1 61.75V40.15C1 37.9171 2.8171 36.1 5.05 36.1H26.65C28.8829 36.1 30.7 37.9171 30.7 40.15V61.75C30.7 63.9829 28.8829 65.8 26.65 65.8ZM5.05 38.8C4.3075 38.8 3.7 39.4048 3.7 40.15V61.75C3.7 62.4952 4.3075 63.1 5.05 63.1H26.65C27.3925 63.1 28 62.4952 28 61.75V40.15C28 39.4048 27.3925 38.8 26.65 38.8H5.05Z" fill="#1D264D" stroke="#1D264D"/>
<path d="M42.8503 30.7H40.1503C37.9174 30.7 36.1003 28.8829 36.1003 26.65V5.05C36.1003 2.8171 37.9174 1 40.1503 1H61.7503C62.4955 1 63.1003 1.6048 63.1003 2.35C63.1003 3.0952 62.4955 3.7 61.7503 3.7H40.1503C39.4078 3.7 38.8003 4.3048 38.8003 5.05V26.65C38.8003 27.3952 39.4078 28 40.1503 28H42.8503C43.5955 28 44.2003 28.6048 44.2003 29.35C44.2003 30.0952 43.5955 30.7 42.8503 30.7Z" fill="#1D264D" stroke="#1D264D"/>
<path d="M61.75 30.7H56.35C55.6048 30.7 55 30.0952 55 29.35C55 28.6048 55.6048 28 56.35 28H61.75C62.4925 28 63.1 27.3952 63.1 26.65V13.15C63.1 12.4048 63.7048 11.8 64.45 11.8C65.1952 11.8 65.8 12.4048 65.8 13.15V26.65C65.8 28.8829 63.9829 30.7 61.75 30.7Z" fill="#1D264D" stroke="#1D264D"/>
</svg>
