<svg width="122" height="126" viewBox="0 0 122 126" fill="none" xmlns="http://www.w3.org/2000/svg">
<path d="M65.9726 40.1682C66.322 40.4745 66.7043 40.7138 67.1045 40.8938V47.8659C67.1045 48.8815 67.9113 49.7037 68.9079 49.7037C69.9035 49.7037 70.7113 48.8815 70.7113 47.8659V40.8938C71.1114 40.7138 71.4937 40.4745 71.8422 40.1682C77.3961 35.3038 80.5802 28.2379 80.5802 20.7833C80.5802 18.7311 80.3407 16.6885 79.8683 14.7119C79.6325 13.726 78.6566 13.124 77.6891 13.3613C76.7217 13.6025 76.1281 14.5961 76.3638 15.582C76.7687 17.2743 76.9744 19.024 76.9744 20.7833C76.9744 26.5982 74.7098 32.1355 70.7113 36.2256V17.0063C70.7113 15.9907 69.9035 15.1685 68.9079 15.1685C67.9113 15.1685 67.1045 15.9907 67.1045 17.0063V36.2256C63.106 32.1355 60.8414 26.5982 60.8414 20.7833C60.8414 14.1012 63.7813 7.8738 68.9079 3.69186C70.6089 5.07978 72.0892 6.7156 73.3074 8.55244C73.8654 9.39381 74.9869 9.61492 75.8115 9.04635C76.6372 8.47874 76.8541 7.33586 76.2962 6.49449C74.8676 4.33987 73.1299 2.42359 71.1321 0.798292C69.8218 -0.266097 67.993 -0.266097 66.6837 0.798292C60.6779 5.68185 57.2346 12.966 57.2346 20.7833C57.2346 28.2379 60.4196 35.3038 65.9726 40.1682Z" fill="#1D264D"/>
<path d="M83.1716 57.9872C83.6416 57.9872 84.1117 57.8081 84.4707 57.4499L89.4045 52.5162C89.82 52.6771 90.2651 52.7834 90.7323 52.8188C91.3775 52.8667 92.0218 52.8916 92.6632 52.8916C99.4255 52.8916 105.926 50.2189 110.744 45.403C116.274 39.8717 118.945 32.2365 118.072 24.4558C117.881 22.7579 116.563 21.4383 114.865 21.2487C107.084 20.3753 99.4485 23.0461 93.9182 28.5764C88.6445 33.8501 85.942 41.1444 86.502 48.588C86.5374 49.0554 86.6437 49.4997 86.8036 49.9163L81.8716 54.849C81.1536 55.5672 81.1536 56.7317 81.8706 57.449C82.2306 57.8081 82.7006 57.9872 83.1716 57.9872ZM96.5172 31.1774C100.662 27.0318 106.188 24.7632 111.972 24.7632C112.785 24.7632 113.603 24.8082 114.422 24.8991C115.16 31.5508 112.872 38.0742 108.145 42.802C104.031 46.9151 98.4816 49.199 92.7082 49.2124L106.303 35.6179C107.021 34.8997 107.021 33.7361 106.304 33.0179C105.586 32.2997 104.423 32.2997 103.704 33.017L90.1072 46.6144C90.1187 40.8398 92.4047 35.2904 96.5172 31.1774Z" fill="#1D264D"/>
<path d="M27.8237 45.4032C32.6408 50.219 39.1418 52.8917 45.9042 52.8917C46.5456 52.8917 47.1908 52.8668 47.835 52.8189C48.3022 52.7835 48.7473 52.6772 49.1638 52.5163L54.0967 57.45C54.4557 57.8081 54.9257 57.9872 55.3958 57.9872C55.8667 57.9872 56.3368 57.8081 56.6958 57.449C57.4137 56.7308 57.4137 55.5663 56.6958 54.8491L51.7628 49.9164C51.9236 49.4998 52.0299 49.0555 52.0644 48.5882C52.6253 41.1437 49.9219 33.8505 44.6482 28.5769C39.1179 23.0467 31.4835 20.3759 23.7016 21.2483C22.0043 21.4389 20.6852 22.7575 20.4956 24.4554C19.6226 32.2369 22.2934 39.872 27.8237 45.4032ZM24.1448 24.8997C30.8 24.1633 37.322 26.4501 42.0501 31.1778C46.1636 35.2898 48.4487 40.8392 48.4611 46.6136L34.8637 33.0174C34.1457 32.2992 32.9816 32.2992 32.2646 33.0174C31.5466 33.7356 31.5466 34.9001 32.2646 35.6183L45.8601 49.2126C40.0838 49.1992 34.5363 46.9152 30.4237 42.8023C25.6957 38.0755 23.4087 31.5513 24.1448 24.8997Z" fill="#1D264D"/>
<path d="M120.796 64.7598C118.951 62.8484 116.365 61.7531 113.703 61.7531C111.367 61.7531 109.101 62.5834 107.326 64.0925C107.308 64.1077 107.291 64.122 107.274 64.1382L84.0392 85.4137C83.8791 85.5424 83.6788 85.613 83.4727 85.613H66.0169C65.0008 85.613 64.1746 84.7903 64.1746 83.7798C64.1746 83.2908 64.3663 82.8303 64.7104 82.4862C65.0603 82.1401 65.5242 81.9485 66.0169 81.9485H78.4864C82.7298 81.9485 86.1824 78.5176 86.1824 74.2993C86.1824 72.2564 85.383 70.3356 83.928 68.8856C82.4729 67.4433 80.5405 66.6482 78.4864 66.6482H47.5297C40.6743 66.6482 34.186 69.2564 29.2582 73.9933L18.4527 84.3832L18.4076 84.3384C16.9459 82.8856 14.5687 82.8856 13.1069 84.3384L1.09848 96.2774C0.390122 96.9809 0 97.917 0 98.9132C0 99.9094 0.390122 100.846 1.09848 101.549L24.3601 124.676C25.0915 125.402 26.0509 125.765 27.0104 125.765C27.9709 125.765 28.9313 125.402 29.6617 124.676L41.6702 112.737C42.3786 112.033 42.7687 111.097 42.7687 110.101C42.7687 109.395 42.5693 108.721 42.2022 108.135C44.4998 106.079 47.4444 104.952 50.5539 104.952H86.1077C89.0139 104.952 91.7774 103.704 93.6887 101.529L120.935 70.5196C122.406 68.8427 122.347 66.367 120.796 64.7598ZM118.163 68.1115L90.9176 99.1201C89.705 100.5 87.9519 101.291 86.1077 101.291H50.5539C46.4954 101.291 42.6565 102.776 39.6726 105.479L28.2958 94.1678C27.576 93.4528 26.4114 93.4538 25.6925 94.1687C24.9745 94.8837 24.9745 96.0419 25.6934 96.7569L38.323 109.313C38.3268 109.316 38.3297 109.321 38.3336 109.325C38.3393 109.331 38.346 109.336 38.3518 109.341L39.0678 110.054C39.0745 110.06 39.0879 110.073 39.0879 110.101C39.0879 110.129 39.0745 110.142 39.0678 110.149L27.0603 122.087C27.0334 122.113 26.9893 122.113 26.9625 122.087L3.69993 98.9599C3.69418 98.9542 3.68076 98.9409 3.68076 98.9132C3.68076 98.8856 3.69418 98.8722 3.70089 98.8665L15.7084 86.9275C15.7352 86.9009 15.7793 86.9009 15.8062 86.9275L20.086 91.1821C20.8049 91.897 21.9705 91.897 22.6884 91.1821C23.4073 90.4671 23.4064 89.3079 22.6884 88.5939L21.056 86.9714L31.8155 76.6254C36.0542 72.552 41.6338 70.3089 47.5287 70.3089H78.4864C79.559 70.3089 80.5683 70.7245 81.3256 71.4747C82.0838 72.2307 82.5017 73.2336 82.5017 74.2993C82.5017 76.4986 80.7006 78.2879 78.4864 78.2879H66.0159C64.5436 78.2879 63.1576 78.858 62.108 79.898C61.067 80.9361 60.4929 82.3146 60.4929 83.7798C60.4929 86.8084 62.9707 89.2736 66.0159 89.2736H83.4727C84.5625 89.2736 85.6198 88.8846 86.4489 88.1802C86.4662 88.1659 86.4834 88.1506 86.4997 88.1354L109.74 66.8551C110.846 65.9257 112.253 65.4137 113.703 65.4137C115.393 65.4137 116.969 66.082 118.141 67.2946C118.361 67.5224 118.371 67.8742 118.163 68.1115Z" fill="#1D264D"/>
</svg>
