<svg width="96" height="75" viewBox="0 0 96 75" fill="none" xmlns="http://www.w3.org/2000/svg">
<path d="M45.1875 26.6523H50.8125V34.5229H45.1875V26.6523Z" fill="#1D264D"/>
<path d="M45.1875 13.2773H50.8125V21.1479H45.1875V13.2773Z" fill="#1D264D"/>
<path d="M45.1875 0H50.8125V7.87061H45.1875V0Z" fill="#1D264D"/>
<path d="M45.1875 39.9043H50.8125V47.7749H45.1875V39.9043Z" fill="#1D264D"/>
<path d="M45.1875 53.1543H50.8125V61.0249H45.1875V53.1543Z" fill="#1D264D"/>
<path d="M45.1875 66.4062H50.8125V74.2769H45.1875V66.4062Z" fill="#1D264D"/>
<path d="M0 64.1077L37.6641 37.1384L0 10.1699V64.1077ZM5.625 21.1152L28.0027 37.1384L5.625 53.1616V21.1152Z" fill="#1D264D"/>
<path d="M58.3359 37.1384L96 64.1077V10.1699L58.3359 37.1384ZM90.375 53.1616L67.9973 37.1384L90.375 21.1152V53.1616Z" fill="#1D264D"/>
</svg>
