<svg width="120" height="126" viewBox="0 0 120 126" fill="none" xmlns="http://www.w3.org/2000/svg">
<path d="M50.2705 40.7524C53.1775 40.7524 55.7824 39.4402 57.5289 37.379C59.199 40.1259 62.2205 41.9646 65.6637 41.9646C68.9347 41.9646 71.8249 40.3049 73.5377 37.7839C75.2793 40.03 78.0012 41.4797 81.0569 41.4797C83.2756 41.4797 85.3177 40.7141 86.9377 39.4361V45.2866C86.9377 46.0965 86.9205 46.8974 86.8863 47.6669C86.8418 48.669 87.6182 49.5177 88.6204 49.562C88.648 49.5632 88.6751 49.5637 88.7023 49.5637C89.6684 49.5637 90.4722 48.8025 90.5155 47.8279C90.5521 47.005 90.5705 46.15 90.5705 45.2866V31.9663C90.5705 31.9632 90.57 31.96 90.57 31.9569V18.0268C90.57 12.7812 86.3024 8.51387 81.0569 8.51387C78.6464 8.51387 76.4439 9.41674 74.7658 10.8999C73.5786 6.99874 69.948 4.15159 65.6637 4.15159C63.0931 4.15159 60.7589 5.17822 59.0452 6.84059C57.6054 3.41316 54.2148 1 50.2705 1C46.3921 1 43.0507 3.33396 41.5711 6.67009C39.8281 4.937 37.3965 3.87501 34.756 3.90891C29.5104 3.90891 25.2428 8.1765 25.2428 13.4218V19.1113L23.966 19.4237C19.6406 20.3682 16.575 24.141 16.4902 28.5488L16.495 32.5498C16.4962 33.5522 17.3093 34.364 18.3114 34.364H18.3136C19.3168 34.3628 20.1291 33.5485 20.1278 32.5454L20.123 28.6779C20.1472 25.9182 22.0569 23.5525 24.7606 22.9691C24.7841 22.9652 41.1984 18.9466 41.2309 18.9393C44.3338 18.237 47.5539 20.329 48.202 23.4425C48.8963 26.6423 46.8271 29.8005 43.6249 30.4539L34.7075 32.7886C33.7543 33.038 33.1738 34.0022 33.3995 34.9615L35.3394 43.2128C35.5331 44.0374 36.2757 44.6107 37.1185 44.6136C41.3081 44.5809 44.8947 45.6044 47.7798 47.6332C50.8353 49.7814 53.1138 53.08 54.5519 57.4377C54.804 58.2013 55.5139 58.6852 56.2765 58.6852C56.4652 58.6852 56.657 58.6556 56.8461 58.5932C57.7989 58.2788 58.3162 57.2517 58.0016 56.2989C56.3133 51.1837 53.5773 47.2682 49.8692 44.6611C46.7021 42.4344 42.9012 41.2087 38.553 41.0091L37.3411 35.8542L41.4401 34.781C42.8647 38.3221 46.3468 40.7524 50.2705 40.7524ZM81.0569 12.1464C84.2993 12.1464 86.9372 14.7843 86.9372 18.0265V31.9666C86.9372 35.209 84.2993 37.8466 81.0569 37.8466C77.8145 37.8466 75.1768 35.2087 75.1768 31.9666V18.0268C75.1768 14.7843 77.8145 12.1464 81.0569 12.1464ZM65.6637 7.78416C68.9061 7.78416 71.544 10.4221 71.544 13.6642V32.4512C71.544 35.6936 68.9061 38.3315 65.6637 38.3315C62.4213 38.3315 59.7834 35.6936 59.7834 32.4512V13.6645C59.7834 10.4221 62.4213 7.78416 65.6637 7.78416ZM28.8759 18.2224V13.422C28.8759 10.1796 31.5138 7.54197 34.7562 7.54197C38.04 7.47464 40.7615 10.1358 40.7576 13.422V15.3334L28.8759 18.2224ZM51.7524 22.6731C50.9489 18.9708 47.9932 16.1353 44.3902 15.3772V10.5131C44.3902 7.27072 47.0281 4.63281 50.2705 4.63281C53.5129 4.63281 56.1506 7.27072 56.1506 10.5131V31.2395C56.1506 34.4819 53.5127 37.1196 50.2705 37.1196C48.0046 37.1196 45.9775 35.8096 45.0027 33.8542C49.8183 32.5197 52.8224 27.6227 51.7524 22.6731Z" fill="#1D264D" stroke="#1D264D"/>
<path d="M55.6007 83.2617C55.2982 82.6325 54.6617 82.2325 53.9635 82.2325H40.401V75.8557C40.401 70.5452 37.2933 65.6596 32.4837 63.4089C32.4662 63.4007 32.4485 63.3929 32.4309 63.3852C24.9679 59.8698 20.144 52.276 20.1372 44.0233L20.1348 41.1533C20.134 40.1507 19.321 39.3384 18.3184 39.3384C18.3179 39.3384 18.3174 39.3384 18.3169 39.3384C17.3138 39.3391 16.5012 40.1531 16.502 41.1562L16.5044 44.0262C16.5121 53.7003 22.1791 62.5998 30.9417 66.6993C30.9584 66.707 30.9753 66.7145 30.992 66.7218C34.5025 68.3876 36.7682 71.9668 36.7682 75.8554V82.2322H32.9368C29.946 82.2322 27.0502 82.8408 24.3299 84.0409C23.412 84.4458 22.9965 85.5182 23.4014 86.4359C23.8063 87.3537 24.8787 87.7691 25.7964 87.3644C28.0516 86.3693 30.4541 85.8648 32.9368 85.8648H50.1849L48.4617 88.0193C47.9314 88.6824 47.9311 89.6243 48.4613 90.2876L50.1849 92.445H32.9368C29.5408 92.445 26.2946 94.0292 24.1834 96.6927H16.5945C17.3172 94.986 18.3019 93.4089 19.5385 91.9882C20.1973 91.2314 20.1176 90.0842 19.361 89.4257C18.6041 88.7669 17.4571 88.8463 16.7984 89.6032C14.9718 91.702 13.5993 94.0839 12.7083 96.6925H8.33564C4.72777 96.6925 1.69486 99.5086 1.43111 103.104C1.29113 105.012 1.94068 106.845 3.2606 108.265C4.60353 109.711 6.50542 110.539 8.47877 110.539H12.7074C14.0803 114.532 16.6645 118.106 20.051 120.671C23.7896 123.503 28.2456 125 32.9368 125H48.7444C49.2944 125 49.8146 124.751 50.1595 124.323L54.3856 119.072C54.918 118.411 54.9211 117.469 54.3932 116.804L50.4528 111.841C50.1081 111.407 49.5845 111.154 49.0302 111.154H40.401V96.0781H53.9611C54.6591 96.0781 55.2953 95.678 55.598 95.049C55.9008 94.42 55.816 93.6731 55.3803 93.1277L52.2057 89.1544L55.382 85.183C55.8182 84.6379 55.9032 83.8909 55.6007 83.2617ZM5.92175 105.793C5.29691 105.12 4.98885 104.26 5.05424 103.37C5.17945 101.663 6.62095 100.326 8.33564 100.326H26.0487C27.0158 100.326 27.9477 100.732 28.6058 101.44C29.2306 102.112 29.5387 102.973 29.4733 103.863C29.3481 105.57 27.9066 106.907 26.1916 106.907H8.47877C7.51171 106.907 6.57978 106.501 5.92175 105.793ZM50.6451 117.925L47.8747 121.367H32.9368C25.8119 121.367 19.353 117.001 16.5991 110.54H24.1834C26.2946 113.203 29.5411 114.787 32.9368 114.787H48.153L50.6451 117.925ZM36.7682 111.154H32.9368C31.4754 111.154 30.0877 110.741 28.8993 109.982C31.2129 108.99 32.9027 106.77 33.0964 104.128C33.2364 102.22 32.5868 100.387 31.2669 98.9669C30.5871 98.2352 29.7637 97.6625 28.8605 97.2742C30.0572 96.4997 31.4597 96.0778 32.9368 96.0778H36.7682V111.154Z" fill="#1D264D" stroke="#1D264D"/>
<path d="M112.314 96.6929H108.085C106.713 92.7002 104.129 89.1267 100.742 86.561C97.0032 83.7291 92.5469 82.2321 87.8555 82.2321H84.0241V77.3303C84.0241 74.2998 84.6257 71.3461 85.8175 68.5391L85.8483 68.4648C87.4256 64.7537 88.6279 60.8637 89.421 56.9025C89.6179 55.9187 88.9802 54.9618 87.9967 54.7647C87.0139 54.5678 86.0561 55.2055 85.8589 56.189C85.1142 59.9078 83.9859 63.5597 82.4995 67.0564L82.4685 67.1315C81.0903 70.3778 80.3913 73.8091 80.3913 77.3303V82.2321H71.5708C71.0191 82.2321 70.4975 82.4828 70.1528 82.9137L66.0671 88.019C65.5362 88.6821 65.536 89.6247 66.0666 90.288L70.1499 95.3958C70.4946 95.8269 71.0167 96.078 71.5687 96.078H80.3915V111.154H66.6353C65.9383 111.154 65.3028 111.553 64.9996 112.181C64.6963 112.809 64.7794 113.554 65.2127 114.1L68.2502 117.925L64.9347 122.045C64.4963 122.589 64.4096 123.337 64.7114 123.968C65.0134 124.598 65.6503 125 66.3498 125H87.856C92.5474 125 97.0032 123.503 100.742 120.671C104.128 118.106 106.713 114.532 108.085 110.54H112.457C116.065 110.54 119.098 107.723 119.362 104.128C119.502 102.22 118.852 100.387 117.532 98.9666C116.189 97.5217 114.287 96.6929 112.314 96.6929ZM69.8111 89.1546L72.4437 85.865H87.8555C94.9829 85.865 101.442 90.2316 104.194 96.6927H96.6091C94.498 94.0293 91.2515 92.445 87.8558 92.445H72.442L69.8111 89.1546ZM84.0241 96.078H87.8555C89.3171 96.078 90.7049 96.4917 91.8933 97.2507C89.5797 98.2429 87.8897 100.463 87.6959 103.104C87.5559 105.012 88.2055 106.845 89.5254 108.266C90.2052 108.997 91.0284 109.57 91.9315 109.958C90.7349 110.733 89.3326 111.154 87.8555 111.154H84.0241V96.078ZM87.8555 121.367H70.1429L71.9903 119.072C72.5226 118.41 72.5258 117.468 71.9978 116.803L70.3967 114.787H87.8555C91.2512 114.787 94.4978 113.203 96.6089 110.539H104.193C101.439 117.001 94.9804 121.367 87.8555 121.367ZM115.738 103.862C115.613 105.57 114.171 106.907 112.457 106.907H94.7436C93.7765 106.907 92.8446 106.501 92.1866 105.792C91.5617 105.12 91.2537 104.26 91.319 103.37C91.4443 101.663 92.8857 100.325 94.6007 100.325H112.314C113.281 100.325 114.213 100.732 114.871 101.44C115.495 102.112 115.803 102.972 115.738 103.862Z" fill="#1D264D" stroke="#1D264D"/>
<path d="M105.115 81.4506C105.58 81.4506 106.045 81.2733 106.399 80.9185L113.107 74.2101C113.817 73.5008 113.817 72.3506 113.107 71.6415C112.398 70.9319 111.248 70.9321 110.539 71.6415L103.83 78.3498C103.121 79.0592 103.121 80.2094 103.83 80.9185C104.185 81.2733 104.65 81.4506 105.115 81.4506Z" fill="#1D264D" stroke="#1D264D"/>
<path d="M98.2623 75.0053C98.4197 75.0475 98.5779 75.0676 98.7336 75.0676C99.5355 75.0676 100.27 74.5323 100.487 73.7208L102.132 67.5796C102.392 66.6106 101.817 65.6145 100.848 65.3549C99.8794 65.0965 98.883 65.6702 98.6234 66.6395L96.978 72.7806C96.7181 73.7498 97.2931 74.7457 98.2623 75.0053Z" fill="#1D264D" stroke="#1D264D"/>
<path d="M109.744 86.4873C109.961 87.2988 110.695 87.8341 111.497 87.8341C111.653 87.8341 111.811 87.814 111.968 87.7718L118.11 86.1264C119.079 85.8668 119.654 84.8707 119.394 83.9017C119.135 82.9327 118.138 82.3582 117.169 82.6174L111.028 84.2628C110.059 84.5224 109.484 85.5185 109.744 86.4873Z" fill="#1D264D" stroke="#1D264D"/>
<path d="M14.3928 80.9184C14.7474 81.273 15.2124 81.4505 15.6771 81.4505C16.1419 81.4505 16.6069 81.2732 16.9614 80.9184C17.6708 80.209 17.6708 79.0589 16.9614 78.3498L10.2531 71.6414C9.54372 70.932 8.39357 70.932 7.68445 71.6414C6.97508 72.3508 6.97508 73.5009 7.68445 74.21L14.3928 80.9184Z" fill="#1D264D" stroke="#1D264D"/>
<path d="M22.0591 75.0679C22.2149 75.0679 22.373 75.0478 22.5304 75.0057C23.4994 74.746 24.0744 73.7499 23.815 72.7809L22.1696 66.6398C21.9099 65.6708 20.9141 65.0958 19.9448 65.3552C18.9758 65.6148 18.4009 66.611 18.6605 67.5799L20.3059 73.7211C20.5232 74.5327 21.257 75.0679 22.0591 75.0679Z" fill="#1D264D" stroke="#1D264D"/>
<path d="M2.68284 86.1263L8.82399 87.7717C8.98141 87.8139 9.13956 87.834 9.29529 87.834C10.0972 87.834 10.8312 87.2988 11.0487 86.4872C11.3083 85.5182 10.7334 84.5223 9.7644 84.2625L3.62301 82.6173C2.65475 82.3584 1.6579 82.9326 1.39828 83.9016C1.13865 84.8706 1.71361 85.8667 2.68284 86.1263Z" fill="#1D264D" stroke="#1D264D"/>
</svg>
