<svg width="112" height="113" viewBox="0 0 112 113" fill="none" xmlns="http://www.w3.org/2000/svg">
<path d="M28.8711 43.298C29.0457 45.4992 28.2328 50.3621 29.9737 52.1199C30.3095 52.5224 30.79 52.7767 31.3116 52.8279C31.8333 52.8792 32.3541 52.7233 32.7618 52.3939C33.1695 52.0645 33.4314 51.588 33.4908 51.0673C33.5503 50.5465 33.4026 50.0233 33.0797 49.6104C32.6147 49.5372 32.9716 43.6416 32.8642 43.298C32.8649 41.4195 33.4567 39.589 34.5558 38.0656C35.6548 36.5422 37.2054 35.4034 38.9878 34.8104L50.8213 30.859C54.1005 29.7694 57.6439 29.7687 60.9234 30.857L72.7619 34.8093C74.5444 35.4025 76.0952 36.5415 77.1944 38.065C78.2935 39.5885 78.8855 41.4193 78.8862 43.298V48.9486C78.8861 49.1865 78.8076 49.4178 78.663 49.6066C78.5028 49.8143 78.3852 50.0514 78.3167 50.3045C78.2483 50.5576 78.2304 50.8218 78.2641 51.0818C78.2978 51.3418 78.3824 51.5927 78.513 51.82C78.6437 52.0473 78.8179 52.2466 79.0257 52.4066C81.2259 53.9622 82.9899 50.9292 82.8794 48.9485L82.8795 43.298C82.8792 40.5816 82.0242 37.9343 80.4356 35.731C78.847 33.5277 76.6053 31.8801 74.0282 31.0218L63.9619 27.6609C76.4394 19.7962 70.8382 -0.0137581 55.8759 7.17016e-06C40.9137 0.000127217 35.3112 19.7796 47.7908 27.6603L37.7213 31.0228C35.1444 31.881 32.9029 33.5284 31.3145 35.7316C29.726 37.9347 28.8712 40.5819 28.8711 43.298ZM44.849 15.0214C45.312 0.4478 66.4425 0.449801 66.9046 15.0217C66.4402 29.5945 45.3098 29.5899 44.849 15.0214Z" fill="#1D264D"/>
<path d="M104.395 29.8833L96.9934 27.4215C99.124 25.8652 100.708 23.6749 101.518 21.164C102.329 18.6531 102.324 15.9502 101.506 13.4419C100.687 10.9337 99.0959 8.74859 96.9602 7.19929C94.8245 5.64999 92.2536 4.81584 89.6151 4.81616C86.9766 4.81649 84.4058 5.65127 82.2705 7.2011C80.1352 8.75093 78.5447 10.9364 77.7267 13.4448C76.9086 15.9533 76.9048 18.6562 77.7159 21.1669C78.527 23.6776 80.1114 25.8675 82.2424 27.4233C81.9861 27.4934 81.7465 27.6139 81.5374 27.7778C81.3283 27.9416 81.1539 28.1455 81.0246 28.3775C80.8952 28.6096 80.8134 28.865 80.784 29.1291C80.7545 29.3931 80.778 29.6603 80.8531 29.9151C80.9281 30.1699 81.0533 30.4072 81.2211 30.6131C81.389 30.819 81.5962 30.9894 81.8307 31.1142C82.0652 31.2391 82.3222 31.3159 82.5867 31.3402C82.8513 31.3646 83.118 31.3359 83.3713 31.2559C85.3404 30.4359 87.4354 29.9592 89.5655 29.8466C92.4226 29.6167 100.334 32.8933 103.127 33.6697C104.493 34.1272 105.68 35.0021 106.522 36.1708C107.364 37.3395 107.817 38.743 107.818 40.1833V44.7361C107.819 44.8758 107.765 45.0104 107.668 45.111C107.572 45.2117 107.439 45.2706 107.3 45.2753H88.8697C88.3402 45.2753 87.8323 45.4856 87.4579 45.8601C87.0835 46.2345 86.8731 46.7424 86.8731 47.2719C86.8731 47.8014 87.0835 48.3093 87.4579 48.6837C87.8323 49.0582 88.3402 49.2685 88.8697 49.2685H107.3C108.499 49.2644 109.647 48.7849 110.493 47.9352C111.339 47.0855 111.813 45.9351 111.812 44.7361V40.1833C111.81 37.9059 111.094 35.6864 109.763 33.8383C108.432 31.9901 106.555 30.6067 104.395 29.8833ZM89.582 25.8525C87.3379 25.8238 85.1957 24.911 83.6205 23.3124C82.0453 21.7137 81.1644 19.5582 81.1689 17.3139C81.1735 15.0696 82.0631 12.9177 83.6448 11.3254C85.2264 9.7331 87.3723 8.82901 89.6165 8.80941C91.8606 8.83809 94.0029 9.75085 95.578 11.3495C97.1532 12.9482 98.0342 15.1037 98.0296 17.348C98.0251 19.5923 97.1354 21.7442 95.5538 23.3365C93.9722 24.9288 91.8263 25.8329 89.582 25.8525Z" fill="#1D264D"/>
<path d="M24.878 47.2719C24.8779 46.7424 24.6676 46.2346 24.2931 45.8601C23.9187 45.4857 23.4109 45.2753 22.8813 45.2753H4.51187C4.37222 45.2707 4.23989 45.2118 4.14303 45.1111C4.04616 45.0104 3.99241 44.8759 3.9932 44.7362V40.1833C3.99408 38.7444 4.44642 37.3421 5.28649 36.1739C6.12656 35.0057 7.31201 34.1306 8.67579 33.6718L18.2222 30.4975C21.5928 29.4924 25.2147 29.756 28.4043 31.2385C28.9039 31.3927 29.4441 31.3448 29.9088 31.1051C30.3735 30.8655 30.7257 30.4531 30.8898 29.9567C31.054 29.4602 31.0169 28.9192 30.7865 28.4498C30.5562 27.9803 30.151 27.62 29.6579 27.446C31.2029 26.2454 32.4589 24.7135 33.3334 22.9631C34.2079 21.2127 34.6786 19.2885 34.7107 17.3321C34.712 15.1932 34.1647 13.0897 33.1213 11.2226C32.0778 9.35552 30.573 7.78717 28.7507 6.66739C26.9283 5.54762 24.8493 4.91383 22.7122 4.82658C20.5751 4.73932 18.4513 5.20152 16.5438 6.16901C14.6362 7.1365 13.0086 8.57696 11.8164 10.3528C10.6242 12.1286 9.90731 14.1805 9.73415 16.3123C9.56099 18.4442 9.93737 20.5848 10.8273 22.5298C11.7173 24.4747 13.0911 26.159 14.8175 27.4216L7.40742 29.8852C5.24989 30.6099 3.37434 31.9937 2.04531 33.8414C0.716291 35.689 0.000881981 37.9073 2.64341e-06 40.1833V44.7362C-0.00129198 45.9351 0.472995 47.0855 1.31882 47.9352C2.16465 48.7849 3.31296 49.2644 4.51187 49.2685H22.8813C23.4108 49.2685 23.9187 49.0582 24.2931 48.6837C24.6676 48.3093 24.8779 47.8014 24.878 47.2719ZM22.194 8.80943C24.4397 8.82937 26.5868 9.73488 28.1686 11.3291C29.7503 12.9234 30.6389 15.0776 30.6411 17.3234C30.6434 19.5692 29.7591 21.7251 28.1806 23.3225C26.602 24.9199 24.4567 25.8297 22.2111 25.8542C19.9654 25.8342 17.8183 24.9287 16.2365 23.3345C14.6548 21.7402 13.7662 19.5861 13.764 17.3403C13.7617 15.0945 14.646 12.9385 16.2245 11.3411C17.8031 9.74368 19.9483 8.83387 22.194 8.80943Z" fill="#1D264D"/>
<path d="M83.0619 73.1228C82.3777 70.5211 81.3757 68.0136 80.0786 65.6568C80.5376 65.2946 80.915 64.8397 81.1863 64.3218C81.4576 63.8039 81.6166 63.2346 81.6531 62.6511C81.6895 62.0676 81.6025 61.4829 81.3977 60.9353C81.1929 60.3877 80.875 59.8894 80.4646 59.4729L76.528 55.5362C76.0948 55.1236 75.5807 54.8055 75.0181 54.6021C74.4556 54.3986 73.8569 54.3142 73.26 54.3543C72.6632 54.3943 72.0811 54.5579 71.5508 54.8347C71.0205 55.1115 70.5535 55.4955 70.1793 55.9622C67.8569 54.6073 65.3757 53.545 62.7924 52.7996C62.8614 52.2187 62.8072 51.6297 62.6331 51.0712C62.459 50.5126 62.169 49.9971 61.7821 49.5583C61.3952 49.1195 60.92 48.7673 60.3877 48.5246C59.8553 48.282 59.2778 48.1544 58.6928 48.1502H53.1182C52.532 48.1503 51.9525 48.2751 51.4181 48.5163C50.8838 48.7575 50.4069 49.1096 50.0191 49.5492C49.2253 50.4928 48.8349 51.7108 48.932 52.94C46.3304 53.6242 43.8229 54.6261 41.4661 55.9231C41.1062 55.4608 40.6523 55.0801 40.1343 54.8064C39.6163 54.5326 39.0461 54.3719 38.4614 54.335C37.877 54.3029 37.2923 54.3933 36.7448 54.6003C36.1974 54.8073 35.6992 55.1264 35.2822 55.5371L31.3454 59.4738C30.9326 59.9068 30.6142 60.421 30.4106 60.9835C30.207 61.5461 30.1225 62.1449 30.1626 62.7419C30.2027 63.3388 30.3664 63.9209 30.6434 64.4512C30.9204 64.9816 31.3046 65.4485 31.7716 65.8225C30.4166 68.1449 29.3543 70.626 28.6088 73.2094C28.0271 73.136 27.4365 73.1872 26.8761 73.3596C26.3157 73.532 25.7984 73.8218 25.3586 74.2096C24.9188 74.5973 24.5666 75.0743 24.3254 75.6087C24.0842 76.1431 23.9594 76.7227 23.9595 77.309V82.8836C23.9595 83.4698 24.0843 84.0494 24.3255 84.5837C24.5667 85.118 24.9188 85.5949 25.3585 85.9828C26.3048 86.7715 27.5207 87.1614 28.7492 87.0698C29.4334 89.6715 30.4353 92.179 31.7324 94.5357C31.2697 94.8953 30.8888 95.3492 30.615 95.8673C30.3412 96.3853 30.1807 96.9557 30.1442 97.5406C30.1077 98.1254 30.196 98.7113 30.4032 99.2594C30.6104 99.8075 30.9319 100.305 31.3462 100.72L35.283 104.656C35.7163 105.069 36.2305 105.386 36.793 105.59C37.3555 105.793 37.9541 105.877 38.5509 105.837C39.1476 105.797 39.7296 105.634 40.2599 105.357C40.7902 105.08 41.2573 104.697 41.6316 104.23C43.954 105.585 46.4351 106.648 49.0185 107.393C48.9494 107.974 49.0037 108.563 49.1778 109.121C49.3519 109.68 49.6419 110.195 50.0288 110.634C50.4157 111.073 50.8909 111.425 51.4232 111.668C51.9555 111.91 52.5331 112.038 53.1181 112.042L58.6927 112.042C59.2789 112.042 59.8585 111.917 60.3928 111.676C60.9271 111.435 61.404 111.083 61.7919 110.643C62.5856 109.7 62.9761 108.482 62.8789 107.253C65.4806 106.568 67.9883 105.567 70.3451 104.269C70.7047 104.732 71.1586 105.113 71.6767 105.387C72.1947 105.661 72.7651 105.821 73.35 105.858C73.9348 105.894 74.5207 105.806 75.0688 105.599C75.6169 105.391 76.1147 105.07 76.529 104.656L80.4657 100.719C80.8786 100.286 81.197 99.7717 81.4006 99.2092C81.6042 98.6466 81.6887 98.0478 81.6486 97.4508C81.6086 96.8539 81.4448 96.2718 81.1678 95.7414C80.8908 95.2111 80.5066 94.7441 80.0396 94.3702C81.3488 92.025 82.4088 89.5491 83.2021 86.9831C83.783 87.052 84.372 86.9977 84.9305 86.8236C85.489 86.6494 86.0045 86.3595 86.4433 85.9726C86.8821 85.5857 87.2343 85.1106 87.477 84.5783C87.7197 84.046 87.8474 83.4685 87.8517 82.8835V77.309C87.8378 76.7109 87.6996 76.1223 87.4459 75.5805C87.1922 75.0386 86.8285 74.5555 86.3781 74.1618C85.9276 73.7681 85.4002 73.4724 84.8293 73.2935C84.2583 73.1147 83.6565 73.0565 83.0619 73.1228ZM83.8584 82.8836L83.6995 83.0201C82.7037 82.8944 81.6962 83.1364 80.8662 83.7008C80.0362 84.2651 79.4407 85.113 79.1915 86.0853C78.7649 89.9942 73.5473 94.2923 77.6237 97.6858C77.6326 97.6926 77.6317 97.8895 77.6413 97.8964L73.7056 101.832L73.495 101.815C72.8787 101.022 71.9945 100.482 71.0083 100.295C70.022 100.108 69.0015 100.287 68.1378 100.799C65.0854 103.25 58.3347 102.61 58.8302 107.893L60.8114 107.643L58.6929 108.049H53.1182L52.9818 107.89C53.1073 106.894 52.8652 105.887 52.3008 105.057C51.7365 104.227 50.8887 103.632 49.9166 103.382C47.7226 102.825 45.6202 101.955 43.6742 100.799C42.8102 100.288 41.7897 100.109 40.8035 100.296C39.8173 100.483 38.9331 101.023 38.3161 101.815C38.3093 101.823 38.1123 101.822 38.1055 101.832L34.1698 97.8964L32.7581 99.3081L34.1873 97.6858C34.9795 97.0694 35.5197 96.1852 35.7067 95.199C35.8937 94.2128 35.7147 93.1923 35.2032 92.3286C32.7537 89.273 33.389 82.5345 28.1088 83.021L27.9527 82.8837V77.309L28.1116 77.1726C29.1071 77.2958 30.1133 77.0528 30.9428 76.4888C31.7722 75.9248 32.3683 75.0784 32.6197 74.1074C33.1769 71.9134 34.047 69.811 35.2032 67.865C35.7148 67.0012 35.8938 65.9805 35.7068 64.9941C35.5198 64.0078 34.9796 63.1235 34.1873 62.5069C34.1786 62.5001 34.1795 62.3032 34.1698 62.2963L38.1055 58.3606L38.3161 58.3782C41.7088 62.4497 46.0095 57.2453 49.9157 56.8108C50.8883 56.5611 51.7364 55.965 52.3008 55.1344C52.8652 54.3038 53.107 53.2958 52.9808 52.2996L53.1183 52.1435H58.6929L58.8294 52.3024C58.7039 53.2982 58.946 54.3055 59.5103 55.1355C60.0746 55.9655 60.9224 56.561 61.8946 56.8104C64.0885 57.3676 66.1909 58.2377 68.137 59.394C69.0009 59.905 70.0214 60.0837 71.0076 59.8967C71.9938 59.7098 72.8781 59.1699 73.495 58.3781C73.5019 58.3693 73.6988 58.3703 73.7056 58.3606L77.6414 62.2963L77.6238 62.5069C73.5511 65.902 78.7569 70.1986 79.1912 74.1065C79.4437 75.0775 80.0404 75.9237 80.8703 76.4876C81.7002 77.0515 82.7067 77.2946 83.7024 77.1716L83.8585 77.3091L83.8584 82.8836Z" fill="#1D264D"/>
<path d="M55.9057 61.8226C52.2915 61.8226 48.7584 62.8943 45.7533 64.9023C42.7482 66.9102 40.406 69.7642 39.0229 73.1033C37.6398 76.4424 37.2779 80.1167 37.983 83.6615C38.6881 87.2063 40.4285 90.4624 42.9841 93.018C45.5398 95.5737 48.7959 97.3141 52.3407 98.0192C55.8855 98.7243 59.5597 98.3624 62.8988 96.9793C66.2379 95.5962 69.0919 93.254 71.0999 90.2489C73.1079 87.2437 74.1796 83.7107 74.1796 80.0964C74.174 75.2516 72.2469 70.6069 68.8211 67.1811C65.3953 63.7553 60.7505 61.8282 55.9057 61.8226ZM55.9057 94.3771C53.0813 94.3771 50.3203 93.5396 47.9718 91.9704C45.6234 90.4012 43.793 88.1709 42.7121 85.5615C41.6313 82.952 41.3485 80.0807 41.8995 77.3105C42.4505 74.5403 43.8106 71.9958 45.8078 69.9986C47.805 68.0014 50.3495 66.6413 53.1197 66.0903C55.8899 65.5393 58.7612 65.8221 61.3707 66.9029C63.9801 67.9838 66.2104 69.8142 67.7796 72.1626C69.3488 74.5111 70.1863 77.2721 70.1863 80.0965C70.182 83.8827 68.6761 87.5125 65.9989 90.1897C63.3217 92.8669 59.6918 94.3729 55.9057 94.3771Z" fill="#1D264D"/>
<path d="M60.484 74.6915L53.9091 81.2663L51.3275 78.6848C50.9531 78.3104 50.4453 78.1 49.9159 78.1C49.3864 78.1 48.8786 78.3103 48.5042 78.6847C48.1298 79.0591 47.9194 79.5669 47.9194 80.0964C47.9194 80.6259 48.1298 81.1337 48.5042 81.5081L52.4974 85.5014C52.6828 85.6868 52.9029 85.8339 53.1451 85.9343C53.3873 86.0347 53.6469 86.0863 53.9091 86.0863C54.1713 86.0863 54.4309 86.0347 54.6732 85.9343C54.9154 85.8339 55.1354 85.6868 55.3208 85.5014L63.3073 77.5148C63.4927 77.3295 63.6398 77.1094 63.7401 76.8672C63.8404 76.6249 63.8921 76.3653 63.892 76.1032C63.892 75.841 63.8404 75.5814 63.7401 75.3392C63.6398 75.097 63.4927 74.8769 63.3073 74.6915C63.1219 74.5061 62.9018 74.359 62.6596 74.2587C62.4174 74.1584 62.1578 74.1067 61.8956 74.1068C61.6335 74.1068 61.3738 74.1584 61.1316 74.2587C60.8894 74.3591 60.6693 74.5061 60.484 74.6915Z" fill="#1D264D"/>
</svg>
