<svg width="114" height="114" viewBox="0 0 114 114" fill="none" xmlns="http://www.w3.org/2000/svg">
<path d="M27.4114 36.7731C28.4207 36.7731 29.2388 35.9499 29.2388 34.9344C29.2388 33.9189 28.4207 33.0957 27.4114 33.0957C26.4021 33.0957 25.584 33.9189 25.584 34.9344C25.584 35.9499 26.4021 36.7731 27.4114 36.7731Z" fill="white"/>
<path d="M111.208 89.069L109.646 87.4968V86.1802C109.646 82.0413 106.073 78.7097 101.932 79.0937L82.8225 80.8423L76.3188 75.3867H76.3206C79.142 75.3867 81.7134 74.0023 83.2757 71.7093H84.0615C89.1437 71.7093 93.4453 68.2085 94.6534 63.3782L95.1761 63.3027C99.2567 62.7143 102.336 59.1435 102.336 54.9936C102.336 53.8628 102.106 52.7339 101.687 51.6785L101.749 51.6362C104.405 49.8545 105.991 46.872 105.991 43.66C105.991 41.7349 105.408 39.8962 104.357 38.324C105.41 36.7116 105.991 34.8139 105.991 32.8244C105.991 30.6473 105.278 28.5953 104.014 26.8762C105.274 25.157 105.991 23.081 105.991 20.9353C105.991 17.5723 104.33 14.4502 101.548 12.5856L101.488 12.5451C102.047 10.0812 102.336 7.5476 102.336 4.9826C102.336 2.23591 100.114 0 97.3836 0C95.1853 0 93.2263 1.48757 92.6213 3.61482C90.7556 10.1936 87.0366 16.0261 81.8723 20.483L75.7687 25.7455C74.8001 24.0467 73.1937 22.7853 71.2696 22.2923V22.0643C71.2696 18.6443 68.9379 15.7594 65.7874 14.9431V12.1998C65.7874 9.52813 63.6256 7.35478 60.9703 7.35478C58.6441 7.35478 56.6503 9.02804 56.2336 11.3336C54.1577 22.8218 50.6819 34.0381 45.9122 44.6842C44.1397 42.0163 42.6703 39.1441 41.5758 36.114L40.4539 33.0048C38.8822 28.6599 34.7432 25.742 30.149 25.742H29.2389C23.3855 25.742 18.5904 30.3792 18.289 36.195L16.6572 38.6589C16.1363 37.7543 15.5078 36.9066 14.753 36.1491L12.2566 33.6373L9.6726 36.2373L12.1688 38.7489C13.7477 40.3375 14.6193 42.4521 14.6193 44.7007C14.6193 46.3684 14.1331 47.9829 13.2141 49.3709L11.8142 51.4835H10.9645C4.91751 51.4839 0 56.4318 0 62.5161V66.1935H3.65483C6.61702 66.1935 9.30348 65.002 11.277 63.075C11.4396 64.807 11.6735 66.5243 11.9714 68.227L9.39466 69.5251C5.8549 71.305 3.65461 74.8866 3.65461 78.8713C3.65461 80.4858 4.03279 82.1018 4.7511 83.5453L6.49443 87.0481L10.7067 84.928C12.7645 83.8929 14.3507 82.2399 15.3336 80.2631C16.2547 82.6351 17.3182 84.9518 18.5244 87.2098L16.9966 91.8194C16.6311 92.9153 16.4465 94.0627 16.4465 95.223C16.4465 100.548 20.3974 105.13 25.6349 105.884L32.3159 106.844L34.1433 101.331C34.527 100.171 34.7209 98.9665 34.7209 97.7492C34.7209 91.503 29.6679 86.4191 23.4603 86.4191H22.2707C21.2492 84.5878 20.3098 82.7197 19.491 80.8037C21.4592 82.0228 23.7453 82.7417 26.1758 82.7417H31.3931L30.7408 78.7885C29.7082 72.5552 24.4032 68.0319 18.1223 68.0319H15.6572C15.3958 66.6087 15.1894 65.1728 15.0303 63.7258C16.9161 65.2666 19.3155 66.1933 21.9288 66.1933H25.5836V62.5159C25.5836 56.9483 21.461 52.344 16.1285 51.6013L16.2547 51.41C17.0241 50.2497 17.5539 48.9701 17.8864 47.6351C18.2538 47.7362 18.632 47.8061 19.0305 47.8061C20.1927 47.8061 21.3295 47.3316 22.15 46.5062L24.513 44.1287H24.5495L25.8615 46.3279C28.1696 50.1983 29.7832 54.4034 30.6622 58.822C34.3628 77.4407 49.4663 91.22 68.245 93.1102L73.9904 93.6875L87.9739 110.885C89.5825 112.866 91.9636 114 94.5949 114C97.5244 114 100.183 112.509 101.722 110.058C106.046 108.734 109.13 104.939 109.587 100.451C111.884 99.1894 113.3 96.7989 113.3 94.1495C113.301 92.2296 112.559 90.4278 111.208 89.069ZM9.07135 81.6369L8.12467 82.1132L8.01867 81.8999C7.5564 80.964 7.30966 79.9178 7.30966 78.8715C7.30966 76.29 8.73499 73.9695 11.0302 72.8148L11.9769 72.3386L12.0829 72.5519C12.5452 73.4877 12.7919 74.534 12.7919 75.5802C12.7919 78.1635 11.3666 80.4822 9.07135 81.6369ZM18.1226 71.7098C22.4975 71.7098 26.2125 74.784 27.0751 79.0646H26.176C22.2379 79.0646 18.753 76.5381 17.5085 72.7781L17.1557 71.7098H18.1226ZM49.0647 46.6113C54.0517 35.5698 57.6738 23.9215 59.83 11.9938C59.9305 11.4367 60.4111 11.0322 60.9721 11.0322C61.6116 11.0322 62.1325 11.5563 62.1325 12.1998V18.387H63.96C65.9757 18.387 67.6148 20.0362 67.6148 22.0643V25.7417H69.4422C71.0448 25.7417 72.3991 26.766 72.8906 28.2277L64.9706 35.0566C59.5742 39.7103 55.0165 45.221 51.4349 51.3274C50.3641 50.2923 49.3626 49.1946 48.4161 48.049L49.0647 46.6113ZM3.65483 62.5161C3.65483 58.46 6.93325 55.1613 10.9645 55.1613C10.9645 59.2174 7.68607 62.5161 3.65483 62.5161ZM31.0663 97.7494C31.0663 98.5713 30.9346 99.3877 30.677 100.169L29.8144 102.767L26.1523 102.242C22.7039 101.747 20.1018 98.7296 20.1018 95.2232C20.1018 94.4584 20.2224 93.7044 20.4618 92.9799L20.979 91.4207C21.6734 92.5148 22.3716 93.6069 23.1372 94.6641L25.9332 98.5327L28.8881 96.3705L26.0921 92.5019C25.5513 91.7535 25.0706 90.9758 24.5663 90.209C28.2338 90.7531 31.0663 93.9122 31.0663 97.7494ZM21.9292 62.5161C17.898 62.5161 14.6195 59.2174 14.6195 55.1613C18.6508 55.1613 21.9292 58.46 21.9292 62.5161ZM18.2744 43.3679V43.0773C18.2744 42.9283 18.32 42.7776 18.4005 42.6563L20.1018 40.0895L21.4047 42.0569L19.5663 43.9067C19.1314 44.3442 18.2744 43.9893 18.2744 43.3679ZM107.721 97.2843L107.716 97.2881L93.8403 92.0532L92.5558 95.497L105.887 100.528C105.443 103.249 103.546 105.507 100.925 106.426L88.9045 96.0597L86.5269 98.8509L98.0725 108.809C97.1807 109.758 95.9198 110.323 94.5053 110.323C93.0654 110.323 91.7149 109.677 90.8029 108.557L75.8601 90.1813L68.6088 89.4533C51.4383 87.7268 37.6284 75.126 34.244 58.1015C33.2847 53.2676 31.5175 48.6707 28.9939 44.4362L28.6449 43.8497C30.0337 43.4948 31.3185 42.7979 32.3582 41.7518L29.7742 39.1519C28.9408 39.9904 27.8317 40.4517 26.6546 40.4517H24.7341L21.9766 36.2907C22.2306 32.4644 25.3718 29.4196 29.2389 29.4196H30.149C33.2119 29.4196 35.9729 31.3649 37.0201 34.2608L38.142 37.37C40.5269 43.969 44.4924 49.9026 49.6274 54.6465C48.1289 57.5793 46.8241 60.6204 45.7807 63.7721L49.2455 64.9359C52.7286 54.4241 58.9876 45.0576 67.3462 37.8498L84.2499 23.2725C89.9587 18.3467 94.0687 11.8963 96.1353 4.62234C96.2925 4.06704 96.8079 3.67717 97.3834 3.67717C98.0997 3.67717 98.6808 4.26186 98.6808 4.9826C98.6808 10.9841 96.932 16.7927 93.6244 21.7829L91.6781 24.7231L94.7189 26.7622L96.6651 23.822C98.2148 21.485 99.4392 18.9808 100.362 16.3735C101.595 17.5613 102.336 19.1829 102.336 20.9353C102.336 22.421 101.817 23.8661 100.87 25.0061L93.6206 33.7582L96.4294 36.1137L101.59 29.8822C102.06 30.7831 102.336 31.7779 102.336 32.8242C102.336 34.7751 101.468 36.59 99.9546 37.8053L93.8839 42.6926L96.1683 45.5664L101.726 41.091C102.109 41.8852 102.336 42.7551 102.336 43.6596C102.336 45.6399 101.358 47.4768 99.7209 48.5762L92.1847 53.6308L94.2112 56.6903L98.5386 53.7889C98.6335 54.1841 98.6811 54.5886 98.6811 54.9932C98.6811 57.3246 96.9524 59.3308 94.6589 59.6599L87.4588 60.695L87.9759 64.3356L90.5947 63.9587C89.3887 66.3894 86.9051 68.0315 84.0615 68.0315H81.1046L80.6003 69.0484C79.7835 70.6885 78.1442 71.7089 76.3206 71.7089H69.6668C64.5189 71.7089 59.3748 72.347 54.3803 73.6028L55.2648 77.168C59.9705 75.9839 64.8168 75.3845 69.6668 75.3845H70.6062L81.6457 84.6388L102.263 82.754C104.256 82.5812 105.991 84.179 105.991 86.1795V86.4187H91.371V90.0961H107.061L108.624 91.6682C109.282 92.3302 109.645 93.211 109.645 94.1486C109.646 95.4861 108.908 96.6867 107.721 97.2843Z" fill="white"/>
<path d="M73.7037 67.4745C77.1705 66.603 79.7178 63.7566 80.288 60.3036L82.8574 59.6564C85.7174 58.9392 87.7165 56.3633 87.7165 53.3955C87.7165 51.9024 87.1903 50.5032 86.2693 49.3596L86.4173 49.2494C88.3744 47.7674 89.5441 45.414 89.5441 42.95C89.5441 41.2659 89.0013 39.6772 88.0347 38.3422C89.0179 36.5384 89.5441 34.5085 89.5441 32.3939C89.5441 29.7407 87.397 27.5801 84.7599 27.5801C84.0216 27.5801 83.2796 27.7566 82.62 28.0875L79.5901 29.6118L81.2256 32.9013L84.2555 31.377C84.9628 31.0203 85.8893 31.5921 85.8893 32.3939C85.8893 34.7271 84.9867 36.9207 83.3456 38.5702L80.9426 40.988L83.5266 43.588L85.6136 41.4881C85.7871 41.9552 85.8895 42.4497 85.8895 42.9498C85.8895 44.2626 85.2664 45.5166 84.223 46.3055L79.3104 50.0123L81.5014 52.9542L83.3544 51.5568C83.8059 52.066 84.0617 52.7097 84.0617 53.3955C84.0617 54.6716 83.2009 55.7804 81.9712 56.091L76.752 57.402V58.8381C76.752 61.2412 75.1328 63.3246 72.8195 63.9093L70.8276 64.4094L71.7121 67.9746L73.7037 67.4745Z" fill="white"/>
</svg>
