<svg width="126" height="128" viewBox="0 0 126 128" fill="none" xmlns="http://www.w3.org/2000/svg">
<path fill-rule="evenodd" clip-rule="evenodd" d="M68.5696 64.3334C69.8428 64.5164 71.1002 64.7866 72.3218 65.1726C76.8098 66.5917 81.6659 70.0212 81.6777 75.767C81.6881 76.3233 81.9088 88.2872 81.6687 90.8632C81.4206 93.5264 80.4765 94.9861 80.1031 95.5009C79.678 96.087 78.4124 97.4194 77.3286 98.0444C76.6418 98.4403 75.8466 98.8317 74.9998 99.0831V121.012C74.9998 122.867 74.2675 124.647 72.9617 125.959C71.6625 127.265 69.9008 128 68.0636 128C66.226 128 64.4644 127.265 63.1652 125.959C63.1392 125.933 63.1135 125.907 63.0878 125.881C63.0647 125.905 63.041 125.929 63.0173 125.953C61.7247 127.264 59.9715 128 58.1434 128C56.3153 128 54.5617 127.264 53.2692 125.953C51.9764 124.643 51.2502 122.865 51.2502 121.012V99.1546C50.4061 98.9365 49.6776 98.5515 48.9914 98.041C47.6321 97.0302 46.9688 96.3853 46.1235 95.1063C45.3919 93.9992 44.9047 93.008 44.4588 90.6624C44.0016 88.256 44.3806 76.9474 44.4203 75.8041C44.1579 69.729 49.7344 66.3399 53.9949 65.153C55.2098 64.8144 56.4665 64.5615 57.7318 64.3801C55.3913 62.2612 53.7991 58.6601 53.7991 53.9314C53.7991 49.8423 55.0599 47.5063 56.7885 46.1267C58.4806 44.776 60.7715 44.3197 63.2785 44.3197C65.8198 44.3197 68.0414 44.7943 69.6598 46.1636C71.283 47.5365 72.4511 49.8622 72.4511 53.9314C72.4511 58.6255 70.8821 62.2083 68.5696 64.3334ZM74.9998 94.6361C75.1082 94.575 75.2134 94.5138 75.3149 94.4552C75.9075 94.1135 76.5899 93.375 76.8223 93.0547C77.028 92.7708 77.4775 91.9427 77.6142 90.4748C77.8524 87.9195 77.6055 75.8294 77.6055 75.8294C77.6053 75.8157 77.6053 75.8018 77.6053 75.7881C77.6053 71.9953 74.0687 70.0503 71.1094 69.1146C68.6218 68.328 65.9588 68.1264 63.3533 68.1264C60.6651 68.1264 57.7542 68.3879 55.0739 69.1344C53.5703 69.5533 51.7809 70.3043 50.4043 71.5061C49.2492 72.5148 48.396 73.8702 48.4917 75.6774C48.4953 75.7414 48.4955 75.8054 48.4932 75.8694C48.4932 75.8694 48.0063 87.5055 48.4579 89.8813C48.7501 91.4178 49.0278 92.0828 49.5071 92.808C50.0281 93.5964 50.4583 94.0021 51.2502 94.5995V77.616C51.2502 76.4766 52.1627 75.5515 53.2865 75.5515C54.4105 75.5515 55.3228 76.4766 55.3228 77.616V121.012C55.3228 121.77 55.6201 122.497 56.149 123.034C56.678 123.57 57.3953 123.871 58.1434 123.871C58.8912 123.871 59.6088 123.57 60.1377 123.034C60.6547 122.509 61.0948 121.83 61.1256 121.093C61.1197 121.03 61.1169 120.967 61.1169 120.903V102.68C61.1169 101.54 62.0294 100.615 63.1532 100.615C64.277 100.615 65.1895 101.54 65.1895 102.68V120.803C65.1964 120.872 65.1997 120.941 65.1997 121.012C65.1997 121.768 65.5001 122.492 66.0321 123.027C66.5707 123.568 67.3017 123.871 68.0636 123.871C68.8252 123.871 69.5562 123.568 70.0948 123.027C70.6268 122.492 70.9271 121.768 70.9271 121.012V77.616C70.9271 76.4766 71.8397 75.5515 72.9635 75.5515C74.0873 75.5515 74.9998 76.4766 74.9998 77.616V94.6361ZM63.125 62.409C66.2538 62.409 68.3784 58.9267 68.3784 53.9314C68.3784 51.5734 67.9913 50.1295 67.0508 49.3339C66.1062 48.535 64.7614 48.4488 63.2785 48.4488C61.7611 48.4488 60.3319 48.5535 59.3076 49.3708C58.3195 50.1597 57.8718 51.5933 57.8718 53.9314C57.8718 58.9267 59.9964 62.409 63.125 62.409ZM47.7803 105.411C48.8336 105.808 49.3704 106.998 48.9784 108.066C48.5867 109.133 47.4132 109.678 46.3599 109.281C28.188 102.425 15.2286 84.671 15.2286 63.8723C15.2286 37.1414 36.6342 15.4395 63 15.4395C89.3658 15.4395 110.771 37.1414 110.771 63.8723C110.771 84.8297 97.6134 102.696 79.2234 109.436C78.1663 109.823 76.9979 109.267 76.6161 108.196C76.2341 107.124 76.7818 105.94 77.8389 105.553C94.6618 99.3873 106.699 83.0436 106.699 63.8723C106.699 39.4204 87.1179 19.5685 63 19.5685C38.882 19.5685 19.3013 39.4204 19.3013 63.8723C19.3013 82.8986 31.1568 99.1396 47.7803 105.411ZM42.0144 80.0849C42.6963 80.9905 42.525 82.2872 41.6316 82.9786C40.7384 83.6702 39.4596 83.4963 38.7774 82.5907C34.8649 77.3956 32.5397 70.9071 32.5397 63.8723C32.5397 46.8279 46.1884 32.9902 63 32.9902C79.8116 32.9902 93.4603 46.8279 93.4603 63.8723C93.4603 70.953 91.1048 77.4803 87.1457 82.6924C86.46 83.5951 85.1804 83.7636 84.2898 83.0684C83.3994 82.3732 83.2332 81.0756 83.9189 80.1729C87.3481 75.6588 89.3877 70.0052 89.3877 63.8723C89.3877 49.1068 77.5638 37.1192 63 37.1192C48.4362 37.1192 36.6123 49.1068 36.6123 63.8723C36.6123 69.9652 38.6255 75.5853 42.0144 80.0849ZM65.0363 10.1381C65.0363 11.2777 64.1238 12.2026 63 12.2026C61.8762 12.2026 60.9637 11.2777 60.9637 10.1381V2.06452C60.9637 0.925161 61.8762 0 63 0C64.1238 0 65.0363 0.925161 65.0363 2.06452V10.1381ZM26.9629 24.4168C27.7576 25.2225 27.7576 26.5306 26.9629 27.3363C26.1683 28.1419 24.878 28.1419 24.0833 27.3363L18.4524 21.6274C17.6575 20.8217 17.6575 19.5135 18.4524 18.7079C19.2471 17.9019 20.5373 17.9019 21.332 18.7079L26.9629 24.4168ZM9.99962 61.8077C11.1237 61.8077 12.0359 62.7329 12.0359 63.8723C12.0359 65.0116 11.1237 65.9368 9.99962 65.9368H2.03632C0.912527 65.9368 0 65.0116 0 63.8723C0 62.7329 0.912527 61.8077 2.03632 61.8077H9.99962ZM24.0833 100.408C24.878 99.6023 26.1683 99.6023 26.9629 100.408C27.7576 101.214 27.7576 102.522 26.9629 103.328L21.332 109.037C20.5373 109.842 19.2471 109.842 18.4524 109.037C17.6575 108.231 17.6575 106.923 18.4524 106.117L24.0833 100.408ZM101.917 27.3363C101.122 28.1419 99.8317 28.1419 99.037 27.3363C98.2424 26.5306 98.2424 25.2225 99.037 24.4168L104.668 18.7079C105.463 17.9019 106.753 17.9019 107.548 18.7079C108.343 19.5135 108.343 20.8217 107.548 21.6274L101.917 27.3363ZM116 65.9368C114.876 65.9368 113.964 65.0116 113.964 63.8723C113.964 62.7329 114.876 61.8077 116 61.8077H123.964C125.087 61.8077 126 62.7329 126 63.8723C126 65.0116 125.087 65.9368 123.964 65.9368H116ZM99.037 103.328C98.2424 102.522 98.2424 101.214 99.037 100.408C99.8317 99.6023 101.122 99.6023 101.917 100.408L107.548 106.117C108.343 106.923 108.343 108.231 107.548 109.037C106.753 109.842 105.463 109.842 104.668 109.037L99.037 103.328Z" fill="white"/>
</svg>
