<svg width="145" height="140" viewBox="0 0 145 140" fill="none" xmlns="http://www.w3.org/2000/svg">
<path d="M49.8869 52.6448L44.4695 57.3553C43.1396 58.5114 42.3956 60.1871 42.4282 61.9524C42.4607 63.7176 43.2659 65.3644 44.6375 66.4707L56.4426 75.9928C57.5009 76.8463 58.8135 77.3026 60.1531 77.3026C60.4813 77.3026 60.8116 77.2753 61.1398 77.2196C62.807 76.9363 64.2768 75.9484 65.1723 74.5099L69.5374 67.4967C80.4065 68.5539 89.4608 66.0585 96.4724 60.0669C108.606 49.6982 110.552 32.2833 110.852 27.9464L115.608 21.9254C116.096 21.3077 116.306 20.5147 116.189 19.7356C116.071 18.9566 115.636 18.2616 114.988 17.8164L107.238 12.4925C103.069 9.64677 98.8593 8.79639 94.7245 9.9647C86.6815 12.2377 82.0763 21.5799 81.5016 22.8078L81.2629 23.2388C75.2136 18.4329 69.5442 11.4612 64.7433 2.89065C63.7328 1.08648 61.8974 0.00596639 59.8336 0.000283965C59.8283 0.000283965 59.8232 0 59.8178 0C57.7801 0 55.8889 1.10353 54.8795 2.88213C52.1783 7.64229 50.4953 12.3959 49.8408 17.0723C47.8583 15.6903 46.1271 14.3583 44.706 13.2003C43.1461 11.9291 41.0863 11.5802 39.1962 12.2678C37.3138 12.952 35.9609 14.5359 35.5769 16.5043C32.6335 31.5968 37.7471 41.1788 42.5553 46.5589C45.0713 49.3746 47.7552 51.3472 49.8869 52.6448ZM59.8186 5.69862C65.1058 15.1309 71.4431 22.8172 78.2615 28.0979C73.2159 27.9195 67.8016 26.5702 62.135 24.0702C59.6799 22.9868 57.3618 21.7697 55.2132 20.5124C55.3967 15.729 56.9328 10.7563 59.8186 5.69862ZM41.1328 17.6104C41.1331 17.6104 41.1334 17.6107 41.1339 17.6107C43.5751 19.6001 46.8745 22.0688 50.7921 24.4793C50.7966 24.4822 50.8014 24.4847 50.8056 24.4878C53.5454 26.173 56.5844 27.8291 59.8543 29.2722C67.0055 32.427 73.8846 33.9536 80.2989 33.7934C81.3025 33.7692 82.2184 33.2135 82.7061 32.3327C82.7061 32.3327 87.6005 23.1022 89.3711 20.7832C90.8853 18.8 93.3121 16.2614 96.2744 15.4303C98.7525 14.7359 101.296 15.3107 104.044 17.1862L109.282 20.7843L105.853 25.1251C105.474 25.6044 105.26 26.194 105.242 26.8051C105.236 26.9929 104.549 45.7006 92.7995 55.7412C86.6696 60.9798 78.4767 62.9701 68.4487 61.654C67.3479 61.5097 66.2669 62.0228 65.6793 62.9664L60.3678 71.5002C60.3528 71.5244 60.3072 71.598 60.1939 71.617C60.0815 71.6358 60.0138 71.5818 59.9917 71.5639L48.1866 62.0421C48.1633 62.0237 48.0934 61.9668 48.0914 61.8472C48.0894 61.7276 48.1571 61.6685 48.1795 61.6492L56.775 54.1754C57.5306 53.5185 57.8801 52.5087 57.7022 51.5217C57.5247 50.5344 56.8365 49.713 55.8997 49.3624C55.1019 49.0643 36.433 41.7829 41.1328 17.6104Z" fill="#1D264D"/>
<path d="M137.111 45.8288C134.562 45.3041 129.121 45.97 126.442 52.2258C126.424 52.2682 126.406 52.3113 126.39 52.3545L118.112 74.6257C116.696 73.7912 115.081 73.3448 113.396 73.3448C111.605 73.3448 109.862 73.8594 108.359 74.8302L87.1302 88.5002C79.0761 93.4211 74.7853 99.8826 72.5001 105.345C70.215 99.8826 65.9241 93.4211 57.8701 88.5002L36.645 74.8328C35.1386 73.8594 33.3955 73.3451 31.604 73.3451C29.92 73.3451 28.3035 73.7898 26.8878 74.6245L18.6102 52.3548C18.5941 52.3116 18.5768 52.2684 18.5587 52.2261C15.8796 45.9703 10.4364 45.3046 7.88925 45.8291C2.7185 46.7963 -0.56384 51.2652 0.0804505 56.4697C0.0943276 56.5828 0.115285 56.6951 0.142756 56.8056L9.11071 92.9736C11.4905 102.52 17.9577 112.151 26.4106 118.735C26.4397 118.758 26.4695 118.78 26.4995 118.802L40.8092 129.074V134.171C40.8092 137.304 43.3502 139.853 46.4733 139.853H98.5269C101.65 139.853 104.191 137.304 104.191 134.171V129.074L118.501 118.802C118.531 118.78 118.56 118.758 118.589 118.735C127.042 112.152 133.509 102.521 135.89 92.9705L137.17 87.81C137.548 86.2874 136.623 84.7458 135.106 84.367C133.589 83.9883 132.052 84.9157 131.674 86.4383L130.395 91.5951C128.347 99.8085 122.511 108.47 115.159 114.214L99.7107 125.302C98.9676 125.836 98.5266 126.696 98.5266 127.613V134.171H75.3749C75.3749 134.171 75.371 120.359 75.3645 120.28C75.3608 120.236 75.0204 115.876 76.6975 110.382C78.9054 103.149 83.4154 97.4147 90.1021 93.3376C90.122 93.3254 111.422 79.61 111.422 79.61C112.012 79.2287 112.694 79.0273 113.396 79.0273C114.376 79.0273 115.299 79.4114 115.992 80.1072C117.344 81.4647 117.411 83.6738 116.173 85.1112L102.04 96.2936C100.811 97.2653 100.601 99.0518 101.57 100.284C102.538 101.516 104.319 101.727 105.547 100.755C105.547 100.755 120.067 89.2542 120.16 89.1565C122.64 86.5409 123.333 82.9132 122.259 79.7316L131.671 54.4099C133.091 51.1607 135.449 51.3166 135.992 51.4007C136.024 51.4087 135.998 51.4016 136.054 51.4118C138.251 51.815 139.517 53.4578 139.316 55.6185L137.812 61.6814C137.435 63.204 138.359 64.7456 139.877 65.1244C141.394 65.5042 142.931 64.576 143.309 63.0531L144.858 56.8059C144.885 56.6951 144.906 56.5831 144.92 56.47C145.564 51.2655 142.282 46.7966 137.111 45.8288ZM69.6367 120.27C69.629 120.356 69.625 134.171 69.625 134.171H46.4736V127.613C46.4736 126.696 46.0327 125.836 45.2895 125.302L29.8413 114.214C22.4887 108.47 16.653 99.8085 14.6066 91.5988L5.68507 55.618C5.48315 53.4575 6.74964 51.8147 8.94674 51.4115C8.97449 51.4061 9.00196 51.401 9.02944 51.3948C9.1413 51.3715 11.7737 50.8507 13.3293 54.4093L22.7397 79.7268C21.6652 82.9086 22.3593 86.5391 24.8402 89.1556C24.9331 89.2536 39.4535 100.755 39.4535 100.755C40.6815 101.727 42.4623 101.515 43.4309 100.283C44.3994 99.051 44.189 97.2647 42.9608 96.293L28.8274 85.1106C27.5893 83.6726 27.6561 81.4642 29.0064 80.1078C29.7014 79.4108 30.6238 79.0267 31.604 79.0267C32.3055 79.0267 32.9883 79.2281 33.5819 79.612C33.5819 79.612 54.878 93.3251 54.8978 93.337C61.5846 97.4147 66.0946 103.149 68.3022 110.382C69.9796 115.876 69.6395 120.236 69.6367 120.27Z" fill="#1D264D"/>
<path d="M97.3147 25.7156C98.8788 25.7156 100.147 24.4436 100.147 22.8744C100.147 21.3053 98.8788 20.0332 97.3147 20.0332C95.7506 20.0332 94.4827 21.3053 94.4827 22.8744C94.4827 24.4436 95.7506 25.7156 97.3147 25.7156Z" fill="#1D264D"/>
<path d="M137.459 77.5806C139.023 77.5806 140.291 76.3086 140.291 74.7394C140.291 73.1702 139.023 71.8982 137.459 71.8982C135.895 71.8982 134.627 73.1702 134.627 74.7394C134.627 76.3086 135.895 77.5806 137.459 77.5806Z" fill="#1D264D"/>
</svg>
