<svg width="122" height="122" viewBox="0 0 122 122" fill="none" xmlns="http://www.w3.org/2000/svg">
<path d="M1.63175 32.0707L2.34088 33.6873L23.4507 72.6968L44.5872 33.6339L45.2277 32.1775C45.5479 31.3807 45.8224 30.5648 46.055 29.7299C46.6078 27.7321 46.9052 25.6314 46.9052 23.4583C46.909 10.4996 36.4056 0 23.4545 0C10.5034 0 0 10.4996 0 23.4545C0 25.6276 0.297375 27.7283 0.850188 29.7261C1.07131 30.5229 1.33056 31.3044 1.63175 32.0707ZM23.4545 3.8125C34.2858 3.8125 43.0965 12.6232 43.0965 23.4545C43.0965 25.2349 42.8563 27.0039 42.3874 28.7081C42.1968 29.402 41.9642 30.0883 41.7469 30.6373L41.1674 31.9526L23.4545 64.6829L5.76831 32.0059L5.17738 30.6677C4.92956 30.0349 4.70844 29.3753 4.52162 28.7081C4.05269 27.0039 3.8125 25.2349 3.8125 23.4545C3.8125 12.6232 12.6232 3.8125 23.4545 3.8125Z" fill="#1D264D"/>
<path d="M23.4547 33.6188C29.1849 33.6188 33.8323 28.9713 33.8323 23.2412C33.8323 17.511 29.1849 12.8635 23.4547 12.8635C17.7245 12.8635 13.077 17.511 13.077 23.2412C13.077 28.9713 17.7245 33.6188 23.4547 33.6188ZM23.4547 16.676C27.0727 16.676 30.0198 19.6193 30.0198 23.2412C30.0198 26.863 27.0727 29.8063 23.4547 29.8063C19.8366 29.8063 16.8895 26.863 16.8895 23.2412C16.8895 19.6193 19.8328 16.676 23.4547 16.676Z" fill="#1D264D"/>
<path d="M75.0908 72.7616C75.0908 74.9348 75.3882 77.0354 75.941 79.0332C76.1621 79.8338 76.4252 80.6154 76.7264 81.3779L77.4355 82.9944L82.0486 91.5191L82.6319 94.9809C83.017 94.9161 83.4135 94.836 83.8062 94.7636L98.5453 122L119.682 82.9372L120.322 81.4808C120.643 80.684 120.917 79.8681 121.15 79.0332C121.702 77.0354 122 74.9309 122 72.7616C122 59.8068 111.5 49.3071 98.5453 49.3071C85.5943 49.3071 75.0908 59.8068 75.0908 72.7616ZM118.187 72.7616C118.187 74.5421 117.947 76.3111 117.478 78.0153C117.288 78.7091 117.055 79.3954 116.838 79.9444L116.258 81.2597L98.5453 113.99L80.8591 81.3131L80.2682 79.9749C80.0204 79.342 79.7993 78.6824 79.6124 78.0153C79.1397 76.3111 78.9033 74.5421 78.9033 72.7616C78.9033 61.9303 87.714 53.1196 98.5453 53.1196C109.377 53.1196 118.187 61.9303 118.187 72.7616Z" fill="#1D264D"/>
<path d="M88.1681 72.548C88.1681 78.2782 92.8156 82.9257 98.5457 82.9257C104.276 82.9257 108.923 78.2782 108.923 72.548C108.923 66.8178 104.276 62.1704 98.5457 62.1704C92.8156 62.1704 88.1681 66.8178 88.1681 72.548ZM105.111 72.548C105.111 76.1661 102.168 79.1132 98.5457 79.1132C94.9277 79.1132 91.9806 76.1699 91.9806 72.548C91.9806 68.9262 94.9239 65.9829 98.5457 65.9829C102.168 65.9829 105.111 68.9262 105.111 72.548Z" fill="#1D264D"/>
<path d="M66.7416 91.5798L66.0858 95.3313C67.3897 95.5639 68.7736 95.724 70.2376 95.8079L70.4626 92.003C69.1549 91.923 67.9082 91.7781 66.7416 91.5798Z" fill="#1D264D"/>
<path d="M57.1261 87.1691C56.2988 86.3494 55.6125 85.4421 55.0826 84.4661L51.7314 86.2846C52.4405 87.5923 53.3517 88.8009 54.4459 89.8798L57.1261 87.1691Z" fill="#1D264D"/>
<path d="M45.2159 39.8405C46.2643 40.3362 47.4081 40.9271 48.5633 41.6172L50.5153 38.3422C49.2495 37.5874 48.0028 36.943 46.8476 36.394L45.2159 39.8405Z" fill="#1D264D"/>
<path d="M78.0645 91.771C76.7415 91.9159 75.472 92.0074 74.252 92.0417L74.3778 95.8542C75.6893 95.8084 77.0541 95.7131 78.4724 95.5606L78.0645 91.771Z" fill="#1D264D"/>
<path d="M58.9106 64.0157L55.6357 62.0637L55.201 62.7728C54.6063 63.7031 54.0611 64.6257 53.5693 65.5445L56.9205 67.3555C57.3742 66.5205 57.8736 65.6818 58.4226 64.8202L58.9106 64.0157Z" fill="#1D264D"/>
<path d="M49.8677 77.6377L49.8486 78.4993C49.8486 79.7231 49.9668 80.9203 50.2032 82.0488L53.9356 81.2748C53.7564 80.4018 53.6649 79.4677 53.6649 78.4993L53.684 77.8016L49.8677 77.6377Z" fill="#1D264D"/>
<path d="M63.1815 90.6918C61.9843 90.2877 60.8787 89.7997 59.9027 89.2393L58.0117 92.5447C59.2012 93.2309 60.5318 93.8181 61.9615 94.3023L63.1815 90.6918Z" fill="#1D264D"/>
<path d="M54.1947 74.2406C54.4654 73.1045 54.8429 71.9303 55.3194 70.7446L51.7814 69.3225C51.2324 70.6798 50.7978 72.0408 50.4852 73.3638L54.1947 74.2406Z" fill="#1D264D"/>
<path d="M51.6592 43.7027C52.6847 44.4957 53.5959 45.3192 54.3699 46.1503L57.1606 43.5502C56.2456 42.5666 55.1743 41.602 53.9886 40.687L51.6592 43.7027Z" fill="#1D264D"/>
<path d="M56.4893 48.9677C57.0726 49.9894 57.4996 51.0455 57.7474 52.113L61.4646 51.2476C61.1291 49.8102 60.5686 48.4034 59.7909 47.0576L56.4893 48.9677Z" fill="#1D264D"/>
<path d="M57.1953 58.8191L60.7753 60.1306C61.309 58.6742 61.6407 57.214 61.7665 55.7881L57.9693 55.4526C57.8739 56.5468 57.6109 57.6791 57.1953 58.8191Z" fill="#1D264D"/>
</svg>
