<svg width="100" height="100" viewBox="0 0 100 100" fill="none" xmlns="http://www.w3.org/2000/svg">
<path d="M26.5615 48.9671C26.5615 50.6169 27.0507 52.2296 27.9673 53.6013C28.8838 54.973 30.1865 56.0421 31.7107 56.6734C33.2348 57.3047 34.9119 57.4699 36.53 57.1481C38.148 56.8262 39.6343 56.0318 40.8008 54.8653C41.9673 53.6988 42.7618 52.2125 43.0836 50.5945C43.4055 48.9764 43.2403 47.2993 42.609 45.7752C41.9777 44.251 40.9085 42.9483 39.5368 42.0317C38.1651 41.1152 36.5525 40.626 34.9027 40.626C33.8074 40.626 32.7227 40.8417 31.7107 41.2609C30.6987 41.6801 29.7792 42.2945 29.0046 43.069C28.2301 43.8436 27.6157 44.7631 27.1965 45.7751C26.7773 46.7871 26.5615 47.8718 26.5615 48.9671ZM40.1189 48.9671C40.1189 49.9988 39.8129 51.0073 39.2398 51.8651C38.6666 52.7229 37.852 53.3914 36.8989 53.7862C35.9457 54.181 34.8969 54.2843 33.8851 54.0831C32.8733 53.8818 31.9439 53.385 31.2144 52.6555C30.4849 51.926 29.9881 50.9966 29.7868 49.9848C29.5855 48.973 29.6888 47.9242 30.0836 46.971C30.4784 46.0179 31.147 45.2033 32.0048 44.6301C32.8626 44.0569 33.8711 43.751 34.9027 43.751C36.2857 43.7526 37.6115 44.3027 38.5893 45.2805C39.5672 46.2584 40.1173 47.5842 40.1189 48.9671Z" fill="#1D264D"/>
<path d="M34.9033 50.4843C35.7409 50.4843 36.4199 49.8053 36.4199 48.9678C36.4199 48.1302 35.7409 47.4512 34.9033 47.4512C34.0657 47.4512 33.3867 48.1302 33.3867 48.9678C33.3867 49.8053 34.0657 50.4843 34.9033 50.4843Z" fill="#1D264D"/>
<path d="M62.9609 50.4843C63.7985 50.4843 64.4775 49.8053 64.4775 48.9678C64.4775 48.1302 63.7985 47.4512 62.9609 47.4512C62.1233 47.4512 61.4443 48.1302 61.4443 48.9678C61.4443 49.8053 62.1233 50.4843 62.9609 50.4843Z" fill="#1D264D"/>
<path d="M55.4686 49.2196C55.4686 50.9193 55.9726 52.5809 56.9169 53.9941C57.8612 55.4074 59.2034 56.5089 60.7738 57.1594C62.3441 57.8098 64.072 57.98 65.7391 57.6484C67.4061 57.3168 68.9374 56.4983 70.1393 55.2964C71.3412 54.0946 72.1597 52.5633 72.4913 50.8962C72.8229 49.2292 72.6527 47.5012 72.0022 45.9309C71.3518 44.3606 70.2503 43.0184 68.837 42.0741C67.4237 41.1298 65.7622 40.6257 64.0625 40.6257C61.7833 40.6257 59.5974 41.5312 57.9857 43.1428C56.374 44.7545 55.4686 46.9404 55.4686 49.2196ZM69.5313 49.2196C69.5313 50.3013 69.2106 51.3586 68.6097 52.258C68.0087 53.1573 67.1546 53.8583 66.1553 54.2722C65.156 54.6861 64.0564 54.7944 62.9956 54.5834C61.9347 54.3724 60.9603 53.8515 60.1954 53.0867C59.4306 52.3219 58.9098 51.3474 58.6987 50.2865C58.4877 49.2257 58.596 48.1261 59.0099 47.1268C59.4239 46.1275 60.1248 45.2734 61.0242 44.6725C61.9235 44.0715 62.9809 43.7508 64.0625 43.7508C65.5124 43.7524 66.9025 44.3291 67.9277 45.3544C68.953 46.3796 69.5297 47.7697 69.5313 49.2196Z" fill="#1D264D"/>
<path d="M74.6964 74.5101C74.7974 74.5259 74.8964 74.5494 74.9965 74.5691C79.3036 66.9752 83.0447 56.4629 85.1418 41.9146C85.1854 41.5762 85.1167 41.2329 84.9461 40.9374C84.7756 40.6418 84.5127 40.4105 84.1979 40.2789C79.1806 38.076 58.5245 28.1629 51.5973 11.5105C51.0058 10.0879 50.4749 9.375 49.9562 9.375C49.4326 9.375 48.9215 10.101 48.3725 11.5565C45.4995 19.1751 36.7848 32.9902 15.9287 40.3428C15.5949 40.4499 15.307 40.6664 15.1113 40.9572C14.9156 41.248 14.8237 41.5963 14.8502 41.9458C15.7687 51.1705 17.8738 60.2381 21.1132 68.924L22.9844 68.9395C23.3179 68.5137 23.6606 68.1147 24.0088 67.7338C21.0284 59.7234 19.041 51.3778 18.091 42.8839C38.1109 35.4622 46.7672 22.3344 50.0438 15.5565C57.7986 30.4469 75.0683 39.5421 81.8719 42.6601C79.9773 55.0599 76.8724 64.2505 73.3409 71.0658C74.0649 72.0872 74.5301 73.2692 74.6964 74.5101Z" fill="#1D264D"/>
<path d="M99.8878 61.7698C99.7241 60.3934 99.4853 59.0269 99.1726 57.6765C98.3993 54.1052 97.4405 49.0216 97.5078 46.0031C97.5078 46.0031 94.6256 4.58873 53.7325 0.225214C52.437 0.080582 51.1347 0.00541061 49.8312 2.29317e-05C48.6402 -0.00150888 47.4503 0.0737029 46.269 0.225191C5.37523 4.5887 2.49236 46.0031 2.49236 46.0031C2.56033 49.0216 1.60152 54.1051 0.827599 57.6764C0.515377 59.0269 0.276825 60.3934 0.113001 61.7698C-0.010892 62.903 -0.0329624 64.045 0.0470541 65.1822C0.332733 70.1356 1.37046 75.0167 3.12461 79.6579V73.4388C3.12435 72.4262 3.37179 71.429 3.84537 70.534C3.52405 68.6883 3.29667 66.8275 3.16411 64.9587C3.09766 64.0056 3.11659 63.0485 3.22066 62.0988C3.37311 60.8343 3.5938 59.5789 3.88176 58.3383C5.0662 52.8728 5.65054 48.7599 5.61963 46.1075C6.43998 39.0818 8.57168 32.2725 11.904 26.0331C19.1372 12.655 30.8108 5.01744 46.6006 3.3326L46.6342 3.32903L46.6678 3.32469C47.7169 3.19006 48.7735 3.12338 49.8312 3.12508C51.024 3.13057 52.2156 3.19984 53.4009 3.3326C69.1904 5.01745 80.8637 12.655 88.0965 26.0331C91.4287 32.2723 93.5603 39.0814 94.3806 46.1069C94.3501 48.757 94.9344 52.8702 96.1189 58.3403C96.4072 59.5802 96.628 60.8348 96.7801 62.0986C96.8842 63.0477 96.9032 64.0042 96.8369 64.9567C95.5546 82.6857 87.2357 93.0939 72.0782 96.0171C71.1134 96.4429 70.0715 96.6661 69.017 96.673L68.3043 96.6763C68.0462 97.8333 67.5309 98.9174 66.7965 99.848C80.9188 98.8264 98.0011 92.1807 99.9538 65.1822C100.034 64.0451 100.012 62.903 99.8878 61.7698Z" fill="#1D264D"/>
<path d="M68.9998 93.5478C70.2431 93.531 71.4309 93.0298 72.3103 92.1509C73.1898 91.2719 73.6917 90.0845 73.7092 88.8412C73.7143 88.196 73.5956 87.5558 73.3594 86.9554L73.4158 86.9551C74.6594 86.9391 75.8476 86.438 76.7272 85.5587C77.6068 84.6794 78.1083 83.4913 78.1248 82.2477C78.136 81.6264 78.0223 81.0092 77.7904 80.4327C77.5586 79.8561 77.2133 79.3321 76.7751 78.8915C76.3466 78.4531 75.8335 78.1065 75.2669 77.8725C74.7003 77.6385 74.0921 77.5221 73.4791 77.5304L71.2615 77.5404C71.5104 76.9409 71.6431 76.2995 71.6526 75.6505C71.6638 75.0297 71.5504 74.4131 71.3191 73.837C71.0877 73.2609 70.7431 72.737 70.3056 72.2965C69.8776 71.8623 69.3673 71.5179 68.8044 71.2835C68.2416 71.0492 67.6377 70.9295 67.028 70.9316H67.0089L50.0786 71.0079L55.4731 67.1359C56.0426 66.7463 56.5197 66.2365 56.8709 65.6426C57.2221 65.0486 57.4387 64.3848 57.5056 63.698C57.6009 62.9167 57.5286 62.124 57.2935 61.3728C57.0584 60.6217 56.6659 59.9292 56.1422 59.3416C52.9012 55.8259 48.3055 59.2996 46.574 60.6073C44.2656 62.3643 41.5365 63.4847 38.6595 63.8567C35.3384 64.4443 29.1558 65.5383 24.8684 71.6434C24.6722 71.881 24.3944 72.0366 24.0894 72.0798L18.3992 72.03C18.1407 71.5152 17.7444 71.0822 17.2545 70.7791C16.7645 70.4761 16.2001 70.315 15.6241 70.3136H9.37396C8.54514 70.3136 7.75027 70.6429 7.16421 71.2289C6.57815 71.815 6.2489 72.6099 6.2489 73.4387V92.189C6.2489 93.0178 6.57815 93.8127 7.16421 94.3987C7.75027 94.9848 8.54514 95.314 9.37396 95.314H15.6241C16.1796 95.3126 16.7247 95.1625 17.2026 94.8793C17.6806 94.596 18.0739 94.1899 18.3419 93.7033L24.1413 93.66C24.6319 93.7011 25.1001 93.8837 25.489 94.1856C28.0824 96.6752 31.2769 98.4499 34.7608 99.3363C37.0798 99.8198 39.4455 100.043 41.8139 100.002C43.0617 100.002 60.6535 99.7567 60.6535 99.7567C61.3971 99.7495 62.1286 99.568 62.7893 99.2268C63.45 98.8857 64.0215 98.3944 64.458 97.7923C64.8944 97.1903 65.1836 96.4943 65.3024 95.7603C65.4212 95.0262 65.3661 94.2746 65.1418 93.5656L68.9998 93.5478ZM15.6241 92.189H9.37396V73.4387H15.6241V92.189ZM60.6379 96.6317C60.6379 96.6317 46.5011 96.7682 45.4326 96.801C41.9482 96.9101 38.6534 97.0116 35.4486 96.2876C32.4911 95.5171 29.783 93.9951 27.5872 91.8693C26.6048 91.0302 25.361 90.5589 24.0692 90.5364L18.7491 90.5756V75.155L23.8723 75.1973C24.5627 75.214 25.2467 75.0627 25.8656 74.7565C26.4846 74.4503 27.0198 73.9983 27.4254 73.4394C30.6973 68.7808 35.2209 67.6387 39.2058 66.9337C42.5699 66.4787 45.7582 65.1579 48.4585 63.1007C52.0322 60.3998 53.1583 60.7149 53.8423 61.458C54.0596 61.715 54.2215 62.014 54.3179 62.3365C54.4142 62.6589 54.443 62.9978 54.4023 63.3318C54.3823 63.578 54.308 63.8168 54.1848 64.0309C54.0616 64.245 53.8925 64.4291 53.6897 64.5701L45.9377 70.1336C44.4751 71.1834 44.643 72.2996 44.783 72.7307C44.9226 73.1595 45.4674 74.1765 47.2153 74.146L67.0219 74.0566C67.2199 74.0524 67.4167 74.0893 67.5997 74.1649C67.7828 74.2405 67.9482 74.3533 68.0854 74.4961C68.2301 74.6429 68.3438 74.8173 68.4198 75.0089C68.4957 75.2006 68.5324 75.4055 68.5276 75.6115C68.5282 76.0639 68.3752 76.503 68.0935 76.857C67.8119 77.2109 67.4184 77.4587 66.9775 77.5597L47.7512 77.6463C47.3368 77.6472 46.9398 77.8127 46.6474 78.1064C46.355 78.4001 46.1912 78.7979 46.1921 79.2123C46.1931 79.6267 46.3586 80.0238 46.6522 80.3162C46.9459 80.6085 47.3437 80.7723 47.7581 80.7714H47.765L73.4944 80.6554H73.5024C73.6984 80.6545 73.8926 80.6927 74.0737 80.7677C74.2547 80.8428 74.419 80.9532 74.5568 81.0926C74.7016 81.2395 74.8154 81.414 74.8915 81.6058C74.9676 81.7975 75.0043 82.0026 74.9997 82.2088C74.997 82.6341 74.8284 83.0415 74.5298 83.3443C74.2312 83.6472 73.8261 83.8214 73.4009 83.8301L47.6715 83.9483C47.4663 83.9488 47.2632 83.9897 47.0738 84.0687C46.8844 84.1476 46.7124 84.2631 46.5677 84.4086C46.2753 84.7023 46.1116 85.1001 46.1126 85.5145C46.1135 85.9289 46.2791 86.326 46.5728 86.6183C46.8665 86.9107 47.2643 87.0744 47.6787 87.0734H47.686L69.2766 86.9742C69.5472 87.0384 69.7942 87.1778 69.989 87.3763C70.3644 87.7567 70.5777 88.2678 70.5841 88.8023C70.5809 89.2275 70.4119 89.6347 70.1132 89.9373C69.8144 90.24 69.4094 90.4141 68.9842 90.4228L47.5925 90.3915C47.1781 90.3925 46.7811 90.558 46.4887 90.8517C46.1964 91.1454 46.0327 91.5433 46.0336 91.9577C46.0346 92.3721 46.2001 92.7691 46.4938 93.0615C46.7876 93.3538 47.1854 93.5175 47.5998 93.5166H47.607L60.7313 93.4555C60.9295 93.446 61.1273 93.4803 61.3107 93.556C61.4941 93.6317 61.6585 93.7469 61.7922 93.8935C61.9374 94.0403 62.0517 94.2147 62.1283 94.4064C62.2049 94.5981 62.2422 94.8033 62.2382 95.0097C62.2352 95.4352 62.0664 95.8428 61.7675 96.1457C61.4686 96.4487 61.0633 96.623 60.6379 96.6317Z" fill="#1D264D"/>
</svg>
