<svg width="117" height="99" viewBox="0 0 117 99" fill="none" xmlns="http://www.w3.org/2000/svg">
<path d="M114.747 60.7644L110.667 56.6784C109.216 55.2226 107.281 54.4206 105.22 54.4206C103.902 54.4206 102.637 54.75 101.516 55.367L93.828 47.6547L94.2025 47.279C97.3214 44.1403 97.3203 39.04 94.2023 35.9118C93.088 34.7906 91.6977 34.043 90.1821 33.7284C90.3908 33.005 90.5007 32.2473 90.5007 31.4718C90.5007 29.3172 89.6673 27.2969 88.1589 25.7881C87.0444 24.6669 85.6543 23.9193 84.1387 23.6047C84.3474 22.8813 84.4573 22.1238 84.4573 21.3481C84.4573 19.1932 83.6239 17.1731 82.1129 15.662C80.9719 14.5174 79.5691 13.7928 78.0962 13.4844C78.8842 10.7559 78.2109 7.68599 76.0737 5.53577C74.2946 3.75658 71.8806 2.99194 69.5542 3.23976L54.3196 0.343542C51.9961 -0.0991244 49.0946 -0.391854 47.263 1.28599C47.1475 1.39194 47.0296 1.51377 46.9136 1.64943C44.0737 0.609787 40.7615 1.22887 38.4873 3.51038C36.9787 5.02378 36.1476 7.04318 36.1476 9.19663C36.1476 9.97233 36.257 10.7298 36.4654 11.4535C34.9515 11.7679 33.563 12.5146 32.4524 13.632C30.9408 15.1441 30.1072 17.1612 30.1056 19.3121C30.1049 20.0896 30.2147 20.8497 30.4243 21.5752C28.9097 21.8888 27.5203 22.6341 26.4062 23.7516C24.8946 25.2683 24.0622 27.2888 24.0622 29.4411C24.0622 31.0897 24.5522 32.6602 25.4603 33.9868C24.3137 34.3772 23.2635 35.0269 22.384 35.9093C19.263 39.04 19.2619 44.1405 22.3861 47.2839L22.7592 47.657L15.0702 55.3654C12.2127 54.0141 8.69201 54.5204 6.33395 56.8857L2.25166 60.9743C0.799627 62.4308 0.000229316 64.3737 0 66.4449C0 68.5164 0.799627 70.4596 2.25166 71.9163L7.34638 77.027C8.24874 77.9324 9.71109 77.9315 10.6123 77.0252C11.5138 76.1189 11.5128 74.6502 10.6105 73.745L5.51575 68.6343C4.93741 68.0542 4.61889 67.2766 4.61889 66.4452C4.61889 65.614 4.93741 64.8367 5.51437 64.2579L9.59689 60.1691C10.6169 59.1458 12.1781 58.9933 13.3636 59.7052C13.4471 59.8312 13.5437 59.951 13.6542 60.0622C13.8521 60.2614 14.078 60.4141 14.3178 60.5258L37.7294 84.0049C37.8407 84.2483 37.9934 84.4775 38.1927 84.6778C38.3867 84.8729 38.608 85.0238 38.8428 85.1348C39.3379 85.697 39.6114 86.4151 39.6114 87.1811C39.6114 88.0126 39.2929 88.7899 38.7146 89.3701L34.6362 93.4614C33.4311 94.6664 31.4709 94.6662 30.2695 93.4651L25.1748 88.3477C24.2729 87.4419 22.8108 87.4419 21.9089 88.3477C21.007 89.2535 21.007 90.722 21.9089 91.6278L27.0073 96.7489C28.5079 98.2499 30.4787 99 32.4503 99C34.4225 99 36.3955 98.2487 37.898 96.7464L41.9789 92.6525C43.4309 91.1958 44.2306 89.2528 44.2306 87.1811C44.2306 85.7028 43.8212 84.2909 43.0601 83.0735L51.7136 74.3929C51.7228 74.3834 51.732 74.374 51.7414 74.3646C52.7322 73.3357 55.4916 73.5283 58.1602 73.7144C60.0561 73.8468 62.17 73.994 64.2352 73.7549L73.7115 83.2612C73.0976 84.3853 72.7699 85.6544 72.7699 86.9759C72.7699 89.0453 73.5695 90.9871 75.0216 92.4438L79.1027 96.5377C80.5538 97.9935 82.4881 98.7955 84.5492 98.7955C86.6101 98.7955 88.5444 97.9938 89.9957 96.5377L114.748 71.7074C116.2 70.2509 117 68.308 117 66.2365C117 64.1653 116.2 62.2223 114.747 60.7644ZM53.4596 4.90148L63.4778 6.80596L57.4814 12.8262C56.5538 12.3784 55.2825 11.5433 53.8878 10.2033C51.9787 8.36911 50.6131 6.25136 50.4888 4.9305C50.4886 4.92981 50.4886 4.92912 50.4886 4.92843C50.4886 4.9282 50.4884 4.92797 50.4884 4.92774C50.4794 4.83285 50.4771 4.75707 50.4783 4.69926C50.7803 4.62556 51.5824 4.5438 53.4596 4.90148ZM41.7512 6.7926C42.9212 5.61868 44.7387 5.48326 46.0607 6.38241C46.8099 9.53727 49.4895 12.3966 50.695 13.5551C51.5884 14.4137 54.4551 16.988 57.3486 17.6955C57.7401 18.2591 57.9531 18.9309 57.9531 19.6398C57.9531 20.553 57.6034 21.4068 56.9661 22.0461C56.3307 22.6855 55.4792 23.0374 54.5684 23.0374C53.6573 23.0374 52.8058 22.6855 52.1674 22.0432L52.1672 22.0429L52.1661 22.0418L41.751 11.6002C41.116 10.9634 40.7663 10.1096 40.7663 9.19663C40.7665 8.28343 41.1162 7.42965 41.7512 6.7926ZM35.7165 16.9143C36.3519 16.2751 37.2025 15.923 38.1119 15.923C39.0226 15.923 39.8758 16.2758 40.5154 16.9175L48.902 25.3238C50.2226 26.6522 50.2226 28.814 48.9065 30.1378C48.2677 30.7769 47.4132 31.1289 46.5008 31.1289C45.5883 31.1289 44.7339 30.7769 44.0978 30.1406L44.0976 30.1403L37.7352 23.7516C37.7253 23.7417 37.7145 23.7325 37.7044 23.7224L35.714 21.7242C35.0753 21.0834 34.7238 20.228 34.7245 19.3155C34.7254 18.406 35.0758 17.555 35.7165 16.9143ZM29.6703 27.0339C30.3062 26.3961 31.1586 26.0449 32.0708 26.0449C32.9755 26.0449 33.8205 26.391 34.4537 27.0177L40.8355 33.4244C41.4719 34.061 41.8225 34.9139 41.8225 35.8259C41.8225 36.7377 41.4719 37.5906 40.833 38.2297C40.1973 38.8672 39.3459 39.2185 38.4353 39.2185C37.5233 39.2185 36.6691 38.8663 36.0325 38.2297L33.7189 35.9088C33.7185 35.9081 33.7178 35.9077 33.7173 35.9072L29.6706 31.8477C29.0326 31.2076 28.6813 30.3527 28.6813 29.4407C28.6813 28.5288 29.0326 27.6737 29.6703 27.0339ZM25.6481 39.1913C26.2868 38.5505 27.1403 38.1977 28.0514 38.1977C28.9622 38.1977 29.8155 38.5503 30.4539 39.1906L32.7707 41.5147C33.4073 42.1513 33.7577 43.0041 33.7577 43.9162C33.7577 44.8282 33.4071 45.6809 32.7659 46.3225C32.1304 46.9617 31.279 47.3138 30.3681 47.3138C29.4571 47.3138 28.6056 46.9619 27.9656 46.3179L27.6755 46.0277C27.6716 46.0238 27.6686 46.0197 27.665 46.016C27.6606 46.0118 27.656 46.0081 27.6517 46.004L25.6504 44.0019C24.3298 42.6727 24.3286 40.5149 25.6481 39.1913ZM72.7117 65.5527C71.8102 64.6462 70.3479 64.6455 69.4457 65.5506L67.3911 67.6117C65.4387 69.5726 61.901 69.3257 58.4798 69.0873C54.7647 68.828 50.9229 68.5604 48.4369 71.1238L39.9304 79.657L18.6583 58.3236L26.1863 50.7764C27.4306 51.5424 28.8664 51.953 30.3686 51.953C32.5148 51.953 34.5273 51.1175 36.0304 49.605C37.5437 48.0914 38.3773 46.0713 38.3773 43.9164C38.3773 43.8964 38.3759 43.8766 38.3759 43.8565C38.3958 43.8568 38.4158 43.8579 38.4357 43.8579C40.5789 43.8579 42.5898 43.0249 44.095 41.5149C45.6083 40.0013 46.4419 37.981 46.4419 35.8264C46.4419 35.8063 46.4405 35.7865 46.4405 35.7665C46.4607 35.7665 46.4808 35.7679 46.5013 35.7679C48.6438 35.7679 50.6558 34.9357 52.1711 33.42C53.7442 31.8375 54.5223 29.7541 54.5074 27.6751C54.528 27.6753 54.5487 27.6764 54.5693 27.6764C56.7155 27.6762 58.7277 26.8409 60.2332 25.3261C61.7419 23.8127 62.5729 21.7933 62.5729 19.6398C62.5729 18.1338 62.1652 16.6941 61.405 15.4469L68.0031 8.82283C68.4948 8.33111 69.1011 8.02248 69.7365 7.89512C69.8053 7.88775 69.8732 7.87669 69.9404 7.86334C70.9599 7.72215 72.0306 8.03815 72.8103 8.81799C74.1309 10.1467 74.1309 12.3084 72.8151 13.6323L70.8056 15.6422C70.7989 15.6489 70.7918 15.6549 70.7852 15.6616L68.4707 17.9822C67.5681 18.8874 67.5672 20.3561 68.4686 21.2624C69.3703 22.1689 70.8324 22.1696 71.7345 21.2645L73.7521 19.2409C73.7525 19.2404 73.753 19.24 73.7534 19.2395L74.0584 18.9344C75.3827 17.6165 77.5282 17.6193 78.8512 18.9461C79.4877 19.5827 79.8384 20.4356 79.8384 21.3476C79.8384 22.2594 79.4877 23.1123 78.8461 23.7539L76.8251 25.7879C76.8249 25.7881 76.8247 25.7883 76.8244 25.7888L74.5102 28.1037C73.6065 29.0077 73.6035 30.4764 74.5035 31.3838C75.4036 32.2915 76.8657 32.2943 77.7695 31.3905L80.0943 29.065C80.7297 28.4257 81.5812 28.0737 82.492 28.0737C83.4031 28.0737 84.2548 28.4256 84.8948 29.0696C85.5314 29.7064 85.8818 30.5593 85.8818 31.4713C85.8818 32.3832 85.5314 33.236 84.8911 33.8763L80.862 37.9245C79.9604 38.8306 79.9606 40.2991 80.8625 41.2047C81.3136 41.6575 81.9043 41.8837 82.4952 41.8837C83.0864 41.8837 83.6776 41.657 84.1284 41.204L86.1031 39.2201C86.1143 39.2092 86.1264 39.1998 86.1377 39.1885C86.7731 38.5492 87.6246 38.1972 88.5354 38.1972C89.4465 38.1972 90.2979 38.5492 90.9357 39.1908C92.2549 40.5144 92.2538 42.6725 90.9357 43.9986L88.928 46.0128C88.9273 46.0134 88.9264 46.0141 88.9257 46.0148C88.925 46.0155 88.9243 46.0164 88.9236 46.0171L85.7371 49.2137C84.8347 50.119 84.8338 51.5878 85.735 52.4941C86.1861 52.9475 86.7777 53.1744 87.3691 53.1744C87.9596 53.1744 88.5503 52.9482 89.0012 52.4961L90.5598 50.9325L98.0303 58.4267L76.76 79.7636L69.1389 72.1185C69.6702 71.7754 70.1786 71.3718 70.6558 70.8926L72.7094 68.8326C73.6122 67.9277 73.6131 66.459 72.7117 65.5527ZM111.484 68.4252L86.7314 93.2555C86.1524 93.8363 85.3773 94.1562 84.549 94.1562C83.7207 94.1562 82.9456 93.8363 82.3663 93.2552L78.2852 89.1614C77.7069 88.5815 77.3883 87.8053 77.3883 86.9759C77.3883 86.1468 77.7069 85.3706 78.2852 84.7905L103.038 59.9602C103.617 59.3791 104.392 59.0592 105.22 59.0592C106.049 59.0592 106.824 59.3791 107.404 59.9616L111.484 64.0476C112.063 64.6278 112.381 65.4048 112.381 66.2363C112.381 67.0679 112.062 67.8453 111.484 68.4252Z" fill="#1D264D"/>
</svg>
