<svg width="128" height="118" viewBox="0 0 128 118" fill="none" xmlns="http://www.w3.org/2000/svg">
<path d="M61.5 2.49194V9.96774C61.5 11.3438 62.6195 12.4597 64 12.4597C65.3805 12.4597 66.5 11.3438 66.5 9.96774V2.49194C66.5 1.11589 65.3805 0 64 0C62.6195 0 61.5 1.11589 61.5 2.49194Z" fill="#1D264D"/>
<path d="M36.5002 7.34353C35.3042 8.03155 34.8945 9.55537 35.5845 10.7475L39.3345 17.2241C40.0267 18.4197 41.5565 18.8226 42.7495 18.1366C43.9455 17.4486 44.3552 15.9248 43.6652 14.7326L39.9152 8.25608C39.2252 7.06418 37.6962 6.65576 36.5002 7.34353Z" fill="#1D264D"/>
<path d="M19.7821 26.4991C18.5863 25.8116 17.0576 26.22 16.3671 27.4117C15.6768 28.6038 16.0868 30.1276 17.2828 30.8157L23.7803 34.5536C24.9741 35.2401 26.5036 34.8354 27.1953 33.641C27.8856 32.4489 27.4756 30.9251 26.2796 30.237L19.7821 26.4991Z" fill="#1D264D"/>
<path d="M88.0846 8.25608L84.3346 14.7326C83.6443 15.9248 84.0543 17.4486 85.2501 18.1366C86.4463 18.8241 87.9743 18.4167 88.6651 17.2241L92.4151 10.7475C93.1053 9.55537 92.6953 8.03156 91.4996 7.34353C90.3026 6.65551 88.7748 7.06468 88.0846 8.25608Z" fill="#1D264D"/>
<path d="M104.22 34.5535L110.717 30.8156C111.913 30.1275 112.323 28.6037 111.633 27.4116C110.942 26.2197 109.414 25.8108 108.218 26.499L101.72 30.2369C100.524 30.925 100.114 32.4488 100.805 33.6409C101.497 34.8363 103.027 35.2395 104.22 34.5535Z" fill="#1D264D"/>
<path d="M76 107.153C77.3807 107.153 78.5 106.038 78.5 104.661C78.5 103.285 77.3807 102.169 76 102.169C74.6193 102.169 73.5 103.285 73.5 104.661C73.5 106.038 74.6193 107.153 76 107.153Z" fill="#1D264D"/>
<path d="M125.5 89.7097H102.725C100.215 89.7097 98.1175 87.8754 97.737 85.3469C97.2162 81.8965 97.2978 78.1967 97.377 74.6158C97.503 68.9312 97.6457 62.4883 95.8045 55.6462C93.6947 47.8056 89.3 40.6371 82.3705 33.7307L71.763 23.1574C70.7868 22.1848 69.2042 22.1845 68.2272 23.1574C66.105 25.2725 64.683 27.8861 64 30.6696C63.317 27.8861 61.8948 25.2728 59.7728 23.1574C58.7965 22.1845 57.2135 22.1845 56.2373 23.1574L45.6297 33.7307C38.6995 40.6373 34.3053 47.8059 32.1953 55.6465C30.354 62.4888 30.497 68.9317 30.623 74.6186C30.702 78.197 30.7838 81.8973 30.2625 85.3484C29.8825 87.8754 27.7847 89.7097 25.275 89.7097H2.5C1.11925 89.7097 0 90.8256 0 92.2017V114.629C0 116.005 1.11925 117.121 2.5 117.121H31.72C48.5597 117.121 60.004 102.176 63.997 87.2457C64.843 90.4252 66.0105 93.5224 67.4932 96.4721C68.11 97.6989 69.611 98.202 70.8483 97.5838C72.0827 96.9673 72.582 95.4701 71.9635 94.2396C68.8108 87.9671 67.2275 80.9568 67.3845 73.9667C67.4905 69.2654 67.5667 65.8686 66.7132 63.0303C66.572 62.5636 66.5 62.0807 66.5 61.5955C66.5 59.4153 67.9668 57.4551 70.0687 56.8279C72.7062 56.0385 75.4992 57.5389 76.2927 60.1703C77.0595 62.7201 77.41 64.8592 77.5 66.4859V74.2597C77.5 75.6358 78.6195 76.7517 80 76.7517C81.3805 76.7517 82.5 75.6358 82.5 74.2597V66.2855C82.5 61.1574 80.3708 54.9256 76.3203 49.4999C73.491 45.7109 71.5295 42.7829 69.9617 40.0086C67.9327 36.409 68.0915 32.0326 70.199 28.6471L78.8347 37.2548C92.8927 51.2654 92.6312 63.0802 92.3777 74.5089C92.2982 78.1207 92.2077 82.215 92.7923 86.0875C93.543 91.0743 97.7202 94.6936 102.725 94.6936H123V112.137H96.28C92.649 112.137 89.023 111.262 85.7945 109.607C84.5665 108.977 83.0595 109.459 82.4277 110.683C81.7962 111.907 82.2795 113.409 83.5072 114.039C87.4402 116.055 91.857 117.121 96.28 117.121H125.5C126.881 117.121 128 116.005 128 114.629V92.2017C128 90.8256 126.881 89.7097 125.5 89.7097ZM61.2853 63.0358C60.4335 65.8687 60.5098 69.2654 60.6157 73.9667C61.0117 91.5779 49.329 112.137 31.72 112.137H5V94.6936H25.275C30.28 94.6936 34.457 91.0743 35.2072 86.0887C35.792 82.2157 35.7018 78.1212 35.622 74.5064C35.3685 63.0804 35.1065 51.2657 49.1652 37.255L57.8008 28.6474C59.9085 32.0329 60.0672 36.4087 58.0392 40.0066C52.9087 49.0855 45.5 54.9355 45.5 66.2855V74.2597C45.5 75.6358 46.6193 76.7517 48 76.7517C49.3807 76.7517 50.5 75.6358 50.5 74.2597V66.4894C50.5325 66.2459 50.5337 64.0737 51.7067 60.1726C52.501 57.5394 55.2948 56.0397 57.9357 56.8287C60.0345 57.4549 61.5 59.415 61.5 61.5957C61.5 62.0809 61.4283 62.5636 61.2853 63.0358ZM71.687 51.6362C70.678 51.617 69.65 51.7496 68.6335 52.0541C66.8025 52.6003 65.2122 53.6544 64.001 55.0312C62.7902 53.6544 61.201 52.6003 59.371 52.0546C58.3532 51.7503 57.325 51.6158 56.3145 51.6355C58.9455 48.0688 60.8395 45.207 62.3973 42.4499C63.127 41.1556 63.6575 39.791 64.0005 38.3963C64.3438 39.7915 64.8745 41.1569 65.6045 42.4519C67.1605 45.2065 69.0552 48.069 71.687 51.6362Z" fill="#1D264D"/>
</svg>
