<svg width="50" height="50" viewBox="0 0 50 50" fill="none" xmlns="http://www.w3.org/2000/svg">
<rect x="1" y="1" width="48" height="48" rx="24" stroke="url(#paint0_linear_2020_5830)" stroke-width="2"/>
<path d="M19.54 12H30.46C34.62 12 38 15.38 38 19.54V30.46C38 32.4597 37.2056 34.3776 35.7916 35.7916C34.3776 37.2056 32.4597 38 30.46 38H19.54C15.38 38 12 34.62 12 30.46V19.54C12 17.5403 12.7944 15.6224 14.2084 14.2084C15.6224 12.7944 17.5403 12 19.54 12ZM19.28 14.6C18.0388 14.6 16.8484 15.0931 15.9707 15.9707C15.0931 16.8484 14.6 18.0388 14.6 19.28V30.72C14.6 33.307 16.693 35.4 19.28 35.4H30.72C31.9612 35.4 33.1516 34.9069 34.0293 34.0293C34.9069 33.1516 35.4 31.9612 35.4 30.72V19.28C35.4 16.693 33.307 14.6 30.72 14.6H19.28ZM31.825 16.55C32.256 16.55 32.6693 16.7212 32.974 17.026C33.2788 17.3307 33.45 17.744 33.45 18.175C33.45 18.606 33.2788 19.0193 32.974 19.324C32.6693 19.6288 32.256 19.8 31.825 19.8C31.394 19.8 30.9807 19.6288 30.6759 19.324C30.3712 19.0193 30.2 18.606 30.2 18.175C30.2 17.744 30.3712 17.3307 30.6759 17.026C30.9807 16.7212 31.394 16.55 31.825 16.55ZM25 18.5C26.7239 18.5 28.3772 19.1848 29.5962 20.4038C30.8152 21.6228 31.5 23.2761 31.5 25C31.5 26.7239 30.8152 28.3772 29.5962 29.5962C28.3772 30.8152 26.7239 31.5 25 31.5C23.2761 31.5 21.6228 30.8152 20.4038 29.5962C19.1848 28.3772 18.5 26.7239 18.5 25C18.5 23.2761 19.1848 21.6228 20.4038 20.4038C21.6228 19.1848 23.2761 18.5 25 18.5ZM25 21.1C23.9657 21.1 22.9737 21.5109 22.2423 22.2423C21.5109 22.9737 21.1 23.9657 21.1 25C21.1 26.0343 21.5109 27.0263 22.2423 27.7577C22.9737 28.4891 23.9657 28.9 25 28.9C26.0343 28.9 27.0263 28.4891 27.7577 27.7577C28.4891 27.0263 28.9 26.0343 28.9 25C28.9 23.9657 28.4891 22.9737 27.7577 22.2423C27.0263 21.5109 26.0343 21.1 25 21.1Z" fill="white"/>
<defs>
<linearGradient id="paint0_linear_2020_5830" x1="48.1667" y1="16.2281" x2="0.348484" y2="18.5396" gradientUnits="userSpaceOnUse">
<stop stop-color="white"/>
<stop offset="1" stop-color="#CACACA" stop-opacity="0.4"/>
</linearGradient>
</defs>
</svg>
