<svg width="224" height="75" viewBox="0 0 224 75" fill="none" xmlns="http://www.w3.org/2000/svg">
<g clip-path="url(#clip0_1_1195)">
<path d="M43.5907 31.2778C40.5518 33.9774 37.1468 36.0406 33.3718 37.4674C29.5968 38.8942 25.6549 39.6077 21.544 39.6077C21.2986 39.6077 21.0633 39.5523 20.8401 39.4436L16.6508 47.5758C16.2043 48.2339 15.6452 48.5639 14.9755 48.5639C14.6858 48.5639 14.3942 48.4987 14.1046 48.3663C13.6581 48.1252 13.3564 47.7734 13.1996 47.313C13.1332 47.1154 13.099 46.9296 13.099 46.7537C13.099 46.4691 13.1654 46.1826 13.3001 45.898L32.4668 8.85747C32.869 8.17765 33.4161 7.83576 34.1079 7.83576C34.3975 7.83576 34.6892 7.91283 34.9788 8.06698C35.6706 8.41875 36.0166 8.95629 36.0166 9.67959C36.0166 9.96416 35.9502 10.2507 35.8154 10.5353L22.6803 35.8864C29.7155 35.5564 35.8476 33.1098 41.0747 28.5447C43.4419 26.3946 45.2841 24.0666 46.6035 21.5646C47.9208 19.0627 48.5805 16.626 48.5805 14.2565C48.5805 11.2487 47.4421 8.814 45.1635 6.94646C42.3257 4.77458 38.249 3.68765 32.9334 3.68765C28.9573 3.68765 25.4558 4.18171 22.4289 5.16982C19.4021 6.15794 16.7875 7.44644 14.5893 9.03731C12.3891 10.6282 10.5508 12.3673 9.07663 14.2565C7.60242 16.1438 6.45202 18.0153 5.62542 19.869C4.79882 21.7247 4.26183 23.3966 4.01647 24.8906C3.81535 25.9222 3.71479 26.8886 3.71479 27.7878C3.71479 30.4873 4.38452 32.0999 5.72598 32.6276C6.21671 32.8252 6.56264 33.1434 6.76376 33.5821C6.87437 33.845 6.93069 34.1098 6.93069 34.3726C6.93069 34.5702 6.89649 34.7797 6.83013 34.9991C6.62901 35.4813 6.29314 35.8212 5.82453 36.0188C5.57916 36.1295 5.32173 36.1828 5.05424 36.1828C4.85312 36.1828 4.63994 36.1492 4.41871 36.084C2.60863 35.3825 1.34762 33.9774 0.631631 31.8687C0.207269 30.6395 -0.00390625 29.268 -0.00390625 27.7542C-0.00390625 26.6574 0.106709 25.4815 0.331963 24.2306C1.5608 18.1062 4.66608 12.7724 9.64579 8.22903C15.9931 2.74499 23.7563 0 32.9374 0C39.2143 0 44.0714 1.36162 47.5125 4.0829C50.7063 6.65002 52.3153 10.0412 52.3374 14.2565C52.3374 17.132 51.5711 20.0627 50.0426 23.0468C48.5121 26.0329 46.3621 28.7759 43.5927 31.2778H43.5907ZM200.663 23.0646C199.927 23.0646 199.378 23.4045 199.022 24.0843L198.636 24.8076C198.479 25.0922 198.4 25.3788 198.4 25.6634C198.4 25.8392 198.434 26.0151 198.501 26.191C198.658 26.6732 198.969 27.0368 199.438 27.2779C199.728 27.4103 200.007 27.4756 200.277 27.4756C200.969 27.4756 201.528 27.1455 201.952 26.4874L202.338 25.7325C202.473 25.4479 202.539 25.1614 202.539 24.8768C202.539 24.1753 202.203 23.6377 201.534 23.2642C201.244 23.1318 200.952 23.0666 200.663 23.0666V23.0646ZM223.987 19.1299C223.987 19.6358 223.81 20.0686 223.452 20.4323C223.092 20.7939 222.657 20.9757 222.144 20.9757H185.597C185.49 21.1911 185.382 21.4105 185.271 21.6299C184.736 22.7069 184.181 23.8274 183.61 24.9914L181.836 28.6771C180.875 30.6988 180.026 32.5861 179.29 34.341C177.973 37.4792 177.313 39.9831 177.313 41.8487C177.313 42.1096 177.357 42.4752 177.446 42.9336C177.556 43.5265 177.814 43.987 178.218 44.315C178.588 44.6174 179.01 44.7893 179.479 44.8881C179.779 44.9494 180.082 44.983 180.388 44.9988C180.555 45.0067 180.73 44.9929 180.895 45.0146C181.078 45.0403 181.265 45.0482 181.45 45.0403C181.54 45.0364 181.629 45.0285 181.717 45.0146C181.796 45.0028 181.868 45.0087 181.949 45.0067C182.12 45.0028 182.289 44.9949 182.46 44.981C182.795 44.9553 183.129 44.9079 183.457 44.8387C184.117 44.7024 184.756 44.481 185.362 44.1866C185.513 44.1135 185.663 44.0344 185.81 43.9514C187.978 42.7242 189.953 40.8033 191.743 38.1907C191.81 38.082 191.898 37.9832 192.013 37.8943C192.256 37.2144 192.548 36.5129 192.882 35.7876C193.595 34.2718 194.265 33.011 194.891 32.0011C195.516 30.9913 195.862 30.4419 195.93 30.3549C196.333 29.8055 196.844 29.5308 197.471 29.5308C197.851 29.5308 198.209 29.6415 198.545 29.8609C199.08 30.2561 199.348 30.7719 199.348 31.4083C199.348 31.76 199.247 32.0999 199.046 32.428C197.751 34.2718 196.634 36.3449 195.695 38.6512C195.07 40.1649 194.756 41.4475 194.756 42.5028C194.756 43.0522 194.844 43.5443 195.023 43.983C195.122 44.2222 195.383 44.4237 195.603 44.5502C195.904 44.7261 196.248 44.8269 196.592 44.8941C196.797 44.9336 197.004 44.9593 197.212 44.9771C197.841 45.0304 198.475 45.0601 199.108 45.0225C199.73 44.985 200.349 44.9632 200.971 44.9079C201.986 44.815 202.992 44.6312 203.979 44.3862C204.13 44.3486 205.735 43.8961 205.733 43.8862C205.441 43.1412 205.299 42.3388 205.299 41.4831C205.299 39.661 205.88 37.8093 207.04 35.9358C208.203 34.0584 209.639 32.4833 211.346 31.2106C213.054 29.9379 214.735 29.3016 216.388 29.3016C217.794 29.3016 218.858 29.5427 219.572 30.0269C220.867 30.9715 221.515 32.2106 221.515 33.7461C221.515 35.2817 220.877 36.9279 219.604 38.8172C219.224 39.3666 218.687 39.6412 217.995 39.6412C217.637 39.6412 217.303 39.5405 216.99 39.3448C216.431 38.9496 216.151 38.4338 216.151 37.7974C216.151 37.4456 216.254 37.1057 216.453 36.7777C217.301 35.4833 217.726 34.4517 217.726 33.6829C217.726 33.5307 217.71 33.4201 217.678 33.3529C217.641 33.2877 217.531 33.2165 217.342 33.1394C217.151 33.0624 216.831 33.0248 216.386 33.0248C215.158 33.0248 213.615 33.9695 211.763 35.8568C209.975 37.9871 209.084 39.8626 209.084 41.487C209.084 42.4969 209.464 43.2518 210.222 43.7577C211.294 44.568 213.136 44.9771 215.751 44.9771H220.242C220.757 44.9771 221.195 45.1589 221.565 45.5205C221.933 45.8822 222.118 46.317 222.118 46.8189C222.118 47.3209 221.933 47.7912 221.565 48.1529C221.195 48.5145 220.755 48.6963 220.242 48.6963H215.751C212.535 48.6963 210.031 48.1153 208.245 46.9533C208.13 46.9968 208.016 47.0383 207.901 47.0798C206.544 47.5719 205.154 47.977 203.736 48.2616C202.451 48.5185 201.141 48.6746 199.83 48.6944C199.502 48.7003 199.173 48.6766 198.841 48.6825C198.467 48.6884 198.095 48.6924 197.72 48.6825C196.974 48.6687 196.226 48.6094 195.498 48.4394C194.503 48.2062 193.563 47.7774 192.813 47.0818C192.011 46.3367 191.484 45.4692 191.238 44.481C191.248 44.5245 190.902 44.7893 190.858 44.8289C190.732 44.9415 190.605 45.0522 190.476 45.1628C190.225 45.3763 189.969 45.5838 189.708 45.7854C188.7 46.5581 187.606 47.228 186.432 47.73C185.352 48.1904 184.207 48.5007 183.039 48.6272C181.697 48.7734 180.271 48.7774 178.94 48.5343C177.824 48.3307 176.8 47.8999 175.905 47.2122C175.08 46.5778 174.465 45.7103 174.063 44.6115C173.303 45.2498 172.422 45.8743 171.416 46.4889C170.41 47.1035 169.314 47.6252 168.13 48.0541C166.947 48.4809 165.706 48.6944 164.411 48.6944C164.405 48.6944 164.401 48.6944 164.397 48.6944C164.397 48.6944 164.395 48.6944 164.393 48.6944C164.391 48.6944 164.387 48.6944 164.385 48.6963C164.353 48.6963 164.345 48.7003 164.349 48.7042C164.105 48.7477 163.418 48.6944 163.22 48.6944H158.528C155.314 48.6944 152.811 48.1134 151.023 46.9513C150.836 47.0205 150.646 47.0897 150.459 47.1569C149.432 47.5205 148.386 47.8347 147.322 48.0837C146.337 48.3149 145.337 48.4888 144.329 48.5896C143.851 48.639 143.37 48.6707 142.887 48.6845C142.181 48.7062 141.475 48.7042 140.77 48.6904C140.582 48.6865 140.395 48.6786 140.208 48.6647C139.394 48.6074 138.541 48.4572 137.833 48.0343C136.293 47.1114 135.522 45.7854 135.522 44.0522C135.522 42.9752 135.824 41.7598 136.427 40.3962L136.56 40.0345C137.298 38.4318 137.9 36.918 138.37 35.4912C138.591 34.7659 138.716 34.2283 138.738 33.8786C138.738 33.5485 138.72 33.3568 138.688 33.3015C138.654 33.2462 138.481 33.2205 138.169 33.2205C136.449 33.2205 134.372 34.8667 131.938 38.1571C129.726 41.1195 127.862 44.2696 126.343 47.6074C126.321 47.6944 126.285 47.7715 126.241 47.8387H126.206V47.8723L126.04 48.0679C125.995 48.1331 125.955 48.1786 125.923 48.2003C125.889 48.222 125.861 48.2438 125.838 48.2655L125.436 48.5284L125.169 48.6272L124.632 48.6924H124.433L124.366 48.6588L124.099 48.6252L123.898 48.5264H123.863C123.819 48.5046 123.763 48.4711 123.696 48.4256C123.628 48.3821 123.59 48.3604 123.58 48.3604C123.566 48.3604 123.507 48.305 123.395 48.1964C123.216 48.0205 123.127 47.9256 123.127 47.9157C123.127 47.9058 123.109 47.8782 123.077 47.8347C123.043 47.7893 123.015 47.7557 122.993 47.7339V47.7003C122.97 47.6786 122.954 47.6568 122.944 47.6351C122.934 47.6134 122.922 47.5857 122.91 47.5521C122.896 47.5185 122.886 47.4928 122.876 47.4691C122.862 47.4474 122.858 47.4217 122.858 47.3881C122.858 47.3525 122.846 47.3268 122.824 47.3051V47.2043C122.802 47.1845 122.789 47.1272 122.789 47.0403C122.789 46.9533 122.779 46.898 122.755 46.8762C122.755 46.8308 122.767 46.7972 122.789 46.7754V46.645C120.444 48.0047 118.186 48.6845 116.022 48.6845C115.937 48.6845 115.855 48.6786 115.776 48.6687C115.696 48.6766 115.618 48.6845 115.533 48.6845C114.304 48.6845 113.178 48.6153 112.15 48.4711C111.121 48.3288 110.161 48.1805 109.268 48.0264C108.24 47.8308 107.303 47.6865 106.453 47.5995C104.711 48.3228 102.844 48.6845 100.857 48.6845H100.656L100.59 48.6509L100.155 48.5521L99.888 48.4197L99.7532 48.3209C99.7311 48.2991 99.715 48.2873 99.705 48.2873C99.6949 48.2873 99.6326 48.2319 99.5199 48.1213L99.2183 47.726V47.6924C98.9266 47.1648 98.7818 46.6826 98.7818 46.2458C98.7818 45.8703 98.8844 45.5205 99.0835 45.1905C99.6426 44.3585 100.526 43.9395 101.73 43.9395C102.201 43.9178 102.848 43.906 103.673 43.906H105.684C107.603 42.9613 109.146 41.5246 110.308 39.5938C111.11 38.1887 111.515 36.8607 111.515 35.6097C111.515 34.7995 111.33 34.1947 110.96 33.7975C110.592 33.4023 110.006 33.2066 109.202 33.2066C108.15 33.2066 107.046 33.5801 105.883 34.3252C103.874 35.6413 101.819 37.6413 99.7191 40.3171C98.8945 41.3704 98.279 42.238 97.8788 42.9178L97.4746 43.4455L96.0687 46.7695C94.6629 50.1291 93.2209 53.4373 91.7467 56.6961C90.2705 59.9549 88.7178 62.9134 87.0888 65.5674C83.179 71.8459 79.0279 74.9842 74.6254 74.9842C74.1105 74.9842 73.6701 74.8024 73.302 74.4407C72.934 74.0771 72.749 73.6443 72.749 73.1384C72.749 72.6325 72.934 72.2017 73.302 71.836C73.6701 71.4744 74.1126 71.2926 74.6254 71.2926C76.2565 71.2926 77.8252 70.6226 79.3336 69.2847C80.84 67.9468 82.2981 66.1504 83.7059 63.9034C85.1118 61.6525 86.4633 59.1447 87.7585 56.378C89.0537 53.6132 90.3167 50.7832 91.5456 47.8861C91.0991 48.0165 90.6466 48.1311 90.192 48.226C89.1724 48.4414 88.1346 48.5718 87.0948 48.6331C86.0168 48.6963 84.9026 48.7418 83.8266 48.6153C82.9336 48.5106 82.0608 48.2596 81.2503 47.8742C80.836 47.6766 80.4398 47.4454 80.0617 47.1865C79.9631 47.1193 78.9394 46.3268 78.9615 46.3051C77.3526 47.8861 75.5103 48.6746 73.4328 48.6746C72.4714 48.6746 71.7514 48.4829 71.2728 48.0995C70.7921 47.7161 70.4743 47.3762 70.3174 47.0798C70.1626 46.7833 70.0499 46.481 69.9816 46.1727C69.9816 46.1806 69.885 46.2399 69.875 46.2478C69.0242 46.8387 68.1172 47.3505 67.1579 47.7497C66.2629 48.1213 65.3236 48.394 64.3643 48.5402C63.3587 48.6944 62.337 48.6884 61.3214 48.6726C60.3781 48.6588 59.4288 48.5541 58.5359 48.2477C57.0637 47.7418 56.0078 46.979 55.3703 45.9593C54.7327 44.9395 54.417 43.8032 54.417 42.5522C54.417 41.1708 54.8071 39.6235 55.5875 37.9101C55.8107 37.3844 55.9233 36.9674 55.9233 36.6591C55.9233 36.3291 55.8449 36.0465 55.69 35.8054C55.1973 35.1038 54.3586 34.5426 53.176 34.1256C53.2424 34.5445 53.2766 34.9931 53.2766 35.4773C53.2766 36.1354 53.2102 36.837 53.0755 37.584C52.7637 39.4061 52.1101 41.157 51.1166 42.8348C50.1231 44.5146 48.85 45.9079 47.2973 47.0165C45.7447 48.1252 43.9849 48.6805 42.02 48.6805C41.5071 48.6805 41.0667 48.4987 40.6986 48.1371C40.3306 47.7754 40.1455 47.3406 40.1455 46.8347C40.1455 46.3288 40.3306 45.898 40.6986 45.5363C41.0667 45.1747 41.5091 44.9929 42.02 44.9929C43.2488 44.9929 44.3791 44.5917 45.4048 43.7894C46.4325 42.989 47.2973 41.9791 48.0012 40.7618C48.7052 39.5424 49.1677 38.2658 49.393 36.9259C49.5036 36.3567 49.5619 35.841 49.5619 35.3785C49.5619 35.0267 49.5036 34.5999 49.393 34.094C49.2824 33.59 49.0129 33.2541 48.5905 33.092C48.1642 32.926 47.8404 32.6474 47.6191 32.2521C47.4622 31.9656 47.3838 31.6691 47.3838 31.3628C47.3838 30.7482 47.6292 30.2541 48.1199 29.8806C48.4558 29.6632 48.8118 29.5506 49.1939 29.5506C49.5961 29.5506 50.4207 29.6613 51.6717 29.8806C52.9226 30.1 54.24 30.5288 55.6257 31.1652C57.0114 31.8015 58.1055 32.7343 58.9079 33.9635C59.2901 34.5129 59.5334 35.2481 59.646 36.169L59.6802 36.6611C59.6802 37.4733 59.457 38.3863 59.0105 39.3942C58.4735 40.6234 58.206 41.6649 58.206 42.5226C58.206 43.0937 58.3347 43.5819 58.5922 43.987C58.8496 44.3921 59.274 44.6629 59.8653 44.7933C60.2212 44.8723 60.5833 44.9316 60.9473 44.9652C61.2993 44.9968 61.6492 44.9889 62.0012 44.9889C62.7071 44.9889 63.4009 44.9889 64.0968 44.8605C64.7585 44.7399 65.4041 44.5324 66.0135 44.2478C66.1342 44.1905 66.2528 44.1312 66.3695 44.07C67.5299 43.4554 68.5918 42.6807 69.5532 41.7479C70.5145 40.8151 71.3612 39.8448 72.0993 38.833C71.496 38.0444 70.9027 37.1769 70.3215 36.2322C69.9192 35.5742 69.7181 34.9161 69.7181 34.258C69.7181 33.6434 69.887 33.0387 70.2209 32.4458C70.7579 31.5446 71.5986 30.8332 72.749 30.3055C73.8994 29.7798 75.2107 29.517 76.6869 29.517C78.0042 29.517 79.0641 29.7581 79.8706 30.2403C82.0145 31.5565 83.0865 33.675 83.0865 36.5939C83.0865 38.7243 82.461 40.9851 81.2101 43.3783C81.1638 43.4653 82.1211 44.1135 82.2277 44.1826C82.5736 44.4059 82.9457 44.5937 83.3359 44.73C83.7059 44.8605 84.0941 44.9435 84.4863 44.9771C85.5241 45.062 86.5699 45.0028 87.6097 44.9119C88.4946 44.8348 89.3795 44.6945 90.2303 44.4356C90.4274 44.3763 90.6224 44.3071 90.8135 44.234C92.1087 43.7301 93.247 42.8526 94.2305 41.6017C95.928 37.5405 97.6596 33.843 99.4234 30.5051C99.8035 29.847 100.351 29.517 101.065 29.517C101.378 29.517 101.68 29.5941 101.97 29.7482C102.372 29.9656 102.651 30.2858 102.808 30.7027C102.897 30.9201 102.941 31.1415 102.941 31.3608C102.941 31.5565 102.907 31.7561 102.84 31.9537C105.053 30.3292 107.185 29.517 109.24 29.517C111.541 29.517 113.26 30.4281 114.401 32.2501C114.98 33.3252 115.27 34.4773 115.27 35.7046C115.27 37.4615 114.688 39.3705 113.528 41.4337C112.836 42.6194 112.02 43.6728 111.08 44.5937C112.398 44.8565 113.884 44.9909 115.537 44.9909C115.622 44.9909 115.702 44.9968 115.78 45.0067C115.861 44.9988 115.943 44.9909 116.026 44.9909C117.255 44.9909 118.465 44.6984 119.662 44.1174C120.855 43.5384 121.894 42.8941 122.777 42.1926C123.66 41.491 124.28 40.9297 124.636 40.5147C125.842 36.7619 127.562 32.3707 129.796 27.3432C130.466 25.8531 131.138 24.446 131.81 23.1298L130.905 23.0962C129.698 23.0962 128.598 23.3433 127.604 23.8373C126.611 24.3294 125.702 25.5547 124.873 27.5072C124.674 27.9894 124.338 28.3174 123.867 28.4953C123.644 28.5822 123.411 28.6257 123.164 28.6257C122.94 28.6257 122.693 28.5822 122.427 28.4953C121.957 28.2977 121.623 27.9676 121.422 27.5072C121.331 27.2878 121.287 27.0566 121.287 26.8135C121.287 26.5961 121.331 26.3649 121.422 26.1218C122.427 23.7958 123.598 22.1496 124.937 21.1852C126.279 20.2188 127.709 19.6694 129.227 19.539C129.875 19.4738 130.52 19.4382 131.17 19.4382C132.039 19.4382 132.912 19.4955 133.783 19.6042C138.583 11.5274 143.511 7.48794 148.557 7.48794C150.747 7.48794 152.231 8.44246 153.014 10.3515C153.169 10.8574 153.249 11.3712 153.249 11.8989C153.249 12.974 152.847 14.2644 152.042 15.7664C151.24 17.2703 149.741 18.8454 147.551 20.4916C145.498 21.9599 143.477 22.8611 141.488 23.1911C140.168 23.4322 138.895 23.5527 137.668 23.5527C137.043 23.5527 136.439 23.5191 135.858 23.4539C134.474 25.9558 132.976 29.1613 131.367 33.0663C133.69 30.6968 135.957 29.5111 138.169 29.5111C139.219 29.5111 140.035 29.687 140.617 30.0387C141.868 30.849 142.493 32.0782 142.493 33.7244C142.493 35.2837 141.667 37.8725 140.013 41.495L139.844 41.825C139.464 42.8566 139.277 43.6016 139.277 44.0641C139.277 44.3052 139.321 44.4692 139.41 44.5561C139.454 44.6668 139.611 44.7656 139.881 44.8526C140.214 44.9613 140.589 44.9909 140.938 44.985C141.475 44.9771 142.014 44.9593 142.549 44.9514C143.022 44.9435 143.495 44.9138 143.963 44.8644C144.987 44.7577 145.999 44.5621 146.994 44.3052C147.125 44.2716 148.517 43.8763 148.513 43.8645C148.245 43.1194 148.108 42.3171 148.108 41.4614C148.108 39.6393 148.684 37.7875 149.834 35.9141C150.984 34.0366 152.414 32.4616 154.122 31.1889C155.831 29.9162 157.511 29.2799 159.164 29.2799C160.437 29.2799 161.426 29.4893 162.13 29.9063C162.834 30.3253 163.337 30.7917 163.639 31.3055C163.94 31.8213 164.125 32.2561 164.192 32.6078C164.258 32.9596 164.292 33.3094 164.292 33.6612C164.292 35.1987 163.611 36.9852 162.249 39.0286C160.887 41.0681 158.852 42.989 156.151 44.7893C156.821 44.898 157.613 44.9553 158.528 44.9553H160.529C161.622 44.9553 162.716 45.0324 163.814 45.0265C165.387 45.0166 166.897 44.7261 168.301 43.9969C169.574 43.3388 170.652 42.6372 171.533 41.8902C172.416 41.1452 172.979 40.6175 173.226 40.3092C173.361 40.1116 173.528 39.9476 173.729 39.8152C174.017 37.8409 174.722 35.5366 175.839 32.9023C176.398 31.5861 177.035 30.1692 177.749 28.6534L179.457 24.9677C180.004 23.8393 180.555 22.7188 181.102 21.6061C181.211 21.3888 181.319 21.1694 181.426 20.952H164.248C163.735 20.952 163.301 20.7702 162.941 20.4086C162.583 20.0469 162.406 19.6121 162.406 19.1062C162.406 18.6003 162.583 18.1695 162.941 17.8078C163.301 17.4462 163.735 17.2644 164.248 17.2644H222.144C222.657 17.2644 223.092 17.4462 223.452 17.8078C223.81 18.1695 223.987 18.6043 223.987 19.1062V19.1299ZM138.004 19.8868C140.729 19.8868 143.165 19.1181 145.307 17.5806C148.122 15.3869 149.528 13.4898 149.528 11.887C149.528 11.7546 149.506 11.6341 149.462 11.5234C149.462 11.5036 149.44 11.4641 149.396 11.4108C149.351 11.3554 149.267 11.3001 149.144 11.2448C149.019 11.1894 148.824 11.1618 148.557 11.1618C145.275 11.1618 141.755 14.0728 138.004 19.8868ZM76.4113 43.6234C75.9186 43.1846 75.3514 42.6254 74.7038 41.9455C74.0562 43.2617 73.6862 44.2814 73.5977 45.0087C74.6254 44.9198 75.5626 44.4593 76.4134 43.6253L76.4113 43.6234ZM79.3256 36.6097C79.3256 34.3489 78.4427 33.2205 76.6788 33.2205C75.7175 33.2205 74.9633 33.3509 74.4162 33.6157C73.8692 33.8786 73.5514 34.0979 73.4629 34.2738L73.4971 34.339C75.3514 37.1492 77.0147 39.2005 78.4889 40.495C79.0259 39.2005 79.3055 37.9061 79.3276 36.6097H79.3256ZM152.163 42.8348C154.977 41.2756 157.11 39.5543 158.561 37.667C159.88 35.9753 160.54 34.669 160.54 33.7481C160.54 33.6394 160.521 33.5347 160.489 33.4359C160.455 33.3351 160.357 33.2541 160.188 33.1888C160.021 33.1217 159.838 33.0782 159.634 33.0564C159.433 33.0347 159.277 33.0228 159.164 33.0228C157.937 33.0228 156.394 33.9675 154.54 35.8548C152.776 37.9852 151.893 39.8606 151.893 41.4851C151.893 42.0107 151.982 42.4613 152.161 42.8348H152.163ZM188.773 14.715C190.293 11.7744 191.106 10.2053 191.22 10.0096C191.375 9.72504 191.454 9.42663 191.454 9.12031C191.454 8.94443 191.419 8.76854 191.353 8.59266C191.198 8.1322 190.896 7.77055 190.448 7.50771C190.156 7.3753 189.867 7.31008 189.579 7.31008C188.841 7.31008 188.284 7.64011 187.902 8.2982L186.562 10.8653C185.575 12.7605 184.587 14.6854 183.604 16.6359H187.789C188.127 15.9759 188.455 15.3375 188.775 14.717L188.773 14.715ZM164.349 48.7023C164.363 48.7161 164.526 48.7359 164.399 48.6944C164.395 48.6944 164.389 48.6944 164.385 48.6944C164.375 48.6983 164.363 48.7003 164.349 48.7023ZM101.821 68.0812H98.5948V71.3776H96.4448V60.1783C98.2368 60.1783 100.027 60.1605 101.821 60.1605C107.39 60.1605 107.406 68.0812 101.821 68.0812ZM101.821 62.1762H98.5948V66.1465H101.821C104.572 66.1465 104.556 62.1762 101.821 62.1762ZM120.257 60.1763L125.372 71.3756H123.027L122.065 69.263H116.104L115.127 71.3756H112.798L117.914 60.1763H120.259H120.257ZM121.201 67.2966L119.085 62.53L116.969 67.2966H121.203H121.201ZM132.019 62.0972H135.633V71.3776H137.783V62.0972H141.399V60.1763H132.019V62.0972ZM156.984 64.9133H151.383V60.1921H149.233V71.3953H151.383V66.8658H156.984V71.3953H159.118V60.1921H156.984V64.9133ZM179.053 68.2571L176.203 60.1763H174.803L172.033 68.2571L169.347 60.1763H166.935L171.12 71.3756H172.945L174.328 67.8875L175.517 64.3185L176.722 67.8539L178.139 71.3736H179.964L184.068 60.1743H181.657L179.053 68.2551V68.2571ZM198.191 60.1763L203.304 71.3756H200.958L199.995 69.263H194.036L193.059 71.3756H190.73L195.844 60.1763H198.191ZM199.134 67.2966L197.019 62.53L194.903 67.2966H199.136H199.134ZM215.423 64.8007L212.525 60.1763H209.967V60.2731L214.349 66.7532V71.3776H216.499V66.7532L221.042 60.2731V60.1763H218.454L215.423 64.8007Z" fill="white"/>
</g>
<defs>
<clipPath id="clip0_1_1195">
<rect width="223.986" height="75" fill="white"/>
</clipPath>
</defs>
</svg>
