<svg width="23" height="22" viewBox="0 0 23 22" fill="none" xmlns="http://www.w3.org/2000/svg">
<path d="M21.8056 9.87613L17.3091 13.7561L18.6791 19.5586C18.7547 19.8735 18.7352 20.2039 18.6231 20.5078C18.5111 20.8117 18.3115 21.0756 18.0495 21.2662C17.7875 21.4567 17.475 21.5653 17.1513 21.5783C16.8276 21.5913 16.5074 21.5081 16.231 21.3392L11.1849 18.2336L6.13589 21.3392C5.85953 21.5071 5.53966 21.5896 5.21654 21.5761C4.89343 21.5626 4.58153 21.4538 4.32011 21.2635C4.05869 21.0731 3.85944 20.8096 3.74746 20.5062C3.63548 20.2029 3.61576 19.8731 3.6908 19.5586L5.06572 13.7561L0.569242 9.87613C0.324731 9.66481 0.147897 9.38613 0.0608226 9.0749C-0.0262518 8.76368 -0.0197066 8.4337 0.0796404 8.12617C0.178987 7.81864 0.366733 7.5472 0.619432 7.34573C0.87213 7.14427 1.17858 7.02172 1.50051 6.99339L7.3959 6.51776L9.67012 1.01407C9.79322 0.714119 10.0027 0.457551 10.272 0.276982C10.5413 0.0964134 10.8582 0 11.1824 0C11.5067 0 11.8236 0.0964134 12.0929 0.276982C12.3621 0.457551 12.5717 0.714119 12.6948 1.01407L14.968 6.51776L20.8634 6.99339C21.1859 7.02067 21.4933 7.14253 21.7469 7.34372C22.0005 7.5449 22.1891 7.81646 22.2891 8.12436C22.389 8.43226 22.3959 8.76281 22.3089 9.07461C22.2218 9.3864 22.0446 9.66557 21.7996 9.87713L21.8056 9.87613Z" fill="#1D264D"/>
</svg>
