<svg width="136" height="22" viewBox="0 0 136 22" fill="none" xmlns="http://www.w3.org/2000/svg">
<path d="M135.196 9.87613L130.7 13.7561L132.07 19.5586C132.145 19.8735 132.126 20.2039 132.014 20.5078C131.902 20.8117 131.702 21.0756 131.44 21.2662C131.178 21.4567 130.866 21.5653 130.542 21.5783C130.218 21.5913 129.898 21.5081 129.622 21.3392L124.576 18.2336L119.527 21.3392C119.25 21.5071 118.93 21.5896 118.607 21.5761C118.284 21.5626 117.972 21.4538 117.711 21.2635C117.449 21.0731 117.25 20.8096 117.138 20.5062C117.026 20.2029 117.006 19.8731 117.081 19.5586L118.456 13.7561L113.96 9.87613C113.715 9.66481 113.539 9.38613 113.451 9.0749C113.364 8.76368 113.371 8.4337 113.47 8.12617C113.57 7.81864 113.757 7.5472 114.01 7.34573C114.263 7.14427 114.569 7.02172 114.891 6.99339L120.787 6.51776L123.061 1.01407C123.184 0.714119 123.393 0.457551 123.663 0.276982C123.932 0.0964134 124.249 0 124.573 0C124.897 0 125.214 0.0964134 125.483 0.276982C125.753 0.457551 125.962 0.714119 126.085 1.01407L128.359 6.51776L134.254 6.99339C134.577 7.02067 134.884 7.14253 135.138 7.34372C135.391 7.5449 135.58 7.81646 135.68 8.12436C135.78 8.43226 135.787 8.76281 135.699 9.07461C135.612 9.3864 135.435 9.66557 135.19 9.87713L135.196 9.87613Z" fill="#5D74B5" fill-opacity="0.5"/>
<path d="M106.849 9.87613L102.352 13.7561L103.722 19.5586C103.798 19.8735 103.778 20.2039 103.666 20.5078C103.554 20.8117 103.354 21.0756 103.092 21.2662C102.83 21.4567 102.518 21.5653 102.194 21.5783C101.871 21.5913 101.55 21.5081 101.274 21.3392L96.2279 18.2336L91.1789 21.3392C90.9025 21.5071 90.5826 21.5896 90.2595 21.5761C89.9364 21.5626 89.6245 21.4538 89.3631 21.2635C89.1017 21.0731 88.9024 20.8096 88.7904 20.5062C88.6784 20.2029 88.6587 19.8731 88.7338 19.5586L90.1087 13.7561L85.6122 9.87613C85.3677 9.66481 85.1909 9.38613 85.1038 9.0749C85.0167 8.76368 85.0233 8.4337 85.1226 8.12617C85.222 7.81864 85.4097 7.5472 85.6624 7.34573C85.9151 7.14427 86.2215 7.02172 86.5435 6.99339L92.4389 6.51776L94.7131 1.01407C94.8362 0.714119 95.0457 0.457551 95.315 0.276982C95.5843 0.0964134 95.9012 0 96.2254 0C96.5496 0 96.8665 0.0964134 97.1358 0.276982C97.4051 0.457551 97.6146 0.714119 97.7377 1.01407L100.011 6.51776L105.906 6.99339C106.229 7.02067 106.536 7.14253 106.79 7.34372C107.043 7.5449 107.232 7.81646 107.332 8.12436C107.432 8.43226 107.439 8.76281 107.352 9.07461C107.265 9.3864 107.088 9.66557 106.843 9.87713L106.849 9.87613Z" fill="#1D264D"/>
<path d="M78.5009 9.87613L74.0044 13.7561L75.3744 19.5586C75.45 19.8735 75.4305 20.2039 75.3184 20.5078C75.2064 20.8117 75.0068 21.0756 74.7448 21.2662C74.4828 21.4567 74.1703 21.5653 73.8466 21.5783C73.5229 21.5913 73.2027 21.5081 72.9263 21.3392L67.8802 18.2336L62.8312 21.3392C62.5548 21.5071 62.235 21.5896 61.9119 21.5761C61.5887 21.5626 61.2768 21.4538 61.0154 21.2635C60.754 21.0731 60.5548 20.8096 60.4428 20.5062C60.3308 20.2029 60.3111 19.8731 60.3861 19.5586L61.761 13.7561L57.2646 9.87613C57.02 9.66481 56.8432 9.38613 56.7561 9.0749C56.6691 8.76368 56.6756 8.4337 56.775 8.12617C56.8743 7.81864 57.062 7.5472 57.3147 7.34573C57.5674 7.14427 57.8739 7.02172 58.1958 6.99339L64.0912 6.51776L66.3654 1.01407C66.4885 0.714119 66.698 0.457551 66.9673 0.276982C67.2366 0.0964134 67.5535 0 67.8777 0C68.202 0 68.5189 0.0964134 68.7882 0.276982C69.0575 0.457551 69.267 0.714119 69.3901 1.01407L71.6633 6.51776L77.5587 6.99339C77.8812 7.02067 78.1886 7.14253 78.4422 7.34372C78.6958 7.5449 78.8844 7.81646 78.9844 8.12436C79.0844 8.43226 79.0912 8.76281 79.0042 9.07461C78.9171 9.3864 78.74 9.66557 78.4949 9.87713L78.5009 9.87613Z" fill="#1D264D"/>
<path d="M50.1533 9.87613L45.6568 13.7561L47.0267 19.5586C47.1023 19.8735 47.0828 20.2039 46.9708 20.5078C46.8587 20.8117 46.6591 21.0756 46.3972 21.2662C46.1352 21.4567 45.8226 21.5653 45.499 21.5783C45.1753 21.5913 44.855 21.5081 44.5786 21.3392L39.5326 18.2336L34.4835 21.3392C34.2072 21.5071 33.8873 21.5896 33.5642 21.5761C33.2411 21.5626 32.9292 21.4538 32.6678 21.2635C32.4063 21.0731 32.2071 20.8096 32.0951 20.5062C31.9831 20.2029 31.9634 19.8731 32.0385 19.5586L33.4134 13.7561L28.9169 9.87613C28.6724 9.66481 28.4956 9.38613 28.4085 9.0749C28.3214 8.76368 28.3279 8.4337 28.4273 8.12617C28.5266 7.81864 28.7144 7.5472 28.9671 7.34573C29.2198 7.14427 29.5262 7.02172 29.8482 6.99339L35.7436 6.51776L38.0178 1.01407C38.1409 0.714119 38.3504 0.457551 38.6197 0.276982C38.889 0.0964134 39.2059 0 39.5301 0C39.8543 0 40.1712 0.0964134 40.4405 0.276982C40.7098 0.457551 40.9193 0.714119 41.0424 1.01407L43.3156 6.51776L49.211 6.99339C49.5336 7.02067 49.8409 7.14253 50.0945 7.34372C50.3482 7.5449 50.5368 7.81646 50.6367 8.12436C50.7367 8.43226 50.7436 8.76281 50.6565 9.07461C50.5694 9.3864 50.3923 9.66557 50.1473 9.87713L50.1533 9.87613Z" fill="#1D264D"/>
<path d="M21.8056 9.87613L17.3091 13.7561L18.6791 19.5586C18.7547 19.8735 18.7352 20.2039 18.6231 20.5078C18.5111 20.8117 18.3115 21.0756 18.0495 21.2662C17.7875 21.4567 17.475 21.5653 17.1513 21.5783C16.8276 21.5913 16.5074 21.5081 16.231 21.3392L11.1849 18.2336L6.13589 21.3392C5.85953 21.5071 5.53966 21.5896 5.21654 21.5761C4.89343 21.5626 4.58153 21.4538 4.32011 21.2635C4.05869 21.0731 3.85944 20.8096 3.74746 20.5062C3.63548 20.2029 3.61576 19.8731 3.6908 19.5586L5.06572 13.7561L0.569242 9.87613C0.324731 9.66481 0.147897 9.38613 0.0608226 9.0749C-0.0262518 8.76368 -0.0197066 8.4337 0.0796404 8.12617C0.178987 7.81864 0.366733 7.5472 0.619432 7.34573C0.87213 7.14427 1.17858 7.02172 1.50051 6.99339L7.3959 6.51776L9.67012 1.01407C9.79322 0.714119 10.0027 0.457551 10.272 0.276982C10.5413 0.0964134 10.8582 0 11.1824 0C11.5067 0 11.8236 0.0964134 12.0929 0.276982C12.3621 0.457551 12.5717 0.714119 12.6948 1.01407L14.968 6.51776L20.8634 6.99339C21.1859 7.02067 21.4933 7.14253 21.7469 7.34372C22.0005 7.5449 22.1891 7.81646 22.2891 8.12436C22.389 8.43226 22.3959 8.76281 22.3089 9.07461C22.2218 9.3864 22.0446 9.66557 21.7996 9.87713L21.8056 9.87613Z" fill="#1D264D"/>
</svg>
