<svg width="117" height="19" viewBox="0 0 117 19" fill="none" xmlns="http://www.w3.org/2000/svg">
<path d="M116.275 8.49394L112.408 11.8309L113.586 16.8213C113.651 17.0922 113.635 17.3763 113.538 17.6377C113.442 17.8991 113.27 18.126 113.045 18.2899C112.82 18.4538 112.551 18.5472 112.272 18.5584C111.994 18.5696 111.719 18.498 111.481 18.3527L107.141 15.6818L102.799 18.3527C102.561 18.4971 102.286 18.568 102.008 18.5565C101.73 18.5449 101.462 18.4513 101.237 18.2876C101.012 18.1239 100.841 17.8973 100.744 17.6363C100.648 17.3754 100.631 17.0918 100.696 16.8213L101.878 11.8309L98.0111 8.49394C97.8008 8.31219 97.6487 8.07252 97.5738 7.80485C97.4989 7.53718 97.5045 7.25338 97.59 6.98889C97.6754 6.7244 97.8369 6.49095 98.0542 6.31768C98.2716 6.14441 98.5351 6.03902 98.812 6.01465L103.882 5.60558L105.838 0.872146C105.944 0.614177 106.124 0.393516 106.356 0.238218C106.588 0.0829201 106.86 0 107.139 0C107.418 0 107.69 0.0829201 107.922 0.238218C108.154 0.393516 108.334 0.614177 108.44 0.872146L110.395 5.60558L115.465 6.01465C115.742 6.03811 116.007 6.14292 116.225 6.31595C116.443 6.48898 116.605 6.72252 116.691 6.98733C116.777 7.25214 116.783 7.53644 116.708 7.80459C116.633 8.07275 116.481 8.31285 116.27 8.4948L116.275 8.49394Z" fill="#8A8787"/>
<path d="M91.895 8.49394L88.0278 11.8309L89.206 16.8213C89.271 17.0922 89.2543 17.3763 89.1579 17.6377C89.0615 17.8991 88.8898 18.126 88.6645 18.2899C88.4392 18.4538 88.1704 18.5472 87.8921 18.5584C87.6137 18.5696 87.3382 18.498 87.1005 18.3527L82.7607 15.6818L78.4183 18.3527C78.1806 18.4971 77.9055 18.568 77.6276 18.5565C77.3497 18.5449 77.0814 18.4513 76.8566 18.2876C76.6318 18.1239 76.4604 17.8973 76.3641 17.6363C76.2678 17.3754 76.2508 17.0918 76.3154 16.8213L77.4979 11.8309L73.6307 8.49394C73.4204 8.31219 73.2683 8.07252 73.1934 7.80485C73.1185 7.53718 73.1242 7.25338 73.2096 6.98889C73.2951 6.7244 73.4565 6.49095 73.6739 6.31768C73.8912 6.14441 74.1547 6.03902 74.4316 6.01465L79.5019 5.60558L81.4579 0.872146C81.5637 0.614177 81.7439 0.393516 81.9755 0.238218C82.2071 0.0829201 82.4797 0 82.7585 0C83.0374 0 83.3099 0.0829201 83.5415 0.238218C83.7731 0.393516 83.9533 0.614177 84.0592 0.872146L86.0143 5.60558L91.0846 6.01465C91.362 6.03811 91.6264 6.14292 91.8445 6.31595C92.0626 6.48898 92.2248 6.72252 92.3108 6.98733C92.3968 7.25214 92.4027 7.53644 92.3278 7.80459C92.2529 8.07275 92.1006 8.31285 91.8898 8.4948L91.895 8.49394Z" fill="white"/>
<path d="M67.5146 8.49394L63.6474 11.8309L64.8256 16.8213C64.8906 17.0922 64.8739 17.3763 64.7775 17.6377C64.6812 17.8991 64.5095 18.126 64.2842 18.2899C64.0589 18.4538 63.7901 18.5472 63.5117 18.5584C63.2333 18.5696 62.9579 18.498 62.7202 18.3527L58.3803 15.6818L54.0379 18.3527C53.8002 18.4971 53.5251 18.568 53.2472 18.5565C52.9693 18.5449 52.7011 18.4513 52.4762 18.2876C52.2514 18.1239 52.08 17.8973 51.9837 17.6363C51.8874 17.3754 51.8705 17.0918 51.935 16.8213L53.1175 11.8309L49.2503 8.49394C49.04 8.31219 48.8879 8.07252 48.8131 7.80485C48.7382 7.53718 48.7438 7.25338 48.8292 6.98889C48.9147 6.7244 49.0762 6.49095 49.2935 6.31768C49.5108 6.14441 49.7744 6.03902 50.0513 6.01465L55.1216 5.60558L57.0775 0.872146C57.1834 0.614177 57.3636 0.393516 57.5952 0.238218C57.8268 0.0829201 58.0993 0 58.3782 0C58.657 0 58.9296 0.0829201 59.1612 0.238218C59.3928 0.393516 59.573 0.614177 59.6788 0.872146L61.6339 5.60558L66.7042 6.01465C66.9816 6.03811 67.246 6.14292 67.4641 6.31595C67.6822 6.48898 67.8444 6.72252 67.9304 6.98733C68.0164 7.25214 68.0223 7.53644 67.9474 7.80459C67.8725 8.07275 67.7202 8.31285 67.5095 8.4948L67.5146 8.49394Z" fill="white"/>
<path d="M43.1342 8.49394L39.2671 11.8309L40.4453 16.8213C40.5103 17.0922 40.4935 17.3763 40.3972 17.6377C40.3008 17.8991 40.1291 18.126 39.9038 18.2899C39.6785 18.4538 39.4097 18.5472 39.1313 18.5584C38.8529 18.5696 38.5775 18.498 38.3398 18.3527L33.9999 15.6818L29.6575 18.3527C29.4198 18.4971 29.1447 18.568 28.8668 18.5565C28.589 18.5449 28.3207 18.4513 28.0959 18.2876C27.871 18.1239 27.6997 17.8973 27.6034 17.6363C27.5071 17.3754 27.4901 17.0918 27.5546 16.8213L28.7371 11.8309L24.8699 8.49394C24.6597 8.31219 24.5076 8.07252 24.4327 7.80485C24.3578 7.53718 24.3634 7.25338 24.4489 6.98889C24.5343 6.7244 24.6958 6.49095 24.9131 6.31768C25.1304 6.14441 25.394 6.03902 25.6709 6.01465L30.7412 5.60558L32.6971 0.872146C32.803 0.614177 32.9832 0.393516 33.2148 0.238218C33.4464 0.0829201 33.7189 0 33.9978 0C34.2766 0 34.5492 0.0829201 34.7808 0.238218C35.0124 0.393516 35.1926 0.614177 35.2985 0.872146L37.2535 5.60558L42.3239 6.01465C42.6013 6.03811 42.8656 6.14292 43.0837 6.31595C43.3019 6.48898 43.4641 6.72252 43.55 6.98733C43.636 7.25214 43.6419 7.53644 43.5671 7.80459C43.4922 8.07275 43.3398 8.31285 43.1291 8.4948L43.1342 8.49394Z" fill="white"/>
<path d="M18.7539 8.49394L14.8867 11.8309L16.0649 16.8213C16.1299 17.0922 16.1132 17.3763 16.0168 17.6377C15.9204 17.8991 15.7487 18.126 15.5234 18.2899C15.2981 18.4538 15.0293 18.5472 14.7509 18.5584C14.4726 18.5696 14.1971 18.498 13.9594 18.3527L9.61958 15.6818L5.27715 18.3527C5.03947 18.4971 4.76437 18.568 4.48648 18.5565C4.20858 18.5449 3.94033 18.4513 3.7155 18.2876C3.49067 18.1239 3.3193 17.8973 3.22299 17.6363C3.12668 17.3754 3.10973 17.0918 3.17426 16.8213L4.35676 11.8309L0.489575 8.49394C0.279285 8.31219 0.127198 8.07252 0.0523103 7.80485C-0.0225778 7.53718 -0.0169486 7.25338 0.0684945 6.98889C0.153938 6.7244 0.315408 6.49095 0.532741 6.31768C0.750073 6.14441 1.01364 6.03902 1.29051 6.01465L6.36083 5.60558L8.31676 0.872146C8.42263 0.614177 8.60282 0.393516 8.83443 0.238218C9.06603 0.0829201 9.33858 0 9.61743 0C9.89628 0 10.1688 0.0829201 10.4004 0.238218C10.632 0.393516 10.8122 0.614177 10.9181 0.872146L12.8732 5.60558L17.9435 6.01465C18.2209 6.03811 18.4852 6.14292 18.7034 6.31595C18.9215 6.48898 19.0837 6.72252 19.1697 6.98733C19.2556 7.25214 19.2616 7.53644 19.1867 7.80459C19.1118 8.07275 18.9594 8.31285 18.7487 8.4948L18.7539 8.49394Z" fill="white"/>
</svg>
