<svg width="51" height="50" viewBox="0 0 51 50" fill="none" xmlns="http://www.w3.org/2000/svg">
<g filter="url(#filter0_b_1_1192)">
<ellipse cx="25.5" cy="25" rx="25.5" ry="25" fill="#5D74B5" fill-opacity="0.5"/>
</g>
<path d="M33.501 22.7486C33.501 24.8998 32.8025 26.887 31.6259 28.4993L37.5605 34.4375C38.1465 35.0233 38.1465 35.9748 37.5605 36.5606C36.9746 37.1465 36.0229 37.1465 35.437 36.5606L29.5023 30.6224C27.8897 31.8035 25.9021 32.4971 23.7505 32.4971C18.3643 32.4971 14 28.1337 14 22.7486C14 17.3634 18.3643 13 23.7505 13C29.1367 13 33.501 17.3634 33.501 22.7486ZM23.7505 29.4976C24.6369 29.4976 25.5147 29.323 26.3337 28.9838C27.1527 28.6447 27.8969 28.1475 28.5237 27.5208C29.1505 26.8941 29.6477 26.1501 29.987 25.3313C30.3262 24.5125 30.5008 23.6349 30.5008 22.7486C30.5008 21.8623 30.3262 20.9847 29.987 20.1658C29.6477 19.347 29.1505 18.603 28.5237 17.9763C27.8969 17.3496 27.1527 16.8525 26.3337 16.5133C25.5147 16.1741 24.6369 15.9996 23.7505 15.9996C22.864 15.9996 21.9862 16.1741 21.1672 16.5133C20.3482 16.8525 19.6041 17.3496 18.9773 17.9763C18.3504 18.603 17.8532 19.347 17.514 20.1658C17.1747 20.9847 17.0001 21.8623 17.0001 22.7486C17.0001 23.6349 17.1747 24.5125 17.514 25.3313C17.8532 26.1501 18.3504 26.8941 18.9773 27.5208C19.6041 28.1475 20.3482 28.6447 21.1672 28.9838C21.9862 29.323 22.864 29.4976 23.7505 29.4976Z" fill="white"/>
<defs>
<filter id="filter0_b_1_1192" x="-10" y="-10" width="71" height="70" filterUnits="userSpaceOnUse" color-interpolation-filters="sRGB">
<feFlood flood-opacity="0" result="BackgroundImageFix"/>
<feGaussianBlur in="BackgroundImageFix" stdDeviation="5"/>
<feComposite in2="SourceAlpha" operator="in" result="effect1_backgroundBlur_1_1192"/>
<feBlend mode="normal" in="SourceGraphic" in2="effect1_backgroundBlur_1_1192" result="shape"/>
</filter>
</defs>
</svg>
