<svg width="50" height="50" viewBox="0 0 50 50" fill="none" xmlns="http://www.w3.org/2000/svg">
<rect x="1" y="1" width="48" height="48" rx="24" stroke="url(#paint0_linear_2020_5828)" stroke-width="2"/>
<path d="M31.4541 16.0733C30.495 14.9461 29.9664 13.4985 29.9668 12H25.6314V29.9111C25.5979 30.8804 25.2005 31.7985 24.5226 32.472C23.8448 33.1456 22.9395 33.5221 21.9974 33.5222C20.0051 33.5222 18.3495 31.8467 18.3495 29.7667C18.3495 27.2822 20.6786 25.4189 23.0778 26.1844V21.62C18.2372 20.9556 14 24.8267 14 29.7667C14 34.5767 17.8724 38 21.9834 38C26.389 38 29.9668 34.3167 29.9668 29.7667V20.6811C31.7249 21.9809 33.8356 22.6783 36 22.6744V18.2111C36 18.2111 33.3622 18.3411 31.4541 16.0733Z" fill="white"/>
<defs>
<linearGradient id="paint0_linear_2020_5828" x1="48.1667" y1="16.2281" x2="0.348484" y2="18.5396" gradientUnits="userSpaceOnUse">
<stop stop-color="white"/>
<stop offset="1" stop-color="#CACACA" stop-opacity="0.4"/>
</linearGradient>
</defs>
</svg>
