<svg width="23" height="26" viewBox="0 0 23 26" fill="none" xmlns="http://www.w3.org/2000/svg">
<path d="M11.6687 1C8.13914 1 5.26758 3.87156 5.26758 7.40115C5.26758 10.9308 8.13914 13.8023 11.6687 13.8023C15.1983 13.8023 18.0699 10.9308 18.0699 7.40115C18.0699 3.87156 15.1983 1 11.6687 1ZM11.6687 12.3798C8.92349 12.3798 6.69006 10.1464 6.69006 7.40115C6.69006 4.65591 8.92349 2.42248 11.6687 2.42248C14.414 2.42248 16.6474 4.65591 16.6474 7.40115C16.6474 10.1464 14.414 12.3798 11.6687 12.3798Z" fill="white" stroke="white" stroke-width="0.4"/>
<path d="M19.6329 17.984C17.8804 16.2046 15.5571 15.2246 13.0911 15.2246H10.2461C7.7801 15.2246 5.45682 16.2046 3.70432 17.984C1.96041 19.7547 1 22.092 1 24.5656C1 24.9583 1.31845 25.2768 1.71124 25.2768H21.6259C22.0187 25.2768 22.3372 24.9583 22.3372 24.5656C22.3372 22.092 21.3768 19.7547 19.6329 17.984ZM2.45377 23.8543C2.8101 19.8199 6.16886 16.6471 10.2461 16.6471H13.0911C17.1683 16.6471 20.5271 19.8199 20.8834 23.8543H2.45377Z" fill="white" stroke="white" stroke-width="0.4"/>
</svg>
