<svg width="1237" height="464" viewBox="0 0 1237 464" fill="none" xmlns="http://www.w3.org/2000/svg">
<path d="M7.08564 225.357C4.69249 143.094 52.6413 67.876 127.336 33.7504C134.079 30.5709 141.827 27.7186 148.851 25.3106C152.444 24.2897 156.389 22.9337 159.959 22.0531C163.21 21.227 168.198 19.9646 171.231 19.4035L175.027 18.6631L178.823 17.9306L182.651 17.3773C189.916 16.2551 198.374 15.4213 205.741 15.2108C288.059 11.6183 365.669 58.236 402.338 131.942C403.928 135.106 405.806 139.346 407.311 142.603C410.156 149.5 413.274 157.535 415.356 164.72C416.338 168.094 417.725 172.645 418.458 176.082C420.282 183.345 421.857 191.8 422.769 199.243C424.422 210.262 424.531 224.297 424.928 235.472C425.03 237.031 425.544 242.743 425.653 244.364C426.012 247.793 426.596 251.542 427.025 254.971C433.947 298.432 456.109 338.971 488.811 368.421C511.729 388.956 539.527 404.105 569.32 411.906C572.485 412.771 576.484 413.558 579.688 414.338C582.939 414.875 586.938 415.701 590.188 416.146C592.636 416.45 598.373 417.237 600.766 417.377C602.528 417.509 606.091 417.774 607.852 417.907C610.292 418.109 615.998 418.078 618.508 418.203C621.011 418.141 626.74 418.024 629.165 417.899C630.926 417.767 634.489 417.494 636.25 417.369C638.675 417.307 644.358 416.379 646.829 416.138C650.079 415.701 654.071 414.86 657.329 414.33C713.424 402.968 762.861 366.037 789.591 315.421C791.049 312.608 793.092 308.781 794.347 305.867C796.724 300.918 799.289 294.598 801.113 289.416C802.15 286.26 803.592 282.48 804.418 279.261C806.39 272.762 808.183 265.172 809.329 258.47L809.976 254.963L810.452 251.433C811.192 246.648 811.707 240.328 812.081 235.465C812.323 227.516 812.564 214.93 813.359 207.044C813.523 204.713 813.882 201.565 814.232 199.235C814.762 194.723 815.893 188.223 816.789 183.735C817.272 181.319 817.966 178.459 818.543 176.074L819.455 172.256L820.547 168.484C842.568 89.4237 911.401 28.685 992.635 17.2214C1077.76 4.79938 1161.58 45.1983 1203.97 120.268L1205.8 123.604L1207.62 126.939C1209.01 129.924 1211.22 134.14 1212.52 137.218L1215.49 144.201C1216.01 145.354 1216.39 146.562 1216.84 147.739C1218.02 151.004 1219.63 155.103 1220.58 158.47C1227.46 179.955 1230.51 202.82 1229.93 225.349C1229.72 220.939 1229.4 214.72 1228.87 210.395C1228.62 208.205 1228.39 205.103 1228.02 202.96C1227.58 200.31 1226.79 194.45 1226.18 191.902C1204.46 79.059 1092.31 5.97612 980.708 34.2102C907.363 52.2354 849.428 113.317 835.662 187.46C835.217 190.07 834.219 195.518 833.978 198.043C833.799 199.827 833.323 203.357 833.128 205.134C832.45 211.813 832.2 223.736 832.13 230.586C832.146 232.005 832.006 235.122 831.998 236.478C831.889 238.333 831.421 244.38 831.304 246.289C830.766 251.339 830.158 256.872 829.246 261.891C820.001 319.115 785.951 371.523 737.729 403.708C735.383 405.22 730.082 408.711 727.705 410.02C726.005 411.01 722.56 412.982 720.86 413.964C714.188 417.463 706.455 421.32 699.431 424.087C696.009 425.45 691.846 427.134 688.331 428.256C686.109 428.996 683.053 430.111 680.824 430.719C678.119 431.49 672.054 433.282 669.38 433.836C667.463 434.288 663.596 435.168 661.679 435.613C659.738 435.971 655.84 436.657 653.899 437.015C651.295 437.615 644.888 438.254 642.159 438.66C638.558 439.127 633.982 439.338 630.35 439.657C627.715 439.868 621.245 439.883 618.508 440C615.687 439.922 609.388 439.805 606.667 439.649C603.019 439.345 598.475 439.112 594.858 438.652C503.201 428.653 427.664 359.942 409.197 269.637C408.433 266.099 407.779 261.602 407.124 258.01C406.656 254.207 406.103 250.069 405.736 246.289L405.175 238.442C404.816 233.314 404.793 221.126 404.645 215.819C402.034 144.279 358.325 78.4667 293.625 47.6531C192.395 -0.749244 72.2854 44.1852 25.5449 145.939C24.017 149.173 22.5905 152.906 21.1717 156.186C20.1116 159.319 18.381 163.496 17.4066 166.684L15.1849 173.791C14.7874 174.968 14.5301 176.183 14.2027 177.383C13.7818 179.121 12.7684 182.846 12.3319 184.607C11.716 187.951 10.6559 192.229 10.1258 195.588L8.98769 202.976C8.89415 203.591 8.78501 204.207 8.71486 204.823C8.38746 207.535 8.06785 211.423 7.74045 214.127C7.59234 215.367 7.58454 216.621 7.49879 217.868L7.08564 225.357Z" fill="url(#paint0_linear_2024_5920)"/>
<path d="M0.0412986 251.08C-1.87484 156.078 63.0767 71.5536 155.193 47.7637C237.729 26.367 325.217 56.864 376.408 125.061C390.413 143.71 401.452 164.863 408.612 187.071C409.755 190.448 410.867 194.864 411.908 198.304C412.326 200.225 413.28 203.988 413.706 205.901C414.384 208.278 415.433 214.844 415.945 217.395C416.584 220.929 417.033 225.424 417.546 228.998C417.901 232.887 418.216 236.776 418.484 240.673C418.697 245.758 418.887 258.385 419.249 263.313L419.833 270.634C420.188 274.169 420.787 278.011 421.221 281.553C421.56 283.34 422.206 286.985 422.537 288.772C422.861 291.401 424.39 296.888 424.927 299.51C442.558 369.352 497.953 425.127 567.754 443.32C571.026 444.217 575.142 445.02 578.454 445.831C581.805 446.382 585.937 447.24 589.289 447.697C591.031 447.925 596.795 448.649 598.38 448.83C599.689 448.948 602.536 449.121 603.861 449.24C608.04 449.688 614.277 449.688 618.512 449.822C622.746 449.712 628.983 449.641 633.163 449.232C634.543 449.137 637.318 448.909 638.643 448.822C639.25 448.767 639.857 448.673 640.464 448.602L647.735 447.689C651.086 447.24 655.21 446.374 658.569 445.823C661.881 445.036 665.997 444.193 669.269 443.32C732.77 426.741 784.932 378.846 806.735 317.033C807.799 313.782 809.274 309.893 810.117 306.571C811.781 301.171 813.413 294.33 814.47 288.772C814.817 286.969 815.448 283.356 815.787 281.553C816.252 278.003 816.796 274.169 817.175 270.634L817.758 263.321C818.16 258.488 818.286 245.727 818.523 240.681C818.957 235.572 819.193 230.218 819.974 225.133C820.486 220.662 821.598 214.183 822.481 209.719C823.191 206.137 824.279 201.87 825.107 198.304C826.077 194.896 827.323 190.448 828.403 187.071C829.082 184.969 831.447 178.136 832.322 176.042C869.88 78.8433 972.397 23.5645 1074.32 45.9531C1150.88 62.6344 1212.54 122.487 1231.12 198.391C1231.47 199.611 1231.68 200.863 1231.96 202.099L1232.76 205.822L1233.54 209.546L1234.15 213.301C1236.33 225.763 1237.1 238.484 1236.99 251.096C1236.26 210.664 1223.48 170.767 1200.61 137.846C1183.51 113.221 1161.12 92.3363 1135.21 77.2216C1132.44 75.6235 1128.04 73.1753 1125.37 71.8685L1122.03 70.2074L1118.69 68.5543C1115.38 67.1451 1111.7 65.4211 1108.4 64.138C1102.74 61.8944 1096.52 59.7452 1090.82 57.974C1087.35 57.0529 1083.47 55.88 1080.02 55.1006C1076.71 54.4315 1072.13 53.2507 1069.08 52.8256L1065.4 52.2115L1061.74 51.5896C1057.98 51.1881 1054.34 50.6528 1050.64 50.3301C1048.58 50.2041 1043.12 49.8262 1041.36 49.716C1034.55 49.5035 1027.71 49.5743 1020.92 49.8892C1016.12 50.2671 1010.94 50.6213 1006.15 51.3377C1003.63 51.692 1001.16 51.9596 998.805 52.4083C995.565 53.0302 990.81 53.8332 987.892 54.5889C986.007 55.0534 982.546 55.8721 980.685 56.3208C975.268 57.8402 968.392 59.9499 963.03 61.918C959.915 62.9965 955.822 64.7835 952.7 65.9958C950.949 66.7988 947.701 68.2866 945.974 69.0896C943.892 69.9634 938.207 73.01 936.078 74.1042C869.123 110.663 829.397 180.419 831.013 256.307C830.911 263.786 830.264 272.264 829.255 279.672C818.988 360.213 761.52 428.795 684.157 453.632C678.385 455.506 671.154 457.513 665.224 458.789L661.4 459.67L657.536 460.363C653.144 461.253 646.505 462.15 642.01 462.677C640.874 462.882 639.266 462.961 638.107 463.063C634.464 463.331 630.001 463.772 626.358 463.803L618.512 464C615.704 463.929 609.451 463.803 606.747 463.654C603.916 463.457 599.784 463.11 596.961 462.906C596.306 462.851 595.66 462.748 595.013 462.67L587.223 461.678C583.643 461.182 579.211 460.269 575.623 459.662C503.883 444.957 444.277 393.764 418.965 325.15C417.649 321.631 416.403 317.592 415.196 314.034C414.644 312.153 413.619 308.382 413.083 306.5C412.31 304.084 410.985 297.66 410.362 295.086C409.834 292.936 409.385 289.614 408.951 287.394L408.281 283.545L407.792 279.664C406.98 273.665 406.325 266.273 406.12 260.204C405.868 250.001 405.899 236.721 404.496 226.668C404.054 222.456 403.069 216.348 402.28 212.144C401.649 208.767 400.656 204.744 399.914 201.382C399.031 198.163 397.904 193.967 396.91 190.779C396.279 188.771 394.134 182.347 393.314 180.356C362.64 98.5396 283.022 46.0948 195.669 49.6688C87.5606 54.3134 1.90224 143.026 0.0412986 251.08Z" fill="url(#paint1_linear_2024_5920)"/>
<path d="M0.0412986 210.08C-1.87484 115.078 63.0767 30.5536 155.193 6.76371C237.729 -14.633 325.217 15.864 376.408 84.0611C390.413 102.71 401.452 123.863 408.612 146.071C409.755 149.448 410.867 153.864 411.908 157.304C412.326 159.225 413.28 162.988 413.706 164.901C414.384 167.278 415.433 173.844 415.945 176.395C416.584 179.929 417.033 184.424 417.546 187.998C417.901 191.887 418.216 195.776 418.484 199.673C418.697 204.758 418.887 217.385 419.249 222.313L419.833 229.634C420.188 233.169 420.787 237.011 421.221 240.553C421.56 242.34 422.206 245.985 422.537 247.772C422.861 250.401 424.39 255.888 424.927 258.51C442.558 328.352 497.953 384.127 567.754 402.32C571.026 403.217 575.142 404.02 578.454 404.831C581.805 405.382 585.937 406.24 589.289 406.697C591.031 406.925 596.795 407.649 598.38 407.83C599.689 407.948 602.536 408.121 603.861 408.24C608.04 408.688 614.277 408.688 618.512 408.822C622.746 408.712 628.983 408.641 633.163 408.232C634.543 408.137 637.318 407.909 638.643 407.822C639.25 407.767 639.857 407.673 640.464 407.602L647.735 406.689C651.086 406.24 655.21 405.374 658.569 404.823C661.881 404.036 665.997 403.193 669.269 402.32C732.77 385.741 784.932 337.846 806.735 276.033C807.799 272.782 809.274 268.893 810.117 265.571C811.781 260.171 813.413 253.33 814.47 247.772C814.817 245.969 815.448 242.356 815.787 240.553C816.252 237.003 816.796 233.169 817.175 229.634L817.758 222.321C818.16 217.488 818.286 204.727 818.523 199.681C818.957 194.572 819.193 189.218 819.974 184.133C820.486 179.662 821.598 173.183 822.481 168.719C823.191 165.137 824.279 160.87 825.107 157.304C826.077 153.896 827.323 149.448 828.403 146.071C829.082 143.969 831.447 137.136 832.322 135.042C869.88 37.8433 972.397 -17.4355 1074.32 4.9531C1150.88 21.6344 1212.54 81.4869 1231.12 157.391C1231.47 158.611 1231.68 159.863 1231.96 161.099L1232.76 164.822L1233.54 168.546L1234.15 172.301C1236.33 184.763 1237.1 197.484 1236.99 210.096C1236.26 169.664 1223.48 129.767 1200.61 96.8456C1183.51 72.2213 1161.12 51.3363 1135.21 36.2216C1132.44 34.6235 1128.04 32.1753 1125.37 30.8685L1122.03 29.2074L1118.69 27.5543C1115.38 26.1451 1111.7 24.4211 1108.4 23.138C1102.74 20.8944 1096.52 18.7452 1090.82 16.974C1087.35 16.0529 1083.47 14.88 1080.02 14.1006C1076.71 13.4315 1072.13 12.2507 1069.08 11.8256L1065.4 11.2115L1061.74 10.5896C1057.98 10.1881 1054.34 9.65282 1050.64 9.33006C1048.58 9.2041 1043.12 8.82624 1041.36 8.71602C1034.55 8.50347 1027.71 8.57432 1020.92 8.88921C1016.12 9.26708 1010.94 9.62133 1006.15 10.3377C1003.63 10.692 1001.16 10.9596 998.805 11.4083C995.565 12.0302 990.81 12.8332 987.892 13.5889C986.007 14.0534 982.546 14.8721 980.685 15.3208C975.268 16.8402 968.392 18.9499 963.03 20.918C959.915 21.9965 955.822 23.7835 952.7 24.9958C950.949 25.7988 947.701 27.2866 945.974 28.0896C943.892 28.9634 938.207 32.01 936.078 33.1042C869.123 69.6628 829.397 139.419 831.013 215.307C830.911 222.786 830.264 231.264 829.255 238.672C818.988 319.213 761.52 387.795 684.157 412.632C678.385 414.506 671.154 416.513 665.224 417.789L661.4 418.67L657.536 419.363C653.144 420.253 646.505 421.15 642.01 421.677C640.874 421.882 639.266 421.961 638.107 422.063C634.464 422.331 630.001 422.772 626.358 422.803L618.512 423C615.704 422.929 609.451 422.803 606.747 422.654C603.916 422.457 599.784 422.11 596.961 421.906C596.306 421.851 595.66 421.748 595.013 421.67L587.223 420.678C583.643 420.182 579.211 419.269 575.623 418.662C503.883 403.957 444.277 352.764 418.965 284.15C417.649 280.631 416.403 276.592 415.196 273.034C414.644 271.153 413.619 267.382 413.083 265.5C412.31 263.084 410.985 256.66 410.362 254.086C409.834 251.936 409.385 248.614 408.951 246.394L408.281 242.545L407.792 238.664C406.98 232.665 406.325 225.273 406.12 219.204C405.868 209.001 405.899 195.721 404.496 185.668C404.054 181.456 403.069 175.348 402.28 171.144C401.649 167.767 400.656 163.744 399.914 160.382C399.031 157.163 397.904 152.967 396.91 149.779C396.279 147.771 394.134 141.347 393.314 139.356C362.64 57.5396 283.022 5.0948 195.669 8.66879C87.5606 13.3134 1.90224 102.026 0.0412986 210.08Z" fill="url(#paint2_linear_2024_5920)"/>
<defs>
<linearGradient id="paint0_linear_2024_5920" x1="1132.22" y1="227.333" x2="-28" y2="295" gradientUnits="userSpaceOnUse">
<stop stop-color="white"/>
<stop offset="1" stop-color="#999999" stop-opacity="0.2"/>
</linearGradient>
<linearGradient id="paint1_linear_2024_5920" x1="36" y1="176" x2="1250" y2="354" gradientUnits="userSpaceOnUse">
<stop stop-color="white"/>
<stop offset="1" stop-color="#999999" stop-opacity="0.1"/>
</linearGradient>
<linearGradient id="paint2_linear_2024_5920" x1="36" y1="135" x2="1250" y2="313" gradientUnits="userSpaceOnUse">
<stop stop-color="#999999" stop-opacity="0.1"/>
<stop offset="1" stop-color="white"/>
</linearGradient>
</defs>
</svg>
