<svg width="50" height="50" viewBox="0 0 50 50" fill="none" xmlns="http://www.w3.org/2000/svg">
<rect x="1" y="1" width="48" height="48" rx="24" stroke="url(#paint0_linear_2020_5831)" stroke-width="2"/>
<path d="M25 13C26.2825 13 27.598 13.033 28.873 13.087L30.379 13.159L31.8205 13.2445L33.1705 13.336L34.4035 13.432C35.7418 13.5338 37.0012 14.1047 37.9599 15.0439C38.9187 15.9832 39.5152 17.2306 39.6445 18.5665L39.7045 19.204L39.817 20.569C39.922 21.9835 40 23.5255 40 25C40 26.4745 39.922 28.0165 39.817 29.431L39.7045 30.796L39.6445 31.4335C39.5152 32.7696 38.9184 34.0173 37.9594 34.9566C37.0003 35.8958 35.7405 36.4665 34.402 36.568L33.172 36.6625L31.822 36.7555L30.379 36.841L28.873 36.913C27.5827 36.9689 26.2915 36.9979 25 37C23.7085 36.9979 22.4173 36.9689 21.127 36.913L19.621 36.841L18.1795 36.7555L16.8295 36.6625L15.5965 36.568C14.2582 36.4662 12.9988 35.8953 12.0401 34.9561C11.0813 34.0168 10.4848 32.7694 10.3555 31.4335L10.2955 30.796L10.183 29.431C10.0687 27.9567 10.0077 26.4787 10 25C10 23.5255 10.078 21.9835 10.183 20.569L10.2955 19.204L10.3555 18.5665C10.4847 17.2308 11.0811 15.9836 12.0395 15.0444C12.9979 14.1051 14.257 13.5342 15.595 13.432L16.8265 13.336L18.1765 13.2445L19.6195 13.159L21.1255 13.087C22.4163 13.0311 23.708 13.0021 25 13ZM25 16C23.7625 16 22.489 16.033 21.25 16.084L19.783 16.1545L18.3745 16.237L17.0515 16.327L15.8395 16.4215C15.2023 16.4661 14.6015 16.7352 14.144 17.1809C13.6864 17.6267 13.4018 18.2202 13.3405 18.856C13.165 20.6695 13 22.927 13 25C13 27.073 13.165 29.3305 13.3405 31.144C13.468 32.452 14.506 33.469 15.8395 33.5785L17.0515 33.6715L18.3745 33.7615L19.783 33.8455L21.25 33.916C22.489 33.967 23.7625 34 25 34C26.2375 34 27.511 33.967 28.75 33.916L30.217 33.8455L31.6255 33.763L32.9485 33.673L34.1605 33.5785C34.7977 33.5339 35.3985 33.2648 35.856 32.8191C36.3136 32.3733 36.5982 31.7798 36.6595 31.144C36.835 29.3305 37 27.073 37 25C37 22.927 36.835 20.6695 36.6595 18.856C36.5982 18.2202 36.3136 17.6267 35.856 17.1809C35.3985 16.7352 34.7977 16.4661 34.1605 16.4215L32.9485 16.3285L31.6255 16.2385L30.217 16.1545L28.75 16.084C27.5007 16.0304 26.2504 16.0024 25 16ZM22 21.3625C21.9999 21.2159 22.0356 21.0715 22.104 20.9418C22.1725 20.8122 22.2715 20.7012 22.3926 20.6186C22.5137 20.5359 22.6532 20.4841 22.7988 20.4676C22.9445 20.4511 23.092 20.4705 23.2285 20.524L23.35 20.584L29.65 24.22C29.7755 24.2924 29.8816 24.394 29.9594 24.5162C30.0372 24.6383 30.0843 24.7775 30.0968 24.9218C30.1094 25.0661 30.0869 25.2113 30.0313 25.345C29.9757 25.4787 29.8886 25.5971 29.7775 25.69L29.65 25.78L23.35 29.4175C23.223 29.491 23.08 29.5324 22.9334 29.538C22.7868 29.5436 22.6411 29.5133 22.5089 29.4497C22.3767 29.3861 22.262 29.2912 22.1749 29.1731C22.0878 29.0551 22.0308 28.9176 22.009 28.7725L22 28.6375V21.3625Z" fill="white"/>
<defs>
<linearGradient id="paint0_linear_2020_5831" x1="48.1667" y1="16.2281" x2="0.348484" y2="18.5396" gradientUnits="userSpaceOnUse">
<stop stop-color="white"/>
<stop offset="1" stop-color="#CACACA" stop-opacity="0.4"/>
</linearGradient>
</defs>
</svg>
